<svg width="609" height="411" viewBox="0 0 609 411" fill="none" xmlns="http://www.w3.org/2000/svg">
<g clip-path="url(#clip0_12178_96635)">
<rect x="141.728" y="10.9564" width="360" height="219" rx="23.5" transform="rotate(40 141.728 10.9564)" fill="url(#paint0_linear_12178_96635)"/>
<rect x="141.728" y="10.9564" width="360" height="219" rx="23.5" transform="rotate(40 141.728 10.9564)" stroke="#C1C9BF"/>
<path d="M138.5 61.4621C137.365 60.5099 136.571 59.403 136.117 58.1414C135.684 56.878 135.596 55.5791 135.854 54.2448C136.133 52.9087 136.772 51.6452 137.771 50.4543C138.771 49.2633 139.899 48.4202 141.157 47.925C142.436 47.4279 143.73 47.2886 145.04 47.5072C146.36 47.7145 147.587 48.2942 148.722 49.2464C149.486 49.8875 150.087 50.6313 150.525 51.4778C150.973 52.3131 151.253 53.1891 151.364 54.1059C151.487 55.0321 151.42 55.9333 151.163 56.8094L148.769 56.0351C148.925 55.4385 148.966 54.8311 148.891 54.213C148.836 53.5931 148.666 53.0095 148.378 52.462C148.091 51.9146 147.706 51.4382 147.223 51.0328C146.481 50.4106 145.663 50.0397 144.767 49.9203C143.883 49.8102 142.999 49.9396 142.115 50.3084C141.252 50.6755 140.467 51.2803 139.76 52.1229C139.053 52.9656 138.589 53.8494 138.368 54.7745C138.158 55.709 138.19 56.6067 138.463 57.4677C138.747 58.3381 139.266 59.0892 140.019 59.7208C140.513 60.1356 141.054 60.4266 141.641 60.5939C142.249 60.7593 142.867 60.8093 143.497 60.7438C144.137 60.6878 144.752 60.5143 145.341 60.2234L146.519 62.447C145.682 62.8742 144.788 63.1294 143.838 63.2125C142.897 63.2845 141.966 63.1733 141.045 62.8791C140.123 62.5849 139.275 62.1126 138.5 61.4621ZM150.397 63.4609C151.161 62.5509 151.962 61.9499 152.8 61.6579C153.639 61.3659 154.451 61.3104 155.237 61.4915C156.044 61.6708 156.751 62.0149 157.358 62.524L155.845 64.3273C155.328 63.8936 154.778 63.5565 154.195 63.3161C153.632 63.0738 153.078 62.9921 152.534 63.071C151.989 63.1499 151.499 63.4478 151.066 63.9646L150.397 63.4609ZM145.388 66.8974L152.459 58.4709L154.347 60.0547L147.276 68.4812L145.388 66.8974ZM149.844 76.7246C149.574 76.4984 149.314 76.1933 149.061 75.8093C148.82 75.4348 148.614 75.0416 148.443 74.6298L150.438 73.6901C150.566 73.9704 150.697 74.214 150.829 74.421C150.953 74.6393 151.07 74.7955 151.183 74.8898C151.452 75.1161 151.738 75.2316 152.041 75.2364C152.345 75.2618 152.666 75.1868 153.005 75.0115L155.951 73.5201L164.766 68.798L166.822 70.5233L155.092 76.5622C154.404 76.9035 153.766 77.1727 153.18 77.3698C152.605 77.5762 152.048 77.6354 151.509 77.5472C150.961 77.4702 150.406 77.196 149.844 76.7246ZM154.342 74.4104L157.638 62.8162L159.694 64.5415L156.673 74.0972L156.162 75.9377L154.342 74.4104ZM158.131 83.3338L168.03 71.5367L169.8 73.0215L168.617 74.671L160.019 84.9176L158.131 83.3338ZM165.34 83.9836C164.632 83.3896 164.171 82.6961 163.956 81.9029C163.761 81.1079 163.807 80.2658 164.094 79.3767C164.38 78.4875 164.896 77.5991 165.641 76.7115C166.395 75.8127 167.18 75.1506 167.997 74.7252C168.823 74.2886 169.639 74.1026 170.447 74.1674C171.275 74.2303 172.042 74.5587 172.75 75.1526C173.514 75.7937 174.022 76.5353 174.272 77.3774C174.544 78.2178 174.558 79.1014 174.317 80.0282C174.096 80.9533 173.608 81.8652 172.854 82.764C172.109 83.6516 171.296 84.2902 170.414 84.6796C169.543 85.0786 168.665 85.223 167.781 85.113C166.918 85.0011 166.104 84.6246 165.34 83.9836ZM166.311 81.8686C166.76 82.2457 167.253 82.468 167.79 82.5356C168.336 82.5919 168.88 82.5027 169.422 82.2679C169.975 82.0425 170.473 81.6658 170.916 81.1378C171.359 80.6097 171.649 80.0586 171.786 79.4844C171.935 78.9197 171.929 78.3789 171.769 77.8619C171.609 77.3449 171.299 76.8932 170.839 76.5067C170.412 76.1484 169.935 75.9402 169.41 75.8821C168.884 75.824 168.356 75.917 167.826 76.1612C167.307 76.4149 166.826 76.8057 166.382 77.3338C165.939 77.8618 165.638 78.4035 165.478 78.9588C165.33 79.5236 165.32 80.0606 165.448 80.5699C165.596 81.0775 165.884 81.5104 166.311 81.8686ZM174.115 91.3467C173.228 90.6019 172.732 89.8124 172.627 88.9783C172.544 88.1424 172.851 87.3087 173.549 86.4773L180.831 77.798L182.702 79.3677L175.716 87.6931C175.386 88.0863 175.226 88.4594 175.236 88.8125C175.258 89.175 175.448 89.5071 175.808 89.8088C175.92 89.9031 176.062 89.9843 176.235 90.0525C176.408 90.1207 176.63 90.1637 176.902 90.1815L176.391 92.1938C175.929 92.1509 175.51 92.0575 175.133 91.9135C174.747 91.7807 174.407 91.5918 174.115 91.3467ZM175.869 80.8712L177.227 79.2533L182.771 83.9058L181.414 85.5237L175.869 80.8712ZM181.155 97.2538C180.312 96.5467 179.715 95.7297 179.363 94.8027C179.032 93.8739 178.959 92.9225 179.145 91.9485C179.33 90.9745 179.786 90.055 180.512 89.1898C181.238 88.3247 182.059 87.7116 182.974 87.3503C183.901 86.9986 184.846 86.9107 185.809 87.0867C186.781 87.2515 187.689 87.6875 188.531 88.3945C189.374 89.1016 189.961 89.9195 190.292 90.8483C190.633 91.7659 190.704 92.707 190.508 93.6715C190.322 94.6455 189.867 95.5651 189.141 96.4302C188.415 97.2953 187.594 97.9085 186.678 98.2697C185.762 98.6309 184.818 98.7291 183.846 98.5643C182.883 98.3882 181.986 97.9514 181.155 97.2538ZM182.612 95.5179C183.072 95.9044 183.577 96.1362 184.125 96.2132C184.682 96.2789 185.227 96.2 185.759 95.9765C186.301 95.7417 186.793 95.3603 187.236 94.8322C187.679 94.3042 187.959 93.754 188.076 93.1816C188.213 92.6074 188.196 92.0571 188.025 91.5308C187.863 90.9931 187.547 90.5263 187.075 90.1304C186.603 89.7344 186.093 89.498 185.545 89.421C184.997 89.344 184.452 89.4229 183.91 89.6577C183.369 89.8925 182.876 90.2739 182.433 90.8019C181.99 91.33 181.7 91.8811 181.563 92.4553C181.446 93.0276 181.469 93.5826 181.63 94.1203C181.813 94.6561 182.14 95.122 182.612 95.5179ZM190.43 104.692L200.427 102.052L208.62 99.8521L210.946 101.804L201.304 104.224L192.789 106.671L190.43 104.692ZM198.738 111.663L199.686 102.867L200.379 92.937L202.722 94.9026L201.978 103.353L201.098 113.643L198.738 111.663ZM209.802 113.796L211.173 112.161L216.229 116.403L214.858 118.038L209.802 113.796ZM220.173 129.649L228.573 119.639L224.95 116.598L226.449 114.812L235.65 122.533L234.151 124.319L230.528 121.279L222.128 131.29L220.173 129.649ZM231.337 131.378C232.101 130.468 232.902 129.867 233.741 129.575C234.579 129.283 235.392 129.227 236.178 129.409C236.985 129.588 237.691 129.932 238.298 130.441L236.785 132.244C236.268 131.811 235.718 131.474 235.135 131.233C234.572 130.991 234.019 130.909 233.474 130.988C232.929 131.067 232.44 131.365 232.006 131.882L231.337 131.378ZM226.329 134.814L233.399 126.388L235.287 127.972L228.216 136.398L226.329 134.814ZM236.04 143.307C235.219 142.619 234.645 141.821 234.315 140.913C234.007 140.003 233.945 139.061 234.131 138.087C234.327 137.122 234.789 136.208 235.515 135.342C236.24 134.477 237.067 133.869 237.994 133.517C238.921 133.165 239.86 133.073 240.812 133.239C241.784 133.404 242.686 133.835 243.517 134.533C244.27 135.165 244.785 135.932 245.061 136.834C245.348 137.725 245.358 138.682 245.094 139.704C244.841 140.736 244.29 141.758 243.441 142.769L236.818 137.212L237.269 137.188C236.835 137.705 236.57 138.248 236.475 138.819C236.388 139.378 236.445 139.915 236.647 140.428C236.848 140.941 237.173 141.386 237.622 141.764C238.139 142.197 238.66 142.443 239.186 142.501C239.721 142.548 240.24 142.466 240.742 142.256L241.816 144.364C241.203 144.615 240.57 144.754 239.916 144.78C239.274 144.815 238.624 144.711 237.968 144.466C237.323 144.231 236.68 143.845 236.04 143.307ZM238.207 136.309L238.135 135.847L242.888 139.835L242.437 139.859C242.824 139.398 243.038 138.937 243.081 138.475C243.133 138.002 243.064 137.561 242.872 137.15C242.7 136.739 242.446 136.391 242.109 136.109C241.772 135.826 241.369 135.621 240.9 135.496C240.44 135.359 239.971 135.348 239.491 135.463C239.022 135.567 238.593 135.849 238.207 136.309ZM241.733 147.74L248.804 139.314L250.574 140.799L249.391 142.448L243.621 149.324L241.733 147.74ZM247.447 152.534L251.067 148.22L252.954 149.804L249.334 154.118L247.447 152.534ZM251.067 148.22C251.632 147.546 251.987 146.963 252.132 146.472C252.297 145.978 252.3 145.541 252.142 145.159C251.995 144.787 251.736 144.445 251.365 144.134C250.745 143.595 250.082 143.392 249.376 143.527C248.669 143.662 247.981 144.128 247.312 144.926L246.604 144.332C247.349 143.444 248.114 142.794 248.901 142.382C249.696 141.958 250.473 141.786 251.229 141.866C251.995 141.934 252.709 142.246 253.372 142.803C254.046 143.368 254.506 143.984 254.752 144.65C255.009 145.325 255.02 146.052 254.787 146.833C254.574 147.611 254.086 148.456 253.322 149.366L252.954 149.804L251.067 148.22ZM257.33 160.828L258.561 159.19L267.145 148.96L269.015 150.529L259.116 162.327L257.33 160.828ZM254.413 158.725C253.649 158.084 253.132 157.343 252.86 156.503C252.61 155.661 252.6 154.771 252.83 153.835C253.072 152.908 253.565 152.001 254.31 151.113C255.064 150.215 255.872 149.571 256.733 149.184C257.615 148.794 258.488 148.655 259.351 148.767C260.235 148.877 261.059 149.253 261.823 149.894C262.531 150.488 262.982 151.182 263.177 151.977C263.392 152.77 263.356 153.612 263.07 154.501C262.793 155.379 262.277 156.267 261.523 157.166C260.778 158.053 259.993 158.716 259.167 159.152C258.341 159.589 257.514 159.776 256.686 159.713C255.879 159.648 255.121 159.319 254.413 158.725ZM256.328 157.402C256.755 157.76 257.225 157.963 257.74 158.012C258.275 158.059 258.802 157.956 259.321 157.702C259.851 157.458 260.338 157.072 260.781 156.544C261.224 156.016 261.52 155.469 261.668 154.904C261.828 154.349 261.834 153.818 261.685 153.31C261.548 152.812 261.26 152.379 260.822 152.012C260.372 151.634 259.879 151.412 259.342 151.345C258.806 151.277 258.266 151.361 257.725 151.595C257.194 151.84 256.702 152.221 256.248 152.74C255.816 153.277 255.526 153.828 255.377 154.393C255.24 154.967 255.247 155.518 255.397 156.047C255.568 156.573 255.878 157.025 256.328 157.402Z" fill="#48654D"/>
<path fill-rule="evenodd" clip-rule="evenodd" d="M369.459 255.505C369.377 256.176 369.854 256.792 370.529 256.814C372.4 256.874 374.268 256.547 376.014 255.849C378.139 254.998 380.015 253.625 381.468 251.856C382.921 250.087 383.904 247.98 384.325 245.73C384.671 243.881 384.629 241.986 384.206 240.163C384.054 239.504 383.357 239.156 382.715 239.367C382.073 239.578 381.731 240.269 381.871 240.93C382.172 242.358 382.191 243.837 381.921 245.28C381.575 247.125 380.77 248.853 379.578 250.303C378.387 251.754 376.848 252.88 375.105 253.577C373.742 254.122 372.288 254.391 370.828 254.373C370.152 254.365 369.541 254.835 369.459 255.505ZM367.869 251.109C367.805 251.629 368.175 252.107 368.698 252.124C370.149 252.17 371.597 251.917 372.951 251.375C374.6 250.716 376.055 249.651 377.181 248.279C378.308 246.908 379.07 245.273 379.397 243.529C379.665 242.095 379.632 240.625 379.305 239.211C379.186 238.701 378.646 238.431 378.148 238.594C377.651 238.758 377.385 239.294 377.493 239.806C377.727 240.914 377.742 242.06 377.532 243.18C377.264 244.61 376.639 245.95 375.715 247.075C374.792 248.2 373.598 249.073 372.247 249.614C371.19 250.037 370.062 250.245 368.93 250.231C368.406 250.225 367.932 250.589 367.869 251.109ZM367.248 247.749C366.876 247.737 366.613 247.397 366.659 247.028C366.704 246.659 367.041 246.4 367.413 246.405C368.217 246.415 369.018 246.266 369.769 245.966C370.729 245.582 371.576 244.962 372.233 244.163C372.889 243.364 373.333 242.412 373.523 241.396C373.672 240.601 373.661 239.786 373.495 238.999C373.419 238.635 373.607 238.255 373.961 238.139C374.314 238.022 374.698 238.214 374.782 238.577C375.015 239.581 375.038 240.625 374.847 241.643C374.615 242.883 374.074 244.044 373.274 245.018C372.473 245.992 371.44 246.749 370.269 247.217C369.307 247.602 368.279 247.782 367.248 247.749Z" fill="#48654D"/>
<g opacity="0.7">
<rect x="107.096" y="85.6768" width="54" height="38" rx="8" transform="rotate(40 107.096 85.6768)" fill="url(#paint1_linear_12178_96635)"/>
<path fill-rule="evenodd" clip-rule="evenodd" d="M97.1326 97.5502L112.453 110.406L113.096 109.64L97.7754 96.7842L97.1326 97.5502ZM91.9903 103.679L107.311 116.534L107.954 115.768L92.6331 102.913L91.9903 103.679Z" fill="#04210E"/>
<path fill-rule="evenodd" clip-rule="evenodd" d="M116.948 125.274L123.376 117.614C125.506 115.075 125.175 111.291 122.637 109.161C120.098 107.031 116.314 107.362 114.184 109.9L107.756 117.561C105.626 120.099 105.957 123.884 108.495 126.014C111.034 128.144 114.818 127.812 116.948 125.274ZM123.279 108.395C120.318 105.91 115.902 106.296 113.417 109.257L106.99 116.918C104.505 119.879 104.891 124.295 107.852 126.78C110.814 129.265 115.229 128.878 117.714 125.917L124.142 118.256C126.627 115.295 126.241 110.88 123.279 108.395Z" fill="#04210E"/>
<path fill-rule="evenodd" clip-rule="evenodd" d="M123.178 119.405L138.498 132.261L139.141 131.495L123.82 118.639L123.178 119.405ZM118.035 125.534L133.356 138.389L133.999 137.623L118.678 124.768L118.035 125.534Z" fill="#04210E"/>
</g>
<path d="M54.8279 150.167L60.2273 143.733L64.1893 147.057L63.3717 148.032L60.4761 145.602L59.0414 147.312L61.5969 149.456L60.7947 150.412L58.2392 148.268L56.7119 150.088L59.6351 152.541L58.8175 153.515L54.8279 150.167ZM60.2501 154.717L65.6495 148.282L66.7158 149.177L61.3164 155.612L60.2501 154.717ZM64.8662 158.778C64.5291 158.496 64.2531 158.196 64.038 157.88C63.8291 157.569 63.6765 157.253 63.5803 156.932C63.4902 156.616 63.4467 156.313 63.4497 156.023C63.464 155.733 63.5233 155.469 63.6275 155.233L64.9455 155.79C64.8349 156.084 64.824 156.414 64.9129 156.781C65.0018 157.148 65.2153 157.479 65.5533 157.773C65.9517 158.107 66.3367 158.289 66.7084 158.319C67.0801 158.349 67.3791 158.229 67.6054 157.96C67.8111 157.714 67.8801 157.433 67.8126 157.115C67.7502 156.791 67.5895 156.448 67.3306 156.084L66.7097 155.219C66.4763 154.887 66.3013 154.542 66.1847 154.183C66.0742 153.829 66.0462 153.477 66.1007 153.125C66.1613 152.779 66.3253 152.447 66.5927 152.128C67.0966 151.528 67.6835 151.227 68.3534 151.225C69.0285 151.217 69.7306 151.519 70.4599 152.131C70.8705 152.475 71.175 152.841 71.3735 153.226C71.5832 153.611 71.6966 153.999 71.7137 154.389C71.7359 154.773 71.6804 155.144 71.547 155.502L70.2398 154.969C70.3536 154.647 70.3639 154.311 70.2709 153.962C70.1778 153.612 69.9628 153.296 69.6257 153.013C69.2764 152.72 68.9312 152.571 68.5901 152.567C68.2552 152.568 67.9643 152.715 67.7174 153.01C67.5169 153.249 67.4367 153.5 67.4767 153.763C67.5281 154.026 67.6603 154.304 67.8734 154.597L68.502 155.454C68.9597 156.078 69.204 156.695 69.2347 157.306C69.2654 157.917 69.1059 158.43 68.7562 158.847C68.4477 159.215 68.0863 159.465 67.672 159.598C67.2578 159.73 66.8091 159.73 66.3261 159.596C65.8492 159.468 65.3626 159.195 64.8662 158.778ZM72.7572 165.212L78.1567 158.777L79.223 159.672L73.8236 166.107L72.7572 165.212ZM68.4551 161.602L73.8546 155.167L74.9209 156.062L69.5215 162.497L68.4551 161.602ZM71.652 159.491L72.4696 158.517L76.3672 161.787L75.5496 162.762L71.652 159.491ZM79.8079 171.128L82.6978 162.588L83.7641 163.482L80.9386 172.077L79.8079 171.128ZM74.6693 166.816L82.6334 162.534L83.709 163.436L75.8 167.765L74.6693 166.816ZM77.2002 166.246L77.9947 165.299L81.8464 168.531L81.0519 169.478L77.2002 166.246ZM86.2145 173.34L87.0366 171.93L93.0066 171.238L94.3762 172.387L86.2145 173.34ZM83.9945 174.641L89.3939 168.206L90.4418 169.086L85.0424 175.52L83.9945 174.641ZM87.7726 177.811L87.9263 172.364L89.2277 172.343L89.0871 178.914L87.7726 177.811ZM94.2125 183.215L99.6119 176.78L100.678 177.675L95.2788 184.11L94.2125 183.215ZM89.9104 179.605L95.3098 173.17L96.3761 174.065L90.9767 180.5L89.9104 179.605ZM93.1072 177.494L93.9248 176.52L97.8225 179.79L97.0048 180.765L93.1072 177.494ZM101.263 189.131L104.153 180.591L105.219 181.485L102.394 190.08L101.263 189.131ZM96.1245 184.819L104.089 180.537L105.164 181.439L97.2552 185.768L96.1245 184.819ZM98.6555 184.249L99.4499 183.302L103.302 186.534L102.507 187.481L98.6555 184.249ZM103.232 190.784L108.632 184.349L109.735 185.274L109.251 192.795L113.155 188.144L114.221 189.039L108.821 195.473L107.755 194.579L108.248 186.972L104.299 191.678L103.232 190.784ZM110.351 196.757L115.751 190.322L116.854 191.248L116.37 198.769L120.273 194.117L121.34 195.012L115.94 201.447L114.874 200.552L115.367 192.945L111.418 197.652L110.351 196.757ZM121.928 206.471L124.818 197.931L125.885 198.826L123.059 207.42L121.928 206.471ZM116.79 202.16L124.754 197.877L125.829 198.779L117.92 203.108L116.79 202.16ZM119.321 201.589L120.115 200.642L123.967 203.874L123.172 204.821L119.321 201.589Z" fill="#48654D"/>
<path d="M129.292 212.65L134.213 206.785L134.792 206.3L135.721 207.079L130.321 213.514L129.292 212.65ZM131.713 206.927L132.523 205.962C132.658 206.086 132.851 206.18 133.101 206.244C133.362 206.306 133.643 206.338 133.944 206.34C134.245 206.342 134.53 206.326 134.8 206.291L134.883 207.536C134.479 207.583 134.08 207.603 133.688 207.598C133.295 207.592 132.93 207.536 132.591 207.43C132.259 207.328 131.966 207.161 131.713 206.927ZM131.764 214.725L132.451 213.906C132.61 213.716 132.824 213.561 133.091 213.442C133.364 213.315 133.677 213.223 134.029 213.164C134.388 213.109 134.767 213.093 135.167 213.115L136.967 213.247C137.19 213.267 137.414 213.262 137.638 213.231C137.869 213.205 138.08 213.153 138.272 213.073C138.469 212.988 138.626 212.875 138.745 212.734C138.894 212.556 138.984 212.355 139.016 212.131C139.053 211.912 139.025 211.69 138.932 211.465C138.845 211.246 138.684 211.039 138.452 210.843C138.243 210.668 138.02 210.554 137.783 210.501C137.557 210.447 137.335 210.444 137.118 210.491C136.9 210.539 136.703 210.624 136.527 210.747L135.602 209.627C135.911 209.385 136.268 209.22 136.675 209.133C137.093 209.045 137.523 209.056 137.964 209.165C138.411 209.279 138.837 209.506 139.242 209.846C139.695 210.226 140.018 210.638 140.21 211.081C140.408 211.529 140.473 211.975 140.404 212.418C140.346 212.861 140.16 213.269 139.846 213.643C139.528 214.023 139.135 214.278 138.67 214.41C138.216 214.541 137.689 214.589 137.09 214.557L135.42 214.456C135.095 214.433 134.795 214.454 134.523 214.517C134.255 214.575 134.017 214.678 133.809 214.827L136.851 217.38L136.057 218.327L131.764 214.725ZM136.009 219.603L144.956 214.092L145.958 214.933L137.03 220.459L136.009 219.603ZM140.831 222.333L141.517 221.514C141.677 221.324 141.89 221.169 142.158 221.05C142.431 220.923 142.744 220.831 143.096 220.772C143.455 220.717 143.834 220.701 144.233 220.723L146.034 220.855C146.257 220.875 146.481 220.87 146.705 220.839C146.936 220.813 147.147 220.761 147.339 220.681C147.536 220.596 147.693 220.483 147.812 220.342C147.961 220.164 148.051 219.963 148.083 219.739C148.12 219.52 148.092 219.298 147.999 219.073C147.911 218.854 147.751 218.647 147.518 218.451C147.31 218.276 147.087 218.162 146.85 218.109C146.623 218.055 146.402 218.052 146.184 218.099C145.967 218.147 145.77 218.232 145.594 218.355L144.669 217.235C144.977 216.993 145.335 216.828 145.742 216.741C146.16 216.653 146.59 216.664 147.031 216.773C147.478 216.887 147.904 217.114 148.308 217.454C148.762 217.834 149.085 218.246 149.277 218.689C149.475 219.137 149.54 219.583 149.47 220.026C149.413 220.469 149.227 220.877 148.913 221.251C148.594 221.631 148.202 221.886 147.737 222.018C147.283 222.149 146.756 222.197 146.157 222.165L144.487 222.064C144.161 222.041 143.862 222.062 143.59 222.125C143.322 222.183 143.084 222.286 142.876 222.435L145.918 224.988L145.124 225.935L140.831 222.333ZM148.178 228.685C147.896 228.449 147.644 228.164 147.422 227.832C147.211 227.498 147.057 227.139 146.961 226.756C146.87 226.366 146.876 225.98 146.979 225.596L148.219 226.041C148.188 226.402 148.236 226.724 148.363 227.008C148.495 227.286 148.675 227.52 148.902 227.711C149.263 228.014 149.647 228.154 150.054 228.129C150.466 228.099 150.824 227.903 151.127 227.541C151.42 227.192 151.551 226.811 151.521 226.4C151.491 225.988 151.298 225.633 150.942 225.334C150.734 225.16 150.499 225.041 150.238 224.979C149.984 224.921 149.753 224.916 149.547 224.962L148.759 223.941L152.033 220.767L155.591 223.752L154.781 224.718L152.143 222.504L150.493 224.096C150.741 224.137 150.989 224.215 151.238 224.329C151.498 224.443 151.741 224.595 151.968 224.785C152.335 225.093 152.594 225.457 152.744 225.875C152.895 226.294 152.929 226.725 152.849 227.169C152.774 227.607 152.574 228.02 152.25 228.406C151.89 228.835 151.476 229.129 151.007 229.289C150.545 229.455 150.068 229.488 149.577 229.389C149.085 229.29 148.619 229.056 148.178 228.685Z" fill="#48654D"/>
<path d="M36.4362 176.508L43.9221 167.587L44.6594 166.96L45.859 167.967L37.7599 177.619L36.4362 176.508ZM40.1881 167.696L41.2179 166.469C41.4124 166.648 41.7008 166.78 42.0831 166.866C42.4746 166.96 42.9008 167.012 43.3617 167.023C43.8226 167.033 44.259 167.008 44.671 166.946L44.7485 168.562C44.1582 168.631 43.5812 168.656 43.0174 168.637C42.4536 168.618 41.9269 168.536 41.4372 168.392C40.9568 168.255 40.5404 168.023 40.1881 167.696ZM40.0353 179.528L40.9493 178.439C41.1884 178.154 41.4996 177.914 41.8829 177.718C42.283 177.521 42.7344 177.375 43.2372 177.28C43.7491 177.193 44.2877 177.167 44.853 177.203L47.8715 177.386C48.2233 177.415 48.5713 177.401 48.9157 177.346C49.277 177.289 49.6007 177.192 49.8869 177.056C50.1901 176.919 50.4342 176.74 50.6194 176.52C50.8662 176.225 51.0163 175.897 51.0698 175.535C51.131 175.163 51.0861 174.796 50.9353 174.435C50.7921 174.064 50.5366 173.724 50.1689 173.416C49.8196 173.123 49.4538 172.933 49.0715 172.848C48.7062 172.76 48.3436 172.754 47.9838 172.828C47.624 172.902 47.3032 173.032 47.0214 173.219L45.8486 171.788C46.3045 171.45 46.8338 171.221 47.4365 171.1C48.0392 170.979 48.663 171.001 49.3077 171.166C49.9602 171.322 50.576 171.643 51.1551 172.129C51.817 172.684 52.2828 173.286 52.5525 173.936C52.8392 174.583 52.9345 175.235 52.8386 175.891C52.7503 176.538 52.4748 177.137 52.012 177.688C51.5646 178.221 51.0049 178.59 50.3328 178.793C49.6698 179.005 48.8898 179.094 47.9926 179.062L45.1814 178.912C44.6253 178.884 44.1304 178.923 43.6968 179.029C43.2724 179.143 42.906 179.337 42.5978 179.611L47.2998 183.556L46.2816 184.769L40.0353 179.528ZM50.658 188.724C50.1616 188.307 49.7728 187.856 49.4918 187.369C49.2107 186.883 49.0403 186.395 48.9805 185.906C48.9207 185.417 48.9445 184.96 49.052 184.533L50.6753 184.979C50.6592 185.184 50.6507 185.428 50.6497 185.709C50.6565 185.981 50.7285 186.269 50.8658 186.572C51.003 186.875 51.2417 187.169 51.5818 187.455C52.161 187.94 52.7594 188.161 53.3772 188.115C54.0042 188.077 54.5299 187.806 54.9541 187.3C55.2703 186.923 55.4353 186.521 55.4491 186.094C55.4705 185.658 55.3415 185.205 55.0619 184.735C54.7915 184.273 54.3759 183.807 53.8152 183.337L53.4705 183.047L54.3267 182.027L54.6438 182.293C55.2138 182.771 55.6837 183.275 56.0538 183.805C56.433 184.343 56.6984 184.894 56.8502 185.46C57.0096 186.017 57.04 186.56 56.9414 187.088C56.8429 187.616 56.6007 188.11 56.2151 188.57C55.7368 189.14 55.1694 189.517 54.5127 189.702C53.8729 189.886 53.213 189.888 52.5329 189.709C51.8621 189.538 51.2371 189.21 50.658 188.724ZM53.6093 182.882L54.4308 181.903L54.7755 182.192C55.5293 182.825 56.2256 183.19 56.8645 183.287C57.5033 183.385 58.0194 183.199 58.4128 182.73C58.6365 182.463 58.7635 182.163 58.7938 181.828C58.841 181.492 58.79 181.151 58.6406 180.806C58.5081 180.46 58.2672 180.141 57.9178 179.848C57.6972 179.662 57.4503 179.518 57.1772 179.414C56.921 179.309 56.6477 179.252 56.3573 179.243C56.0747 179.225 55.7803 179.268 55.4742 179.371L54.7716 177.912C55.2133 177.703 55.6769 177.599 56.1624 177.599C56.6479 177.599 57.1331 177.693 57.618 177.881C58.1029 178.068 58.5567 178.339 58.9796 178.694C59.5587 179.18 59.981 179.722 60.2463 180.321C60.5116 180.92 60.6109 181.52 60.5444 182.122C60.487 182.732 60.2539 183.28 59.8451 183.767C59.498 184.181 59.0883 184.464 58.6161 184.616C58.1608 184.767 57.6659 184.806 57.1315 184.733C56.6048 184.651 56.0653 184.473 55.5131 184.198C54.9701 183.93 54.4367 183.576 53.9127 183.137L53.6093 182.882ZM59.5785 195.927L61.4413 193.707L56.9876 189.97L57.8785 188.908L67.5811 186.194L68.9876 187.374L63.7579 193.606L65.6469 195.192L64.6403 196.391L62.7513 194.806L60.8885 197.026L59.5785 195.927ZM59.4833 190.02L62.4479 192.507L66.0925 188.164L59.4833 190.02ZM69.4674 204.225L76.9533 195.303L77.6906 194.677L78.8902 195.683L70.7911 205.335L69.4674 204.225ZM73.2193 195.413L74.2491 194.185C74.4436 194.364 74.732 194.497 75.1143 194.583C75.5058 194.676 75.9319 194.728 76.3928 194.739C76.8537 194.75 77.2902 194.724 77.7022 194.663L77.7796 196.279C77.1894 196.347 76.6124 196.372 76.0486 196.353C75.4848 196.335 74.958 196.253 74.4684 196.108C73.988 195.971 73.5716 195.74 73.2193 195.413ZM73.0665 207.245L73.9805 206.155C74.2196 205.87 74.5308 205.63 74.914 205.435C75.3142 205.238 75.7656 205.092 76.2684 204.997C76.7803 204.909 77.3189 204.884 77.8842 204.919L80.9027 205.102C81.2545 205.131 81.6025 205.118 81.9469 205.062C82.3081 205.005 82.6319 204.909 82.9181 204.773C83.2213 204.636 83.4654 204.457 83.6505 204.236C83.8974 203.942 84.0475 203.614 84.101 203.251C84.1622 202.88 84.1173 202.513 83.9664 202.151C83.8233 201.781 83.5678 201.441 83.2001 201.132C82.8508 200.839 82.485 200.65 82.1027 200.564C81.7373 200.477 81.3748 200.47 81.015 200.544C80.6552 200.618 80.3344 200.749 80.0526 200.935L78.8798 199.504C79.3357 199.166 79.865 198.937 80.4677 198.816C81.0704 198.695 81.6941 198.717 82.3389 198.882C82.9914 199.038 83.6072 199.359 84.1863 199.845C84.8481 200.4 85.314 201.003 85.5837 201.652C85.8704 202.3 85.9657 202.952 85.8698 203.607C85.7815 204.254 85.506 204.853 85.0432 205.405C84.5958 205.938 84.0361 206.306 83.3639 206.51C82.701 206.721 81.921 206.811 81.0238 206.778L78.2126 206.628C77.6565 206.6 77.1616 206.639 76.728 206.745C76.3035 206.859 75.9372 207.053 75.629 207.327L80.331 211.272L79.3128 212.486L73.0665 207.245ZM83.6891 216.44C83.1927 216.023 82.804 215.572 82.5229 215.086C82.2419 214.599 82.0715 214.111 82.0117 213.623C81.9519 213.134 81.9757 212.676 82.0832 212.249L83.7064 212.695C83.6904 212.901 83.6819 213.144 83.6809 213.425C83.6877 213.697 83.7597 213.985 83.8969 214.288C84.0342 214.591 84.2729 214.886 84.613 215.171C85.1921 215.657 85.7906 215.877 86.4084 215.832C87.0354 215.794 87.561 215.522 87.9853 215.016C88.3015 214.64 88.4665 214.238 88.4803 213.81C88.5017 213.374 88.3727 212.921 88.0931 212.452C87.8227 211.99 87.4071 211.524 86.8464 211.053L86.5017 210.764L87.3579 209.744L87.675 210.01C88.2449 210.488 88.7149 210.992 89.0849 211.522C89.4642 212.059 89.7296 212.611 89.8813 213.177C90.0408 213.734 90.0712 214.276 89.9726 214.804C89.874 215.332 89.6319 215.826 89.2462 216.286C88.768 216.856 88.2005 217.234 87.5438 217.419C86.9041 217.602 86.2441 217.605 85.5641 217.426C84.8932 217.255 84.2683 216.926 83.6891 216.44ZM86.6405 210.598L87.462 209.619L87.8067 209.909C88.5605 210.541 89.2568 210.906 89.8956 211.004C90.5345 211.101 91.0506 210.915 91.444 210.447C91.6677 210.18 91.7947 209.879 91.825 209.544C91.8722 209.208 91.8211 208.868 91.6717 208.523C91.5392 208.177 91.2983 207.857 90.949 207.564C90.7284 207.379 90.4815 207.234 90.2084 207.13C89.9522 207.025 89.6789 206.968 89.3885 206.959C89.1059 206.942 88.8115 206.984 88.5054 207.088L87.8028 205.629C88.2445 205.42 88.7081 205.315 89.1936 205.316C89.6791 205.316 90.1643 205.41 90.6492 205.597C91.1341 205.785 91.5879 206.056 92.0108 206.411C92.5899 206.897 93.0121 207.439 93.2774 208.037C93.5428 208.636 93.6421 209.236 93.5755 209.838C93.5182 210.448 93.2851 210.997 92.8763 211.484C92.5292 211.898 92.1195 212.18 91.6473 212.332C91.192 212.483 90.6971 212.522 90.1627 212.45C89.636 212.368 89.0965 212.189 88.5443 211.914C88.0013 211.646 87.4678 211.293 86.9439 210.853L86.6405 210.598ZM92.6097 223.643L94.4725 221.423L90.0187 217.686L90.9096 216.624L100.612 213.91L102.019 215.09L96.7891 221.323L98.6781 222.908L97.6715 224.108L95.7824 222.522L93.9196 224.742L92.6097 223.643ZM92.5145 217.736L95.4791 220.224L99.1237 215.88L92.5145 217.736ZM102.499 231.941L109.984 223.02L110.722 222.393L111.921 223.4L103.822 233.052L102.499 231.941ZM106.251 223.129L107.28 221.902C107.475 222.081 107.763 222.213 108.145 222.299C108.537 222.392 108.963 222.445 109.424 222.455C109.885 222.466 110.321 222.441 110.733 222.379L110.811 223.995C110.221 224.064 109.644 224.089 109.08 224.07C108.516 224.051 107.989 223.969 107.5 223.825C107.019 223.688 106.603 223.456 106.251 223.129ZM106.098 234.961L107.012 233.872C107.251 233.587 107.562 233.347 107.945 233.151C108.345 232.954 108.797 232.808 109.3 232.713C109.811 232.626 110.35 232.6 110.915 232.636L113.934 232.819C114.286 232.848 114.634 232.834 114.978 232.779C115.339 232.721 115.663 232.625 115.949 232.489C116.252 232.352 116.497 232.173 116.682 231.952C116.929 231.658 117.079 231.33 117.132 230.968C117.193 230.596 117.148 230.229 116.998 229.868C116.854 229.497 116.599 229.157 116.231 228.849C115.882 228.556 115.516 228.366 115.134 228.28C114.769 228.193 114.406 228.187 114.046 228.261C113.686 228.335 113.366 228.465 113.084 228.651L111.911 227.221C112.367 226.883 112.896 226.653 113.499 226.533C114.102 226.412 114.725 226.434 115.37 226.599C116.023 226.755 116.638 227.076 117.217 227.562C117.879 228.117 118.345 228.719 118.615 229.369C118.902 230.016 118.997 230.668 118.901 231.324C118.813 231.97 118.537 232.569 118.074 233.121C117.627 233.654 117.067 234.023 116.395 234.226C115.732 234.438 114.952 234.527 114.055 234.495L111.244 234.345C110.688 234.317 110.193 234.356 109.759 234.462C109.335 234.576 108.968 234.769 108.66 235.043L113.362 238.989L112.344 240.202L106.098 234.961ZM116.72 244.156C116.224 243.74 115.835 243.288 115.554 242.802C115.273 242.315 115.103 241.828 115.043 241.339C114.983 240.85 115.007 240.392 115.114 239.966L116.738 240.411C116.722 240.617 116.713 240.861 116.712 241.142C116.719 241.414 116.791 241.701 116.928 242.005C117.065 242.308 117.304 242.602 117.644 242.887C118.223 243.373 118.822 243.594 119.44 243.548C120.067 243.51 120.592 243.239 121.016 242.733C121.333 242.356 121.498 241.954 121.511 241.527C121.533 241.091 121.404 240.638 121.124 240.168C120.854 239.706 120.438 239.24 119.878 238.77L119.533 238.48L120.389 237.46L120.706 237.726C121.276 238.204 121.746 238.708 122.116 239.238C122.495 239.776 122.761 240.327 122.913 240.893C123.072 241.45 123.102 241.993 123.004 242.521C122.905 243.049 122.663 243.543 122.277 244.002C121.799 244.572 121.232 244.95 120.575 245.135C119.935 245.319 119.275 245.321 118.595 245.142C117.924 244.971 117.299 244.642 116.72 244.156ZM119.672 238.315L120.493 237.336L120.838 237.625C121.592 238.258 122.288 238.623 122.927 238.72C123.566 238.817 124.082 238.632 124.475 238.163C124.699 237.896 124.826 237.596 124.856 237.261C124.903 236.924 124.852 236.584 124.703 236.239C124.57 235.893 124.33 235.574 123.98 235.28C123.76 235.095 123.513 234.951 123.24 234.847C122.983 234.742 122.71 234.685 122.42 234.676C122.137 234.658 121.843 234.701 121.537 234.804L120.834 233.345C121.276 233.136 121.739 233.032 122.225 233.032C122.71 233.032 123.195 233.126 123.68 233.314C124.165 233.501 124.619 233.772 125.042 234.127C125.621 234.613 126.043 235.155 126.309 235.754C126.574 236.352 126.673 236.953 126.607 237.555C126.549 238.165 126.316 238.713 125.907 239.2C125.56 239.614 125.151 239.897 124.678 240.049C124.223 240.199 123.728 240.238 123.194 240.166C122.667 240.084 122.128 239.906 121.575 239.63C121.032 239.363 120.499 239.009 119.975 238.569L119.672 238.315ZM125.641 251.36L127.504 249.14L123.05 245.403L123.941 244.341L133.643 241.627L135.05 242.807L129.82 249.039L131.709 250.624L130.703 251.824L128.814 250.239L126.951 252.459L125.641 251.36ZM125.546 245.453L128.51 247.94L132.155 243.597L125.546 245.453ZM135.53 259.657L143.016 250.736L143.753 250.109L144.953 251.116L136.853 260.768L135.53 259.657ZM139.282 250.846L140.311 249.618C140.506 249.797 140.794 249.93 141.177 250.015C141.568 250.109 141.994 250.161 142.455 250.172C142.916 250.183 143.353 250.157 143.765 250.096L143.842 251.711C143.252 251.78 142.675 251.805 142.111 251.786C141.547 251.767 141.02 251.686 140.531 251.541C140.05 251.404 139.634 251.173 139.282 250.846ZM139.129 262.677L140.043 261.588C140.282 261.303 140.593 261.063 140.976 260.868C141.377 260.671 141.828 260.525 142.331 260.43C142.843 260.342 143.381 260.317 143.947 260.352L146.965 260.535C147.317 260.564 147.665 260.551 148.009 260.495C148.37 260.438 148.694 260.341 148.98 260.206C149.284 260.068 149.528 259.89 149.713 259.669C149.96 259.375 150.11 259.046 150.163 258.684C150.225 258.312 150.18 257.946 150.029 257.584C149.886 257.213 149.63 256.874 149.262 256.565C148.913 256.272 148.547 256.083 148.165 255.997C147.8 255.91 147.437 255.903 147.077 255.977C146.718 256.051 146.397 256.181 146.115 256.368L144.942 254.937C145.398 254.599 145.927 254.37 146.53 254.249C147.133 254.128 147.757 254.15 148.401 254.315C149.054 254.471 149.67 254.792 150.249 255.278C150.911 255.833 151.376 256.436 151.646 257.085C151.933 257.733 152.028 258.385 151.932 259.04C151.844 259.687 151.568 260.286 151.106 260.837C150.658 261.371 150.098 261.739 149.426 261.943C148.763 262.154 147.983 262.243 147.086 262.211L144.275 262.061C143.719 262.033 143.224 262.072 142.79 262.178C142.366 262.292 142 262.486 141.691 262.76L146.393 266.705L145.375 267.919L139.129 262.677ZM149.751 271.873C149.255 271.456 148.866 271.005 148.585 270.518C148.304 270.032 148.134 269.544 148.074 269.056C148.014 268.567 148.038 268.109 148.146 267.682L149.769 268.128C149.753 268.334 149.744 268.577 149.743 268.858C149.75 269.13 149.822 269.418 149.959 269.721C150.097 270.024 150.335 270.318 150.675 270.604C151.254 271.09 151.853 271.31 152.471 271.264C153.098 271.227 153.623 270.955 154.048 270.449C154.364 270.072 154.529 269.67 154.543 269.243C154.564 268.807 154.435 268.354 154.155 267.885C153.885 267.423 153.469 266.957 152.909 266.486L152.564 266.197L153.42 265.176L153.737 265.443C154.307 265.921 154.777 266.425 155.147 266.955C155.527 267.492 155.792 268.044 155.944 268.61C156.103 269.166 156.134 269.709 156.035 270.237C155.936 270.765 155.694 271.259 155.309 271.719C154.83 272.289 154.263 272.666 153.606 272.852C152.966 273.035 152.306 273.038 151.626 272.859C150.956 272.687 150.331 272.359 149.751 271.873ZM152.703 266.031L153.524 265.052L153.869 265.342C154.623 265.974 155.319 266.339 155.958 266.436C156.597 266.534 157.113 266.348 157.506 265.879C157.73 265.613 157.857 265.312 157.887 264.977C157.935 264.641 157.883 264.3 157.734 263.956C157.602 263.61 157.361 263.29 157.011 262.997C156.791 262.812 156.544 262.667 156.271 262.563C156.015 262.458 155.741 262.401 155.451 262.392C155.168 262.375 154.874 262.417 154.568 262.521L153.865 261.062C154.307 260.853 154.77 260.748 155.256 260.748C155.741 260.749 156.227 260.842 156.712 261.03C157.196 261.218 157.65 261.489 158.073 261.844C158.652 262.329 159.074 262.872 159.34 263.47C159.605 264.069 159.704 264.669 159.638 265.271C159.581 265.881 159.347 266.43 158.939 266.917C158.592 267.33 158.182 267.613 157.71 267.765C157.254 267.916 156.759 267.955 156.225 267.882C155.698 267.801 155.159 267.622 154.607 267.347C154.064 267.079 153.53 266.726 153.006 266.286L152.703 266.031ZM158.672 279.076L160.535 276.856L156.081 273.119L156.972 272.057L166.675 269.343L168.081 270.523L162.851 276.756L164.74 278.341L163.734 279.54L161.845 277.955L159.982 280.175L158.672 279.076ZM158.577 273.169L161.541 275.657L165.186 271.313L158.577 273.169Z" fill="#48654D"/>
<rect x="331.728" y="0.956369" width="360" height="219" rx="23.5" transform="rotate(40 331.728 0.956369)" fill="url(#paint2_linear_12178_96635)"/>
<rect x="331.728" y="0.956369" width="360" height="219" rx="23.5" transform="rotate(40 331.728 0.956369)" stroke="#C1C9BF"/>
<path d="M328.5 51.4621C327.365 50.5099 326.571 49.403 326.117 48.1414C325.684 46.878 325.596 45.5791 325.854 44.2448C326.133 42.9087 326.772 41.6452 327.771 40.4543C328.771 39.2633 329.899 38.4202 331.157 37.925C332.436 37.4279 333.73 37.2886 335.04 37.5072C336.36 37.7145 337.587 38.2942 338.722 39.2464C339.486 39.8875 340.087 40.6313 340.525 41.4778C340.973 42.3131 341.253 43.1891 341.364 44.1059C341.487 45.0321 341.42 45.9333 341.163 46.8094L338.769 46.0351C338.925 45.4385 338.966 44.8311 338.891 44.213C338.836 43.5931 338.666 43.0095 338.378 42.462C338.091 41.9146 337.706 41.4382 337.223 41.0328C336.481 40.4106 335.663 40.0397 334.767 39.9203C333.883 39.8102 332.999 39.9396 332.115 40.3084C331.252 40.6755 330.467 41.2803 329.76 42.1229C329.053 42.9656 328.589 43.8494 328.368 44.7745C328.158 45.709 328.19 46.6067 328.463 47.4677C328.747 48.3381 329.266 49.0892 330.019 49.7208C330.513 50.1356 331.054 50.4266 331.641 50.5939C332.249 50.7593 332.867 50.8093 333.497 50.7438C334.137 50.6878 334.752 50.5143 335.341 50.2234L336.519 52.447C335.682 52.8742 334.788 53.1294 333.838 53.2125C332.897 53.2845 331.966 53.1733 331.045 52.8791C330.123 52.5849 329.275 52.1126 328.5 51.4621ZM340.397 53.4609C341.161 52.5509 341.962 51.9499 342.8 51.6579C343.639 51.3659 344.451 51.3104 345.237 51.4915C346.044 51.6708 346.751 52.0149 347.358 52.524L345.845 54.3273C345.328 53.8936 344.778 53.5565 344.195 53.3161C343.632 53.0738 343.078 52.9921 342.534 53.071C341.989 53.1499 341.499 53.4478 341.066 53.9646L340.397 53.4609ZM335.388 56.8974L342.459 48.4709L344.347 50.0547L337.276 58.4812L335.388 56.8974ZM339.844 66.7246C339.574 66.4984 339.314 66.1933 339.061 65.8093C338.82 65.4348 338.614 65.0416 338.443 64.6298L340.438 63.6901C340.566 63.9704 340.697 64.214 340.829 64.421C340.953 64.6393 341.07 64.7955 341.183 64.8898C341.452 65.1161 341.738 65.2316 342.041 65.2364C342.345 65.2618 342.666 65.1868 343.005 65.0115L345.951 63.5201L354.766 58.798L356.822 60.5233L345.092 66.5622C344.404 66.9035 343.766 67.1727 343.18 67.3698C342.605 67.5762 342.048 67.6354 341.509 67.5472C340.961 67.4702 340.406 67.196 339.844 66.7246ZM344.342 64.4104L347.638 52.8162L349.694 54.5415L346.673 64.0972L346.162 65.9377L344.342 64.4104ZM348.131 73.3338L358.03 61.5367L359.8 63.0215L358.617 64.671L350.019 74.9176L348.131 73.3338ZM355.34 73.9836C354.632 73.3896 354.171 72.6961 353.956 71.9029C353.761 71.1079 353.807 70.2658 354.094 69.3767C354.38 68.4875 354.896 67.5991 355.641 66.7115C356.395 65.8127 357.18 65.1506 357.997 64.7252C358.823 64.2886 359.639 64.1026 360.447 64.1674C361.275 64.2303 362.042 64.5587 362.75 65.1526C363.514 65.7937 364.022 66.5353 364.272 67.3774C364.544 68.2178 364.558 69.1014 364.317 70.0282C364.096 70.9533 363.608 71.8652 362.854 72.764C362.109 73.6516 361.296 74.2902 360.414 74.6796C359.543 75.0786 358.665 75.223 357.781 75.113C356.918 75.0011 356.104 74.6246 355.34 73.9836ZM356.311 71.8686C356.76 72.2457 357.253 72.468 357.79 72.5356C358.336 72.5919 358.88 72.5027 359.422 72.2679C359.975 72.0425 360.473 71.6658 360.916 71.1378C361.359 70.6097 361.649 70.0586 361.786 69.4844C361.935 68.9197 361.929 68.3789 361.769 67.8619C361.609 67.3449 361.299 66.8932 360.839 66.5067C360.412 66.1484 359.935 65.9402 359.41 65.8821C358.884 65.824 358.356 65.917 357.826 66.1612C357.307 66.4149 356.826 66.8057 356.382 67.3338C355.939 67.8618 355.638 68.4035 355.478 68.9588C355.33 69.5236 355.32 70.0606 355.448 70.5699C355.596 71.0775 355.884 71.5104 356.311 71.8686ZM364.115 81.3467C363.228 80.6019 362.732 79.8124 362.627 78.9783C362.544 78.1424 362.851 77.3087 363.549 76.4773L370.831 67.798L372.702 69.3677L365.716 77.6931C365.386 78.0863 365.226 78.4594 365.236 78.8125C365.258 79.175 365.448 79.5071 365.808 79.8088C365.92 79.9031 366.062 79.9843 366.235 80.0525C366.408 80.1207 366.63 80.1637 366.902 80.1815L366.391 82.1938C365.929 82.1509 365.51 82.0575 365.133 81.9135C364.747 81.7807 364.407 81.5918 364.115 81.3467ZM365.869 70.8712L367.227 69.2533L372.771 73.9058L371.414 75.5237L365.869 70.8712ZM371.155 87.2538C370.312 86.5467 369.715 85.7297 369.363 84.8027C369.032 83.8739 368.959 82.9225 369.145 81.9485C369.33 80.9745 369.786 80.055 370.512 79.1898C371.238 78.3247 372.059 77.7116 372.974 77.3503C373.901 76.9986 374.846 76.9107 375.809 77.0867C376.781 77.2515 377.689 77.6875 378.531 78.3945C379.374 79.1016 379.961 79.9195 380.292 80.8483C380.633 81.7659 380.704 82.707 380.508 83.6715C380.322 84.6455 379.867 85.5651 379.141 86.4302C378.415 87.2953 377.594 87.9085 376.678 88.2697C375.762 88.6309 374.818 88.7291 373.846 88.5643C372.883 88.3882 371.986 87.9514 371.155 87.2538ZM372.612 85.5179C373.072 85.9044 373.577 86.1362 374.125 86.2132C374.682 86.2789 375.227 86.2 375.759 85.9765C376.301 85.7417 376.793 85.3603 377.236 84.8322C377.679 84.3042 377.959 83.754 378.076 83.1816C378.213 82.6074 378.196 82.0571 378.025 81.5308C377.863 80.9931 377.547 80.5263 377.075 80.1304C376.603 79.7344 376.093 79.498 375.545 79.421C374.997 79.344 374.452 79.4229 373.91 79.6577C373.369 79.8925 372.876 80.2739 372.433 80.8019C371.99 81.33 371.7 81.8811 371.563 82.4553C371.446 83.0276 371.469 83.5826 371.63 84.1203C371.813 84.6561 372.14 85.122 372.612 85.5179ZM380.43 94.6916L390.427 92.0524L398.62 89.8521L400.946 91.8036L391.304 94.2243L382.789 96.6714L380.43 94.6916ZM388.738 101.663L389.686 92.8667L390.379 82.937L392.722 84.9026L391.978 93.3534L391.098 103.643L388.738 101.663ZM399.802 103.796L401.173 102.161L406.229 106.403L404.858 108.038L399.802 103.796ZM407.729 117.599L417.628 105.802L421.791 109.295C422.6 109.973 423.177 110.735 423.521 111.579C423.866 112.424 423.967 113.284 423.825 114.161C423.693 115.026 423.306 115.84 422.665 116.604C422.043 117.346 421.324 117.872 420.507 118.183C419.691 118.494 418.85 118.573 417.983 118.419C417.136 118.265 416.331 117.866 415.567 117.225L413.107 115.161L409.684 119.239L407.729 117.599ZM414.62 113.357L417.047 115.394C417.608 115.865 418.229 116.061 418.909 115.98C419.589 115.9 420.184 115.557 420.693 114.95C421.212 114.332 421.429 113.662 421.345 112.941C421.261 112.22 420.899 111.59 420.258 111.053L418.084 109.229L414.62 113.357ZM417.382 125.698L427.281 113.901L429.168 115.485L419.27 127.282L417.382 125.698ZM426.505 133.353L427.75 131.698L430.055 128.951C430.536 128.378 430.875 127.849 431.072 127.363C431.289 126.876 431.348 126.418 431.248 125.989C431.169 125.559 430.91 125.16 430.472 124.792C430.068 124.453 429.643 124.24 429.198 124.154C428.753 124.068 428.273 124.115 427.758 124.296L426.616 122.303C427.107 122.083 427.63 121.939 428.186 121.869C428.763 121.798 429.356 121.855 429.966 122.041C430.587 122.237 431.217 122.603 431.858 123.141C432.678 123.829 433.227 124.567 433.504 125.355C433.79 126.131 433.813 126.926 433.572 127.738C433.342 128.56 432.873 129.392 432.166 130.235L428.241 134.81L426.505 133.353ZM423.908 131.519C422.897 130.671 422.299 129.786 422.115 128.865C421.941 127.954 422.199 127.088 422.887 126.268C423.622 125.392 424.475 124.968 425.446 124.998C426.428 125.037 427.447 125.499 428.503 126.386L430.762 128.281L429.545 129.73L427.894 128.344C427.141 127.712 426.523 127.376 426.041 127.335C425.568 127.283 425.171 127.448 424.851 127.83C424.577 128.155 424.49 128.522 424.588 128.93C424.706 129.336 425.002 129.737 425.474 130.133C425.901 130.491 426.352 130.707 426.826 130.78C427.301 130.853 427.755 130.803 428.187 130.63C428.631 130.466 429.018 130.187 429.348 129.794L429.904 130.261C428.943 131.407 427.953 132.118 426.936 132.394C425.929 132.659 424.92 132.368 423.908 131.519ZM433.387 139.473C432.499 138.728 432.003 137.938 431.899 137.104C431.816 136.268 432.123 135.435 432.82 134.603L440.103 125.924L441.974 127.494L434.988 135.819C434.658 136.212 434.498 136.585 434.508 136.938C434.529 137.301 434.72 137.633 435.079 137.935C435.192 138.029 435.334 138.11 435.507 138.178C435.679 138.247 435.902 138.29 436.174 138.307L435.663 140.32C435.201 140.277 434.782 140.183 434.405 140.039C434.018 139.907 433.679 139.718 433.387 139.473ZM435.141 128.997L436.498 127.379L442.043 132.032L440.685 133.65L435.141 128.997ZM436.937 142.107L444.008 133.68L445.878 135.25L438.808 143.676L436.937 142.107ZM446.295 132.871C445.991 132.617 445.817 132.288 445.771 131.886C445.746 131.482 445.861 131.129 446.116 130.825C446.37 130.522 446.694 130.353 447.086 130.319C447.49 130.294 447.844 130.409 448.147 130.663C448.451 130.918 448.619 131.241 448.654 131.634C448.699 132.036 448.595 132.389 448.34 132.692C448.086 132.995 447.752 133.165 447.339 133.201C446.946 133.236 446.598 133.126 446.295 132.871ZM441.032 145.543L448.103 137.117L449.872 138.601L448.689 140.251L442.92 147.127L441.032 145.543ZM446.745 150.337L450.365 146.023L452.253 147.606L448.633 151.921L446.745 150.337ZM450.365 146.023C450.931 145.348 451.286 144.766 451.431 144.274C451.596 143.781 451.599 143.343 451.441 142.962C451.294 142.589 451.035 142.248 450.664 141.936C450.044 141.397 449.381 141.195 448.674 141.33C447.968 141.464 447.28 141.931 446.611 142.728L445.903 142.134C446.648 141.247 447.413 140.597 448.199 140.184C448.995 139.761 449.771 139.589 450.528 139.668C451.294 139.737 452.008 140.049 452.671 140.605C453.345 141.171 453.805 141.786 454.051 142.452C454.308 143.127 454.319 143.855 454.086 144.635C453.873 145.414 453.384 146.258 452.621 147.168L452.253 147.606L450.365 146.023ZM456.191 158.263L457.391 156.627L463.16 149.751L465.031 151.321L457.96 159.747L456.191 158.263ZM453.81 149.257L457.43 144.943L459.318 146.527L455.698 150.841L453.81 149.257ZM455.698 150.841C455.141 151.504 454.786 152.087 454.632 152.59C454.479 153.093 454.475 153.53 454.622 153.902C454.781 154.284 455.04 154.626 455.399 154.928C456.03 155.476 456.699 155.683 457.405 155.548C458.112 155.414 458.8 154.948 459.469 154.15L460.177 154.744C459.432 155.631 458.656 156.282 457.849 156.696C457.063 157.109 456.287 157.281 455.521 157.212C454.776 157.142 454.066 156.824 453.392 156.259C452.729 155.702 452.269 155.087 452.012 154.412C451.767 153.746 451.755 153.018 451.977 152.229C452.2 151.439 452.688 150.594 453.442 149.696L453.81 149.257L455.698 150.841ZM460.058 161.507L467.128 153.081L468.898 154.566L468.035 155.765C468.661 155.544 469.27 155.491 469.863 155.605C470.456 155.72 471.011 155.994 471.528 156.428C472.202 156.994 472.648 157.626 472.865 158.325C473.083 159.025 473.039 159.773 472.734 160.57C473.481 160.182 474.211 160.019 474.924 160.082C475.637 160.144 476.297 160.43 476.904 160.939C477.882 161.759 478.37 162.706 478.371 163.778C478.38 164.839 477.837 166.011 476.742 167.293L472.697 172.113L470.827 170.544L474.447 166.229C475.012 165.555 475.373 164.977 475.529 164.495C475.694 164.002 475.714 163.578 475.589 163.225C475.465 162.871 475.24 162.558 474.914 162.284C474.339 161.783 473.709 161.609 473.025 161.763C472.353 161.926 471.681 162.406 471.012 163.204L467.321 167.602L465.434 166.018L469.054 161.704C469.62 161.03 469.98 160.452 470.136 159.97C470.312 159.486 470.338 159.067 470.213 158.714C470.089 158.36 469.863 158.047 469.538 157.773C468.963 157.272 468.333 157.098 467.649 157.251C466.976 157.414 466.305 157.895 465.636 158.692L461.945 163.091L460.058 161.507Z" fill="#48654D"/>
<path fill-rule="evenodd" clip-rule="evenodd" d="M559.459 245.505C559.377 246.176 559.854 246.792 560.529 246.814C562.4 246.874 564.268 246.547 566.014 245.849C568.139 244.998 570.015 243.625 571.468 241.856C572.921 240.087 573.904 237.98 574.325 235.73C574.671 233.881 574.629 231.986 574.206 230.163C574.054 229.504 573.357 229.156 572.715 229.367C572.073 229.578 571.731 230.269 571.871 230.93C572.172 232.358 572.191 233.837 571.921 235.28C571.575 237.125 570.77 238.853 569.578 240.303C568.387 241.754 566.848 242.88 565.105 243.577C563.742 244.122 562.288 244.391 560.828 244.373C560.152 244.365 559.541 244.835 559.459 245.505ZM557.869 241.109C557.805 241.629 558.175 242.107 558.698 242.124C560.149 242.17 561.597 241.917 562.951 241.375C564.6 240.716 566.055 239.651 567.181 238.279C568.308 236.908 569.07 235.273 569.397 233.529C569.665 232.095 569.632 230.625 569.305 229.211C569.186 228.701 568.646 228.431 568.148 228.594C567.651 228.758 567.385 229.294 567.493 229.806C567.727 230.914 567.742 232.06 567.532 233.18C567.264 234.61 566.639 235.95 565.715 237.075C564.792 238.2 563.598 239.073 562.247 239.614C561.19 240.037 560.062 240.245 558.93 240.231C558.406 240.225 557.932 240.589 557.869 241.109ZM557.248 237.749C556.876 237.737 556.613 237.397 556.659 237.028C556.704 236.659 557.041 236.4 557.413 236.405C558.217 236.415 559.018 236.266 559.769 235.966C560.729 235.582 561.576 234.962 562.233 234.163C562.889 233.364 563.333 232.412 563.523 231.396C563.672 230.601 563.661 229.786 563.495 228.999C563.419 228.635 563.607 228.255 563.961 228.139C564.314 228.022 564.698 228.214 564.782 228.577C565.015 229.581 565.038 230.625 564.847 231.643C564.615 232.883 564.074 234.044 563.274 235.018C562.473 235.992 561.44 236.749 560.269 237.217C559.307 237.602 558.279 237.782 557.248 237.749Z" fill="#48654D"/>
<g opacity="0.7">
<rect x="297.096" y="75.6768" width="54" height="38" rx="8" transform="rotate(40 297.096 75.6768)" fill="url(#paint3_linear_12178_96635)"/>
<path fill-rule="evenodd" clip-rule="evenodd" d="M287.133 87.5502L302.453 100.406L303.096 99.6399L287.775 86.7842L287.133 87.5502ZM281.99 93.6786L297.311 106.534L297.954 105.768L282.633 92.9125L281.99 93.6786Z" fill="#04210E"/>
<path fill-rule="evenodd" clip-rule="evenodd" d="M306.948 115.274L313.376 107.614C315.506 105.075 315.175 101.291 312.637 99.1606C310.098 97.0306 306.314 97.3617 304.184 99.9001L297.756 107.561C295.626 110.099 295.957 113.884 298.495 116.014C301.034 118.144 304.818 117.812 306.948 115.274ZM313.279 98.3945C310.318 95.9095 305.902 96.2958 303.417 99.2573L296.99 106.918C294.505 109.879 294.891 114.295 297.852 116.78C300.814 119.265 305.229 118.878 307.714 115.917L314.142 108.256C316.627 105.295 316.241 100.88 313.279 98.3945Z" fill="#04210E"/>
<path fill-rule="evenodd" clip-rule="evenodd" d="M313.178 109.405L328.498 122.261L329.141 121.495L313.82 108.639L313.178 109.405ZM308.035 115.534L323.356 128.389L323.999 127.623L308.678 114.768L308.035 115.534Z" fill="#04210E"/>
</g>
<path d="M244.828 140.167L250.227 133.733L254.189 137.057L253.372 138.032L250.476 135.602L249.041 137.312L251.597 139.456L250.795 140.412L248.239 138.268L246.712 140.088L249.635 142.541L248.817 143.515L244.828 140.167ZM250.25 144.717L255.65 138.282L256.716 139.177L251.316 145.612L250.25 144.717ZM254.866 148.778C254.529 148.496 254.253 148.196 254.038 147.88C253.829 147.569 253.677 147.253 253.58 146.932C253.49 146.616 253.447 146.313 253.45 146.023C253.464 145.733 253.523 145.469 253.628 145.233L254.945 145.79C254.835 146.084 254.824 146.414 254.913 146.781C255.002 147.148 255.215 147.479 255.553 147.773C255.952 148.107 256.337 148.289 256.708 148.319C257.08 148.349 257.379 148.229 257.605 147.96C257.811 147.714 257.88 147.433 257.813 147.115C257.75 146.791 257.59 146.448 257.331 146.084L256.71 145.219C256.476 144.887 256.301 144.542 256.185 144.183C256.074 143.829 256.046 143.477 256.101 143.125C256.161 142.779 256.325 142.447 256.593 142.128C257.097 141.528 257.684 141.227 258.353 141.225C259.028 141.217 259.731 141.519 260.46 142.131C260.871 142.475 261.175 142.841 261.373 143.226C261.583 143.611 261.697 143.999 261.714 144.389C261.736 144.773 261.68 145.144 261.547 145.502L260.24 144.969C260.354 144.647 260.364 144.311 260.271 143.962C260.178 143.612 259.963 143.296 259.626 143.013C259.276 142.72 258.931 142.571 258.59 142.567C258.255 142.568 257.964 142.715 257.717 143.01C257.517 143.249 257.437 143.5 257.477 143.763C257.528 144.026 257.66 144.304 257.873 144.597L258.502 145.454C258.96 146.078 259.204 146.695 259.235 147.306C259.265 147.917 259.106 148.43 258.756 148.847C258.448 149.215 258.086 149.465 257.672 149.598C257.258 149.73 256.809 149.73 256.326 149.596C255.849 149.468 255.363 149.195 254.866 148.778ZM262.757 155.212L268.157 148.777L269.223 149.672L263.824 156.107L262.757 155.212ZM258.455 151.602L263.855 145.167L264.921 146.062L259.521 152.497L258.455 151.602ZM261.652 149.491L262.47 148.517L266.367 151.787L265.55 152.762L261.652 149.491ZM269.808 161.128L272.698 152.588L273.764 153.482L270.939 162.077L269.808 161.128ZM264.669 156.816L272.633 152.534L273.709 153.436L265.8 157.765L264.669 156.816ZM267.2 156.246L267.995 155.299L271.846 158.531L271.052 159.478L267.2 156.246ZM276.214 163.34L277.037 161.93L283.007 161.238L284.376 162.387L276.214 163.34ZM273.994 164.641L279.394 158.206L280.442 159.086L275.042 165.52L273.994 164.641ZM277.773 167.811L277.926 162.364L279.228 162.343L279.087 168.914L277.773 167.811ZM284.212 173.215L289.612 166.78L290.678 167.675L285.279 174.11L284.212 173.215ZM279.91 169.605L285.31 163.17L286.376 164.065L280.977 170.5L279.91 169.605ZM283.107 167.494L283.925 166.52L287.822 169.79L287.005 170.765L283.107 167.494ZM291.263 179.131L294.153 170.591L295.219 171.485L292.394 180.08L291.263 179.131ZM286.125 174.819L294.089 170.537L295.164 171.439L287.255 175.768L286.125 174.819ZM288.655 174.249L289.45 173.302L293.302 176.534L292.507 177.481L288.655 174.249ZM293.232 180.784L298.632 174.349L299.735 175.274L299.251 182.795L303.155 178.144L304.221 179.039L298.821 185.473L297.755 184.579L298.248 176.972L294.299 181.678L293.232 180.784ZM300.351 186.757L305.751 180.322L306.854 181.248L306.37 188.769L310.273 184.117L311.34 185.012L305.94 191.447L304.874 190.552L305.367 182.945L301.418 187.652L300.351 186.757ZM311.928 196.471L314.818 187.931L315.885 188.826L313.059 197.42L311.928 196.471ZM306.79 192.16L314.754 187.877L315.829 188.779L307.92 193.108L306.79 192.16ZM309.321 191.589L310.115 190.642L313.967 193.874L313.172 194.821L309.321 191.589Z" fill="#48654D"/>
<path d="M319.292 202.65L324.213 196.785L324.792 196.3L325.721 197.079L320.321 203.514L319.292 202.65ZM321.713 196.927L322.523 195.962C322.658 196.086 322.851 196.18 323.101 196.244C323.362 196.306 323.643 196.338 323.944 196.34C324.245 196.342 324.53 196.326 324.8 196.291L324.883 197.536C324.479 197.583 324.08 197.603 323.688 197.598C323.295 197.592 322.93 197.536 322.591 197.43C322.259 197.328 321.966 197.161 321.713 196.927ZM321.764 204.725L322.451 203.906C322.61 203.716 322.824 203.561 323.091 203.442C323.364 203.315 323.677 203.223 324.029 203.164C324.388 203.109 324.767 203.093 325.167 203.115L326.967 203.247C327.19 203.267 327.414 203.262 327.638 203.231C327.869 203.205 328.08 203.153 328.272 203.073C328.469 202.988 328.626 202.875 328.745 202.734C328.894 202.556 328.984 202.355 329.016 202.131C329.053 201.912 329.025 201.69 328.932 201.465C328.845 201.246 328.684 201.039 328.452 200.843C328.243 200.668 328.02 200.554 327.783 200.501C327.557 200.447 327.335 200.444 327.118 200.491C326.9 200.539 326.703 200.624 326.527 200.747L325.602 199.627C325.911 199.385 326.268 199.22 326.675 199.133C327.093 199.045 327.523 199.056 327.964 199.165C328.411 199.279 328.837 199.506 329.242 199.846C329.695 200.226 330.018 200.638 330.21 201.081C330.408 201.529 330.473 201.975 330.404 202.418C330.346 202.861 330.16 203.269 329.846 203.643C329.528 204.023 329.135 204.278 328.67 204.41C328.216 204.541 327.689 204.589 327.09 204.557L325.42 204.456C325.095 204.433 324.795 204.454 324.523 204.517C324.255 204.575 324.017 204.678 323.809 204.827L326.851 207.38L326.057 208.327L321.764 204.725ZM326.009 209.603L334.956 204.092L335.958 204.933L327.03 210.459L326.009 209.603ZM330.831 212.333L331.517 211.514C331.677 211.324 331.89 211.169 332.158 211.05C332.431 210.923 332.744 210.831 333.096 210.772C333.455 210.717 333.834 210.701 334.233 210.723L336.034 210.855C336.257 210.875 336.481 210.87 336.705 210.839C336.936 210.813 337.147 210.761 337.339 210.681C337.536 210.596 337.693 210.483 337.812 210.342C337.961 210.164 338.051 209.963 338.083 209.739C338.12 209.52 338.092 209.298 337.999 209.073C337.911 208.854 337.751 208.647 337.518 208.451C337.31 208.276 337.087 208.162 336.85 208.109C336.623 208.055 336.402 208.052 336.184 208.099C335.967 208.147 335.77 208.232 335.594 208.355L334.669 207.235C334.977 206.993 335.335 206.828 335.742 206.741C336.16 206.653 336.59 206.664 337.031 206.773C337.478 206.887 337.904 207.114 338.308 207.454C338.762 207.834 339.085 208.246 339.277 208.689C339.475 209.137 339.54 209.583 339.47 210.026C339.413 210.469 339.227 210.877 338.913 211.251C338.594 211.631 338.202 211.886 337.737 212.018C337.283 212.149 336.756 212.197 336.157 212.165L334.487 212.064C334.161 212.041 333.862 212.062 333.59 212.125C333.322 212.183 333.084 212.286 332.876 212.435L335.918 214.988L335.124 215.935L330.831 212.333ZM338.178 218.685C337.896 218.449 337.644 218.164 337.422 217.832C337.211 217.498 337.057 217.139 336.961 216.756C336.87 216.366 336.876 215.98 336.979 215.596L338.219 216.041C338.188 216.402 338.236 216.724 338.363 217.008C338.495 217.286 338.675 217.52 338.902 217.711C339.263 218.014 339.647 218.154 340.054 218.129C340.466 218.099 340.824 217.903 341.127 217.541C341.42 217.192 341.551 216.811 341.521 216.4C341.491 215.988 341.298 215.633 340.942 215.334C340.734 215.16 340.499 215.041 340.238 214.979C339.984 214.921 339.753 214.916 339.547 214.962L338.759 213.941L342.033 210.767L345.591 213.752L344.781 214.718L342.143 212.504L340.493 214.096C340.741 214.137 340.989 214.215 341.238 214.329C341.498 214.443 341.741 214.595 341.968 214.785C342.335 215.093 342.594 215.457 342.744 215.875C342.895 216.294 342.929 216.725 342.849 217.169C342.774 217.607 342.574 218.02 342.25 218.406C341.89 218.835 341.476 219.129 341.007 219.289C340.545 219.455 340.068 219.488 339.577 219.389C339.085 219.29 338.619 219.056 338.178 218.685Z" fill="#48654D"/>
<path d="M226.436 166.508L233.922 157.587L234.659 156.96L235.859 157.967L227.76 167.619L226.436 166.508ZM230.188 157.696L231.218 156.469C231.412 156.648 231.701 156.78 232.083 156.866C232.475 156.96 232.901 157.012 233.362 157.023C233.823 157.033 234.259 157.008 234.671 156.946L234.748 158.562C234.158 158.631 233.581 158.656 233.017 158.637C232.454 158.618 231.927 158.536 231.437 158.392C230.957 158.255 230.54 158.023 230.188 157.696ZM230.035 169.528L230.949 168.439C231.188 168.154 231.5 167.914 231.883 167.718C232.283 167.521 232.734 167.375 233.237 167.28C233.749 167.193 234.288 167.167 234.853 167.203L237.872 167.386C238.223 167.415 238.571 167.401 238.916 167.346C239.277 167.289 239.601 167.192 239.887 167.056C240.19 166.919 240.434 166.74 240.619 166.52C240.866 166.225 241.016 165.897 241.07 165.535C241.131 165.163 241.086 164.796 240.935 164.435C240.792 164.064 240.537 163.724 240.169 163.416C239.82 163.123 239.454 162.933 239.072 162.848C238.706 162.76 238.344 162.754 237.984 162.828C237.624 162.902 237.303 163.032 237.021 163.219L235.849 161.788C236.305 161.45 236.834 161.221 237.437 161.1C238.039 160.979 238.663 161.001 239.308 161.166C239.96 161.322 240.576 161.643 241.155 162.129C241.817 162.684 242.283 163.286 242.553 163.936C242.839 164.583 242.935 165.235 242.839 165.891C242.75 166.538 242.475 167.137 242.012 167.688C241.565 168.221 241.005 168.59 240.333 168.793C239.67 169.005 238.89 169.094 237.993 169.062L235.181 168.912C234.625 168.884 234.13 168.923 233.697 169.029C233.272 169.143 232.906 169.337 232.598 169.611L237.3 173.556L236.282 174.769L230.035 169.528ZM240.658 178.724C240.162 178.307 239.773 177.856 239.492 177.369C239.211 176.883 239.04 176.395 238.98 175.906C238.921 175.417 238.945 174.96 239.052 174.533L240.675 174.979C240.659 175.184 240.651 175.428 240.65 175.709C240.657 175.981 240.729 176.269 240.866 176.572C241.003 176.875 241.242 177.169 241.582 177.455C242.161 177.94 242.759 178.161 243.377 178.115C244.004 178.077 244.53 177.806 244.954 177.3C245.27 176.923 245.435 176.521 245.449 176.094C245.471 175.658 245.341 175.205 245.062 174.735C244.792 174.273 244.376 173.807 243.815 173.337L243.47 173.047L244.327 172.027L244.644 172.293C245.214 172.771 245.684 173.275 246.054 173.805C246.433 174.343 246.698 174.894 246.85 175.46C247.01 176.017 247.04 176.56 246.941 177.088C246.843 177.616 246.601 178.11 246.215 178.57C245.737 179.14 245.169 179.517 244.513 179.702C243.873 179.886 243.213 179.888 242.533 179.709C241.862 179.538 241.237 179.21 240.658 178.724ZM243.609 172.882L244.431 171.903L244.776 172.192C245.529 172.825 246.226 173.19 246.864 173.287C247.503 173.385 248.019 173.199 248.413 172.73C248.636 172.463 248.763 172.163 248.794 171.828C248.841 171.492 248.79 171.151 248.641 170.806C248.508 170.46 248.267 170.141 247.918 169.848C247.697 169.662 247.45 169.518 247.177 169.414C246.921 169.309 246.648 169.252 246.357 169.243C246.075 169.225 245.78 169.268 245.474 169.371L244.772 167.912C245.213 167.703 245.677 167.599 246.162 167.599C246.648 167.599 247.133 167.693 247.618 167.881C248.103 168.068 248.557 168.339 248.98 168.694C249.559 169.18 249.981 169.722 250.246 170.321C250.512 170.92 250.611 171.52 250.544 172.122C250.487 172.732 250.254 173.28 249.845 173.767C249.498 174.181 249.088 174.464 248.616 174.616C248.161 174.767 247.666 174.806 247.132 174.733C246.605 174.651 246.065 174.473 245.513 174.198C244.97 173.93 244.437 173.576 243.913 173.137L243.609 172.882ZM249.579 185.927L251.441 183.707L246.988 179.97L247.878 178.908L257.581 176.194L258.988 177.374L253.758 183.606L255.647 185.192L254.64 186.391L252.751 184.806L250.888 187.026L249.579 185.927ZM249.483 180.02L252.448 182.507L256.093 178.164L249.483 180.02ZM259.467 194.225L266.953 185.303L267.691 184.677L268.89 185.683L260.791 195.335L259.467 194.225ZM263.219 185.413L264.249 184.185C264.444 184.364 264.732 184.497 265.114 184.583C265.506 184.676 265.932 184.728 266.393 184.739C266.854 184.75 267.29 184.724 267.702 184.663L267.78 186.279C267.189 186.347 266.612 186.372 266.049 186.353C265.485 186.335 264.958 186.253 264.468 186.108C263.988 185.971 263.572 185.74 263.219 185.413ZM263.066 197.245L263.981 196.155C264.22 195.87 264.531 195.63 264.914 195.435C265.314 195.238 265.766 195.092 266.268 194.997C266.78 194.909 267.319 194.884 267.884 194.919L270.903 195.102C271.254 195.131 271.603 195.118 271.947 195.062C272.308 195.005 272.632 194.909 272.918 194.773C273.221 194.636 273.465 194.457 273.651 194.236C273.897 193.942 274.048 193.614 274.101 193.251C274.162 192.88 274.117 192.513 273.966 192.151C273.823 191.781 273.568 191.441 273.2 191.132C272.851 190.839 272.485 190.65 272.103 190.564C271.737 190.477 271.375 190.47 271.015 190.544C270.655 190.618 270.334 190.749 270.053 190.935L268.88 189.504C269.336 189.166 269.865 188.937 270.468 188.816C271.07 188.695 271.694 188.717 272.339 188.882C272.991 189.038 273.607 189.359 274.186 189.845C274.848 190.4 275.314 191.003 275.584 191.652C275.87 192.3 275.966 192.952 275.87 193.607C275.782 194.254 275.506 194.853 275.043 195.405C274.596 195.938 274.036 196.306 273.364 196.51C272.701 196.721 271.921 196.811 271.024 196.778L268.213 196.628C267.656 196.6 267.162 196.639 266.728 196.745C266.304 196.859 265.937 197.053 265.629 197.327L270.331 201.272L269.313 202.486L263.066 197.245ZM273.689 206.44C273.193 206.023 272.804 205.572 272.523 205.086C272.242 204.599 272.071 204.111 272.012 203.623C271.952 203.134 271.976 202.676 272.083 202.249L273.706 202.695C273.69 202.901 273.682 203.144 273.681 203.425C273.688 203.697 273.76 203.985 273.897 204.288C274.034 204.591 274.273 204.886 274.613 205.171C275.192 205.657 275.791 205.877 276.408 205.832C277.035 205.794 277.561 205.522 277.985 205.016C278.302 204.64 278.467 204.238 278.48 203.81C278.502 203.374 278.373 202.921 278.093 202.452C277.823 201.99 277.407 201.524 276.846 201.053L276.502 200.764L277.358 199.744L277.675 200.01C278.245 200.488 278.715 200.992 279.085 201.522C279.464 202.059 279.73 202.611 279.881 203.177C280.041 203.734 280.071 204.276 279.973 204.804C279.874 205.332 279.632 205.826 279.246 206.286C278.768 206.856 278.201 207.234 277.544 207.419C276.904 207.602 276.244 207.605 275.564 207.426C274.893 207.255 274.268 206.926 273.689 206.44ZM276.641 200.598L277.462 199.619L277.807 199.909C278.56 200.541 279.257 200.906 279.896 201.004C280.534 201.101 281.051 200.915 281.444 200.447C281.668 200.18 281.795 199.879 281.825 199.544C281.872 199.208 281.821 198.868 281.672 198.523C281.539 198.177 281.298 197.857 280.949 197.564C280.728 197.379 280.482 197.234 280.208 197.13C279.952 197.025 279.679 196.968 279.389 196.959C279.106 196.942 278.811 196.984 278.505 197.088L277.803 195.629C278.244 195.42 278.708 195.315 279.194 195.316C279.679 195.316 280.164 195.41 280.649 195.597C281.134 195.785 281.588 196.056 282.011 196.411C282.59 196.897 283.012 197.439 283.277 198.037C283.543 198.636 283.642 199.236 283.576 199.838C283.518 200.448 283.285 200.997 282.876 201.484C282.529 201.898 282.119 202.18 281.647 202.332C281.192 202.483 280.697 202.522 280.163 202.45C279.636 202.368 279.096 202.189 278.544 201.914C278.001 201.646 277.468 201.293 276.944 200.853L276.641 200.598ZM282.61 213.643L284.473 211.423L280.019 207.686L280.91 206.624L290.612 203.91L292.019 205.09L286.789 211.323L288.678 212.908L287.672 214.108L285.782 212.522L283.92 214.742L282.61 213.643ZM282.515 207.736L285.479 210.224L289.124 205.88L282.515 207.736ZM292.499 221.941L299.984 213.02L300.722 212.393L301.921 213.4L293.822 223.052L292.499 221.941ZM296.251 213.129L297.28 211.902C297.475 212.081 297.763 212.213 298.145 212.299C298.537 212.392 298.963 212.445 299.424 212.455C299.885 212.466 300.321 212.441 300.733 212.379L300.811 213.995C300.221 214.064 299.644 214.089 299.08 214.07C298.516 214.051 297.989 213.969 297.5 213.825C297.019 213.688 296.603 213.456 296.251 213.129ZM296.098 224.961L297.012 223.872C297.251 223.587 297.562 223.347 297.945 223.151C298.345 222.954 298.797 222.808 299.3 222.713C299.811 222.626 300.35 222.6 300.915 222.636L303.934 222.819C304.286 222.848 304.634 222.834 304.978 222.779C305.339 222.721 305.663 222.625 305.949 222.489C306.252 222.352 306.497 222.173 306.682 221.952C306.929 221.658 307.079 221.33 307.132 220.968C307.193 220.596 307.148 220.229 306.998 219.868C306.854 219.497 306.599 219.157 306.231 218.849C305.882 218.556 305.516 218.366 305.134 218.28C304.769 218.193 304.406 218.187 304.046 218.261C303.686 218.335 303.366 218.465 303.084 218.651L301.911 217.221C302.367 216.883 302.896 216.653 303.499 216.533C304.102 216.412 304.725 216.434 305.37 216.599C306.023 216.755 306.638 217.076 307.217 217.562C307.879 218.117 308.345 218.719 308.615 219.369C308.902 220.016 308.997 220.668 308.901 221.324C308.813 221.97 308.537 222.569 308.074 223.121C307.627 223.654 307.067 224.023 306.395 224.226C305.732 224.438 304.952 224.527 304.055 224.495L301.244 224.345C300.688 224.317 300.193 224.356 299.759 224.462C299.335 224.576 298.968 224.769 298.66 225.043L303.362 228.989L302.344 230.202L296.098 224.961ZM306.72 234.156C306.224 233.74 305.835 233.288 305.554 232.802C305.273 232.315 305.103 231.828 305.043 231.339C304.983 230.85 305.007 230.392 305.114 229.966L306.738 230.411C306.722 230.617 306.713 230.861 306.712 231.142C306.719 231.414 306.791 231.701 306.928 232.005C307.065 232.308 307.304 232.602 307.644 232.887C308.223 233.373 308.822 233.594 309.44 233.548C310.067 233.51 310.592 233.239 311.016 232.733C311.333 232.356 311.498 231.954 311.511 231.527C311.533 231.091 311.404 230.638 311.124 230.168C310.854 229.706 310.438 229.24 309.878 228.77L309.533 228.48L310.389 227.46L310.706 227.726C311.276 228.204 311.746 228.708 312.116 229.238C312.495 229.776 312.761 230.327 312.913 230.893C313.072 231.45 313.102 231.993 313.004 232.521C312.905 233.049 312.663 233.543 312.277 234.002C311.799 234.572 311.232 234.95 310.575 235.135C309.935 235.319 309.275 235.321 308.595 235.142C307.924 234.971 307.299 234.642 306.72 234.156ZM309.672 228.315L310.493 227.336L310.838 227.625C311.592 228.258 312.288 228.623 312.927 228.72C313.566 228.817 314.082 228.632 314.475 228.163C314.699 227.896 314.826 227.596 314.856 227.261C314.903 226.924 314.852 226.584 314.703 226.239C314.57 225.893 314.33 225.574 313.98 225.28C313.76 225.095 313.513 224.951 313.24 224.847C312.983 224.742 312.71 224.685 312.42 224.676C312.137 224.658 311.843 224.701 311.537 224.804L310.834 223.345C311.276 223.136 311.739 223.032 312.225 223.032C312.71 223.032 313.195 223.126 313.68 223.314C314.165 223.501 314.619 223.772 315.042 224.127C315.621 224.613 316.043 225.155 316.309 225.754C316.574 226.352 316.673 226.953 316.607 227.555C316.549 228.165 316.316 228.713 315.907 229.2C315.56 229.614 315.151 229.897 314.678 230.049C314.223 230.199 313.728 230.238 313.194 230.166C312.667 230.084 312.128 229.906 311.575 229.63C311.032 229.363 310.499 229.009 309.975 228.569L309.672 228.315ZM315.641 241.36L317.504 239.14L313.05 235.403L313.941 234.341L323.643 231.627L325.05 232.807L319.82 239.039L321.709 240.624L320.703 241.824L318.814 240.239L316.951 242.459L315.641 241.36ZM315.546 235.453L318.51 237.94L322.155 233.597L315.546 235.453ZM325.53 249.657L333.016 240.736L333.753 240.109L334.953 241.116L326.853 250.768L325.53 249.657ZM329.282 240.846L330.311 239.618C330.506 239.797 330.794 239.93 331.177 240.015C331.568 240.109 331.994 240.161 332.455 240.172C332.916 240.183 333.353 240.157 333.765 240.096L333.842 241.711C333.252 241.78 332.675 241.805 332.111 241.786C331.547 241.767 331.02 241.686 330.531 241.541C330.05 241.404 329.634 241.173 329.282 240.846ZM329.129 252.677L330.043 251.588C330.282 251.303 330.593 251.063 330.976 250.868C331.377 250.671 331.828 250.525 332.331 250.43C332.843 250.342 333.381 250.317 333.947 250.352L336.965 250.535C337.317 250.564 337.665 250.551 338.009 250.495C338.37 250.438 338.694 250.341 338.98 250.206C339.284 250.068 339.528 249.89 339.713 249.669C339.96 249.375 340.11 249.046 340.163 248.684C340.225 248.312 340.18 247.946 340.029 247.584C339.886 247.213 339.63 246.874 339.262 246.565C338.913 246.272 338.547 246.083 338.165 245.997C337.8 245.91 337.437 245.903 337.077 245.977C336.718 246.051 336.397 246.181 336.115 246.368L334.942 244.937C335.398 244.599 335.927 244.37 336.53 244.249C337.133 244.128 337.757 244.15 338.401 244.315C339.054 244.471 339.67 244.792 340.249 245.278C340.911 245.833 341.376 246.436 341.646 247.085C341.933 247.733 342.028 248.385 341.932 249.04C341.844 249.687 341.568 250.286 341.106 250.837C340.658 251.371 340.098 251.739 339.426 251.943C338.763 252.154 337.983 252.243 337.086 252.211L334.275 252.061C333.719 252.033 333.224 252.072 332.79 252.178C332.366 252.292 332 252.486 331.691 252.76L336.393 256.705L335.375 257.919L329.129 252.677ZM339.751 261.873C339.255 261.456 338.866 261.005 338.585 260.518C338.304 260.032 338.134 259.544 338.074 259.056C338.014 258.567 338.038 258.109 338.146 257.682L339.769 258.128C339.753 258.334 339.744 258.577 339.743 258.858C339.75 259.13 339.822 259.418 339.959 259.721C340.097 260.024 340.335 260.318 340.675 260.604C341.254 261.09 341.853 261.31 342.471 261.264C343.098 261.227 343.623 260.955 344.048 260.449C344.364 260.072 344.529 259.67 344.543 259.243C344.564 258.807 344.435 258.354 344.155 257.885C343.885 257.423 343.469 256.957 342.909 256.486L342.564 256.197L343.42 255.176L343.737 255.443C344.307 255.921 344.777 256.425 345.147 256.955C345.527 257.492 345.792 258.044 345.944 258.61C346.103 259.166 346.134 259.709 346.035 260.237C345.936 260.765 345.694 261.259 345.309 261.719C344.83 262.289 344.263 262.666 343.606 262.852C342.966 263.035 342.306 263.038 341.626 262.859C340.956 262.687 340.331 262.359 339.751 261.873ZM342.703 256.031L343.524 255.052L343.869 255.342C344.623 255.974 345.319 256.339 345.958 256.436C346.597 256.534 347.113 256.348 347.506 255.879C347.73 255.613 347.857 255.312 347.887 254.977C347.935 254.641 347.883 254.3 347.734 253.956C347.602 253.61 347.361 253.29 347.011 252.997C346.791 252.812 346.544 252.667 346.271 252.563C346.015 252.458 345.741 252.401 345.451 252.392C345.168 252.375 344.874 252.417 344.568 252.521L343.865 251.062C344.307 250.853 344.77 250.748 345.256 250.748C345.741 250.749 346.227 250.842 346.712 251.03C347.196 251.218 347.65 251.489 348.073 251.844C348.652 252.329 349.074 252.872 349.34 253.47C349.605 254.069 349.704 254.669 349.638 255.271C349.581 255.881 349.347 256.43 348.939 256.917C348.592 257.33 348.182 257.613 347.71 257.765C347.254 257.916 346.759 257.955 346.225 257.882C345.698 257.801 345.159 257.622 344.607 257.347C344.064 257.079 343.53 256.726 343.006 256.286L342.703 256.031ZM348.672 269.076L350.535 266.856L346.081 263.119L346.972 262.057L356.675 259.343L358.081 260.523L352.851 266.756L354.74 268.341L353.734 269.54L351.845 267.955L349.982 270.175L348.672 269.076ZM348.577 263.169L351.541 265.657L355.186 261.313L348.577 263.169Z" fill="#48654D"/>
</g>
<defs>
<linearGradient id="paint0_linear_12178_96635" x1="318.98" y1="146.371" x2="661.664" y2="144.056" gradientUnits="userSpaceOnUse">
<stop stop-color="white"/>
<stop offset="1" stop-color="#ACF3BA"/>
</linearGradient>
<linearGradient id="paint1_linear_12178_96635" x1="122.596" y1="92.6768" x2="145.096" y2="123.677" gradientUnits="userSpaceOnUse">
<stop offset="0.12" stop-color="#E2C62D"/>
<stop offset="0.5" stop-color="#F9E37D"/>
<stop offset="0.8" stop-color="#E2C62D"/>
</linearGradient>
<linearGradient id="paint2_linear_12178_96635" x1="79.1936" y1="128.226" x2="519.563" y2="104.646" gradientUnits="userSpaceOnUse">
<stop stop-color="#ACF3BA"/>
<stop offset="1" stop-color="white"/>
</linearGradient>
<linearGradient id="paint3_linear_12178_96635" x1="312.596" y1="82.6768" x2="335.096" y2="113.677" gradientUnits="userSpaceOnUse">
<stop offset="0.12" stop-color="#E2C62D"/>
<stop offset="0.5" stop-color="#F9E37D"/>
<stop offset="0.8" stop-color="#E2C62D"/>
</linearGradient>
<clipPath id="clip0_12178_96635">
<rect width="609" height="411" fill="white"/>
</clipPath>
</defs>
</svg>
