<svg width="246" height="246" viewBox="0 0 246 246" fill="none" xmlns="http://www.w3.org/2000/svg">
<circle opacity="0.16" cx="123" cy="123" r="122.5" stroke="#4AE183"/>
<circle opacity="0.5" cx="123" cy="123" r="91.02" fill="#1A3622"/>
<circle opacity="0.2" cx="123" cy="123" r="90.52" stroke="#4AE183"/>
<path opacity="0.2" fill-rule="evenodd" clip-rule="evenodd" d="M123 66.4202L73.7998 87.9745V120.306C73.7998 150.212 94.7918 172.791 123 179.58C151.208 172.791 172.2 150.212 172.2 120.306V87.9745L123 66.4202ZM140.059 110.393L116.09 134.803L106.05 124.506C105.484 123.932 104.813 123.644 104.036 123.642C103.259 123.64 102.587 123.928 102.02 124.506C101.452 125.084 101.157 125.769 101.134 126.56C101.112 127.351 101.383 128.035 101.949 128.611L114.11 140.996C114.676 141.572 115.336 141.86 116.09 141.86C116.844 141.86 117.504 141.572 118.07 140.996L144.018 114.497C144.584 113.923 144.866 113.24 144.866 112.446C144.866 111.653 144.584 110.969 144.018 110.393C143.452 109.817 142.792 109.529 142.038 109.529C141.284 109.529 140.624 109.817 140.059 110.393Z" fill="#4AE183"/>
</svg>
