<svg width="1275" height="918" viewBox="0 0 1275 918" fill="none" xmlns="http://www.w3.org/2000/svg">
<rect width="1275" height="918" rx="30" fill="white"/>
<path d="M84.828 102.572C82.364 102.572 80.2153 101.971 78.382 100.768C76.5633 99.5653 75.148 97.952 74.136 95.928C73.1387 93.8893 72.64 91.6307 72.64 89.152V71.2H77.216V89.152C77.216 90.7653 77.5093 92.2467 78.096 93.596C78.6973 94.9307 79.5627 96.0013 80.692 96.808C81.836 97.6 83.2147 97.996 84.828 97.996C86.4853 97.996 87.8787 97.6 89.008 96.808C90.1373 96.0013 90.988 94.9307 91.56 93.596C92.1467 92.2467 92.44 90.7653 92.44 89.152V71.2H97.016V89.152C97.016 91.0147 96.73 92.76 96.158 94.388C95.586 96.0013 94.7647 97.424 93.694 98.656C92.6233 99.888 91.34 100.849 89.844 101.538C88.348 102.227 86.676 102.572 84.828 102.572ZM113.266 102.572C111.58 102.572 109.959 102.308 108.404 101.78C106.85 101.252 105.493 100.497 104.334 99.514C103.176 98.5167 102.347 97.336 101.848 95.972L106.138 94.366C106.388 95.07 106.864 95.7007 107.568 96.258C108.287 96.8007 109.138 97.226 110.12 97.534C111.118 97.842 112.166 97.996 113.266 97.996C114.44 97.996 115.54 97.8053 116.566 97.424C117.608 97.0427 118.444 96.5147 119.074 95.84C119.72 95.1653 120.042 94.3733 120.042 93.464C120.042 92.5253 119.705 91.7553 119.03 91.154C118.37 90.5527 117.52 90.076 116.478 89.724C115.452 89.372 114.381 89.108 113.266 88.932C111.11 88.58 109.174 88.0667 107.458 87.392C105.757 86.7173 104.408 85.7713 103.41 84.554C102.428 83.3367 101.936 81.7527 101.936 79.802C101.936 77.9687 102.457 76.37 103.498 75.006C104.554 73.642 105.94 72.586 107.656 71.838C109.387 71.0753 111.257 70.694 113.266 70.694C114.924 70.694 116.522 70.958 118.062 71.486C119.617 71.9993 120.981 72.7547 122.154 73.752C123.342 74.7347 124.193 75.93 124.706 77.338L120.372 78.9C120.123 78.1813 119.646 77.558 118.942 77.03C118.238 76.4873 117.388 76.062 116.39 75.754C115.408 75.446 114.366 75.292 113.266 75.292C112.093 75.2773 110.993 75.468 109.966 75.864C108.954 76.2453 108.126 76.7733 107.48 77.448C106.835 78.1227 106.512 78.9073 106.512 79.802C106.512 80.902 106.813 81.738 107.414 82.31C108.016 82.882 108.822 83.3073 109.834 83.586C110.861 83.85 112.005 84.092 113.266 84.312C115.29 84.6347 117.16 85.17 118.876 85.918C120.607 86.666 121.993 87.6633 123.034 88.91C124.09 90.142 124.618 91.66 124.618 93.464C124.618 95.2827 124.09 96.8813 123.034 98.26C121.993 99.624 120.607 100.687 118.876 101.45C117.16 102.198 115.29 102.572 113.266 102.572ZM129.703 102V71.2H139.889C142.015 71.2 144.01 71.6033 145.873 72.41C147.735 73.202 149.371 74.3093 150.779 75.732C152.187 77.14 153.287 78.7753 154.079 80.638C154.885 82.486 155.289 84.4733 155.289 86.6C155.289 88.7267 154.885 90.7213 154.079 92.584C153.287 94.432 152.187 96.0673 150.779 97.49C149.371 98.898 147.735 100.005 145.873 100.812C144.01 101.604 142.015 102 139.889 102H129.703ZM134.279 97.424H139.889C141.385 97.424 142.778 97.1453 144.069 96.588C145.374 96.0307 146.525 95.2533 147.523 94.256C148.535 93.2587 149.319 92.1073 149.877 90.802C150.434 89.4967 150.713 88.096 150.713 86.6C150.713 85.104 150.434 83.7033 149.877 82.398C149.319 81.0927 148.535 79.9413 147.523 78.944C146.525 77.9467 145.374 77.1693 144.069 76.612C142.778 76.0547 141.385 75.776 139.889 75.776H134.279V97.424ZM173.22 102.572C171.138 102.572 169.18 102.161 167.346 101.34C165.513 100.504 163.9 99.36 162.506 97.908C161.128 96.4413 160.042 94.74 159.25 92.804C158.473 90.868 158.084 88.8 158.084 86.6C158.084 84.4 158.473 82.332 159.25 80.396C160.042 78.46 161.128 76.766 162.506 75.314C163.9 73.8473 165.513 72.7033 167.346 71.882C169.18 71.046 171.138 70.628 173.22 70.628C175.714 70.628 178.009 71.2073 180.106 72.366C182.204 73.5247 183.942 75.0647 185.32 76.986L181.25 79.164C180.297 77.9613 179.116 77.0007 177.708 76.282C176.3 75.5633 174.804 75.204 173.22 75.204C171.754 75.204 170.382 75.5047 169.106 76.106C167.83 76.7073 166.708 77.5287 165.74 78.57C164.772 79.6113 164.017 80.8213 163.474 82.2C162.932 83.5787 162.66 85.0453 162.66 86.6C162.66 88.1693 162.932 89.6433 163.474 91.022C164.017 92.386 164.772 93.596 165.74 94.652C166.723 95.6933 167.852 96.5147 169.128 97.116C170.404 97.7027 171.768 97.996 173.22 97.996C174.834 97.996 176.337 97.6367 177.73 96.918C179.138 96.1847 180.312 95.2167 181.25 94.014L185.32 96.236C183.942 98.1573 182.204 99.6973 180.106 100.856C178.009 102 175.714 102.572 173.22 102.572Z" fill="#C1C9BF"/>
<path d="M226.883 102V71.2H231.459V102H226.883Z" fill="#EBEFE7"/>
<path d="M273.807 102V71.2H284.741C286.325 71.2 287.755 71.5227 289.031 72.168C290.322 72.8133 291.341 73.7447 292.089 74.962C292.852 76.1647 293.233 77.6093 293.233 79.296C293.233 80.1173 293.101 80.924 292.837 81.716C292.573 82.508 292.199 83.2047 291.715 83.806C291.231 84.4073 290.644 84.8327 289.955 85.082C290.894 85.3167 291.671 85.742 292.287 86.358C292.918 86.9593 293.416 87.6633 293.783 88.47C294.15 89.2767 294.406 90.1127 294.553 90.978C294.714 91.8433 294.795 92.6647 294.795 93.442C294.795 95.0847 294.399 96.5513 293.607 97.842C292.815 99.1327 291.752 100.152 290.417 100.9C289.097 101.633 287.638 102 286.039 102H273.807ZM278.383 98.04H285.599C286.538 98.04 287.388 97.8053 288.151 97.336C288.928 96.8667 289.544 96.2213 289.999 95.4C290.454 94.564 290.681 93.6253 290.681 92.584C290.681 91.6747 290.454 90.8167 289.999 90.01C289.544 89.1887 288.928 88.5287 288.151 88.03C287.388 87.5313 286.538 87.282 285.599 87.282H278.383V98.04ZM278.383 83.388H284.257C285.46 83.388 286.494 83.0213 287.359 82.288C288.224 81.5547 288.657 80.55 288.657 79.274C288.657 77.91 288.224 76.8907 287.359 76.216C286.494 75.5267 285.46 75.182 284.257 75.182H278.383V83.388ZM320.738 71.2V75.776H310.926V102H306.35V75.776H296.56V71.2H320.738ZM337.649 102.572C335.566 102.572 333.608 102.161 331.775 101.34C329.942 100.504 328.328 99.36 326.935 97.908C325.556 96.4413 324.471 94.74 323.679 92.804C322.902 90.868 322.513 88.8 322.513 86.6C322.513 84.4 322.902 82.332 323.679 80.396C324.471 78.46 325.556 76.766 326.935 75.314C328.328 73.8473 329.942 72.7033 331.775 71.882C333.608 71.046 335.566 70.628 337.649 70.628C340.142 70.628 342.438 71.2073 344.535 72.366C346.632 73.5247 348.37 75.0647 349.749 76.986L345.679 79.164C344.726 77.9613 343.545 77.0007 342.137 76.282C340.729 75.5633 339.233 75.204 337.649 75.204C336.182 75.204 334.811 75.5047 333.535 76.106C332.259 76.7073 331.137 77.5287 330.169 78.57C329.201 79.6113 328.446 80.8213 327.903 82.2C327.36 83.5787 327.089 85.0453 327.089 86.6C327.089 88.1693 327.36 89.6433 327.903 91.022C328.446 92.386 329.201 93.596 330.169 94.652C331.152 95.6933 332.281 96.5147 333.557 97.116C334.833 97.7027 336.197 97.996 337.649 97.996C339.262 97.996 340.766 97.6367 342.159 96.918C343.567 96.1847 344.74 95.2167 345.679 94.014L349.749 96.236C348.37 98.1573 346.632 99.6973 344.535 100.856C342.438 102 340.142 102.572 337.649 102.572Z" fill="#C1C9BF"/>
<path d="M391.05 102V71.2H395.626V102H391.05Z" fill="#EBEFE7"/>
<path d="M437.973 102V71.2H448.907C450.491 71.2 451.921 71.5227 453.197 72.168C454.488 72.8133 455.507 73.7447 456.255 74.962C457.018 76.1647 457.399 77.6093 457.399 79.296C457.399 80.1173 457.267 80.924 457.003 81.716C456.739 82.508 456.365 83.2047 455.881 83.806C455.397 84.4073 454.81 84.8327 454.121 85.082C455.06 85.3167 455.837 85.742 456.453 86.358C457.084 86.9593 457.582 87.6633 457.949 88.47C458.316 89.2767 458.572 90.1127 458.719 90.978C458.88 91.8433 458.961 92.6647 458.961 93.442C458.961 95.0847 458.565 96.5513 457.773 97.842C456.981 99.1327 455.918 100.152 454.583 100.9C453.263 101.633 451.804 102 450.205 102H437.973ZM442.549 98.04H449.765C450.704 98.04 451.554 97.8053 452.317 97.336C453.094 96.8667 453.71 96.2213 454.165 95.4C454.62 94.564 454.847 93.6253 454.847 92.584C454.847 91.6747 454.62 90.8167 454.165 90.01C453.71 89.1887 453.094 88.5287 452.317 88.03C451.554 87.5313 450.704 87.282 449.765 87.282H442.549V98.04ZM442.549 83.388H448.423C449.626 83.388 450.66 83.0213 451.525 82.288C452.39 81.5547 452.823 80.55 452.823 79.274C452.823 77.91 452.39 76.8907 451.525 76.216C450.66 75.5267 449.626 75.182 448.423 75.182H442.549V83.388ZM462.68 102V71.2H467.63L481.776 93.728V71.2H486.352V102H481.402L467.256 79.472V102H462.68ZM491.641 102V71.2H502.575C504.159 71.2 505.589 71.5227 506.865 72.168C508.156 72.8133 509.175 73.7447 509.923 74.962C510.686 76.1647 511.067 77.6093 511.067 79.296C511.067 80.1173 510.935 80.924 510.671 81.716C510.407 82.508 510.033 83.2047 509.549 83.806C509.065 84.4073 508.478 84.8327 507.789 85.082C508.728 85.3167 509.505 85.742 510.121 86.358C510.752 86.9593 511.25 87.6633 511.617 88.47C511.984 89.2767 512.24 90.1127 512.387 90.978C512.548 91.8433 512.629 92.6647 512.629 93.442C512.629 95.0847 512.233 96.5513 511.441 97.842C510.649 99.1327 509.586 100.152 508.251 100.9C506.931 101.633 505.472 102 503.873 102H491.641ZM496.217 98.04H503.433C504.372 98.04 505.222 97.8053 505.985 97.336C506.762 96.8667 507.378 96.2213 507.833 95.4C508.288 94.564 508.515 93.6253 508.515 92.584C508.515 91.6747 508.288 90.8167 507.833 90.01C507.378 89.1887 506.762 88.5287 505.985 88.03C505.222 87.5313 504.372 87.282 503.433 87.282H496.217V98.04ZM496.217 83.388H502.091C503.294 83.388 504.328 83.0213 505.193 82.288C506.058 81.5547 506.491 80.55 506.491 79.274C506.491 77.91 506.058 76.8907 505.193 76.216C504.328 75.5267 503.294 75.182 502.091 75.182H496.217V83.388Z" fill="#C1C9BF"/>
<path d="M554.217 102V71.2H558.793V102H554.217Z" fill="#EBEFE7"/>
<path d="M613.328 102.572C610.864 102.572 608.715 101.971 606.882 100.768C605.063 99.5653 603.648 97.952 602.636 95.928C601.639 93.8893 601.14 91.6307 601.14 89.152V71.2H605.716V89.152C605.716 90.7653 606.009 92.2467 606.596 93.596C607.197 94.9307 608.063 96.0013 609.192 96.808C610.336 97.6 611.715 97.996 613.328 97.996C614.985 97.996 616.379 97.6 617.508 96.808C618.637 96.0013 619.488 94.9307 620.06 93.596C620.647 92.2467 620.94 90.7653 620.94 89.152V71.2H625.516V89.152C625.516 91.0147 625.23 92.76 624.658 94.388C624.086 96.0013 623.265 97.424 622.194 98.656C621.123 99.888 619.84 100.849 618.344 101.538C616.848 102.227 615.176 102.572 613.328 102.572ZM641.766 102.572C640.08 102.572 638.459 102.308 636.904 101.78C635.35 101.252 633.993 100.497 632.834 99.514C631.676 98.5167 630.847 97.336 630.348 95.972L634.638 94.366C634.888 95.07 635.364 95.7007 636.068 96.258C636.787 96.8007 637.638 97.226 638.62 97.534C639.618 97.842 640.666 97.996 641.766 97.996C642.94 97.996 644.04 97.8053 645.066 97.424C646.108 97.0427 646.944 96.5147 647.574 95.84C648.22 95.1653 648.542 94.3733 648.542 93.464C648.542 92.5253 648.205 91.7553 647.53 91.154C646.87 90.5527 646.02 90.076 644.978 89.724C643.952 89.372 642.881 89.108 641.766 88.932C639.61 88.58 637.674 88.0667 635.958 87.392C634.257 86.7173 632.908 85.7713 631.91 84.554C630.928 83.3367 630.436 81.7527 630.436 79.802C630.436 77.9687 630.957 76.37 631.998 75.006C633.054 73.642 634.44 72.586 636.156 71.838C637.887 71.0753 639.757 70.694 641.766 70.694C643.424 70.694 645.022 70.958 646.562 71.486C648.117 71.9993 649.481 72.7547 650.654 73.752C651.842 74.7347 652.693 75.93 653.206 77.338L648.872 78.9C648.623 78.1813 648.146 77.558 647.442 77.03C646.738 76.4873 645.888 76.062 644.89 75.754C643.908 75.446 642.866 75.292 641.766 75.292C640.593 75.2773 639.493 75.468 638.466 75.864C637.454 76.2453 636.626 76.7733 635.98 77.448C635.335 78.1227 635.012 78.9073 635.012 79.802C635.012 80.902 635.313 81.738 635.914 82.31C636.516 82.882 637.322 83.3073 638.334 83.586C639.361 83.85 640.505 84.092 641.766 84.312C643.79 84.6347 645.66 85.17 647.376 85.918C649.107 86.666 650.493 87.6633 651.534 88.91C652.59 90.142 653.118 91.66 653.118 93.464C653.118 95.2827 652.59 96.8813 651.534 98.26C650.493 99.624 649.107 100.687 647.376 101.45C645.66 102.198 643.79 102.572 641.766 102.572ZM658.203 102V71.2H668.389C670.515 71.2 672.51 71.6033 674.373 72.41C676.235 73.202 677.871 74.3093 679.279 75.732C680.687 77.14 681.787 78.7753 682.579 80.638C683.385 82.486 683.789 84.4733 683.789 86.6C683.789 88.7267 683.385 90.7213 682.579 92.584C681.787 94.432 680.687 96.0673 679.279 97.49C677.871 98.898 676.235 100.005 674.373 100.812C672.51 101.604 670.515 102 668.389 102H658.203ZM662.779 97.424H668.389C669.885 97.424 671.278 97.1453 672.569 96.588C673.874 96.0307 675.025 95.2533 676.023 94.256C677.035 93.2587 677.819 92.1073 678.377 90.802C678.934 89.4967 679.213 88.096 679.213 86.6C679.213 85.104 678.934 83.7033 678.377 82.398C677.819 81.0927 677.035 79.9413 676.023 78.944C675.025 77.9467 673.874 77.1693 672.569 76.612C671.278 76.0547 669.885 75.776 668.389 75.776H662.779V97.424ZM709.301 71.2V75.776H699.489V102H694.913V75.776H685.123V71.2H709.301Z" fill="#414941"/>
<path d="M750.383 102V71.2H754.959V102H750.383Z" fill="#EBEFE7"/>
<path d="M797.307 102V71.2H816.425V75.776H801.883V83.212H813.587V87.788H801.883V97.424H816.425V102H797.307ZM844.582 71.2V75.776H834.77V102H830.194V75.776H820.404V71.2H844.582ZM867.5 71.2H872.076V102H867.5V87.788H853.574V102H848.998V71.2H853.574V83.212H867.5V71.2Z" fill="#C1C9BF"/>
<path d="M914.55 102V71.2H919.126V102H914.55Z" fill="#EBEFE7"/>
<path d="M961.473 102V71.2H971.659C973.786 71.2 975.78 71.6033 977.643 72.41C979.506 73.202 981.141 74.3093 982.549 75.732C983.957 77.14 985.057 78.7753 985.849 80.638C986.656 82.486 987.059 84.4733 987.059 86.6C987.059 88.7267 986.656 90.7213 985.849 92.584C985.057 94.432 983.957 96.0673 982.549 97.49C981.141 98.898 979.506 100.005 977.643 100.812C975.78 101.604 973.786 102 971.659 102H961.473ZM966.049 97.424H971.659C973.155 97.424 974.548 97.1453 975.839 96.588C977.144 96.0307 978.296 95.2533 979.293 94.256C980.305 93.2587 981.09 92.1073 981.647 90.802C982.204 89.4967 982.483 88.096 982.483 86.6C982.483 85.104 982.204 83.7033 981.647 82.398C981.09 81.0927 980.305 79.9413 979.293 78.944C978.296 77.9467 977.144 77.1693 975.839 76.612C974.548 76.0547 973.155 75.776 971.659 75.776H966.049V97.424ZM999.205 71.2H1004.55L1015.75 102H1010.91L1008.78 96.148H994.981L992.869 102H988.007L999.205 71.2ZM996.675 91.572H1007.08L1001.87 77.272L996.675 91.572ZM1020.27 102V71.2H1024.85V102H1020.27Z" fill="#C1C9BF"/>
<path d="M1067.72 102V71.2H1072.29V102H1067.72Z" fill="#EBEFE7"/>
<path d="M1125.62 102.572C1123.93 102.572 1122.31 102.308 1120.76 101.78C1119.2 101.252 1117.84 100.497 1116.69 99.514C1115.53 98.5167 1114.7 97.336 1114.2 95.972L1118.49 94.366C1118.74 95.07 1119.22 95.7007 1119.92 96.258C1120.64 96.8007 1121.49 97.226 1122.47 97.534C1123.47 97.842 1124.52 97.996 1125.62 97.996C1126.79 97.996 1127.89 97.8053 1128.92 97.424C1129.96 97.0427 1130.8 96.5147 1131.43 95.84C1132.07 95.1653 1132.39 94.3733 1132.39 93.464C1132.39 92.5253 1132.06 91.7553 1131.38 91.154C1130.72 90.5527 1129.87 90.076 1128.83 89.724C1127.8 89.372 1126.73 89.108 1125.62 88.932C1123.46 88.58 1121.53 88.0667 1119.81 87.392C1118.11 86.7173 1116.76 85.7713 1115.76 84.554C1114.78 83.3367 1114.29 81.7527 1114.29 79.802C1114.29 77.9687 1114.81 76.37 1115.85 75.006C1116.91 73.642 1118.29 72.586 1120.01 71.838C1121.74 71.0753 1123.61 70.694 1125.62 70.694C1127.28 70.694 1128.87 70.958 1130.41 71.486C1131.97 71.9993 1133.33 72.7547 1134.51 73.752C1135.69 74.7347 1136.54 75.93 1137.06 77.338L1132.72 78.9C1132.47 78.1813 1132 77.558 1131.29 77.03C1130.59 76.4873 1129.74 76.062 1128.74 75.754C1127.76 75.446 1126.72 75.292 1125.62 75.292C1124.44 75.2773 1123.34 75.468 1122.32 75.864C1121.31 76.2453 1120.48 76.7733 1119.83 77.448C1119.19 78.1227 1118.86 78.9073 1118.86 79.802C1118.86 80.902 1119.16 81.738 1119.77 82.31C1120.37 82.882 1121.17 83.3073 1122.19 83.586C1123.21 83.85 1124.36 84.092 1125.62 84.312C1127.64 84.6347 1129.51 85.17 1131.23 85.918C1132.96 86.666 1134.34 87.6633 1135.39 88.91C1136.44 90.142 1136.97 91.66 1136.97 93.464C1136.97 95.2827 1136.44 96.8813 1135.39 98.26C1134.34 99.624 1132.96 100.687 1131.23 101.45C1129.51 102.198 1127.64 102.572 1125.62 102.572ZM1160.56 71.2H1165.13V102H1160.56V87.788H1146.63V102H1142.05V71.2H1146.63V83.212H1160.56V71.2ZM1171.07 102V71.2H1175.65V102H1171.07ZM1181.59 102V71.2H1192.52C1194.1 71.2 1195.53 71.5227 1196.81 72.168C1198.1 72.8133 1199.12 73.7447 1199.87 74.962C1200.63 76.1647 1201.01 77.6093 1201.01 79.296C1201.01 80.1173 1200.88 80.924 1200.62 81.716C1200.35 82.508 1199.98 83.2047 1199.49 83.806C1199.01 84.4073 1198.42 84.8327 1197.73 85.082C1198.67 85.3167 1199.45 85.742 1200.07 86.358C1200.7 86.9593 1201.19 87.6633 1201.56 88.47C1201.93 89.2767 1202.18 90.1127 1202.33 90.978C1202.49 91.8433 1202.57 92.6647 1202.57 93.442C1202.57 95.0847 1202.18 96.5513 1201.39 97.842C1200.59 99.1327 1199.53 100.152 1198.2 100.9C1196.88 101.633 1195.42 102 1193.82 102H1181.59ZM1186.16 98.04H1193.38C1194.32 98.04 1195.17 97.8053 1195.93 97.336C1196.71 96.8667 1197.32 96.2213 1197.78 95.4C1198.23 94.564 1198.46 93.6253 1198.46 92.584C1198.46 91.6747 1198.23 90.8167 1197.78 90.01C1197.32 89.1887 1196.71 88.5287 1195.93 88.03C1195.17 87.5313 1194.32 87.282 1193.38 87.282H1186.16V98.04ZM1186.16 83.388H1192.04C1193.24 83.388 1194.27 83.0213 1195.14 82.288C1196 81.5547 1196.44 80.55 1196.44 79.274C1196.44 77.91 1196 76.8907 1195.14 76.216C1194.27 75.5267 1193.24 75.182 1192.04 75.182H1186.16V83.388Z" fill="#C1C9BF"/>
<rect x="128" y="180" width="1019" height="101" rx="30" fill="#F0F5ED"/>
<rect x="134.5" y="186.5" width="487.5" height="88" rx="21.5" fill="white"/>
<rect x="134.5" y="186.5" width="487.5" height="88" rx="21.5" stroke="#E2E3DE"/>
<path d="M344.89 246V215.2H355.824C357.408 215.2 358.838 215.523 360.114 216.168C361.405 216.813 362.424 217.745 363.172 218.962C363.935 220.165 364.316 221.609 364.316 223.296C364.316 224.117 364.184 224.924 363.92 225.716C363.656 226.508 363.282 227.205 362.798 227.806C362.314 228.407 361.727 228.833 361.038 229.082C361.977 229.317 362.754 229.742 363.37 230.358C364.001 230.959 364.499 231.663 364.866 232.47C365.233 233.277 365.489 234.113 365.636 234.978C365.797 235.843 365.878 236.665 365.878 237.442C365.878 239.085 365.482 240.551 364.69 241.842C363.898 243.133 362.835 244.152 361.5 244.9C360.18 245.633 358.721 246 357.122 246H344.89ZM349.466 242.04H356.682C357.621 242.04 358.471 241.805 359.234 241.336C360.011 240.867 360.627 240.221 361.082 239.4C361.537 238.564 361.764 237.625 361.764 236.584C361.764 235.675 361.537 234.817 361.082 234.01C360.627 233.189 360.011 232.529 359.234 232.03C358.471 231.531 357.621 231.282 356.682 231.282H349.466V242.04ZM349.466 227.388H355.34C356.543 227.388 357.577 227.021 358.442 226.288C359.307 225.555 359.74 224.55 359.74 223.274C359.74 221.91 359.307 220.891 358.442 220.216C357.577 219.527 356.543 219.182 355.34 219.182H349.466V227.388ZM368.717 237.75V224H373.293V236.628C373.293 237.611 373.535 238.505 374.019 239.312C374.503 240.119 375.148 240.764 375.955 241.248C376.762 241.717 377.649 241.952 378.617 241.952C379.6 241.952 380.487 241.717 381.279 241.248C382.086 240.764 382.724 240.119 383.193 239.312C383.677 238.505 383.919 237.611 383.919 236.628V224H388.495L388.517 246H383.941L383.919 243.624C383.171 244.533 382.24 245.252 381.125 245.78C380.01 246.308 378.815 246.572 377.539 246.572C375.911 246.572 374.43 246.176 373.095 245.384C371.76 244.592 370.697 243.529 369.905 242.194C369.113 240.859 368.717 239.378 368.717 237.75ZM407.44 224H412.324L400.268 257H395.406L399.388 246L391.49 224H396.484L401.676 239.73L407.44 224Z" fill="#191C19"/>
<path d="M874.868 246.572C873.181 246.572 871.561 246.308 870.006 245.78C868.451 245.252 867.095 244.497 865.936 243.514C864.777 242.517 863.949 241.336 863.45 239.972L867.74 238.366C867.989 239.07 868.466 239.701 869.17 240.258C869.889 240.801 870.739 241.226 871.722 241.534C872.719 241.842 873.768 241.996 874.868 241.996C876.041 241.996 877.141 241.805 878.168 241.424C879.209 241.043 880.045 240.515 880.676 239.84C881.321 239.165 881.644 238.373 881.644 237.464C881.644 236.525 881.307 235.755 880.632 235.154C879.972 234.553 879.121 234.076 878.08 233.724C877.053 233.372 875.983 233.108 874.868 232.932C872.712 232.58 870.776 232.067 869.06 231.392C867.359 230.717 866.009 229.771 865.012 228.554C864.029 227.337 863.538 225.753 863.538 223.802C863.538 221.969 864.059 220.37 865.1 219.006C866.156 217.642 867.542 216.586 869.258 215.838C870.989 215.075 872.859 214.694 874.868 214.694C876.525 214.694 878.124 214.958 879.664 215.486C881.219 215.999 882.583 216.755 883.756 217.752C884.944 218.735 885.795 219.93 886.308 221.338L881.974 222.9C881.725 222.181 881.248 221.558 880.544 221.03C879.84 220.487 878.989 220.062 877.992 219.754C877.009 219.446 875.968 219.292 874.868 219.292C873.695 219.277 872.595 219.468 871.568 219.864C870.556 220.245 869.727 220.773 869.082 221.448C868.437 222.123 868.114 222.907 868.114 223.802C868.114 224.902 868.415 225.738 869.016 226.31C869.617 226.882 870.424 227.307 871.436 227.586C872.463 227.85 873.607 228.092 874.868 228.312C876.892 228.635 878.762 229.17 880.478 229.918C882.209 230.666 883.595 231.663 884.636 232.91C885.692 234.142 886.22 235.66 886.22 237.464C886.22 239.283 885.692 240.881 884.636 242.26C883.595 243.624 882.209 244.687 880.478 245.45C878.762 246.198 876.892 246.572 874.868 246.572ZM900.254 246.572C898.23 246.572 896.382 246.051 894.71 245.01C893.052 243.969 891.725 242.575 890.728 240.83C889.745 239.07 889.254 237.127 889.254 235C889.254 233.387 889.54 231.883 890.112 230.49C890.684 229.082 891.468 227.85 892.466 226.794C893.478 225.723 894.651 224.887 895.986 224.286C897.32 223.685 898.743 223.384 900.254 223.384C901.94 223.384 903.488 223.736 904.896 224.44C906.304 225.129 907.506 226.09 908.504 227.322C909.501 228.539 910.234 229.947 910.704 231.546C911.173 233.13 911.312 234.817 911.122 236.606H894.16C894.35 237.618 894.717 238.535 895.26 239.356C895.817 240.163 896.521 240.801 897.372 241.27C898.237 241.739 899.198 241.981 900.254 241.996C901.368 241.996 902.38 241.717 903.29 241.16C904.214 240.603 904.969 239.833 905.556 238.85L910.198 239.928C909.318 241.879 907.99 243.477 906.216 244.724C904.441 245.956 902.454 246.572 900.254 246.572ZM894.006 233.108H906.502C906.355 232.052 905.981 231.099 905.38 230.248C904.793 229.383 904.052 228.701 903.158 228.202C902.278 227.689 901.31 227.432 900.254 227.432C899.212 227.432 898.244 227.681 897.35 228.18C896.47 228.679 895.736 229.361 895.15 230.226C894.578 231.077 894.196 232.037 894.006 233.108ZM914.464 246V213H919.04V246H914.464ZM924.304 246V213H928.88V246H924.304Z" fill="#717971"/>
<mask id="path-20-inside-1_12291_90937" fill="white">
<path d="M128 361C128 344.431 141.431 331 158 331H1117C1133.57 331 1147 344.431 1147 361V888C1147 904.569 1133.57 918 1117 918H158C141.431 918 128 904.569 128 888V361Z"/>
</mask>
<path d="M128 361C128 344.431 141.431 331 158 331H1117C1133.57 331 1147 344.431 1147 361V888C1147 904.569 1133.57 918 1117 918H158C141.431 918 128 904.569 128 888V361Z" fill="white"/>
<path d="M127 361C127 343.879 140.879 330 158 330H1117C1134.12 330 1148 343.879 1148 361H1146C1146 344.984 1133.02 332 1117 332H158C141.984 332 129 344.984 129 361H127ZM1147 918H128H1147ZM158 918C140.879 918 127 904.121 127 887V361C127 343.879 140.879 330 158 330V332C141.984 332 129 344.984 129 361V888C129 904.569 141.984 918 158 918ZM1117 330C1134.12 330 1148 343.879 1148 361V887C1148 904.121 1134.12 918 1117 918C1133.02 918 1146 904.569 1146 888V361C1146 344.984 1133.02 332 1117 332V330Z" fill="#E2E3DE" mask="url(#path-20-inside-1_12291_90937)"/>
<rect x="363.5" y="364" width="106.755" height="105.205" rx="14" fill="url(#paint0_linear_12291_90937)"/>
<path d="M416.855 449.205C413.405 449.205 410.09 448.665 406.91 447.585C403.73 446.505 400.955 444.96 398.585 442.95C396.215 440.91 394.52 438.495 393.5 435.705L402.275 432.42C402.785 433.86 403.76 435.15 405.2 436.29C406.67 437.4 408.41 438.27 410.42 438.9C412.46 439.53 414.605 439.845 416.855 439.845C419.255 439.845 421.505 439.455 423.605 438.675C425.735 437.895 427.445 436.815 428.735 435.435C430.055 434.055 430.715 432.435 430.715 430.575C430.715 428.655 430.025 427.08 428.645 425.85C427.295 424.62 425.555 423.645 423.425 422.925C421.325 422.205 419.135 421.665 416.855 421.305C412.445 420.585 408.485 419.535 404.975 418.155C401.495 416.775 398.735 414.84 396.695 412.35C394.685 409.86 393.68 406.62 393.68 402.63C393.68 398.88 394.745 395.61 396.875 392.82C399.035 390.03 401.87 387.87 405.38 386.34C408.92 384.78 412.745 384 416.855 384C420.245 384 423.515 384.54 426.665 385.62C429.845 386.67 432.635 388.215 435.035 390.255C437.465 392.265 439.205 394.71 440.255 397.59L431.39 400.785C430.88 399.315 429.905 398.04 428.465 396.96C427.025 395.85 425.285 394.98 423.245 394.35C421.235 393.72 419.105 393.405 416.855 393.405C414.455 393.375 412.205 393.765 410.105 394.575C408.035 395.355 406.34 396.435 405.02 397.815C403.7 399.195 403.04 400.8 403.04 402.63C403.04 404.88 403.655 406.59 404.885 407.76C406.115 408.93 407.765 409.8 409.835 410.37C411.935 410.91 414.275 411.405 416.855 411.855C420.995 412.515 424.82 413.61 428.33 415.14C431.87 416.67 434.705 418.71 436.835 421.26C438.995 423.78 440.075 426.885 440.075 430.575C440.075 434.295 438.995 437.565 436.835 440.385C434.705 443.175 431.87 445.35 428.33 446.91C424.82 448.44 420.995 449.205 416.855 449.205Z" fill="white"/>
<circle cx="465.5" cy="463" r="13.5" fill="#0BC86E" stroke="white" stroke-width="3"/>
<rect x="515.5" y="401" width="396" height="40" rx="20" fill="#F0F5ED"/>
<path d="M447.451 587.17C443.581 587.17 440.071 586.285 436.921 584.515C433.771 582.745 431.251 580.375 429.361 577.405C427.501 574.405 426.571 571.075 426.571 567.415C426.571 564.535 427.216 561.835 428.506 559.315C429.826 556.765 431.596 554.62 433.816 552.88C432.076 551.29 430.651 549.415 429.541 547.255C428.461 545.065 427.921 542.725 427.921 540.235C427.921 536.845 428.806 533.755 430.576 530.965C432.346 528.175 434.701 525.955 437.641 524.305C440.611 522.655 443.881 521.83 447.451 521.83C451.051 521.83 454.321 522.655 457.261 524.305C460.201 525.955 462.556 528.175 464.326 530.965C466.096 533.755 466.981 536.845 466.981 540.235C466.981 542.725 466.441 545.065 465.361 547.255C464.311 549.415 462.886 551.29 461.086 552.88C463.366 554.62 465.151 556.765 466.441 559.315C467.761 561.835 468.421 564.535 468.421 567.415C468.421 571.045 467.476 574.36 465.586 577.36C463.726 580.33 461.206 582.715 458.026 584.515C454.846 586.285 451.321 587.17 447.451 587.17ZM447.451 576.19C449.191 576.19 450.766 575.8 452.176 575.02C453.586 574.21 454.711 573.145 455.551 571.825C456.391 570.505 456.811 569.035 456.811 567.415C456.811 565.795 456.391 564.325 455.551 563.005C454.711 561.685 453.586 560.635 452.176 559.855C450.766 559.045 449.191 558.64 447.451 558.64C445.741 558.64 444.181 559.045 442.771 559.855C441.361 560.635 440.221 561.685 439.351 563.005C438.511 564.325 438.091 565.795 438.091 567.415C438.091 569.035 438.511 570.505 439.351 571.825C440.221 573.145 441.361 574.21 442.771 575.02C444.181 575.8 445.741 576.19 447.451 576.19ZM447.451 547.66C448.921 547.66 450.256 547.33 451.456 546.67C452.656 545.98 453.601 545.08 454.291 543.97C455.011 542.86 455.371 541.615 455.371 540.235C455.371 538.855 455.011 537.61 454.291 536.5C453.601 535.39 452.656 534.505 451.456 533.845C450.256 533.155 448.921 532.81 447.451 532.81C446.011 532.81 444.691 533.155 443.491 533.845C442.291 534.505 441.331 535.39 440.611 536.5C439.891 537.61 439.531 538.855 439.531 540.235C439.531 541.615 439.891 542.86 440.611 543.97C441.331 545.08 442.291 545.98 443.491 546.67C444.691 547.33 446.011 547.66 447.451 547.66ZM485.064 586L497.169 565.075C494.199 565.255 491.364 564.85 488.664 563.86C485.994 562.87 483.609 561.4 481.509 559.45C479.409 557.5 477.744 555.19 476.514 552.52C475.314 549.85 474.714 546.955 474.714 543.835C474.714 540.805 475.284 537.97 476.424 535.33C477.564 532.66 479.139 530.32 481.149 528.31C483.189 526.27 485.529 524.68 488.169 523.54C490.839 522.4 493.704 521.83 496.764 521.83C500.754 521.83 504.399 522.82 507.699 524.8C511.029 526.78 513.684 529.435 515.664 532.765C517.674 536.095 518.679 539.785 518.679 543.835C518.679 545.845 518.424 547.75 517.914 549.55C517.434 551.32 516.669 553.12 515.619 554.95L497.754 586H485.064ZM496.674 554.86C498.834 554.86 500.739 554.335 502.389 553.285C504.069 552.235 505.374 550.87 506.304 549.19C507.234 547.51 507.699 545.71 507.699 543.79C507.699 541.69 507.189 539.815 506.169 538.165C505.149 536.485 503.799 535.18 502.119 534.25C500.439 533.29 498.654 532.81 496.764 532.81C494.604 532.81 492.684 533.335 491.004 534.385C489.354 535.405 488.049 536.755 487.089 538.435C486.129 540.115 485.649 541.9 485.649 543.79C485.649 545.8 486.129 547.645 487.089 549.325C488.079 551.005 489.399 552.355 491.049 553.375C492.729 554.365 494.604 554.86 496.674 554.86ZM530.633 587.17C529.073 587.17 527.738 586.63 526.628 585.55C525.548 584.44 525.008 583.09 525.008 581.5C525.008 579.97 525.548 578.65 526.628 577.54C527.738 576.43 529.073 575.875 530.633 575.875C532.193 575.875 533.528 576.43 534.638 577.54C535.748 578.65 536.303 579.97 536.303 581.5C536.303 583.09 535.748 584.44 534.638 585.55C533.528 586.63 532.193 587.17 530.633 587.17ZM554.761 586L566.866 565.075C563.896 565.255 561.061 564.85 558.361 563.86C555.691 562.87 553.306 561.4 551.206 559.45C549.106 557.5 547.441 555.19 546.211 552.52C545.011 549.85 544.411 546.955 544.411 543.835C544.411 540.805 544.981 537.97 546.121 535.33C547.261 532.66 548.836 530.32 550.846 528.31C552.886 526.27 555.226 524.68 557.866 523.54C560.536 522.4 563.401 521.83 566.461 521.83C570.451 521.83 574.096 522.82 577.396 524.8C580.726 526.78 583.381 529.435 585.361 532.765C587.371 536.095 588.376 539.785 588.376 543.835C588.376 545.845 588.121 547.75 587.611 549.55C587.131 551.32 586.366 553.12 585.316 554.95L567.451 586H554.761ZM566.371 554.86C568.531 554.86 570.436 554.335 572.086 553.285C573.766 552.235 575.071 550.87 576.001 549.19C576.931 547.51 577.396 545.71 577.396 543.79C577.396 541.69 576.886 539.815 575.866 538.165C574.846 536.485 573.496 535.18 571.816 534.25C570.136 533.29 568.351 532.81 566.461 532.81C564.301 532.81 562.381 533.335 560.701 534.385C559.051 535.405 557.746 536.755 556.786 538.435C555.826 540.115 555.346 541.9 555.346 543.79C555.346 545.8 555.826 547.645 556.786 549.325C557.776 551.005 559.096 552.355 560.746 553.375C562.426 554.365 564.301 554.86 566.371 554.86ZM604.155 586L616.26 565.075C613.29 565.255 610.455 564.85 607.755 563.86C605.085 562.87 602.7 561.4 600.6 559.45C598.5 557.5 596.835 555.19 595.605 552.52C594.405 549.85 593.805 546.955 593.805 543.835C593.805 540.805 594.375 537.97 595.515 535.33C596.655 532.66 598.23 530.32 600.24 528.31C602.28 526.27 604.62 524.68 607.26 523.54C609.93 522.4 612.795 521.83 615.855 521.83C619.845 521.83 623.49 522.82 626.79 524.8C630.12 526.78 632.775 529.435 634.755 532.765C636.765 536.095 637.77 539.785 637.77 543.835C637.77 545.845 637.515 547.75 637.005 549.55C636.525 551.32 635.76 553.12 634.71 554.95L616.845 586H604.155ZM615.765 554.86C617.925 554.86 619.83 554.335 621.48 553.285C623.16 552.235 624.465 550.87 625.395 549.19C626.325 547.51 626.79 545.71 626.79 543.79C626.79 541.69 626.28 539.815 625.26 538.165C624.24 536.485 622.89 535.18 621.21 534.25C619.53 533.29 617.745 532.81 615.855 532.81C613.695 532.81 611.775 533.335 610.095 534.385C608.445 535.405 607.14 536.755 606.18 538.435C605.22 540.115 604.74 541.9 604.74 543.79C604.74 545.8 605.22 547.645 606.18 549.325C607.17 551.005 608.49 552.355 610.14 553.375C611.82 554.365 613.695 554.86 615.765 554.86ZM705.786 586.858C702.09 586.858 698.878 585.956 696.15 584.152C693.444 582.348 691.354 579.928 689.88 576.892C688.428 573.834 687.702 570.446 687.702 566.728V539.8H693.246V566.728C693.246 569.368 693.73 571.799 694.698 574.021C695.688 576.243 697.107 578.014 698.955 579.334C700.825 580.654 703.102 581.314 705.786 581.314C708.514 581.314 710.802 580.654 712.65 579.334C714.498 577.992 715.895 576.221 716.841 574.021C717.809 571.799 718.293 569.368 718.293 566.728V539.8H723.837V566.728C723.837 569.522 723.419 572.14 722.583 574.582C721.747 577.002 720.537 579.136 718.953 580.984C717.391 582.832 715.499 584.273 713.277 585.307C711.055 586.341 708.558 586.858 705.786 586.858ZM748.057 586.858C745.571 586.858 743.173 586.473 740.863 585.703C738.553 584.911 736.529 583.789 734.791 582.337C733.075 580.885 731.854 579.158 731.128 577.156L736.309 575.209C736.749 576.441 737.563 577.519 738.751 578.443C739.961 579.345 741.38 580.049 743.008 580.555C744.636 581.061 746.319 581.314 748.057 581.314C750.037 581.314 751.874 580.995 753.568 580.357C755.284 579.697 756.67 578.784 757.726 577.618C758.782 576.452 759.31 575.088 759.31 573.526C759.31 571.92 758.76 570.611 757.66 569.599C756.56 568.565 755.152 567.751 753.436 567.157C751.72 566.541 749.927 566.068 748.057 565.738C744.867 565.21 742.007 564.462 739.477 563.494C736.969 562.504 734.978 561.129 733.504 559.369C732.052 557.609 731.326 555.288 731.326 552.406C731.326 549.722 732.096 547.379 733.636 545.377C735.198 543.375 737.255 541.824 739.807 540.724C742.359 539.624 745.109 539.074 748.057 539.074C750.499 539.074 752.864 539.459 755.152 540.229C757.462 540.977 759.497 542.077 761.257 543.529C763.017 544.981 764.282 546.752 765.052 548.842L759.805 550.756C759.365 549.502 758.54 548.424 757.33 547.522C756.142 546.598 754.734 545.894 753.106 545.41C751.5 544.904 749.817 544.651 748.057 544.651C746.099 544.629 744.273 544.948 742.579 545.608C740.885 546.268 739.51 547.181 738.454 548.347C737.398 549.513 736.87 550.866 736.87 552.406C736.87 554.254 737.354 555.673 738.322 556.663C739.312 557.631 740.654 558.357 742.348 558.841C744.042 559.325 745.945 559.754 748.057 560.128C751.049 560.634 753.821 561.437 756.373 562.537C758.925 563.615 760.971 565.056 762.511 566.86C764.073 568.664 764.854 570.886 764.854 573.526C764.854 576.21 764.073 578.553 762.511 580.555C760.971 582.557 758.925 584.108 756.373 585.208C753.821 586.308 751.049 586.858 748.057 586.858ZM772.716 586V539.8H787.995C791.185 539.8 794.177 540.405 796.971 541.615C799.765 542.803 802.218 544.464 804.33 546.598C806.442 548.71 808.092 551.163 809.28 553.957C810.49 556.729 811.095 559.71 811.095 562.9C811.095 566.09 810.49 569.082 809.28 571.876C808.092 574.648 806.442 577.101 804.33 579.235C802.218 581.347 799.765 583.008 796.971 584.218C794.177 585.406 791.185 586 787.995 586H772.716ZM778.26 580.456H787.995C790.415 580.456 792.681 580.005 794.793 579.103C796.927 578.179 798.797 576.914 800.403 575.308C802.009 573.702 803.263 571.843 804.165 569.731C805.089 567.597 805.551 565.32 805.551 562.9C805.551 560.48 805.089 558.214 804.165 556.102C803.263 553.968 801.998 552.098 800.37 550.492C798.764 548.886 796.905 547.632 794.793 546.73C792.681 545.806 790.415 545.344 787.995 545.344H778.26V580.456ZM849.364 539.8V545.344H833.986V586H828.442V545.344H813.097V539.8H849.364Z" fill="#04210E"/>
<path d="M488.027 691V682.945H474.549V678.242L486.902 659.5H492.707V678.265H495.587V682.945H492.707V691H488.027ZM479.994 678.242L488.027 678.265L487.982 665.957L479.994 678.242ZM510.486 691.585C508.626 691.585 506.946 691.165 505.446 690.325C503.961 689.47 502.679 688.292 501.599 686.792C500.519 685.292 499.694 683.56 499.124 681.595C498.554 679.615 498.269 677.5 498.269 675.25C498.269 673 498.554 670.885 499.124 668.905C499.694 666.925 500.519 665.192 501.599 663.707C502.679 662.207 503.961 661.037 505.446 660.197C506.946 659.342 508.626 658.915 510.486 658.915C512.316 658.915 513.981 659.342 515.481 660.197C516.981 661.037 518.256 662.207 519.306 663.707C520.371 665.192 521.189 666.925 521.759 668.905C522.329 670.885 522.614 673 522.614 675.25C522.614 677.5 522.329 679.615 521.759 681.595C521.189 683.56 520.371 685.292 519.306 686.792C518.256 688.292 516.981 689.47 515.481 690.325C513.981 691.165 512.316 691.585 510.486 691.585ZM510.486 686.905C512.211 686.905 513.644 686.365 514.784 685.285C515.939 684.19 516.801 682.757 517.371 680.987C517.941 679.217 518.226 677.305 518.226 675.25C518.226 673.09 517.926 671.132 517.326 669.377C516.741 667.607 515.871 666.205 514.716 665.17C513.576 664.12 512.166 663.595 510.486 663.595C509.151 663.595 507.989 663.91 506.999 664.54C506.024 665.17 505.214 666.032 504.569 667.127C503.939 668.222 503.459 669.467 503.129 670.862C502.814 672.257 502.656 673.72 502.656 675.25C502.656 677.305 502.949 679.217 503.534 680.987C504.119 682.757 504.989 684.19 506.144 685.285C507.314 686.365 508.761 686.905 510.486 686.905ZM528.198 691.585C527.508 691.585 526.923 691.345 526.443 690.865C525.978 690.385 525.745 689.8 525.745 689.11C525.745 688.435 525.978 687.857 526.443 687.377C526.923 686.897 527.508 686.657 528.198 686.657C528.888 686.657 529.473 686.897 529.953 687.377C530.433 687.857 530.673 688.435 530.673 689.11C530.673 689.8 530.433 690.385 529.953 690.865C529.473 691.345 528.888 691.585 528.198 691.585ZM545.521 691.585C543.511 691.585 541.674 691.09 540.009 690.1C538.344 689.095 537.009 687.76 536.004 686.095C535.014 684.415 534.519 682.562 534.519 680.537C534.519 679.457 534.646 678.482 534.901 677.612C535.156 676.742 535.546 675.827 536.071 674.867L544.936 659.5H550.381L544.239 670.12C545.484 669.88 546.699 669.872 547.884 670.097C549.084 670.307 550.209 670.72 551.259 671.335C552.309 671.935 553.231 672.7 554.026 673.63C554.836 674.545 555.466 675.587 555.916 676.757C556.366 677.927 556.591 679.187 556.591 680.537C556.591 682.052 556.299 683.477 555.714 684.812C555.144 686.147 554.349 687.325 553.329 688.345C552.324 689.35 551.146 690.145 549.796 690.73C548.461 691.3 547.036 691.585 545.521 691.585ZM545.521 686.905C546.751 686.905 547.846 686.605 548.806 686.005C549.766 685.405 550.524 684.617 551.079 683.642C551.634 682.667 551.911 681.632 551.911 680.537C551.911 679.382 551.626 678.325 551.056 677.365C550.501 676.405 549.744 675.64 548.784 675.07C547.824 674.485 546.751 674.192 545.566 674.192C544.336 674.192 543.241 674.492 542.281 675.092C541.321 675.692 540.564 676.472 540.009 677.432C539.469 678.392 539.199 679.427 539.199 680.537C539.199 681.752 539.491 682.84 540.076 683.8C540.676 684.76 541.456 685.517 542.416 686.072C543.376 686.627 544.411 686.905 545.521 686.905ZM570.064 691.585C568.159 691.585 566.426 691.15 564.866 690.28C563.306 689.41 562.061 688.247 561.131 686.792C560.216 685.322 559.759 683.687 559.759 681.887C559.759 680.372 560.134 678.962 560.884 677.657C561.634 676.352 562.631 675.272 563.876 674.417C562.871 673.667 562.054 672.722 561.424 671.582C560.794 670.442 560.479 669.212 560.479 667.892C560.479 666.242 560.906 664.742 561.761 663.392C562.631 662.027 563.794 660.94 565.249 660.13C566.704 659.32 568.309 658.915 570.064 658.915C571.819 658.915 573.424 659.32 574.879 660.13C576.334 660.94 577.489 662.027 578.344 663.392C579.214 664.742 579.649 666.242 579.649 667.892C579.649 669.212 579.334 670.442 578.704 671.582C578.089 672.722 577.271 673.667 576.251 674.417C577.526 675.272 578.531 676.352 579.266 677.657C580.016 678.962 580.391 680.372 580.391 681.887C580.391 683.672 579.926 685.3 578.996 686.77C578.066 688.24 576.821 689.41 575.261 690.28C573.701 691.15 571.969 691.585 570.064 691.585ZM570.064 686.905C571.054 686.905 571.954 686.68 572.764 686.23C573.574 685.78 574.219 685.18 574.699 684.43C575.194 683.665 575.441 682.817 575.441 681.887C575.441 680.972 575.194 680.14 574.699 679.39C574.219 678.625 573.574 678.017 572.764 677.567C571.954 677.117 571.054 676.892 570.064 676.892C569.089 676.892 568.189 677.117 567.364 677.567C566.554 678.017 565.901 678.625 565.406 679.39C564.926 680.14 564.686 680.972 564.686 681.887C564.686 682.817 564.926 683.665 565.406 684.43C565.901 685.18 566.554 685.78 567.364 686.23C568.189 686.68 569.089 686.905 570.064 686.905ZM570.064 672.212C570.919 672.212 571.691 672.017 572.381 671.627C573.086 671.237 573.649 670.72 574.069 670.075C574.489 669.415 574.699 668.687 574.699 667.892C574.699 667.097 574.489 666.377 574.069 665.732C573.649 665.087 573.086 664.57 572.381 664.18C571.691 663.79 570.919 663.595 570.064 663.595C569.209 663.595 568.429 663.79 567.724 664.18C567.034 664.57 566.479 665.087 566.059 665.732C565.639 666.377 565.429 667.097 565.429 667.892C565.429 668.687 565.639 669.415 566.059 670.075C566.479 670.72 567.034 671.237 567.724 671.627C568.429 672.017 569.209 672.212 570.064 672.212ZM584.895 691L600.353 664.18H583.073V659.5H605.775V664.18L590.273 691H584.895ZM610.947 691.585C610.257 691.585 609.672 691.345 609.192 690.865C608.727 690.385 608.494 689.8 608.494 689.11C608.494 688.435 608.727 687.857 609.192 687.377C609.672 686.897 610.257 686.657 610.947 686.657C611.637 686.657 612.222 686.897 612.702 687.377C613.182 687.857 613.422 688.435 613.422 689.11C613.422 689.8 613.182 690.385 612.702 690.865C612.222 691.345 611.637 691.585 610.947 691.585ZM628.36 691.585C626.365 691.585 624.558 691.105 622.938 690.145C621.333 689.17 620.058 687.88 619.113 686.275C618.183 684.655 617.718 682.885 617.718 680.965H622.398C622.398 682.06 622.668 683.057 623.208 683.957C623.748 684.857 624.468 685.577 625.368 686.117C626.268 686.642 627.265 686.905 628.36 686.905C629.44 686.905 630.43 686.642 631.33 686.117C632.23 685.577 632.95 684.857 633.49 683.957C634.03 683.057 634.3 682.06 634.3 680.965C634.3 679.87 634.053 678.872 633.558 677.972C633.063 677.057 632.32 676.33 631.33 675.79C630.34 675.235 629.08 674.957 627.55 674.957H619.608L622.803 659.5H638.035V664.18H626.605L625.368 670.277L628.09 670.322C630.235 670.367 632.118 670.862 633.738 671.807C635.373 672.737 636.655 673.997 637.585 675.587C638.515 677.162 638.98 678.955 638.98 680.965C638.98 682.42 638.703 683.792 638.148 685.082C637.593 686.357 636.828 687.482 635.853 688.457C634.893 689.432 633.768 690.197 632.478 690.752C631.203 691.308 629.83 691.585 628.36 691.585ZM653.78 691.585C651.875 691.585 650.142 691.15 648.582 690.28C647.022 689.41 645.777 688.247 644.847 686.792C643.932 685.322 643.475 683.687 643.475 681.887C643.475 680.372 643.85 678.962 644.6 677.657C645.35 676.352 646.347 675.272 647.592 674.417C646.587 673.667 645.77 672.722 645.14 671.582C644.51 670.442 644.195 669.212 644.195 667.892C644.195 666.242 644.622 664.742 645.477 663.392C646.347 662.027 647.51 660.94 648.965 660.13C650.42 659.32 652.025 658.915 653.78 658.915C655.535 658.915 657.14 659.32 658.595 660.13C660.05 660.94 661.205 662.027 662.06 663.392C662.93 664.742 663.365 666.242 663.365 667.892C663.365 669.212 663.05 670.442 662.42 671.582C661.805 672.722 660.987 673.667 659.967 674.417C661.242 675.272 662.247 676.352 662.982 677.657C663.732 678.962 664.107 680.372 664.107 681.887C664.107 683.672 663.642 685.3 662.712 686.77C661.782 688.24 660.537 689.41 658.977 690.28C657.417 691.15 655.685 691.585 653.78 691.585ZM653.78 686.905C654.77 686.905 655.67 686.68 656.48 686.23C657.29 685.78 657.935 685.18 658.415 684.43C658.91 683.665 659.157 682.817 659.157 681.887C659.157 680.972 658.91 680.14 658.415 679.39C657.935 678.625 657.29 678.017 656.48 677.567C655.67 677.117 654.77 676.892 653.78 676.892C652.805 676.892 651.905 677.117 651.08 677.567C650.27 678.017 649.617 678.625 649.122 679.39C648.642 680.14 648.402 680.972 648.402 681.887C648.402 682.817 648.642 683.665 649.122 684.43C649.617 685.18 650.27 685.78 651.08 686.23C651.905 686.68 652.805 686.905 653.78 686.905ZM653.78 672.212C654.635 672.212 655.407 672.017 656.097 671.627C656.802 671.237 657.365 670.72 657.785 670.075C658.205 669.415 658.415 668.687 658.415 667.892C658.415 667.097 658.205 666.377 657.785 665.732C657.365 665.087 656.802 664.57 656.097 664.18C655.407 663.79 654.635 663.595 653.78 663.595C652.925 663.595 652.145 663.79 651.44 664.18C650.75 664.57 650.195 665.087 649.775 665.732C649.355 666.377 649.145 667.097 649.145 667.892C649.145 668.687 649.355 669.415 649.775 670.075C650.195 670.72 650.75 671.237 651.44 671.627C652.145 672.017 652.925 672.212 653.78 672.212ZM702.54 691.585C700.02 691.585 697.83 690.97 695.97 689.74C694.125 688.51 692.7 686.86 691.695 684.79C690.705 682.705 690.21 680.395 690.21 677.86V659.5H693.99V677.86C693.99 679.66 694.32 681.317 694.98 682.832C695.655 684.347 696.622 685.555 697.882 686.455C699.157 687.355 700.71 687.805 702.54 687.805C704.4 687.805 705.96 687.355 707.22 686.455C708.48 685.54 709.432 684.332 710.077 682.832C710.737 681.317 711.067 679.66 711.067 677.86V659.5H714.847V677.86C714.847 679.765 714.562 681.55 713.992 683.215C713.422 684.865 712.597 686.32 711.517 687.58C710.452 688.84 709.162 689.822 707.647 690.527C706.132 691.232 704.43 691.585 702.54 691.585ZM731.361 691.585C729.666 691.585 728.031 691.323 726.456 690.797C724.881 690.257 723.501 689.492 722.316 688.502C721.146 687.512 720.313 686.335 719.818 684.97L723.351 683.642C723.651 684.482 724.206 685.217 725.016 685.847C725.841 686.462 726.808 686.942 727.918 687.287C729.028 687.632 730.176 687.805 731.361 687.805C732.711 687.805 733.963 687.587 735.118 687.152C736.288 686.702 737.233 686.08 737.953 685.285C738.673 684.49 739.033 683.56 739.033 682.495C739.033 681.4 738.658 680.507 737.908 679.817C737.158 679.112 736.198 678.557 735.028 678.152C733.858 677.732 732.636 677.41 731.361 677.185C729.186 676.825 727.236 676.315 725.511 675.655C723.801 674.98 722.443 674.042 721.438 672.842C720.448 671.642 719.953 670.06 719.953 668.095C719.953 666.265 720.478 664.667 721.528 663.302C722.593 661.937 723.996 660.88 725.736 660.13C727.476 659.38 729.351 659.005 731.361 659.005C733.026 659.005 734.638 659.267 736.198 659.792C737.773 660.302 739.161 661.052 740.361 662.042C741.561 663.032 742.423 664.24 742.948 665.665L739.371 666.97C739.071 666.115 738.508 665.38 737.683 664.765C736.873 664.135 735.913 663.655 734.803 663.325C733.708 662.98 732.561 662.807 731.361 662.807C730.026 662.792 728.781 663.01 727.626 663.46C726.471 663.91 725.533 664.532 724.813 665.327C724.093 666.122 723.733 667.045 723.733 668.095C723.733 669.355 724.063 670.322 724.723 670.997C725.398 671.657 726.313 672.152 727.468 672.482C728.623 672.812 729.921 673.105 731.361 673.36C733.401 673.705 735.291 674.252 737.031 675.002C738.771 675.737 740.166 676.72 741.216 677.95C742.281 679.18 742.813 680.695 742.813 682.495C742.813 684.325 742.281 685.922 741.216 687.287C740.166 688.652 738.771 689.71 737.031 690.46C735.291 691.21 733.401 691.585 731.361 691.585ZM748.174 691V659.5H758.591C760.766 659.5 762.806 659.912 764.711 660.737C766.616 661.547 768.289 662.68 769.729 664.135C771.169 665.575 772.294 667.247 773.104 669.152C773.929 671.042 774.341 673.075 774.341 675.25C774.341 677.425 773.929 679.465 773.104 681.37C772.294 683.26 771.169 684.932 769.729 686.387C768.289 687.827 766.616 688.96 764.711 689.785C762.806 690.595 760.766 691 758.591 691H748.174ZM751.954 687.22H758.591C760.241 687.22 761.786 686.912 763.226 686.297C764.681 685.667 765.956 684.805 767.051 683.71C768.146 682.615 769.001 681.347 769.616 679.907C770.246 678.452 770.561 676.9 770.561 675.25C770.561 673.6 770.246 672.055 769.616 670.615C769.001 669.16 768.139 667.885 767.029 666.79C765.934 665.695 764.666 664.84 763.226 664.225C761.786 663.595 760.241 663.28 758.591 663.28H751.954V687.22ZM800.434 659.5V663.28H789.949V691H786.169V663.28H775.706V659.5H800.434Z" fill="#04210E"/>
<path d="M446.049 733.755C445.116 733.743 444.241 733.895 443.424 734.21C442.619 734.513 441.96 734.933 441.446 735.47C440.933 736.007 440.676 736.631 440.676 737.342C440.676 738.217 440.916 738.882 441.394 739.337C441.872 739.792 442.514 740.131 443.319 740.352C444.136 740.562 445.046 740.755 446.049 740.93C447.659 741.187 449.146 741.612 450.511 742.207C451.888 742.802 452.991 743.596 453.819 744.587C454.659 745.567 455.079 746.775 455.079 748.21C455.079 749.528 454.729 750.701 454.029 751.727C453.329 752.742 452.39 753.565 451.211 754.195C450.045 754.813 448.756 755.204 447.344 755.368V758.92H444.771V755.368C443.593 755.251 442.473 754.971 441.411 754.527C440.361 754.084 439.446 753.495 438.664 752.76C437.882 752.025 437.316 751.173 436.966 750.205L440.379 748.927C440.577 749.487 440.956 749.989 441.516 750.432C442.088 750.864 442.765 751.202 443.546 751.447C444.34 751.692 445.174 751.815 446.049 751.815C446.982 751.815 447.857 751.663 448.674 751.36C449.502 751.057 450.167 750.637 450.669 750.1C451.182 749.563 451.439 748.933 451.439 748.21C451.439 747.463 451.171 746.851 450.634 746.372C450.109 745.894 449.432 745.515 448.604 745.235C447.787 744.955 446.936 744.745 446.049 744.605C444.334 744.325 442.794 743.917 441.429 743.38C440.076 742.843 439.002 742.091 438.209 741.122C437.427 740.154 437.036 738.894 437.036 737.342C437.036 736.024 437.386 734.852 438.086 733.825C438.786 732.798 439.72 731.976 440.886 731.357C442.065 730.727 443.36 730.337 444.771 730.185V726.58H447.344V730.185C448.487 730.302 449.584 730.582 450.634 731.025C451.696 731.468 452.623 732.057 453.416 732.792C454.21 733.516 454.787 734.379 455.149 735.382L451.701 736.625C451.503 736.053 451.124 735.557 450.564 735.137C450.004 734.706 449.327 734.367 448.534 734.122C447.752 733.877 446.924 733.755 446.049 733.755ZM457.953 755V751.762C458.781 751.074 459.732 750.275 460.805 749.365C461.879 748.443 462.969 747.469 464.078 746.442C465.186 745.404 466.207 744.372 467.14 743.345C468.074 742.307 468.826 741.327 469.398 740.405C469.981 739.472 470.273 738.661 470.273 737.972C470.273 737.191 470.08 736.479 469.695 735.837C469.322 735.184 468.814 734.665 468.173 734.28C467.531 733.883 466.819 733.685 466.038 733.685C465.256 733.685 464.539 733.883 463.885 734.28C463.244 734.665 462.724 735.184 462.328 735.837C461.943 736.479 461.75 737.191 461.75 737.972H458.11C458.11 736.491 458.472 735.155 459.195 733.965C459.93 732.763 460.893 731.812 462.083 731.112C463.284 730.401 464.603 730.045 466.038 730.045C467.484 730.045 468.803 730.401 469.993 731.112C471.183 731.824 472.134 732.781 472.845 733.982C473.557 735.172 473.913 736.502 473.913 737.972C473.913 738.789 473.744 739.629 473.405 740.492C473.067 741.356 472.594 742.237 471.988 743.135C471.393 744.033 470.699 744.943 469.905 745.865C469.112 746.787 468.26 747.708 467.35 748.63C466.44 749.552 465.513 750.462 464.568 751.36H474.123V755H457.953ZM477.606 756.96L478.691 751.045H482.331L480.021 756.96H477.606ZM494.996 755.455C493.549 755.455 492.243 755.128 491.076 754.475C489.921 753.81 488.923 752.894 488.083 751.727C487.243 750.561 486.602 749.213 486.158 747.685C485.715 746.145 485.493 744.5 485.493 742.75C485.493 741 485.715 739.355 486.158 737.815C486.602 736.275 487.243 734.927 488.083 733.772C488.923 732.606 489.921 731.696 491.076 731.042C492.243 730.377 493.549 730.045 494.996 730.045C496.419 730.045 497.714 730.377 498.881 731.042C500.048 731.696 501.039 732.606 501.856 733.772C502.684 734.927 503.32 736.275 503.763 737.815C504.207 739.355 504.428 741 504.428 742.75C504.428 744.5 504.207 746.145 503.763 747.685C503.32 749.213 502.684 750.561 501.856 751.727C501.039 752.894 500.048 753.81 498.881 754.475C497.714 755.128 496.419 755.455 494.996 755.455ZM494.996 751.815C496.338 751.815 497.452 751.395 498.338 750.555C499.237 749.703 499.908 748.589 500.351 747.212C500.794 745.836 501.016 744.348 501.016 742.75C501.016 741.07 500.783 739.547 500.316 738.182C499.861 736.806 499.184 735.715 498.286 734.91C497.399 734.093 496.303 733.685 494.996 733.685C493.958 733.685 493.053 733.93 492.283 734.42C491.525 734.91 490.895 735.581 490.393 736.432C489.903 737.284 489.53 738.252 489.273 739.337C489.028 740.422 488.906 741.56 488.906 742.75C488.906 744.348 489.133 745.836 489.588 747.212C490.043 748.589 490.72 749.703 491.618 750.555C492.528 751.395 493.654 751.815 494.996 751.815ZM515.367 755.455C513.92 755.455 512.614 755.128 511.447 754.475C510.292 753.81 509.294 752.894 508.454 751.727C507.614 750.561 506.973 749.213 506.529 747.685C506.086 746.145 505.864 744.5 505.864 742.75C505.864 741 506.086 739.355 506.529 737.815C506.973 736.275 507.614 734.927 508.454 733.772C509.294 732.606 510.292 731.696 511.447 731.042C512.614 730.377 513.92 730.045 515.367 730.045C516.79 730.045 518.085 730.377 519.252 731.042C520.419 731.696 521.41 732.606 522.227 733.772C523.055 734.927 523.691 736.275 524.134 737.815C524.578 739.355 524.799 741 524.799 742.75C524.799 744.5 524.578 746.145 524.134 747.685C523.691 749.213 523.055 750.561 522.227 751.727C521.41 752.894 520.419 753.81 519.252 754.475C518.085 755.128 516.79 755.455 515.367 755.455ZM515.367 751.815C516.709 751.815 517.823 751.395 518.709 750.555C519.608 749.703 520.279 748.589 520.722 747.212C521.165 745.836 521.387 744.348 521.387 742.75C521.387 741.07 521.154 739.547 520.687 738.182C520.232 736.806 519.555 735.715 518.657 734.91C517.77 734.093 516.674 733.685 515.367 733.685C514.329 733.685 513.424 733.93 512.654 734.42C511.896 734.91 511.266 735.581 510.764 736.432C510.274 737.284 509.901 738.252 509.644 739.337C509.399 740.422 509.277 741.56 509.277 742.75C509.277 744.348 509.504 745.836 509.959 747.212C510.414 748.589 511.091 749.703 511.989 750.555C512.899 751.395 514.025 751.815 515.367 751.815ZM535.738 755.455C534.291 755.455 532.985 755.128 531.818 754.475C530.663 753.81 529.666 752.894 528.826 751.727C527.986 750.561 527.344 749.213 526.901 747.685C526.457 746.145 526.236 744.5 526.236 742.75C526.236 741 526.457 739.355 526.901 737.815C527.344 736.275 527.986 734.927 528.826 733.772C529.666 732.606 530.663 731.696 531.818 731.042C532.985 730.377 534.291 730.045 535.738 730.045C537.161 730.045 538.456 730.377 539.623 731.042C540.79 731.696 541.781 732.606 542.598 733.772C543.426 734.927 544.062 736.275 544.506 737.815C544.949 739.355 545.171 741 545.171 742.75C545.171 744.5 544.949 746.145 544.506 747.685C544.062 749.213 543.426 750.561 542.598 751.727C541.781 752.894 540.79 753.81 539.623 754.475C538.456 755.128 537.161 755.455 535.738 755.455ZM535.738 751.815C537.08 751.815 538.194 751.395 539.081 750.555C539.979 749.703 540.65 748.589 541.093 747.212C541.536 745.836 541.758 744.348 541.758 742.75C541.758 741.07 541.525 739.547 541.058 738.182C540.603 736.806 539.926 735.715 539.028 734.91C538.141 734.093 537.045 733.685 535.738 733.685C534.7 733.685 533.796 733.93 533.026 734.42C532.267 734.91 531.637 735.581 531.136 736.432C530.646 737.284 530.272 738.252 530.016 739.337C529.771 740.422 529.648 741.56 529.648 742.75C529.648 744.348 529.876 745.836 530.331 747.212C530.786 748.589 531.462 749.703 532.361 750.555C533.271 751.395 534.396 751.815 535.738 751.815ZM549.514 755.455C548.977 755.455 548.522 755.268 548.149 754.895C547.787 754.522 547.606 754.067 547.606 753.53C547.606 753.005 547.787 752.556 548.149 752.182C548.522 751.809 548.977 751.622 549.514 751.622C550.05 751.622 550.505 751.809 550.879 752.182C551.252 752.556 551.439 753.005 551.439 753.53C551.439 754.067 551.252 754.522 550.879 754.895C550.505 755.268 550.05 755.455 549.514 755.455ZM564.107 755.455C562.661 755.455 561.354 755.128 560.187 754.475C559.032 753.81 558.035 752.894 557.195 751.727C556.355 750.561 555.713 749.213 555.27 747.685C554.826 746.145 554.605 744.5 554.605 742.75C554.605 741 554.826 739.355 555.27 737.815C555.713 736.275 556.355 734.927 557.195 733.772C558.035 732.606 559.032 731.696 560.187 731.042C561.354 730.377 562.661 730.045 564.107 730.045C565.531 730.045 566.826 730.377 567.992 731.042C569.159 731.696 570.151 732.606 570.967 733.772C571.796 734.927 572.431 736.275 572.875 737.815C573.318 739.355 573.54 741 573.54 742.75C573.54 744.5 573.318 746.145 572.875 747.685C572.431 749.213 571.796 750.561 570.967 751.727C570.151 752.894 569.159 753.81 567.992 754.475C566.826 755.128 565.531 755.455 564.107 755.455ZM564.107 751.815C565.449 751.815 566.563 751.395 567.45 750.555C568.348 749.703 569.019 748.589 569.462 747.212C569.906 745.836 570.127 744.348 570.127 742.75C570.127 741.07 569.894 739.547 569.427 738.182C568.972 736.806 568.296 735.715 567.397 734.91C566.511 734.093 565.414 733.685 564.107 733.685C563.069 733.685 562.165 733.93 561.395 734.42C560.636 734.91 560.006 735.581 559.505 736.432C559.015 737.284 558.641 738.252 558.385 739.337C558.14 740.422 558.017 741.56 558.017 742.75C558.017 744.348 558.245 745.836 558.7 747.212C559.155 748.589 559.831 749.703 560.73 750.555C561.64 751.395 562.766 751.815 564.107 751.815ZM584.478 755.455C583.032 755.455 581.725 755.128 580.558 754.475C579.403 753.81 578.406 752.894 577.566 751.727C576.726 750.561 576.084 749.213 575.641 747.685C575.197 746.145 574.976 744.5 574.976 742.75C574.976 741 575.197 739.355 575.641 737.815C576.084 736.275 576.726 734.927 577.566 733.772C578.406 732.606 579.403 731.696 580.558 731.042C581.725 730.377 583.032 730.045 584.478 730.045C585.902 730.045 587.197 730.377 588.363 731.042C589.53 731.696 590.522 732.606 591.338 733.772C592.167 734.927 592.802 736.275 593.246 737.815C593.689 739.355 593.911 741 593.911 742.75C593.911 744.5 593.689 746.145 593.246 747.685C592.802 749.213 592.167 750.561 591.338 751.727C590.522 752.894 589.53 753.81 588.363 754.475C587.197 755.128 585.902 755.455 584.478 755.455ZM584.478 751.815C585.82 751.815 586.934 751.395 587.821 750.555C588.719 749.703 589.39 748.589 589.833 747.212C590.277 745.836 590.498 744.348 590.498 742.75C590.498 741.07 590.265 739.547 589.798 738.182C589.343 736.806 588.667 735.715 587.768 734.91C586.882 734.093 585.785 733.685 584.478 733.685C583.44 733.685 582.536 733.93 581.766 734.42C581.007 734.91 580.377 735.581 579.876 736.432C579.386 737.284 579.012 738.252 578.756 739.337C578.511 740.422 578.388 741.56 578.388 742.75C578.388 744.348 578.616 745.836 579.071 747.212C579.526 748.589 580.202 749.703 581.101 750.555C582.011 751.395 583.137 751.815 584.478 751.815ZM604.849 755.455C603.403 755.455 602.096 755.128 600.929 754.475C599.774 753.81 598.777 752.894 597.937 751.727C597.097 750.561 596.455 749.213 596.012 747.685C595.569 746.145 595.347 744.5 595.347 742.75C595.347 741 595.569 739.355 596.012 737.815C596.455 736.275 597.097 734.927 597.937 733.772C598.777 732.606 599.774 731.696 600.929 731.042C602.096 730.377 603.403 730.045 604.849 730.045C606.273 730.045 607.568 730.377 608.734 731.042C609.901 731.696 610.893 732.606 611.709 733.772C612.538 734.927 613.174 736.275 613.617 737.815C614.06 739.355 614.282 741 614.282 742.75C614.282 744.5 614.06 746.145 613.617 747.685C613.174 749.213 612.538 750.561 611.709 751.727C610.893 752.894 609.901 753.81 608.734 754.475C607.568 755.128 606.273 755.455 604.849 755.455ZM604.849 751.815C606.191 751.815 607.305 751.395 608.192 750.555C609.09 749.703 609.761 748.589 610.204 747.212C610.648 745.836 610.869 744.348 610.869 742.75C610.869 741.07 610.636 739.547 610.169 738.182C609.714 736.806 609.038 735.715 608.139 734.91C607.253 734.093 606.156 733.685 604.849 733.685C603.811 733.685 602.907 733.93 602.137 734.42C601.379 734.91 600.749 735.581 600.247 736.432C599.757 737.284 599.384 738.252 599.127 739.337C598.882 740.422 598.759 741.56 598.759 742.75C598.759 744.348 598.987 745.836 599.442 747.212C599.897 748.589 600.574 749.703 601.472 750.555C602.382 751.395 603.508 751.815 604.849 751.815ZM625.826 742.68H637.026V746.32H625.826V742.68ZM658.031 733.755C657.098 733.743 656.223 733.895 655.406 734.21C654.601 734.513 653.942 734.933 653.429 735.47C652.915 736.007 652.659 736.631 652.659 737.342C652.659 738.217 652.898 738.882 653.376 739.337C653.855 739.792 654.496 740.131 655.301 740.352C656.118 740.562 657.028 740.755 658.031 740.93C659.641 741.187 661.129 741.612 662.494 742.207C663.87 742.802 664.973 743.596 665.801 744.587C666.641 745.567 667.061 746.775 667.061 748.21C667.061 749.528 666.711 750.701 666.011 751.727C665.311 752.742 664.372 753.565 663.194 754.195C662.027 754.813 660.738 755.204 659.326 755.368V758.92H656.754V755.368C655.575 755.251 654.455 754.971 653.394 754.527C652.344 754.084 651.428 753.495 650.646 752.76C649.865 752.025 649.299 751.173 648.949 750.205L652.361 748.927C652.56 749.487 652.939 749.989 653.499 750.432C654.07 750.864 654.747 751.202 655.529 751.447C656.322 751.692 657.156 751.815 658.031 751.815C658.965 751.815 659.84 751.663 660.656 751.36C661.485 751.057 662.15 750.637 662.651 750.1C663.165 749.563 663.421 748.933 663.421 748.21C663.421 747.463 663.153 746.851 662.616 746.372C662.091 745.894 661.415 745.515 660.586 745.235C659.77 744.955 658.918 744.745 658.031 744.605C656.316 744.325 654.776 743.917 653.411 743.38C652.058 742.843 650.985 742.091 650.191 741.122C649.41 740.154 649.019 738.894 649.019 737.342C649.019 736.024 649.369 734.852 650.069 733.825C650.769 732.798 651.702 731.976 652.869 731.357C654.047 730.727 655.342 730.337 656.754 730.185V726.58H659.326V730.185C660.47 730.302 661.566 730.582 662.616 731.025C663.678 731.468 664.605 732.057 665.399 732.792C666.192 733.516 666.77 734.379 667.131 735.382L663.684 736.625C663.485 736.053 663.106 735.557 662.546 735.137C661.986 734.706 661.31 734.367 660.516 734.122C659.735 733.877 658.906 733.755 658.031 733.755ZM672.858 755V734.14H669.935L670.933 730.5H676.498V755H672.858ZM689.854 755.455C688.408 755.455 687.101 755.128 685.934 754.475C684.779 753.81 683.782 752.894 682.942 751.727C682.102 750.561 681.46 749.213 681.017 747.685C680.573 746.145 680.352 744.5 680.352 742.75C680.352 741 680.573 739.355 681.017 737.815C681.46 736.275 682.102 734.927 682.942 733.772C683.782 732.606 684.779 731.696 685.934 731.042C687.101 730.377 688.408 730.045 689.854 730.045C691.278 730.045 692.573 730.377 693.739 731.042C694.906 731.696 695.898 732.606 696.714 733.772C697.543 734.927 698.178 736.275 698.622 737.815C699.065 739.355 699.287 741 699.287 742.75C699.287 744.5 699.065 746.145 698.622 747.685C698.178 749.213 697.543 750.561 696.714 751.727C695.898 752.894 694.906 753.81 693.739 754.475C692.573 755.128 691.278 755.455 689.854 755.455ZM689.854 751.815C691.196 751.815 692.31 751.395 693.197 750.555C694.095 749.703 694.766 748.589 695.209 747.212C695.653 745.836 695.874 744.348 695.874 742.75C695.874 741.07 695.641 739.547 695.174 738.182C694.719 736.806 694.043 735.715 693.144 734.91C692.258 734.093 691.161 733.685 689.854 733.685C688.816 733.685 687.912 733.93 687.142 734.42C686.383 734.91 685.753 735.581 685.252 736.432C684.762 737.284 684.388 738.252 684.132 739.337C683.887 740.422 683.764 741.56 683.764 742.75C683.764 744.348 683.992 745.836 684.447 747.212C684.902 748.589 685.578 749.703 686.477 750.555C687.387 751.395 688.513 751.815 689.854 751.815ZM701.722 756.96L702.807 751.045H706.447L704.137 756.96H701.722ZM719.112 755.455C717.665 755.455 716.359 755.128 715.192 754.475C714.037 753.81 713.04 752.894 712.2 751.727C711.36 750.561 710.718 749.213 710.275 747.685C709.831 746.145 709.61 744.5 709.61 742.75C709.61 741 709.831 739.355 710.275 737.815C710.718 736.275 711.36 734.927 712.2 733.772C713.04 732.606 714.037 731.696 715.192 731.042C716.359 730.377 717.665 730.045 719.112 730.045C720.535 730.045 721.83 730.377 722.997 731.042C724.164 731.696 725.155 732.606 725.972 733.772C726.8 734.927 727.436 736.275 727.88 737.815C728.323 739.355 728.545 741 728.545 742.75C728.545 744.5 728.323 746.145 727.88 747.685C727.436 749.213 726.8 750.561 725.972 751.727C725.155 752.894 724.164 753.81 722.997 754.475C721.83 755.128 720.535 755.455 719.112 755.455ZM719.112 751.815C720.454 751.815 721.568 751.395 722.455 750.555C723.353 749.703 724.024 748.589 724.467 747.212C724.91 745.836 725.132 744.348 725.132 742.75C725.132 741.07 724.899 739.547 724.432 738.182C723.977 736.806 723.3 735.715 722.402 734.91C721.515 734.093 720.419 733.685 719.112 733.685C718.074 733.685 717.17 733.93 716.4 734.42C715.641 734.91 715.011 735.581 714.51 736.432C714.02 737.284 713.646 738.252 713.39 739.337C713.145 740.422 713.022 741.56 713.022 742.75C713.022 744.348 713.25 745.836 713.705 747.212C714.16 748.589 714.836 749.703 715.735 750.555C716.645 751.395 717.77 751.815 719.112 751.815ZM739.483 755.455C738.036 755.455 736.73 755.128 735.563 754.475C734.408 753.81 733.411 752.894 732.571 751.727C731.731 750.561 731.089 749.213 730.646 747.685C730.202 746.145 729.981 744.5 729.981 742.75C729.981 741 730.202 739.355 730.646 737.815C731.089 736.275 731.731 734.927 732.571 733.772C733.411 732.606 734.408 731.696 735.563 731.042C736.73 730.377 738.036 730.045 739.483 730.045C740.906 730.045 742.201 730.377 743.368 731.042C744.535 731.696 745.526 732.606 746.343 733.772C747.171 734.927 747.807 736.275 748.251 737.815C748.694 739.355 748.916 741 748.916 742.75C748.916 744.5 748.694 746.145 748.251 747.685C747.807 749.213 747.171 750.561 746.343 751.727C745.526 752.894 744.535 753.81 743.368 754.475C742.201 755.128 740.906 755.455 739.483 755.455ZM739.483 751.815C740.825 751.815 741.939 751.395 742.826 750.555C743.724 749.703 744.395 748.589 744.838 747.212C745.281 745.836 745.503 744.348 745.503 742.75C745.503 741.07 745.27 739.547 744.803 738.182C744.348 736.806 743.671 735.715 742.773 734.91C741.886 734.093 740.79 733.685 739.483 733.685C738.445 733.685 737.541 733.93 736.771 734.42C736.012 734.91 735.382 735.581 734.881 736.432C734.391 737.284 734.017 738.252 733.761 739.337C733.516 740.422 733.393 741.56 733.393 742.75C733.393 744.348 733.621 745.836 734.076 747.212C734.531 748.589 735.207 749.703 736.106 750.555C737.016 751.395 738.141 751.815 739.483 751.815ZM759.854 755.455C758.408 755.455 757.101 755.128 755.934 754.475C754.779 753.81 753.782 752.894 752.942 751.727C752.102 750.561 751.46 749.213 751.017 747.685C750.573 746.145 750.352 744.5 750.352 742.75C750.352 741 750.573 739.355 751.017 737.815C751.46 736.275 752.102 734.927 752.942 733.772C753.782 732.606 754.779 731.696 755.934 731.042C757.101 730.377 758.408 730.045 759.854 730.045C761.278 730.045 762.573 730.377 763.739 731.042C764.906 731.696 765.898 732.606 766.714 733.772C767.543 734.927 768.178 736.275 768.622 737.815C769.065 739.355 769.287 741 769.287 742.75C769.287 744.5 769.065 746.145 768.622 747.685C768.178 749.213 767.543 750.561 766.714 751.727C765.898 752.894 764.906 753.81 763.739 754.475C762.573 755.128 761.278 755.455 759.854 755.455ZM759.854 751.815C761.196 751.815 762.31 751.395 763.197 750.555C764.095 749.703 764.766 748.589 765.209 747.212C765.653 745.836 765.874 744.348 765.874 742.75C765.874 741.07 765.641 739.547 765.174 738.182C764.719 736.806 764.043 735.715 763.144 734.91C762.258 734.093 761.161 733.685 759.854 733.685C758.816 733.685 757.912 733.93 757.142 734.42C756.383 734.91 755.753 735.581 755.252 736.432C754.762 737.284 754.388 738.252 754.132 739.337C753.887 740.422 753.764 741.56 753.764 742.75C753.764 744.348 753.992 745.836 754.447 747.212C754.902 748.589 755.578 749.703 756.477 750.555C757.387 751.395 758.513 751.815 759.854 751.815ZM773.63 755.455C773.093 755.455 772.638 755.268 772.265 754.895C771.903 754.522 771.722 754.067 771.722 753.53C771.722 753.005 771.903 752.556 772.265 752.182C772.638 751.809 773.093 751.622 773.63 751.622C774.166 751.622 774.621 751.809 774.995 752.182C775.368 752.556 775.555 753.005 775.555 753.53C775.555 754.067 775.368 754.522 774.995 754.895C774.621 755.268 774.166 755.455 773.63 755.455ZM788.223 755.455C786.777 755.455 785.47 755.128 784.303 754.475C783.148 753.81 782.151 752.894 781.311 751.727C780.471 750.561 779.829 749.213 779.386 747.685C778.943 746.145 778.721 744.5 778.721 742.75C778.721 741 778.943 739.355 779.386 737.815C779.829 736.275 780.471 734.927 781.311 733.772C782.151 732.606 783.148 731.696 784.303 731.042C785.47 730.377 786.777 730.045 788.223 730.045C789.647 730.045 790.942 730.377 792.108 731.042C793.275 731.696 794.267 732.606 795.083 733.772C795.912 734.927 796.548 736.275 796.991 737.815C797.434 739.355 797.656 741 797.656 742.75C797.656 744.5 797.434 746.145 796.991 747.685C796.548 749.213 795.912 750.561 795.083 751.727C794.267 752.894 793.275 753.81 792.108 754.475C790.942 755.128 789.647 755.455 788.223 755.455ZM788.223 751.815C789.565 751.815 790.679 751.395 791.566 750.555C792.464 749.703 793.135 748.589 793.578 747.212C794.022 745.836 794.243 744.348 794.243 742.75C794.243 741.07 794.01 739.547 793.543 738.182C793.088 736.806 792.412 735.715 791.513 734.91C790.627 734.093 789.53 733.685 788.223 733.685C787.185 733.685 786.281 733.93 785.511 734.42C784.753 734.91 784.123 735.581 783.621 736.432C783.131 737.284 782.758 738.252 782.501 739.337C782.256 740.422 782.133 741.56 782.133 742.75C782.133 744.348 782.361 745.836 782.816 747.212C783.271 748.589 783.948 749.703 784.846 750.555C785.756 751.395 786.882 751.815 788.223 751.815ZM808.594 755.455C807.148 755.455 805.841 755.128 804.674 754.475C803.519 753.81 802.522 752.894 801.682 751.727C800.842 750.561 800.2 749.213 799.757 747.685C799.314 746.145 799.092 744.5 799.092 742.75C799.092 741 799.314 739.355 799.757 737.815C800.2 736.275 800.842 734.927 801.682 733.772C802.522 732.606 803.519 731.696 804.674 731.042C805.841 730.377 807.148 730.045 808.594 730.045C810.018 730.045 811.313 730.377 812.479 731.042C813.646 731.696 814.638 732.606 815.454 733.772C816.283 734.927 816.919 736.275 817.362 737.815C817.805 739.355 818.027 741 818.027 742.75C818.027 744.5 817.805 746.145 817.362 747.685C816.919 749.213 816.283 750.561 815.454 751.727C814.638 752.894 813.646 753.81 812.479 754.475C811.313 755.128 810.018 755.455 808.594 755.455ZM808.594 751.815C809.936 751.815 811.05 751.395 811.937 750.555C812.835 749.703 813.506 748.589 813.949 747.212C814.393 745.836 814.614 744.348 814.614 742.75C814.614 741.07 814.381 739.547 813.914 738.182C813.459 736.806 812.783 735.715 811.884 734.91C810.998 734.093 809.901 733.685 808.594 733.685C807.556 733.685 806.652 733.93 805.882 734.42C805.124 734.91 804.494 735.581 803.992 736.432C803.502 737.284 803.129 738.252 802.872 739.337C802.627 740.422 802.504 741.56 802.504 742.75C802.504 744.348 802.732 745.836 803.187 747.212C803.642 748.589 804.319 749.703 805.217 750.555C806.127 751.395 807.253 751.815 808.594 751.815ZM828.966 755.455C827.519 755.455 826.212 755.128 825.046 754.475C823.891 753.81 822.893 752.894 822.053 751.727C821.213 750.561 820.571 749.213 820.128 747.685C819.685 746.145 819.463 744.5 819.463 742.75C819.463 741 819.685 739.355 820.128 737.815C820.571 736.275 821.213 734.927 822.053 733.772C822.893 732.606 823.891 731.696 825.046 731.042C826.212 730.377 827.519 730.045 828.966 730.045C830.389 730.045 831.684 730.377 832.851 731.042C834.017 731.696 835.009 732.606 835.826 733.772C836.654 734.927 837.29 736.275 837.733 737.815C838.176 739.355 838.398 741 838.398 742.75C838.398 744.5 838.176 746.145 837.733 747.685C837.29 749.213 836.654 750.561 835.826 751.727C835.009 752.894 834.017 753.81 832.851 754.475C831.684 755.128 830.389 755.455 828.966 755.455ZM828.966 751.815C830.307 751.815 831.421 751.395 832.308 750.555C833.206 749.703 833.877 748.589 834.321 747.212C834.764 745.836 834.986 744.348 834.986 742.75C834.986 741.07 834.752 739.547 834.286 738.182C833.831 736.806 833.154 735.715 832.256 734.91C831.369 734.093 830.272 733.685 828.966 733.685C827.927 733.685 827.023 733.93 826.253 734.42C825.495 734.91 824.865 735.581 824.363 736.432C823.873 737.284 823.5 738.252 823.243 739.337C822.998 740.422 822.876 741.56 822.876 742.75C822.876 744.348 823.103 745.836 823.558 747.212C824.013 748.589 824.69 749.703 825.588 750.555C826.498 751.395 827.624 751.815 828.966 751.815Z" fill="#717971"/>
<g clip-path="url(#clip0_12291_90937)">
<path d="M317.222 850.788C313.748 864.724 299.629 873.195 285.713 869.721C271.776 866.247 263.305 852.128 266.779 838.212C270.253 824.276 284.352 815.805 298.288 819.279C312.204 822.732 320.696 836.851 317.222 850.788Z" fill="#627EEA" fill-opacity="0.3"/>
<path d="M292 864.78C303.2 864.78 312.28 855.7 312.28 844.5C312.28 833.3 303.2 824.22 292 824.22C280.799 824.22 271.72 833.3 271.72 844.5C271.72 855.7 280.799 864.78 292 864.78Z" fill="#627EEA"/>
<path d="M292.631 829.29V840.533L302.133 844.779L292.631 829.29Z" fill="white" fill-opacity="0.602"/>
<path d="M292.631 829.29L283.127 844.779L292.631 840.533V829.29Z" fill="white"/>
<path d="M292.631 852.065V859.704L302.14 846.548L292.631 852.065Z" fill="white" fill-opacity="0.602"/>
<path d="M292.631 859.704V852.063L283.127 846.548L292.631 859.704Z" fill="white"/>
<path d="M292.631 850.296L302.133 844.779L292.631 840.535V850.296Z" fill="white" fill-opacity="0.2"/>
<path d="M283.127 844.779L292.631 850.296V840.535L283.127 844.779Z" fill="white" fill-opacity="0.602"/>
</g>
<path d="M334.1 856.5V832H349.308V835.64H337.74V841.555H347.05V845.195H337.74V852.86H349.308V856.5H334.1ZM362.412 842.64H358.737L358.72 856.5H355.08L355.097 842.64H352.315V839H355.097L355.08 833.505H358.72L358.737 839H362.412V842.64ZM381.295 845.527V856.5H377.655V846.42C377.655 845.638 377.463 844.927 377.078 844.285C376.704 843.643 376.197 843.136 375.555 842.762C374.925 842.377 374.214 842.185 373.42 842.185C372.65 842.185 371.944 842.377 371.303 842.762C370.661 843.136 370.148 843.643 369.763 844.285C369.378 844.927 369.185 845.638 369.185 846.42V856.5H365.545V830.25H369.185V840.855C369.792 840.132 370.539 839.56 371.425 839.14C372.312 838.72 373.269 838.51 374.295 838.51C375.59 838.51 376.769 838.825 377.83 839.455C378.892 840.085 379.732 840.931 380.35 841.992C380.98 843.054 381.295 844.232 381.295 845.527ZM392.147 856.955C390.537 856.955 389.067 856.541 387.737 855.712C386.418 854.884 385.363 853.776 384.569 852.387C383.788 850.987 383.397 849.442 383.397 847.75C383.397 846.467 383.624 845.271 384.079 844.162C384.534 843.042 385.158 842.062 385.952 841.222C386.757 840.371 387.69 839.706 388.752 839.227C389.813 838.749 390.945 838.51 392.147 838.51C393.488 838.51 394.719 838.79 395.839 839.35C396.959 839.898 397.916 840.662 398.709 841.642C399.503 842.611 400.086 843.731 400.459 845.002C400.833 846.262 400.943 847.604 400.792 849.027H387.299C387.451 849.832 387.743 850.562 388.174 851.215C388.618 851.857 389.178 852.364 389.854 852.737C390.543 853.111 391.307 853.303 392.147 853.315C393.033 853.315 393.838 853.093 394.562 852.65C395.297 852.207 395.898 851.594 396.364 850.812L400.057 851.67C399.357 853.222 398.301 854.493 396.889 855.485C395.478 856.465 393.897 856.955 392.147 856.955ZM387.177 846.245H397.117C397 845.405 396.703 844.647 396.224 843.97C395.758 843.282 395.168 842.739 394.457 842.342C393.757 841.934 392.987 841.73 392.147 841.73C391.318 841.73 390.548 841.928 389.837 842.325C389.137 842.722 388.553 843.264 388.087 843.952C387.632 844.629 387.328 845.393 387.177 846.245ZM403.69 856.5V839H407.33V840.855C407.937 840.132 408.683 839.56 409.57 839.14C410.457 838.72 411.413 838.51 412.44 838.51C413.093 838.51 413.741 838.597 414.382 838.772L412.93 842.447C412.475 842.272 412.02 842.185 411.565 842.185C410.795 842.185 410.089 842.377 409.447 842.762C408.806 843.136 408.292 843.643 407.907 844.285C407.522 844.927 407.33 845.638 407.33 846.42V856.5H403.69ZM423.284 856.955C421.674 856.955 420.204 856.541 418.874 855.712C417.556 854.884 416.5 853.776 415.707 852.387C414.925 850.987 414.534 849.442 414.534 847.75C414.534 846.467 414.762 845.271 415.217 844.162C415.672 843.042 416.296 842.062 417.089 841.222C417.894 840.371 418.828 839.706 419.889 839.227C420.951 838.749 422.083 838.51 423.284 838.51C424.626 838.51 425.857 838.79 426.977 839.35C428.097 839.898 429.054 840.662 429.847 841.642C430.64 842.611 431.224 843.731 431.597 845.002C431.97 846.262 432.081 847.604 431.929 849.027H418.437C418.589 849.832 418.88 850.562 419.312 851.215C419.755 851.857 420.315 852.364 420.992 852.737C421.68 853.111 422.444 853.303 423.284 853.315C424.171 853.315 424.976 853.093 425.699 852.65C426.434 852.207 427.035 851.594 427.502 850.812L431.194 851.67C430.494 853.222 429.439 854.493 428.027 855.485C426.615 856.465 425.034 856.955 423.284 856.955ZM418.314 846.245H428.254C428.138 845.405 427.84 844.647 427.362 843.97C426.895 843.282 426.306 842.739 425.594 842.342C424.894 841.934 424.124 841.73 423.284 841.73C422.456 841.73 421.686 841.928 420.974 842.325C420.274 842.722 419.691 843.264 419.224 843.952C418.769 844.629 418.466 845.393 418.314 846.245ZM433.786 849.937V839H437.426V849.045C437.426 849.827 437.618 850.538 438.003 851.18C438.388 851.822 438.902 852.335 439.543 852.72C440.185 853.093 440.891 853.28 441.661 853.28C442.442 853.28 443.148 853.093 443.778 852.72C444.42 852.335 444.927 851.822 445.301 851.18C445.686 850.538 445.878 849.827 445.878 849.045V839H449.518L449.536 856.5H445.896L445.878 854.61C445.283 855.333 444.542 855.905 443.656 856.325C442.769 856.745 441.818 856.955 440.803 856.955C439.508 856.955 438.33 856.64 437.268 856.01C436.207 855.38 435.361 854.534 434.731 853.472C434.101 852.411 433.786 851.232 433.786 849.937ZM453.045 856.5V839H456.685V840.855C457.292 840.132 458.033 839.56 458.908 839.14C459.794 838.72 460.751 838.51 461.778 838.51C463.026 838.51 464.175 838.813 465.225 839.42C466.275 840.015 467.109 840.808 467.728 841.8C468.346 840.808 469.169 840.015 470.195 839.42C471.234 838.813 472.377 838.51 473.625 838.51C474.92 838.51 476.099 838.825 477.16 839.455C478.222 840.085 479.068 840.931 479.698 841.992C480.328 843.054 480.643 844.232 480.643 845.527V856.5H477.003V846.455C477.003 845.685 476.816 844.979 476.443 844.337C476.069 843.696 475.568 843.177 474.938 842.78C474.308 842.383 473.608 842.185 472.838 842.185C472.068 842.185 471.368 842.372 470.738 842.745C470.108 843.118 469.606 843.626 469.233 844.267C468.859 844.909 468.673 845.638 468.673 846.455V856.5H465.033V846.455C465.033 845.638 464.846 844.909 464.473 844.267C464.099 843.626 463.592 843.118 462.95 842.745C462.32 842.372 461.62 842.185 460.85 842.185C460.092 842.185 459.392 842.383 458.75 842.78C458.12 843.177 457.619 843.696 457.245 844.337C456.872 844.979 456.685 845.685 456.685 846.455V856.5H453.045Z" fill="#414941"/>
<g clip-path="url(#clip1_12291_90937)">
<path d="M636.222 850.788C632.748 864.724 618.629 873.195 604.713 869.721C590.776 866.247 582.305 852.128 585.779 838.212C589.253 824.276 603.352 815.805 617.288 819.279C631.204 822.732 639.696 836.851 636.222 850.788Z" fill="url(#paint1_linear_12291_90937)" fill-opacity="0.3"/>
<path d="M630.673 849.404C627.963 860.274 616.95 866.882 606.096 864.172C595.225 861.463 588.618 850.45 591.327 839.596C594.037 828.726 605.034 822.118 615.904 824.828C626.759 827.521 633.383 838.534 630.673 849.404Z" fill="url(#paint2_linear_12291_90937)"/>
<path d="M620.656 841.973C621.052 839.28 619.008 837.822 616.188 836.855L617.107 833.196L614.889 832.641L614.002 836.206C613.415 836.063 612.813 835.921 612.211 835.794L613.099 832.213L610.88 831.659L609.977 835.303C609.486 835.192 609.011 835.081 608.551 834.97V834.954L605.478 834.194L604.891 836.57C604.891 836.57 606.539 836.951 606.508 836.966C607.411 837.188 607.569 837.79 607.537 838.266L606.492 842.432C606.555 842.448 606.634 842.464 606.729 842.512C606.65 842.496 606.571 842.48 606.492 842.448L605.034 848.279C604.923 848.548 604.638 848.96 604.02 848.802C604.036 848.833 602.404 848.406 602.404 848.406L601.295 850.956L604.194 851.685C604.733 851.828 605.256 851.955 605.779 852.097L604.86 855.789L607.078 856.343L607.997 852.683C608.599 852.842 609.201 853 609.771 853.143L608.868 856.787L611.086 857.341L612.005 853.65C615.808 854.363 618.66 854.078 619.848 850.64C620.814 847.883 619.8 846.282 617.804 845.237C619.278 844.904 620.371 843.938 620.656 841.973ZM615.57 849.103C614.889 851.859 610.231 850.37 608.726 849.99L609.946 845.094C611.451 845.474 616.299 846.219 615.57 849.103ZM616.267 841.925C615.634 844.445 611.768 843.161 610.516 842.844L611.625 838.408C612.877 838.725 616.917 839.311 616.267 841.925Z" fill="white"/>
</g>
<path d="M653.1 856.5V832H661.798C663.058 832 664.195 832.257 665.21 832.77C666.237 833.283 667.048 834.024 667.643 834.992C668.249 835.949 668.553 837.098 668.553 838.44C668.553 839.093 668.448 839.735 668.238 840.365C668.028 840.995 667.73 841.549 667.345 842.027C666.96 842.506 666.493 842.844 665.945 843.042C666.692 843.229 667.31 843.567 667.8 844.057C668.302 844.536 668.698 845.096 668.99 845.737C669.282 846.379 669.486 847.044 669.603 847.732C669.731 848.421 669.795 849.074 669.795 849.692C669.795 850.999 669.48 852.166 668.85 853.192C668.22 854.219 667.374 855.03 666.313 855.625C665.263 856.208 664.102 856.5 662.83 856.5H653.1ZM656.74 853.35H662.48C663.227 853.35 663.903 853.163 664.51 852.79C665.128 852.417 665.618 851.903 665.98 851.25C666.342 850.585 666.523 849.838 666.523 849.01C666.523 848.287 666.342 847.604 665.98 846.962C665.618 846.309 665.128 845.784 664.51 845.387C663.903 844.991 663.227 844.792 662.48 844.792H656.74V853.35ZM656.74 841.695H661.413C662.369 841.695 663.192 841.403 663.88 840.82C664.568 840.237 664.913 839.437 664.913 838.423C664.913 837.337 664.568 836.527 663.88 835.99C663.192 835.442 662.369 835.167 661.413 835.167H656.74V841.695ZM673.3 839H676.94V856.5H673.3V839ZM675.155 836.462C674.595 836.462 674.129 836.282 673.755 835.92C673.382 835.558 673.195 835.103 673.195 834.555C673.195 834.018 673.382 833.569 673.755 833.207C674.129 832.834 674.589 832.647 675.138 832.647C675.674 832.647 676.129 832.834 676.503 833.207C676.876 833.569 677.063 834.018 677.063 834.555C677.063 835.103 676.876 835.558 676.503 835.92C676.141 836.282 675.692 836.462 675.155 836.462ZM690.367 842.64H686.692L686.675 856.5H683.035L683.052 842.64H680.27V839H683.052L683.035 833.505H686.675L686.692 839H690.367V842.64ZM704.518 851.53L707.773 853.297C706.979 854.406 705.97 855.292 704.745 855.957C703.532 856.622 702.214 856.955 700.79 856.955C699.18 856.955 697.71 856.541 696.38 855.712C695.062 854.884 694.006 853.776 693.213 852.387C692.431 850.987 692.04 849.442 692.04 847.75C692.04 846.467 692.268 845.271 692.723 844.162C693.178 843.042 693.802 842.062 694.595 841.222C695.4 840.371 696.334 839.706 697.395 839.227C698.457 838.749 699.589 838.51 700.79 838.51C702.214 838.51 703.532 838.842 704.745 839.507C705.97 840.172 706.979 841.065 707.773 842.185L704.518 843.952C704.028 843.369 703.456 842.926 702.803 842.622C702.149 842.307 701.479 842.15 700.79 842.15C699.834 842.15 698.964 842.412 698.183 842.937C697.413 843.451 696.8 844.133 696.345 844.985C695.902 845.825 695.68 846.747 695.68 847.75C695.68 848.742 695.908 849.663 696.363 850.515C696.818 851.355 697.43 852.032 698.2 852.545C698.982 853.058 699.845 853.315 700.79 853.315C701.514 853.315 702.202 853.152 702.855 852.825C703.509 852.498 704.063 852.067 704.518 851.53ZM718.188 856.955C716.578 856.955 715.108 856.541 713.778 855.712C712.459 854.884 711.404 853.776 710.61 852.387C709.829 850.987 709.438 849.442 709.438 847.75C709.438 846.467 709.665 845.271 710.12 844.162C710.575 843.042 711.199 842.062 711.993 841.222C712.798 840.371 713.731 839.706 714.793 839.227C715.854 838.749 716.986 838.51 718.188 838.51C719.798 838.51 721.262 838.924 722.58 839.752C723.91 840.581 724.966 841.695 725.748 843.095C726.541 844.495 726.938 846.047 726.938 847.75C726.938 849.022 726.71 850.212 726.255 851.32C725.8 852.428 725.17 853.408 724.365 854.26C723.572 855.1 722.644 855.759 721.583 856.237C720.533 856.716 719.401 856.955 718.188 856.955ZM718.188 853.315C719.156 853.315 720.025 853.058 720.795 852.545C721.565 852.032 722.172 851.355 722.615 850.515C723.07 849.663 723.298 848.742 723.298 847.75C723.298 846.735 723.064 845.802 722.598 844.95C722.143 844.098 721.53 843.422 720.76 842.92C719.99 842.407 719.133 842.15 718.188 842.15C717.231 842.15 716.362 842.407 715.58 842.92C714.81 843.433 714.198 844.116 713.743 844.967C713.299 845.819 713.078 846.747 713.078 847.75C713.078 848.788 713.311 849.727 713.778 850.567C714.244 851.407 714.863 852.078 715.633 852.58C716.414 853.07 717.266 853.315 718.188 853.315ZM729.423 839H733.063V856.5H729.423V839ZM731.278 836.462C730.718 836.462 730.252 836.282 729.878 835.92C729.505 835.558 729.318 835.103 729.318 834.555C729.318 834.018 729.505 833.569 729.878 833.207C730.252 832.834 730.712 832.647 731.261 832.647C731.797 832.647 732.252 832.834 732.626 833.207C732.999 833.569 733.186 834.018 733.186 834.555C733.186 835.103 732.999 835.558 732.626 835.92C732.264 836.282 731.815 836.462 731.278 836.462ZM752.864 845.527V856.5H749.224V846.42C749.224 845.638 749.031 844.927 748.646 844.285C748.273 843.643 747.765 843.136 747.124 842.762C746.494 842.377 745.782 842.185 744.989 842.185C744.219 842.185 743.513 842.377 742.871 842.762C742.23 843.136 741.716 843.643 741.331 844.285C740.946 844.927 740.754 845.638 740.754 846.42V856.5H737.114V839H740.754V840.855C741.36 840.132 742.107 839.56 742.994 839.14C743.88 838.72 744.837 838.51 745.864 838.51C747.159 838.51 748.337 838.825 749.399 839.455C750.46 840.085 751.3 840.931 751.919 841.992C752.549 843.054 752.864 844.232 752.864 845.527Z" fill="#414941"/>
<rect x="857" y="804" width="152" height="81" rx="14" fill="url(#paint3_linear_12291_90937)"/>
<path d="M899.64 860V829.2H910.574C912.158 829.2 913.588 829.523 914.864 830.168C916.155 830.813 917.174 831.745 917.922 832.962C918.685 834.165 919.066 835.609 919.066 837.296C919.066 838.117 918.934 838.924 918.67 839.716C918.406 840.508 918.032 841.205 917.548 841.806C917.064 842.407 916.477 842.833 915.788 843.082C916.727 843.317 917.504 843.742 918.12 844.358C918.751 844.959 919.249 845.663 919.616 846.47C919.983 847.277 920.239 848.113 920.386 848.978C920.547 849.843 920.628 850.665 920.628 851.442C920.628 853.085 920.232 854.551 919.44 855.842C918.648 857.133 917.585 858.152 916.25 858.9C914.93 859.633 913.471 860 911.872 860H899.64ZM904.216 856.04H911.432C912.371 856.04 913.221 855.805 913.984 855.336C914.761 854.867 915.377 854.221 915.832 853.4C916.287 852.564 916.514 851.625 916.514 850.584C916.514 849.675 916.287 848.817 915.832 848.01C915.377 847.189 914.761 846.529 913.984 846.03C913.221 845.531 912.371 845.282 911.432 845.282H904.216V856.04ZM904.216 841.388H910.09C911.293 841.388 912.327 841.021 913.192 840.288C914.057 839.555 914.49 838.55 914.49 837.274C914.49 835.91 914.057 834.891 913.192 834.216C912.327 833.527 911.293 833.182 910.09 833.182H904.216V841.388ZM923.467 851.75V838H928.043V850.628C928.043 851.611 928.285 852.505 928.769 853.312C929.253 854.119 929.898 854.764 930.705 855.248C931.512 855.717 932.399 855.952 933.367 855.952C934.35 855.952 935.237 855.717 936.029 855.248C936.836 854.764 937.474 854.119 937.943 853.312C938.427 852.505 938.669 851.611 938.669 850.628V838H943.245L943.267 860H938.691L938.669 857.624C937.921 858.533 936.99 859.252 935.875 859.78C934.76 860.308 933.565 860.572 932.289 860.572C930.661 860.572 929.18 860.176 927.845 859.384C926.51 858.592 925.447 857.529 924.655 856.194C923.863 854.859 923.467 853.378 923.467 851.75ZM962.19 838H967.074L955.018 871H950.156L954.138 860L946.24 838H951.234L956.426 853.73L962.19 838Z" fill="white"/>
<defs>
<linearGradient id="paint0_linear_12291_90937" x1="416.5" y1="364" x2="416.5" y2="438" gradientUnits="userSpaceOnUse">
<stop stop-color="#304D37"/>
<stop offset="1" stop-color="#304D37"/>
</linearGradient>
<linearGradient id="paint1_linear_12291_90937" x1="3183.6" y1="817.252" x2="3183.6" y2="6017.98" gradientUnits="userSpaceOnUse">
<stop stop-color="#F9AA4B"/>
<stop offset="1" stop-color="#F7931A"/>
</linearGradient>
<linearGradient id="paint2_linear_12291_90937" x1="2617.62" y1="823.247" x2="2617.62" y2="4879.81" gradientUnits="userSpaceOnUse">
<stop stop-color="#F9AA4B"/>
<stop offset="1" stop-color="#F7931A"/>
</linearGradient>
<linearGradient id="paint3_linear_12291_90937" x1="933" y1="804" x2="933" y2="885" gradientUnits="userSpaceOnUse">
<stop stop-color="#304D37"/>
<stop offset="1" stop-color="#304D37"/>
</linearGradient>
<clipPath id="clip0_12291_90937">
<rect width="52" height="52" fill="white" transform="translate(266 818.5)"/>
</clipPath>
<clipPath id="clip1_12291_90937">
<rect width="52" height="52" fill="white" transform="translate(585 818.5)"/>
</clipPath>
</defs>
</svg>
