<svg width="216" height="188" viewBox="0 0 216 188" fill="none" xmlns="http://www.w3.org/2000/svg">
<path d="M197.138 61.5009L174.171 27.0769C173.069 25.4311 171.417 24.5137 169.579 24.5137H46.4824C44.4633 24.5137 42.8086 25.4311 41.8906 27.0769L18.9256 61.5009C17.6393 63.5156 17.6393 66.0789 19.292 67.909L100.423 161.475C101.341 162.756 102.81 163.487 104.467 163.487H111.783C113.434 163.487 114.906 162.756 115.824 161.475L196.771 67.909C198.241 66.0789 198.424 63.5156 197.138 61.5009Z" fill="white"/>
<path d="M111.781 164H104.463C102.65 164 101.033 163.196 100.015 161.792L18.9022 68.2423C17.1891 66.3483 17.0215 63.5232 18.491 61.224L41.4501 26.8091C42.4558 25.0244 44.2879 24 46.4824 24H169.577C171.582 24 173.41 25.0176 174.597 26.7909L197.568 61.224C198.954 63.3913 198.792 66.2072 197.169 68.2287L116.227 161.792C115.212 163.194 113.592 164 111.781 164ZM46.4824 25.0267C44.6387 25.0267 43.1652 25.8439 42.3389 27.3259L42.3194 27.36L19.3544 61.784C18.1226 63.7121 18.2454 65.984 19.676 67.5639L100.828 161.157L100.842 161.175C101.662 162.318 102.984 162.973 104.465 162.973H111.781C113.265 162.973 114.584 162.318 115.405 161.175L115.434 161.138L196.381 67.5731C197.716 65.9112 197.853 63.5778 196.707 61.7795L173.744 27.36C172.736 25.8553 171.257 25.0267 169.579 25.0267H46.4824Z" fill="#444A51"/>
<path d="M110.641 158.071H105.558C104.97 158.071 104.414 157.804 104.044 157.349L24.3575 65.5636C23.8254 64.9056 23.7806 63.9814 24.2503 63.2757C27.8618 57.86 42.7911 35.4805 45.9153 30.7934C46.2759 30.2539 46.8839 29.9307 47.5349 29.9307H168.468C169.117 29.9307 169.723 30.2539 170.084 30.7912C173.216 35.4715 188.149 57.8442 191.752 63.2439C192.22 63.9449 192.179 64.867 191.651 65.5248C183.664 75.4705 118.698 149.24 112.158 157.347C111.787 157.804 111.23 158.071 110.641 158.071Z" fill="#2E3D4E"/>
<path d="M81.5467 83.8874C81.5311 84.2312 81.5253 84.5522 81.5253 84.8503C81.5253 85.1485 81.5311 85.4695 81.5467 85.8133C81.5701 86.4462 81.765 86.9605 82.1275 87.3544C82.49 87.7481 83.0124 87.944 83.6965 87.944C84.0629 87.944 84.3728 87.8984 84.6261 87.8074C84.8795 87.7163 85.088 87.598 85.2517 87.4522C85.4174 87.3067 85.5441 87.1404 85.6318 86.9537C85.7195 86.767 85.7858 86.5781 85.8325 86.3869C85.8481 86.3027 85.8852 86.239 85.9456 86.1979C86.008 86.1569 86.0704 86.1341 86.1308 86.1341H86.6609C86.7291 86.1341 86.7895 86.1593 86.8383 86.2094C86.8889 86.2595 86.9142 86.3185 86.9142 86.3869C86.9084 86.6395 86.8421 86.9128 86.7174 87.211C86.5946 87.5092 86.4055 87.7892 86.1502 88.0533C85.893 88.3174 85.5636 88.5359 85.1621 88.7111C84.7587 88.8863 84.2714 88.9752 83.6965 88.9752C83.1976 88.9752 82.7531 88.8978 82.3633 88.7407C81.9716 88.5836 81.6364 88.3673 81.3577 88.0942C81.077 87.8189 80.8626 87.4932 80.7106 87.1153C80.5566 86.7376 80.4728 86.3232 80.4572 85.8724C80.4339 85.1941 80.4339 84.5134 80.4572 83.8328C80.4728 83.3911 80.5566 82.9768 80.7106 82.5967C80.8626 82.2141 81.079 81.8863 81.3577 81.6109C81.6364 81.3355 81.9716 81.1215 82.3633 80.9644C82.7531 80.8074 83.1976 80.73 83.6965 80.73C84.2714 80.73 84.7587 80.8189 85.1621 80.9941C85.5636 81.1693 85.891 81.3901 86.1502 81.6519C86.4055 81.9159 86.5946 82.196 86.7174 82.4942C86.8421 82.7924 86.9045 83.0678 86.9142 83.3182C86.9142 83.3867 86.8889 83.4457 86.8383 83.4958C86.7895 83.5459 86.7291 83.571 86.6609 83.571H86.1308C86.0704 83.571 86.008 83.5506 85.9456 83.5073C85.8852 83.4662 85.8462 83.4024 85.8325 83.3182C85.7858 83.1271 85.7176 82.9382 85.6318 82.7515C85.5422 82.5648 85.4174 82.3985 85.2517 82.2529C85.088 82.1071 84.8776 81.9888 84.6261 81.8978C84.3728 81.8068 84.0629 81.7612 83.6965 81.7612C83.0124 81.7612 82.49 81.9571 82.1275 82.3508C81.765 82.7423 81.5701 83.2545 81.5467 83.8874Z" fill="white"/>
<path d="M93.2621 87.0483H89.2726L88.6762 88.5712C88.6528 88.6326 88.6099 88.6963 88.5495 88.7601C88.4891 88.8261 88.3819 88.8579 88.2279 88.8579H87.803C87.7348 88.8579 87.6763 88.8329 87.6257 88.7829C87.575 88.7328 87.5497 88.6735 87.5497 88.6053C87.5497 88.5665 87.5652 88.5143 87.5964 88.4459L90.4107 81.2182C90.4497 81.134 90.5063 81.0498 90.5842 80.9657C90.6622 80.8815 90.7752 80.8403 90.9292 80.8403H91.6172C91.7712 80.8403 91.8842 80.8815 91.9622 80.9657C92.0401 81.0498 92.0966 81.134 92.1356 81.2182L94.9402 88.4459C94.9694 88.5143 94.9851 88.5689 94.9851 88.6053C94.9851 88.6735 94.9597 88.7328 94.909 88.7829C94.8603 88.8329 94.7999 88.8579 94.7317 88.8579H94.3068C94.1548 88.8579 94.0476 88.8261 93.9852 88.7601C93.9229 88.6963 93.8819 88.6326 93.8605 88.5712L93.2621 87.0483ZM89.676 86.017H92.8567L91.2703 81.9286L89.676 86.017Z" fill="white"/>
<path d="M100.321 80.8403C100.405 80.8403 100.477 80.87 100.54 80.9315C100.602 80.9929 100.631 81.0658 100.631 81.15V81.562C100.631 81.6462 100.602 81.7191 100.54 81.7805C100.477 81.8421 100.405 81.8717 100.321 81.8717H98.1715V88.5484C98.1715 88.6326 98.1423 88.7055 98.0819 88.7669C98.0195 88.8285 97.9455 88.8579 97.8617 88.8579H97.392C97.3082 88.8579 97.2341 88.8285 97.1717 88.7669C97.1113 88.7055 97.0821 88.6326 97.0821 88.5484V81.8717H94.9324C94.8485 81.8717 94.7764 81.8421 94.7141 81.7805C94.6517 81.7191 94.6225 81.6462 94.6225 81.562V81.15C94.6225 81.0658 94.6517 80.9929 94.7141 80.9315C94.7764 80.87 94.8485 80.8403 94.9324 80.8403H100.321Z" fill="white"/>
<path d="M106.831 87.8267C106.917 87.8267 106.989 87.8563 107.051 87.9179C107.112 87.9793 107.143 88.0522 107.143 88.1364V88.5484C107.143 88.6326 107.112 88.7055 107.051 88.7669C106.989 88.8285 106.917 88.8579 106.831 88.8579H102.188C102.105 88.8579 102.031 88.8285 101.97 88.7669C101.908 88.7055 101.879 88.6326 101.879 88.5484V81.15C101.879 81.0658 101.908 80.9929 101.97 80.9315C102.031 80.87 102.105 80.8403 102.188 80.8403H106.741C106.825 80.8403 106.897 80.87 106.96 80.9315C107.022 80.9929 107.051 81.0658 107.051 81.15V81.562C107.051 81.6462 107.022 81.7191 106.96 81.7805C106.897 81.8421 106.825 81.8717 106.741 81.8717H102.97V84.2893H106.484C106.57 84.2893 106.642 84.3189 106.704 84.3803C106.765 84.4417 106.796 84.5146 106.796 84.5988V85.0108C106.796 85.095 106.765 85.1679 106.704 85.2295C106.642 85.2909 106.57 85.3205 106.484 85.3205H102.97V87.829H106.831V87.8267Z" fill="white"/>
<path d="M108.304 83.8082C108.322 83.3894 108.394 82.991 108.529 82.6178C108.663 82.2443 108.868 81.9144 109.139 81.632C109.41 81.3498 109.751 81.1289 110.156 80.9674C110.563 80.8079 111.043 80.7261 111.592 80.7261C112.113 80.7261 112.573 80.8035 112.966 80.9559C113.362 81.1085 113.69 81.2973 113.955 81.5228C114.22 81.7481 114.418 81.9894 114.553 82.2443C114.687 82.4993 114.76 82.7316 114.765 82.9364C114.773 83.0046 114.75 83.0639 114.697 83.114C114.643 83.1641 114.582 83.189 114.512 83.189H114.042C113.857 83.189 113.748 83.1481 113.709 83.0639C113.617 82.8795 113.512 82.7088 113.393 82.5494C113.274 82.3901 113.136 82.2512 112.974 82.1373C112.814 82.0235 112.62 81.9302 112.393 81.862C112.167 81.7935 111.9 81.7594 111.594 81.7594C111.281 81.7594 110.992 81.8027 110.727 81.8916C110.462 81.9802 110.234 82.1101 110.043 82.2876C109.85 82.4628 109.698 82.6836 109.583 82.9456C109.47 83.2095 109.408 83.5168 109.398 83.8675C109.382 84.2113 109.376 84.5276 109.376 84.819C109.376 85.1103 109.382 85.4268 109.398 85.7705C109.406 86.1371 109.468 86.4581 109.583 86.7335C109.698 87.0088 109.85 87.2365 110.043 87.414C110.234 87.5939 110.462 87.7282 110.727 87.8148C110.992 87.9036 111.281 87.9467 111.594 87.9467C111.9 87.9467 112.189 87.9081 112.458 87.8329C112.725 87.7555 112.961 87.6327 113.159 87.4597C113.356 87.2889 113.512 87.0636 113.625 86.7904C113.736 86.515 113.791 86.1803 113.791 85.782V85.461H112.136C112.052 85.461 111.978 85.4313 111.916 85.3699C111.856 85.3084 111.826 85.2357 111.826 85.1513V84.7392C111.826 84.655 111.856 84.5822 111.916 84.5208C111.978 84.4594 112.052 84.4297 112.136 84.4297H114.572C114.656 84.4297 114.728 84.4594 114.791 84.5208C114.853 84.5822 114.882 84.655 114.882 84.7392V85.8274C114.882 86.285 114.808 86.7085 114.662 87.093C114.516 87.4778 114.305 87.8103 114.027 88.0901C113.746 88.3679 113.401 88.5866 112.992 88.7434C112.581 88.9005 112.117 88.9781 111.594 88.9781C111.043 88.9781 110.565 88.8961 110.16 88.7321C109.753 88.5682 109.415 88.3453 109.148 88.0629C108.877 87.7806 108.677 87.4483 108.538 87.0658C108.402 86.6834 108.324 86.2714 108.308 85.8297C108.283 85.1536 108.283 84.4798 108.304 83.8082Z" fill="white"/>
<path d="M116.163 83.831C116.169 83.403 116.245 83.0002 116.385 82.6222C116.527 82.2443 116.732 81.9165 116.999 81.6366C117.266 81.3589 117.597 81.1358 117.989 80.9718C118.379 80.8079 118.829 80.7261 119.332 80.7261C119.837 80.7261 120.287 80.8079 120.677 80.9718C121.068 81.1358 121.396 81.3566 121.667 81.6366C121.934 81.9142 122.138 82.2443 122.281 82.6222C122.421 83.0002 122.497 83.403 122.503 83.831C122.526 84.5116 122.526 85.19 122.503 85.8706C122.487 86.2986 122.409 86.7017 122.269 87.0794C122.127 87.4573 121.922 87.7875 121.655 88.0697C121.384 88.3521 121.059 88.5727 120.673 88.7345C120.285 88.8937 119.839 88.9758 119.336 88.9758C118.831 88.9758 118.383 88.8961 117.997 88.7345C117.609 88.5751 117.283 88.3521 117.016 88.0697C116.746 87.7875 116.543 87.4573 116.403 87.0794C116.26 86.7017 116.18 86.2986 116.167 85.8706C116.139 85.19 116.139 84.5116 116.163 83.831ZM121.415 83.8879C121.398 83.5283 121.339 83.2163 121.236 82.9477C121.135 82.6815 120.99 82.4583 120.805 82.2831C120.62 82.1077 120.406 81.9758 120.156 81.8869C119.909 81.7982 119.634 81.7549 119.336 81.7549C119.036 81.7549 118.763 81.7982 118.513 81.8869C118.264 81.9758 118.047 82.1056 117.864 82.2831C117.679 82.4583 117.537 82.6792 117.43 82.9477C117.322 83.2142 117.264 83.5283 117.256 83.8879C117.239 84.2317 117.233 84.5527 117.233 84.8509C117.233 85.1491 117.239 85.4701 117.256 85.8137C117.262 86.1735 117.319 86.4853 117.43 86.7539C117.537 87.0203 117.683 87.2433 117.864 87.4187C118.049 87.5939 118.264 87.7261 118.513 87.8148C118.763 87.9036 119.036 87.9467 119.336 87.9467C119.634 87.9467 119.909 87.9036 120.156 87.8148C120.406 87.7261 120.622 87.5963 120.805 87.4187C120.99 87.2433 121.131 87.0225 121.236 86.7539C121.339 86.4877 121.398 86.1735 121.415 85.8137C121.431 85.4701 121.437 85.1491 121.437 84.8509C121.437 84.5527 121.431 84.2317 121.415 83.8879Z" fill="white"/>
<path d="M127.278 80.8427C127.652 80.8427 128.009 80.8883 128.342 80.9793C128.675 81.0703 128.968 81.2114 129.221 81.4026C129.474 81.594 129.675 81.8374 129.823 82.1356C129.971 82.4338 130.047 82.7936 130.047 83.2124C130.047 83.8316 129.892 84.3234 129.582 84.6898C129.272 85.0564 128.874 85.3158 128.393 85.4684L130.127 88.4802C130.151 88.5256 130.16 88.5689 130.16 88.6053C130.16 88.6735 130.137 88.7328 130.086 88.7829C130.036 88.8329 129.977 88.8579 129.907 88.8579H129.414C129.262 88.8579 129.147 88.8193 129.075 88.7441C129.001 88.669 128.95 88.603 128.919 88.5484L127.253 85.6278H125.276V88.5484C125.276 88.6326 125.247 88.7055 125.185 88.7669C125.122 88.8285 125.05 88.8579 124.966 88.8579H124.495C124.411 88.8579 124.339 88.8285 124.276 88.7669C124.214 88.7055 124.185 88.6326 124.185 88.5484V81.15C124.185 81.0658 124.214 80.9929 124.276 80.9315C124.339 80.87 124.411 80.8403 124.495 80.8403H127.278V80.8427ZM125.278 84.5988H127.221C127.773 84.5988 128.2 84.4894 128.502 84.2733C128.806 84.0548 128.956 83.7018 128.956 83.2148C128.956 82.7252 128.806 82.3816 128.502 82.1789C128.198 81.9764 127.771 81.8762 127.221 81.8762H125.278V84.5988Z" fill="white"/>
<path d="M134.649 88.5484C134.649 88.6326 134.62 88.7055 134.557 88.7669C134.497 88.8285 134.423 88.8579 134.339 88.8579H133.869C133.784 88.8579 133.712 88.8285 133.649 88.7669C133.589 88.7055 133.558 88.6326 133.558 88.5484V85.8691L130.811 81.2525C130.774 81.1841 130.755 81.1296 130.755 81.0931C130.755 81.0249 130.78 80.9656 130.831 80.9156C130.882 80.8655 130.94 80.8403 131.008 80.8403H131.501C131.655 80.8403 131.765 80.87 131.829 80.9315C131.891 80.9929 131.944 81.0567 131.983 81.1272L134.097 84.7695L136.222 81.1272C136.261 81.059 136.312 80.9929 136.378 80.9315C136.442 80.87 136.551 80.8403 136.703 80.8403H137.196C137.267 80.8403 137.325 80.8655 137.376 80.9156C137.426 80.9656 137.45 81.0249 137.45 81.0931C137.45 81.1319 137.432 81.1841 137.393 81.2525L134.647 85.8691L134.649 88.5484Z" fill="white"/>
<path d="M79.1632 101.088C79.284 101.088 79.3873 101.131 79.475 101.22C79.5627 101.308 79.6076 101.411 79.6076 101.531V103.271C79.6076 103.391 79.5647 103.496 79.475 103.582C79.3873 103.671 79.284 103.715 79.1632 103.715H71.5427C71.4218 103.715 71.3166 103.671 71.2308 103.582C71.1412 103.496 71.0983 103.391 71.0983 103.271V92.674C71.0983 92.5533 71.1412 92.4508 71.2308 92.3619C71.3166 92.2756 71.4218 92.23 71.5427 92.23H73.7002C73.821 92.23 73.9243 92.2732 74.012 92.3619C74.0997 92.4508 74.1445 92.5533 74.1445 92.674V101.09H79.1632V101.088Z" fill="white"/>
<path d="M89.2648 101.088C89.3856 101.088 89.4889 101.131 89.5785 101.22C89.6643 101.308 89.7111 101.411 89.7111 101.531V103.271C89.7111 103.391 89.6682 103.496 89.5785 103.582C89.4889 103.671 89.3856 103.715 89.2648 103.715H81.4629C81.3421 103.715 81.2369 103.671 81.1511 103.582C81.0615 103.496 81.0186 103.391 81.0186 103.271V92.674C81.0186 92.5533 81.0615 92.4508 81.1511 92.3619C81.2369 92.2756 81.3421 92.23 81.4629 92.23H89.1322C89.255 92.23 89.3564 92.2732 89.446 92.3619C89.5318 92.4508 89.5785 92.5533 89.5785 92.674V94.413C89.5785 94.5337 89.5357 94.6383 89.446 94.7249C89.3564 94.8138 89.255 94.857 89.1322 94.857H84.0629V96.6281H88.7697C88.8906 96.6281 88.9938 96.6713 89.0835 96.76C89.1692 96.8489 89.216 96.9512 89.216 97.0719V98.8111C89.216 98.9318 89.1712 99.0364 89.0835 99.123C88.9938 99.2119 88.8906 99.2549 88.7697 99.2549H84.0629V101.092H89.2648V101.088Z" fill="white"/>
<path d="M97.696 92.2261C97.9163 92.2261 98.0819 92.2853 98.1989 92.406C98.3119 92.5266 98.3918 92.6473 98.4386 92.7679L102.027 103.103C102.07 103.212 102.093 103.294 102.093 103.349C102.093 103.447 102.056 103.533 101.986 103.604C101.916 103.674 101.828 103.711 101.73 103.711H99.6548C99.4365 103.711 99.2786 103.665 99.187 103.572C99.0935 103.479 99.0369 103.39 99.0135 103.301L98.5516 101.94H94.1742L93.7123 103.301C93.6908 103.39 93.6324 103.479 93.5388 103.572C93.4453 103.665 93.2913 103.711 93.0711 103.711H90.9954C90.898 103.711 90.8122 103.674 90.7401 103.604C90.6699 103.533 90.6329 103.449 90.6329 103.349C90.6329 103.294 90.6563 103.212 90.6992 103.103L94.2873 92.7679C94.3321 92.6473 94.412 92.5266 94.527 92.406C94.642 92.2853 94.8115 92.2261 95.0298 92.2261H97.696ZM95.0279 99.3947H97.6941L96.361 95.4587L95.0279 99.3947Z" fill="white"/>
<path d="M108.228 92.2284C108.987 92.2284 109.678 92.3399 110.304 92.5654C110.93 92.7907 111.47 93.1049 111.926 93.5077C112.38 93.9129 112.736 94.3955 112.996 94.9601C113.253 95.5224 113.399 96.1393 113.432 96.8064C113.442 97.0362 113.448 97.2457 113.448 97.4369C113.448 97.6281 113.448 97.8125 113.448 97.9855C113.448 98.1607 113.448 98.3406 113.448 98.5274C113.448 98.7139 113.442 98.9166 113.432 99.1351C113.399 99.8135 113.255 100.43 113.005 100.988C112.752 101.546 112.403 102.026 111.959 102.431C111.514 102.837 110.984 103.151 110.37 103.374C109.756 103.599 109.068 103.711 108.314 103.711H103.868C103.748 103.711 103.642 103.667 103.557 103.579C103.467 103.492 103.424 103.387 103.424 103.267V92.6701C103.424 92.5494 103.467 92.4469 103.557 92.3582C103.642 92.2717 103.748 92.2261 103.868 92.2261H108.228V92.2284ZM110.386 96.7403C110.32 95.4838 109.573 94.8531 108.147 94.8531H106.468V101.086H108.228C109.612 101.086 110.329 100.458 110.386 99.1988C110.398 98.969 110.402 98.7527 110.402 98.55C110.402 98.3475 110.402 98.1516 110.402 97.9604C110.402 97.7692 110.402 97.5757 110.402 97.3776C110.402 97.1841 110.396 96.9703 110.386 96.7403Z" fill="white"/>
<path d="M123.571 101.088C123.692 101.088 123.795 101.131 123.883 101.22C123.97 101.308 124.015 101.411 124.015 101.531V103.271C124.015 103.391 123.972 103.496 123.883 103.582C123.795 103.671 123.692 103.715 123.571 103.715H115.769C115.648 103.715 115.543 103.671 115.455 103.582C115.366 103.496 115.323 103.391 115.323 103.271V92.674C115.323 92.5533 115.366 92.4508 115.455 92.3619C115.543 92.2756 115.648 92.23 115.769 92.23H123.438C123.559 92.23 123.662 92.2732 123.752 92.3619C123.838 92.4508 123.883 92.5533 123.883 92.674V94.413C123.883 94.5337 123.84 94.6383 123.752 94.7249C123.662 94.8138 123.559 94.857 123.438 94.857H118.369V96.6281H123.076C123.197 96.6281 123.3 96.6713 123.388 96.76C123.475 96.8489 123.52 96.9512 123.52 97.0719V98.8111C123.52 98.9318 123.477 99.0364 123.388 99.123C123.3 99.2119 123.197 99.2549 123.076 99.2549H118.369V101.092H123.571V101.088Z" fill="white"/>
<path d="M130.811 92.2284C131.534 92.2284 132.184 92.3058 132.755 92.4584C133.324 92.6108 133.811 92.8408 134.21 93.1481C134.61 93.4555 134.918 93.8447 135.132 94.3205C135.347 94.7962 135.454 95.3517 135.454 95.9845C135.454 96.8041 135.282 97.4846 134.943 98.0265C134.602 98.5683 134.119 98.9803 133.493 99.2649L135.534 103.169C135.567 103.235 135.584 103.294 135.584 103.349C135.584 103.447 135.547 103.533 135.477 103.604C135.407 103.674 135.321 103.711 135.222 103.711H132.983C132.762 103.711 132.606 103.661 132.515 103.563C132.421 103.465 132.347 103.367 132.293 103.267L130.466 99.7566H128.954V103.267C128.954 103.387 128.909 103.492 128.821 103.579C128.732 103.667 128.629 103.711 128.508 103.711H126.35C126.229 103.711 126.124 103.667 126.038 103.579C125.949 103.492 125.906 103.387 125.906 103.267V92.6701C125.906 92.5494 125.949 92.4469 126.038 92.3582C126.124 92.2717 126.229 92.2261 126.35 92.2261H130.811V92.2284ZM128.95 97.2001H130.811C131.273 97.2001 131.653 97.1136 131.955 96.9383C132.256 96.7631 132.408 96.4466 132.408 95.9868C132.408 95.5269 132.256 95.2106 131.955 95.0353C131.653 94.8599 131.273 94.7734 130.811 94.7734H128.95V97.2001Z" fill="white"/>
<path d="M141.63 92.0625C142.334 92.0625 142.977 92.1627 143.564 92.3652C144.15 92.5679 144.659 92.8273 145.086 93.1438C145.513 93.4601 145.85 93.8107 146.091 94.1931C146.333 94.5755 146.458 94.9421 146.47 95.2928C146.47 95.3906 146.433 95.4771 146.362 95.5477C146.292 95.6182 146.212 95.6547 146.123 95.6547H143.965C143.813 95.6547 143.69 95.6319 143.597 95.5886C143.503 95.5453 143.406 95.4793 143.308 95.3927C143.277 95.361 143.225 95.3064 143.15 95.2288C143.08 95.1515 142.977 95.0741 142.846 94.9922C142.714 94.9102 142.55 94.8396 142.353 94.7782C142.155 94.719 141.915 94.6872 141.63 94.6872C141.424 94.6872 141.221 94.7008 141.03 94.7281C140.839 94.7554 140.667 94.7987 140.519 94.8601C140.371 94.9193 140.248 95.0059 140.155 95.115C140.061 95.2243 140.016 95.361 140.016 95.5249C140.016 95.6888 140.069 95.8254 140.172 95.9346C140.278 96.0439 140.453 96.1464 140.699 96.2374C140.946 96.3308 141.272 96.4218 141.679 96.5083C142.084 96.597 142.589 96.6995 143.191 96.8202C143.794 96.9408 144.322 97.0932 144.772 97.2799C145.22 97.4667 145.598 97.6988 145.899 97.9765C146.201 98.2566 146.427 98.5844 146.575 98.96C146.723 99.3379 146.797 99.784 146.797 100.296C146.797 100.854 146.67 101.353 146.417 101.79C146.164 102.227 145.811 102.602 145.357 102.914C144.899 103.226 144.363 103.463 143.743 103.627C143.121 103.791 142.445 103.872 141.71 103.872C140.964 103.872 140.284 103.775 139.67 103.577C139.056 103.381 138.526 103.119 138.081 102.798C137.635 102.475 137.288 102.113 137.035 101.708C136.781 101.302 136.653 100.893 136.641 100.478C136.641 100.38 136.676 100.296 136.748 100.223C136.818 100.153 136.898 100.116 136.988 100.116H139.145C139.297 100.116 139.418 100.135 139.508 100.173C139.594 100.212 139.683 100.269 139.769 100.346C139.814 100.39 139.88 100.46 139.968 100.56C140.055 100.658 140.174 100.761 140.322 100.863C140.471 100.968 140.658 101.057 140.882 101.134C141.106 101.211 141.385 101.248 141.712 101.248C142.295 101.248 142.778 101.184 143.17 101.059C143.56 100.934 143.753 100.706 143.753 100.378C143.753 100.214 143.683 100.078 143.538 99.9684C143.394 99.8592 143.184 99.7591 142.897 99.6657C142.613 99.5724 142.246 99.4835 141.804 99.3948C141.359 99.3083 140.835 99.1989 140.231 99.067C139.1 98.8257 138.274 98.425 137.754 97.8606C137.233 97.2983 136.974 96.5448 136.974 95.6046C136.974 95.1333 137.081 94.6849 137.296 94.2592C137.51 93.8335 137.818 93.4556 138.225 93.1278C138.631 92.8 139.122 92.5404 139.697 92.3492C140.272 92.158 140.915 92.0625 141.63 92.0625Z" fill="white"/>
<path d="M81.3168 55.9869C81.35 55.0308 81.5254 54.159 81.845 53.3691C82.1646 52.5791 82.6266 51.903 83.2347 51.3363C83.8427 50.7716 84.5911 50.3323 85.4779 50.0205C86.3666 49.7085 87.4016 49.5537 88.5846 49.5537C89.9762 49.5537 91.1242 49.7336 92.0285 50.0911C92.9328 50.4506 93.6501 50.881 94.188 51.3817C94.7239 51.8826 95.0982 52.4016 95.3145 52.9366C95.5328 53.4714 95.6555 53.9198 95.6867 54.2864C95.7023 54.4776 95.6439 54.6324 95.5074 54.753C95.3691 54.8737 95.2151 54.9329 95.0396 54.9329H93.0965C92.9211 54.9329 92.7789 54.8897 92.6756 54.801C92.5703 54.7144 92.4962 54.6211 92.4475 54.5254C92.4163 54.4617 92.3306 54.3229 92.1961 54.1066C92.0597 53.8904 91.8453 53.6696 91.549 53.4373C91.2508 53.2075 90.8669 53.0003 90.3836 52.8159C89.9041 52.6337 89.3038 52.5403 88.5846 52.5403C87.3879 52.5403 86.4251 52.8637 85.7059 53.5078C84.9887 54.1543 84.6048 55.0171 84.556 56.1029C84.5248 56.7085 84.5093 57.3573 84.5093 58.0517C84.5093 58.7459 84.5248 59.3948 84.556 60.0003C84.6048 61.3229 84.9887 62.2836 85.7059 62.8823C86.4251 63.4808 87.3879 63.779 88.5846 63.779C89.1771 63.779 89.7209 63.7153 90.2178 63.5878C90.7129 63.4604 91.1417 63.2532 91.5003 62.9665C91.8609 62.6796 92.1396 62.3017 92.3403 61.8304C92.5391 61.3615 92.6405 60.7834 92.6405 60.0981V59.907H89.7131C89.5376 59.907 89.3837 59.8432 89.257 59.7158C89.1284 59.5883 89.0641 59.438 89.0641 59.2605V57.5621C89.0641 57.3869 89.1284 57.2366 89.257 57.1068C89.3837 56.9794 89.5376 56.9156 89.7131 56.9156H95.2307C95.4061 56.9156 95.5561 56.9794 95.6867 57.1068C95.8153 57.2343 95.8797 57.3869 95.8797 57.5621V60.1915C95.8797 61.1475 95.7257 62.0286 95.4217 62.8322C95.1196 63.6379 94.6615 64.33 94.0554 64.9127C93.4473 65.4955 92.6873 65.9484 91.7771 66.2763C90.8669 66.6041 89.8027 66.7658 88.5846 66.7658C87.3685 66.7658 86.314 66.6064 85.4194 66.2878C84.5248 65.9691 83.7804 65.5228 83.1898 64.9492C82.5973 64.3756 82.1451 63.6859 81.8333 62.8823C81.5195 62.0785 81.35 61.1976 81.3168 60.2416C81.3012 59.9387 81.2895 59.6041 81.2798 59.2377C81.272 58.8711 81.27 58.4955 81.27 58.1131C81.27 57.7307 81.2739 57.3573 81.2798 56.9885C81.2876 56.6243 81.3012 56.2896 81.3168 55.9869Z" fill="white"/>
<path d="M97.2946 60.3152C97.2946 59.423 97.4291 58.5829 97.7039 57.793C97.9748 57.0031 98.3685 56.3178 98.8791 55.7374C99.3898 55.1547 100.012 54.697 100.74 54.3624C101.467 54.0278 102.278 53.8594 103.175 53.8594C104.071 53.8594 104.882 54.0233 105.611 54.3488C106.34 54.6766 106.958 55.1137 107.47 55.6645C107.981 56.2155 108.379 56.8596 108.657 57.6018C108.938 58.344 109.076 59.1201 109.076 59.9328V61.0096C109.076 61.1849 109.012 61.3375 108.885 61.4649C108.757 61.5924 108.605 61.6561 108.427 61.6561H100.415C100.415 62.0225 100.491 62.3459 100.643 62.6236C100.797 62.9037 101 63.1381 101.255 63.3293C101.512 63.5205 101.808 63.664 102.144 63.7595C102.479 63.8552 102.824 63.9029 103.175 63.9029C103.687 63.9029 104.102 63.8505 104.422 63.7482C104.742 63.6456 105.007 63.5137 105.213 63.3543C105.391 63.2268 105.533 63.1381 105.646 63.0902C105.757 63.0424 105.907 63.0196 106.102 63.0196H108.022C108.197 63.0196 108.353 63.0834 108.49 63.2108C108.624 63.3383 108.686 63.4909 108.671 63.6661C108.653 63.8893 108.531 64.1762 108.299 64.5266C108.065 64.8772 107.718 65.221 107.254 65.5557C106.792 65.8903 106.219 66.177 105.541 66.4161C104.861 66.6551 104.073 66.7757 103.179 66.7757C102.282 66.7757 101.469 66.621 100.742 66.3091C100.013 65.9973 99.3956 65.5557 98.8811 64.9819C98.3705 64.4083 97.9768 63.7277 97.7059 62.9378C97.4291 62.1432 97.2946 61.2714 97.2946 60.3152ZM103.171 56.7277C102.707 56.7277 102.309 56.7959 101.984 56.9302C101.655 57.0668 101.38 57.2399 101.156 57.456C100.931 57.6724 100.76 57.9113 100.639 58.1733C100.52 58.4372 100.442 58.6876 100.411 58.9267H105.833C105.8 58.6876 105.742 58.4372 105.652 58.1733C105.564 57.9092 105.42 57.67 105.221 57.456C105.02 57.2399 104.757 57.0645 104.428 56.9302C104.102 56.7959 103.681 56.7277 103.171 56.7277Z" fill="white"/>
<path d="M114.321 62.0347C114.321 62.5286 114.454 62.9225 114.717 63.2183C114.98 63.5144 115.471 63.66 116.19 63.66H117.654C117.829 63.66 117.983 63.7237 118.11 63.8512C118.238 63.9786 118.303 64.1312 118.303 64.3065V65.8842C118.303 66.0594 118.238 66.212 118.11 66.3394C117.983 66.4669 117.829 66.5306 117.654 66.5306H115.878C114.374 66.5306 113.218 66.1687 112.411 65.4425C111.602 64.7163 111.199 63.6054 111.199 62.1074V56.9673H109.813C109.636 56.9673 109.484 56.9036 109.355 56.7761C109.228 56.6487 109.164 56.4984 109.164 56.3209V54.7433C109.164 54.5679 109.228 54.4177 109.355 54.2881C109.484 54.1606 109.636 54.0969 109.813 54.0969H111.199V50.7754C111.199 50.6002 111.261 50.4499 111.39 50.3201C111.518 50.1926 111.67 50.1289 111.846 50.1289H113.67C113.846 50.1289 113.997 50.1926 114.126 50.3201C114.255 50.4478 114.319 50.6002 114.319 50.7754V54.0969H117.414C117.589 54.0969 117.743 54.1606 117.87 54.2881C117.999 54.4155 118.063 54.5679 118.063 54.7433V56.3209C118.063 56.4961 117.999 56.6487 117.87 56.7761C117.743 56.9036 117.589 56.9673 117.414 56.9673H114.319V62.0347H114.321Z" fill="white"/>
<path d="M128.599 50.4448C128.847 50.4448 129.036 50.5109 129.159 50.643C129.281 50.775 129.391 50.973 129.484 51.2371L135.201 65.7425C135.216 65.7881 135.224 65.8426 135.224 65.904C135.224 66.0748 135.162 66.2229 135.037 66.3457C134.91 66.471 134.764 66.5324 134.594 66.5324H132.914C132.603 66.5324 132.384 66.4663 132.261 66.3344C132.135 66.2022 132.051 66.0748 132.004 65.9496L131 63.3682H123.627L122.622 65.9496C122.577 66.0748 122.489 66.2022 122.366 66.3344C122.242 66.4663 122.025 66.5324 121.714 66.5324H120.033C119.862 66.5324 119.714 66.471 119.591 66.3457C119.466 66.2229 119.404 66.0748 119.404 65.904C119.404 65.8426 119.41 65.7881 119.427 65.7425L125.144 51.2371C125.237 50.973 125.344 50.775 125.469 50.643C125.592 50.5109 125.779 50.4448 126.029 50.4448H128.599ZM129.882 60.4611L127.313 53.8322L124.748 60.4611H129.882Z" fill="white"/>
<path d="M143.01 66.7673C142.515 66.7673 142.071 66.7196 141.679 66.6241C141.287 66.5284 140.944 66.4078 140.648 66.2643C140.352 66.1209 140.1 65.9661 139.892 65.7977C139.685 65.6291 139.516 65.4744 139.387 65.3309V69.6676C139.387 69.8429 139.325 69.9931 139.196 70.1229C139.067 70.2504 138.915 70.3141 138.74 70.3141H136.916C136.74 70.3141 136.586 70.2504 136.46 70.1229C136.331 69.9955 136.267 69.8429 136.267 69.6676V54.7411C136.267 54.5659 136.331 54.4156 136.46 54.2858C136.586 54.1583 136.74 54.0946 136.916 54.0946H138.74C138.915 54.0946 139.065 54.1583 139.196 54.2858C139.325 54.4133 139.387 54.5659 139.387 54.7411V55.2921C139.516 55.1486 139.685 54.9937 139.892 54.8253C140.1 54.659 140.352 54.5021 140.648 54.3587C140.944 54.2153 141.287 54.0946 141.679 53.9989C142.073 53.9034 142.515 53.8555 143.01 53.8555C143.809 53.8555 144.532 54.0104 145.181 54.3223C145.83 54.6341 146.38 55.0484 146.836 55.5651C147.294 56.0841 147.651 56.6805 147.916 57.359C148.181 58.0374 148.327 58.743 148.362 59.4738C148.378 59.7128 148.387 59.9928 148.387 60.3115C148.387 60.6302 148.378 60.9102 148.362 61.1492C148.329 61.8822 148.181 62.5879 147.916 63.264C147.655 63.9425 147.294 64.5389 146.836 65.0579C146.38 65.5769 145.83 65.9913 145.181 66.3008C144.532 66.6126 143.809 66.7673 143.01 66.7673ZM145.242 60.9831C145.289 60.5368 145.289 60.0907 145.242 59.6446C145.144 58.6087 144.825 57.8643 144.283 57.4091C143.739 56.9538 143.075 56.7285 142.291 56.7285C141.509 56.7285 140.849 56.9606 140.313 57.4227C139.777 57.8848 139.467 58.5473 139.387 59.4078C139.356 59.6467 139.34 59.9496 139.34 60.316C139.34 60.6826 139.356 60.9853 139.387 61.2244C139.467 62.0529 139.777 62.7062 140.313 63.1843C140.849 63.6624 141.509 63.9014 142.291 63.9014C143.075 63.9014 143.739 63.6737 144.283 63.2208C144.825 62.7631 145.144 62.0188 145.242 60.9831Z" fill="white"/>
<path d="M156.47 66.7673C155.975 66.7673 155.531 66.7196 155.141 66.6241C154.747 66.5284 154.404 66.4078 154.108 66.2643C153.812 66.1209 153.56 65.9661 153.354 65.7977C153.145 65.6291 152.975 65.4744 152.849 65.3309V69.6676C152.849 69.8429 152.784 69.9931 152.656 70.1229C152.529 70.2504 152.375 70.3141 152.2 70.3141H150.375C150.2 70.3141 150.048 70.2504 149.919 70.1229C149.791 69.9955 149.728 69.8429 149.728 69.6676V54.7411C149.728 54.5659 149.791 54.4156 149.919 54.2858C150.048 54.1583 150.2 54.0946 150.375 54.0946H152.2C152.375 54.0946 152.527 54.1583 152.656 54.2858C152.784 54.4133 152.849 54.5659 152.849 54.7411V55.2921C152.975 55.1486 153.145 54.9937 153.354 54.8253C153.56 54.659 153.812 54.5021 154.108 54.3587C154.404 54.2153 154.747 54.0946 155.141 53.9989C155.532 53.9034 155.975 53.8555 156.47 53.8555C157.269 53.8555 157.994 54.0104 158.641 54.3223C159.29 54.6341 159.84 55.0484 160.298 55.5651C160.754 56.0841 161.112 56.6805 161.378 57.359C161.641 58.0374 161.787 58.743 161.822 59.4738C161.837 59.7128 161.847 59.9928 161.847 60.3115C161.847 60.6302 161.837 60.9102 161.822 61.1492C161.791 61.8822 161.641 62.5879 161.378 63.264C161.114 63.9425 160.754 64.5389 160.298 65.0579C159.84 65.5769 159.29 65.9913 158.641 66.3008C157.994 66.6126 157.269 66.7673 156.47 66.7673ZM158.702 60.9831C158.748 60.5368 158.748 60.0907 158.702 59.6446C158.606 58.6087 158.286 57.8643 157.743 57.4091C157.199 56.9538 156.534 56.7285 155.753 56.7285C154.969 56.7285 154.309 56.9606 153.773 57.4227C153.237 57.8848 152.929 58.5473 152.849 59.4078C152.816 59.6467 152.8 59.9496 152.8 60.316C152.8 60.6826 152.816 60.9853 152.849 61.2244C152.929 62.0529 153.237 62.7062 153.773 63.1843C154.309 63.6624 154.969 63.9014 155.753 63.9014C156.534 63.9014 157.199 63.6737 157.743 63.2208C158.286 62.7631 158.606 62.0188 158.702 60.9831Z" fill="white"/>
<path d="M77.561 57.3619L69.5643 49.3923C69.3012 49.1303 68.8743 49.1303 68.6112 49.3923L67.0403 50.9583L73.4642 57.3619C73.7273 57.6236 73.7273 58.0495 73.4642 58.3112L66.8493 64.906L68.4202 66.4722C68.6833 66.734 69.1101 66.734 69.3713 66.4722L77.561 58.3112C77.8222 58.0495 77.8222 57.6236 77.561 57.3619Z" fill="#009C9C"/>
<path d="M63.9377 49.9703L63.3568 49.3923C63.0957 49.1303 62.6689 49.1303 62.4058 49.3923L60.8349 50.9583L61.8912 52.0101L63.9396 54.0498L65.988 52.0101L63.9377 49.9703Z" fill="#444A51"/>
<path d="M63.7485 61.811L61.7021 63.8507L60.6458 64.9023L62.2147 66.4685C62.4778 66.7303 62.9046 66.7303 63.1677 66.4685L63.7466 65.8903L65.795 63.8507L63.7485 61.811Z" fill="#444A51"/>
<path d="M67.2645 57.3628C67.5277 57.6247 67.5277 58.0504 67.2645 58.3121L63.7505 61.8133L65.7989 63.8529L71.3594 58.3121C71.6225 58.0504 71.6225 57.6247 71.3594 57.3628L65.9899 52.0132L63.9435 54.053L67.2645 57.3628Z" fill="#444A51"/>
<path d="M54.2199 57.5531L59.7804 52.0123L57.7339 49.9703L57.1531 49.3923C56.892 49.1303 56.4651 49.1303 56.202 49.3923L48.0123 57.5531C47.7512 57.815 47.7512 58.2407 48.0123 58.5024L56.0091 66.4722C56.2722 66.734 56.699 66.734 56.9621 66.4722L57.541 65.894L59.5894 63.852L54.2199 58.5024C53.9568 58.2407 53.9568 57.815 54.2199 57.5531Z" fill="#444A51"/>
<path d="M60.4275 57.554L62.8832 55.1068L60.8368 53.0649L59.7785 52.0132L54.218 57.554C53.9549 57.8159 53.9549 58.2416 54.218 58.5033L59.5875 63.8529L60.6438 62.8012L62.6922 60.7593L60.4275 58.5033C60.1644 58.2416 60.1644 57.8159 60.4275 57.554Z" fill="#444A51"/>
<path d="M60.4314 58.5044L62.6941 60.7604L65.1518 58.3132C65.413 58.0513 65.413 57.6256 65.1518 57.3639L62.8871 55.1079L60.4314 57.5551C60.1683 57.8168 60.1683 58.2427 60.4314 58.5044Z" fill="#444A51"/>
<path d="M63.9377 49.9703L63.3568 49.3923C63.0957 49.1303 62.6689 49.1303 62.4058 49.3923L60.8349 50.9583L61.8912 52.0101L63.9396 54.0498L65.988 52.0101L63.9377 49.9703Z" fill="#41E3E2"/>
<path d="M63.7485 61.811L61.7021 63.8507L60.6458 64.9023L62.2147 66.4685C62.4778 66.7303 62.9046 66.7303 63.1677 66.4685L63.7466 65.8903L65.795 63.8507L63.7485 61.811Z" fill="#41E3E2"/>
<path d="M67.2645 57.3628C67.5277 57.6247 67.5277 58.0504 67.2645 58.3121L63.7505 61.8133L65.7989 63.8529L71.3594 58.3121C71.6225 58.0504 71.6225 57.6247 71.3594 57.3628L65.9899 52.0132L63.9435 54.053L67.2645 57.3628Z" fill="#19BAB8"/>
<path d="M54.2199 57.5531L59.7804 52.0123L57.7339 49.9703L57.1531 49.3923C56.892 49.1303 56.4651 49.1303 56.202 49.3923L48.0123 57.5531C47.7512 57.815 47.7512 58.2407 48.0123 58.5024L56.0091 66.4722C56.2722 66.734 56.699 66.734 56.9621 66.4722L57.541 65.894L59.5894 63.852L54.2199 58.5024C53.9568 58.2407 53.9568 57.815 54.2199 57.5531Z" fill="#87EFEF"/>
<path d="M60.4275 57.554L62.8832 55.1068L60.8368 53.0649L59.7785 52.0132L54.218 57.554C53.9549 57.8159 53.9549 58.2416 54.218 58.5033L59.5875 63.8529L60.6438 62.8012L62.6922 60.7593L60.4275 58.5033C60.1644 58.2416 60.1644 57.8159 60.4275 57.554Z" fill="#41E3E2"/>
<path d="M60.4314 58.5044L62.6941 60.7604L65.1518 58.3132C65.413 58.0513 65.413 57.6256 65.1518 57.3639L62.8871 55.1079L60.4314 57.5551C60.1683 57.8168 60.1683 58.2427 60.4314 58.5044Z" fill="#17CFCE"/>
<path d="M93.4375 123.759C93.3751 123.697 93.3439 123.622 93.3439 123.533V122.855C93.3439 122.616 93.455 122.406 93.6772 122.231L95.7821 120.144C96.6962 119.427 97.3335 118.867 97.6941 118.461C98.0546 118.058 98.234 117.662 98.234 117.271C98.234 116.854 98.119 116.526 97.8929 116.287C97.6668 116.048 97.3277 115.928 96.8736 115.928C96.4272 115.928 96.0784 116.057 95.8211 116.319C95.5619 116.581 95.4021 116.92 95.3416 117.337C95.3144 117.444 95.2657 117.521 95.1955 117.569C95.1234 117.617 95.0434 117.642 94.9557 117.642H93.7688C93.6889 117.642 93.6226 117.615 93.568 117.562C93.5154 117.51 93.4882 117.446 93.4882 117.375C93.5057 116.852 93.648 116.363 93.915 115.907C94.182 115.452 94.5679 115.083 95.0746 114.803C95.5814 114.523 96.1758 114.384 96.8599 114.384C97.5694 114.384 98.1716 114.507 98.6647 114.751C99.1578 114.994 99.53 115.329 99.7795 115.755C100.027 116.18 100.154 116.663 100.154 117.203C100.154 117.797 99.9861 118.332 99.6528 118.81C99.3195 119.288 98.8109 119.802 98.1268 120.351L96.2343 122.265H100.033C100.13 122.265 100.208 122.295 100.265 122.352C100.321 122.409 100.353 122.486 100.353 122.584V123.529C100.353 123.617 100.321 123.692 100.265 123.754C100.208 123.815 100.13 123.847 100.033 123.847H93.6616C93.5739 123.852 93.4979 123.822 93.4375 123.759Z" fill="#17CFCE"/>
<path d="M102.136 123.002C101.553 122.346 101.235 121.486 101.183 120.423C101.175 120.183 101.169 119.776 101.169 119.2C101.169 118.615 101.175 118.198 101.183 117.95C101.228 116.905 101.549 116.054 102.142 115.398C102.738 114.743 103.617 114.415 104.781 114.415C105.954 114.415 106.839 114.743 107.433 115.398C108.03 116.054 108.345 116.905 108.382 117.95C108.4 118.198 108.41 118.615 108.41 119.2C108.41 119.776 108.4 120.183 108.382 120.423C108.338 121.486 108.024 122.346 107.441 123.002C106.858 123.657 105.973 123.985 104.781 123.985C103.601 123.988 102.719 123.66 102.136 123.002ZM106.034 121.907C106.311 121.54 106.457 121.023 106.474 120.359C106.494 119.844 106.504 119.455 106.504 119.189C106.504 118.897 106.494 118.51 106.474 118.032C106.457 117.377 106.311 116.862 106.034 116.491C105.759 116.12 105.34 115.933 104.781 115.933C104.231 115.933 103.816 116.12 103.535 116.491C103.255 116.865 103.106 117.377 103.087 118.032C103.079 118.271 103.073 118.656 103.073 119.189C103.073 119.712 103.079 120.102 103.087 120.359C103.106 121.023 103.255 121.54 103.535 121.907C103.816 122.276 104.229 122.458 104.781 122.458C105.344 122.458 105.761 122.273 106.034 121.907Z" fill="#17CFCE"/>
<path d="M109.242 123.759C109.181 123.697 109.148 123.622 109.148 123.533V122.855C109.148 122.616 109.261 122.406 109.482 122.231L111.587 120.144C112.503 119.427 113.14 118.867 113.5 118.461C113.861 118.058 114.038 117.662 114.038 117.271C114.038 116.854 113.925 116.526 113.699 116.287C113.473 116.048 113.132 115.928 112.678 115.928C112.234 115.928 111.883 116.057 111.625 116.319C111.368 116.581 111.208 116.92 111.146 117.337C111.119 117.444 111.07 117.521 111 117.569C110.93 117.617 110.85 117.642 110.76 117.642H109.573C109.493 117.642 109.427 117.615 109.372 117.562C109.32 117.51 109.293 117.446 109.293 117.375C109.31 116.852 109.452 116.363 109.719 115.907C109.986 115.452 110.372 115.083 110.879 114.803C111.386 114.523 111.982 114.384 112.664 114.384C113.374 114.384 113.976 114.507 114.469 114.751C114.962 114.994 115.334 115.329 115.584 115.755C115.833 116.18 115.958 116.663 115.958 117.203C115.958 117.797 115.792 118.332 115.459 118.81C115.126 119.288 114.615 119.802 113.931 120.351L112.039 122.265H115.837C115.935 122.265 116.013 122.295 116.071 122.352C116.128 122.409 116.157 122.486 116.157 122.584V123.529C116.157 123.617 116.128 123.692 116.071 123.754C116.013 123.815 115.935 123.847 115.837 123.847H109.466C109.38 123.852 109.304 123.822 109.242 123.759Z" fill="#17CFCE"/>
<path d="M121.295 123.76C121.232 123.698 121.201 123.623 121.201 123.534V121.834H116.976C116.886 121.834 116.81 121.802 116.75 121.741C116.687 121.679 116.656 121.604 116.656 121.515V120.612C116.656 120.47 116.703 120.336 116.802 120.213L120.733 114.777C120.776 114.707 120.844 114.652 120.934 114.611C121.022 114.57 121.121 114.552 121.226 114.552H122.678C122.776 114.552 122.854 114.581 122.91 114.638C122.967 114.695 122.998 114.773 122.998 114.87V120.268H124.185C124.282 120.268 124.362 120.298 124.425 120.354C124.485 120.411 124.518 120.489 124.518 120.587V121.518C124.518 121.607 124.485 121.682 124.425 121.743C124.362 121.805 124.286 121.836 124.199 121.836H123V123.537C123 123.626 122.971 123.701 122.912 123.762C122.856 123.824 122.778 123.855 122.68 123.855H121.521C121.433 123.853 121.355 123.824 121.295 123.76ZM121.242 120.318V116.478L118.509 120.318H121.242Z" fill="#17CFCE"/>
</svg>
