<svg width="216" height="188" viewBox="0 0 216 188" fill="none" xmlns="http://www.w3.org/2000/svg">
<mask id="mask0_13365_14448" style="mask-type:luminance" maskUnits="userSpaceOnUse" x="35" y="24" width="146" height="140">
<path d="M180.661 24H35.3388V164H180.661V24Z" fill="white"/>
</mask>
<g mask="url(#mask0_13365_14448)">
<path d="M56.4644 40.9317C56.4644 39.5008 57.4172 38.2442 58.7947 37.8558L107.28 24.1952C107.849 24.0352 108.451 24.0352 109.018 24.1952L157.503 37.8558C158.883 38.2442 159.835 39.5008 159.835 40.9317V137.96C159.835 139.207 159.109 140.34 157.975 140.862L109.49 163.216C108.64 163.608 107.659 163.608 106.808 163.216L58.3226 140.862C57.1891 140.34 56.4644 139.207 56.4644 137.96V40.9317Z" fill="url(#paint0_radial_13365_14448)"/>
<mask id="mask1_13365_14448" style="mask-type:luminance" maskUnits="userSpaceOnUse" x="56" y="24" width="104" height="140">
<path d="M56.4784 40.9317C56.4784 39.5008 57.4295 38.2442 58.8087 37.8558L107.294 24.1952C107.863 24.0352 108.463 24.0352 109.032 24.1952L157.517 37.8558C158.897 38.2442 159.848 39.5008 159.848 40.9317V137.96C159.848 139.207 159.123 140.34 157.989 140.862L109.504 163.216C108.653 163.608 107.673 163.608 106.822 163.216L58.3367 140.862C57.2031 140.34 56.4784 139.207 56.4784 137.96V40.9317Z" fill="url(#paint1_linear_13365_14448)" fill-opacity="0.5"/>
</mask>
<g mask="url(#mask1_13365_14448)">
<path d="M155.824 40.9315V137.96H163.866V40.9315H155.824ZM60.495 137.96V40.9315H52.4547V137.96H60.495ZM156.301 137.215L107.816 159.569L111.186 166.863L159.672 144.509L156.301 137.215ZM108.505 159.569L60.0195 137.215L56.6486 144.509L105.134 166.863L108.505 159.569ZM59.8966 41.7211L108.384 28.0606L106.201 20.3294L57.7138 33.99L59.8966 41.7211ZM107.937 28.0606L156.424 41.7211L158.607 33.99L110.12 20.3294L107.937 28.0606ZM108.384 28.0606C108.237 28.1017 108.084 28.1017 107.937 28.0606L110.12 20.3294C108.839 19.9683 107.482 19.9683 106.201 20.3294L108.384 28.0606ZM107.816 159.569C108.035 159.468 108.286 159.468 108.505 159.569L105.134 166.863C107.054 167.748 109.267 167.748 111.186 166.863L107.816 159.569ZM52.4547 137.96C52.4547 140.773 54.0919 143.33 56.6486 144.509L60.0195 137.215C60.309 137.349 60.495 137.64 60.495 137.96H52.4547ZM155.824 137.96C155.824 137.64 156.012 137.349 156.301 137.215L159.672 144.509C162.229 143.33 163.866 140.773 163.866 137.96H155.824ZM163.866 40.9315C163.866 37.7023 161.718 34.8666 158.607 33.99L156.424 41.7211C156.07 41.6214 155.824 41.2989 155.824 40.9315H163.866ZM60.495 40.9315C60.495 41.2989 60.2511 41.6214 59.8966 41.7211L57.7138 33.99C54.6026 34.8666 52.4547 37.7023 52.4547 40.9315H60.495Z" fill="url(#paint2_linear_13365_14448)" fill-opacity="0.5"/>
</g>
<path d="M105.847 45.7723L105.845 44.5607L103.485 44.5656L103.483 43.4674L105.617 43.4631L105.613 42.3404L103.48 42.3449L103.478 41.2545L105.831 41.2496L105.827 40.0464L102.197 40.054L102.209 45.7799L105.847 45.7723ZM106.414 45.7711L107.763 45.7683C107.982 45.4366 108.279 44.9595 108.498 44.6361L109.244 45.7651L110.683 45.7621C110.22 45.1171 109.693 44.359 109.239 43.7138L110.625 41.7485L109.251 41.7513L108.551 42.8512L107.828 41.7543L106.38 41.7573L107.793 43.7652L106.414 45.7711ZM112.538 47.2926L112.534 45.4433C112.72 45.669 113.108 45.8458 113.626 45.8448C114.749 45.8425 115.54 44.9606 115.537 43.7329C115.535 42.5297 114.829 41.6428 113.666 41.6453C113.092 41.6464 112.655 41.8976 112.487 42.1565L112.485 41.7446L111.297 41.7471L111.308 47.2953L112.538 47.2926ZM114.333 43.7436C114.334 44.4138 113.906 44.7458 113.42 44.7468C112.945 44.7479 112.515 44.4096 112.513 43.7473C112.511 43.077 112.939 42.7531 113.417 42.752C113.903 42.7512 114.331 43.0733 114.333 43.7436ZM117.258 43.2609C117.282 42.9623 117.54 42.582 118.058 42.5809C118.639 42.5797 118.85 42.9507 118.867 43.2576L117.258 43.2609ZM118.958 44.2992C118.846 44.6144 118.595 44.8249 118.151 44.8258C117.674 44.8269 117.261 44.5047 117.235 44.0525L120.032 44.0465C120.05 43.9209 120.059 43.7938 120.057 43.667C120.053 42.3748 119.285 41.6092 118.039 41.6118C116.996 41.6139 116.035 42.4397 116.038 43.7319C116.042 45.0806 117.03 45.8701 118.137 45.8676C119.155 45.8655 119.794 45.2827 119.985 44.5877L118.958 44.2992ZM123.4 41.7218C123.294 41.6941 123.185 41.6808 123.077 41.682C122.752 41.6827 122.243 41.8129 122.034 42.2656L122.033 41.7246L120.845 41.7271L120.853 45.7409L122.082 45.7383L122.078 43.9856C122.076 43.1862 122.52 42.8945 123.014 42.8935C123.145 42.8915 123.275 42.9047 123.401 42.9331L123.4 41.7218ZM125.742 40.5458L124.642 40.5481L124.644 41.065C124.644 41.4365 124.442 41.7195 124.023 41.7204L123.821 41.7209L123.822 42.795L124.533 42.7934L124.537 44.5136C124.538 45.3133 125.049 45.8048 125.883 45.803C126.27 45.8021 126.472 45.7128 126.521 45.6886L126.518 44.671C126.412 44.6963 126.304 44.71 126.195 44.7121C125.928 44.7126 125.751 44.6242 125.749 44.2931L125.746 42.791L126.53 42.7892L126.528 41.7151L125.744 41.7169L125.742 40.5458ZM103.518 52.8435L103.506 47.1177L102.213 47.1205L102.225 52.8463L103.518 52.8435ZM105.898 50.537C105.898 50.1331 106.156 49.8339 106.559 49.833C107.005 49.832 107.215 50.1303 107.215 50.5261L107.221 52.8359L108.449 52.8335L108.444 50.3136C108.442 49.4333 107.988 48.7156 106.979 48.7177C106.566 48.7186 106.073 48.9053 105.856 49.2853L105.854 48.8249L104.666 48.8274L104.675 52.8412L105.903 52.8386L105.898 50.537ZM109.151 51.693C109.184 52.1372 109.59 52.9523 110.851 52.9493C111.927 52.947 112.45 52.2758 112.45 51.5893C112.448 50.9997 112.043 50.4998 111.209 50.3321L110.676 50.2282C110.497 50.1962 110.36 50.0996 110.36 49.93C110.36 49.7202 110.562 49.5824 110.795 49.5819C111.167 49.5812 111.337 49.807 111.371 50.0734L112.388 49.8855C112.348 49.4171 111.941 48.6912 110.778 48.6935C109.881 48.6954 109.235 49.2945 109.235 50.0294C109.237 50.5946 109.577 51.0785 110.435 51.2624L110.897 51.3665C111.195 51.4305 111.294 51.5514 111.294 51.6967C111.294 51.8745 111.141 52.0443 110.825 52.0451C110.404 52.0459 110.209 51.7797 110.193 51.5053L109.151 51.693ZM114.482 52.8208L114.473 48.807L113.243 48.8095L113.252 52.8233L114.482 52.8208ZM113.136 47.582C113.136 47.7247 113.178 47.8638 113.259 47.9821C113.338 48.1002 113.452 48.1921 113.583 48.246C113.715 48.2999 113.861 48.3134 114.001 48.2846C114.14 48.256 114.268 48.1863 114.368 48.0849C114.468 47.9833 114.536 47.8543 114.563 47.7143C114.589 47.5743 114.573 47.4295 114.517 47.2984C114.461 47.1674 114.368 47.0559 114.249 46.9782C114.129 46.9005 113.989 46.8599 113.845 46.8618C113.657 46.8643 113.476 46.9413 113.343 47.0763C113.21 47.211 113.136 47.3928 113.136 47.582ZM115.273 53.0451C115.389 53.7635 116.126 54.4726 117.282 54.4703C118.786 54.4671 119.43 53.4645 119.429 52.3097L119.42 48.7965L118.248 48.7991L118.249 49.2271C118.135 49.0174 117.788 48.7273 117.132 48.7287C116.033 48.731 115.266 49.6372 115.268 50.6949C115.272 51.8096 116.073 52.6478 117.14 52.6455C117.723 52.6443 118.07 52.4093 118.214 52.191L118.216 52.3767C118.216 53.1037 117.837 53.4032 117.223 53.4046C116.761 53.4055 116.438 53.1235 116.356 52.7361L115.273 53.0451ZM117.365 51.579C116.872 51.58 116.498 51.2415 116.498 50.6925C116.496 50.1432 116.9 49.8032 117.361 49.8023C117.821 49.8012 118.22 50.1397 118.22 50.6888C118.221 51.238 117.867 51.5779 117.365 51.579ZM121.687 50.4473C121.712 50.0759 121.961 49.8007 122.348 49.7998C122.794 49.799 123.005 50.0973 123.005 50.4931L123.01 52.8028L124.238 52.8001L124.235 50.2806C124.231 49.4003 123.761 48.6826 122.71 48.6847C122.356 48.6854 121.934 48.7995 121.685 49.0504L121.68 46.9585L120.452 46.9612L120.464 52.8082L121.692 52.8056L121.687 50.4473ZM126.735 47.6103L125.635 47.6125L125.637 48.1295C125.637 48.501 125.435 48.784 125.016 48.7849L124.814 48.7852L124.816 49.8593L125.526 49.8579L125.53 51.5781C125.532 52.3776 126.042 52.8693 126.876 52.8675C127.264 52.8666 127.465 52.7775 127.513 52.7531L127.511 51.7355C127.406 51.7608 127.297 51.7745 127.188 51.7766C126.921 51.7771 126.744 51.6887 126.742 51.3575L126.739 49.8553L127.523 49.8537L127.521 48.7796L126.737 48.7812L126.735 47.6103ZM128.181 51.6534C128.215 52.0975 128.622 52.9123 129.883 52.9098C130.957 52.9073 131.482 52.236 131.48 51.5495C131.48 50.9599 131.075 50.4602 130.241 50.2922L129.708 50.1883C129.529 50.1564 129.392 50.0599 129.392 49.8904C129.39 49.6803 129.592 49.5426 129.827 49.5422C130.199 49.5414 130.369 49.7672 130.403 50.0336L131.421 49.8456C131.378 49.3775 130.973 48.6513 129.81 48.6538C128.911 48.6557 128.266 49.2546 128.267 49.9895C128.269 50.5549 128.609 51.0387 129.468 51.2228L129.927 51.3268C130.227 51.3907 130.324 51.5118 130.324 51.6571C130.326 51.8347 130.171 52.0047 129.857 52.0052C129.436 52.0061 129.241 51.7401 129.225 51.4656L128.181 51.6534Z" fill="white"/>
<path d="M91.8965 53.4998C91.3928 53.5002 90.8874 53.4495 90.3926 53.3484C89.438 53.1531 88.5308 52.7718 87.7236 52.2262C86.5216 51.4167 85.5828 50.2768 85.0178 48.9446C84.8265 48.4935 84.6808 48.0244 84.5826 47.5447C84.3808 46.5527 84.3808 45.5302 84.5826 44.5384C84.7774 43.5844 85.1599 42.678 85.7056 41.8714C86.5163 40.6722 87.657 39.7336 88.9906 39.1692C89.4433 38.9784 89.9118 38.8328 90.3926 38.7345C91.3858 38.5325 92.4088 38.5325 93.402 38.7345C94.3566 38.9299 95.2638 39.3112 96.0727 39.8567C97.273 40.6662 98.2118 41.8061 98.7768 43.1383C98.9681 43.5895 99.1137 44.0583 99.212 44.5383C99.4577 45.7392 99.405 46.9818 99.0593 48.1578C98.8628 48.8213 98.5751 49.4542 98.203 50.038L94.3742 46.9955C94.6672 46.4152 94.8076 45.7692 94.7812 45.1196C94.7532 44.4698 94.5601 43.8378 94.2197 43.2838C93.8775 42.73 93.4003 42.2725 92.8317 41.9554C92.2632 41.6382 91.6245 41.4718 90.9735 41.4722C90.4084 41.472 89.8504 41.5962 89.3398 41.8363C88.7326 42.122 88.2114 42.5635 87.8307 43.1155C87.4499 43.6676 87.2217 44.3105 87.1709 44.9792C87.1129 45.7161 87.2692 46.4538 87.6219 47.1034C87.9482 47.7037 88.4308 48.205 89.0186 48.5544C89.6065 48.9038 90.2785 49.0882 90.9611 49.0884C91.1085 49.088 91.2542 49.0794 91.3998 49.0627C92.1386 48.9806 92.837 48.6834 93.4091 48.208L97.2397 51.252C96.5571 51.9511 95.7429 52.5096 94.8462 52.896C94.3882 53.0925 93.9126 53.2426 93.4248 53.3438C92.9229 53.4477 92.4106 53.5002 91.8965 53.4998ZM90.9629 47.6363C90.4312 47.6365 89.9153 47.4557 89.5012 47.1237C89.073 46.7844 88.7765 46.3078 88.6624 45.7748C88.5484 45.2421 88.622 44.686 88.8712 44.2015C89.1221 43.7169 89.5328 43.334 90.0329 43.1176C90.533 42.9014 91.0945 42.8653 91.6192 43.0155C92.1421 43.1657 92.5984 43.493 92.9089 43.9415C93.2195 44.39 93.3634 44.9319 93.3178 45.4751C93.2739 46.0182 93.0405 46.5289 92.6615 46.9202C92.2807 47.3115 91.7771 47.5591 91.2349 47.6207C91.1454 47.631 91.0542 47.6363 90.9629 47.6363Z" fill="white"/>
<path d="M99.3015 52.8937L99.2822 52.9169C99.1576 53.0741 99.0014 53.2052 98.8259 53.3024C98.6505 53.4 98.4575 53.4617 98.2574 53.4844C98.0574 53.507 97.8556 53.4903 97.6625 53.435C97.4695 53.3796 97.2888 53.2866 97.1326 53.1617L92.3965 49.4L92.6668 49.0604L93.3687 48.1792L99.3015 52.8937Z" fill="white"/>
<g opacity="0.147">
<g opacity="0.524">
<path d="M92.8001 46.7467C93.1879 46.2573 93.3652 45.6346 93.2932 45.015C93.2213 44.3952 92.9072 43.8293 92.4176 43.4409C91.9298 43.0526 91.3068 42.8738 90.6857 42.9435C90.0645 43.0131 89.4977 43.3257 89.1081 43.8128C89.0449 43.8931 88.987 43.9775 88.9344 44.0651C89.3854 43.7928 89.9136 43.6792 90.4365 43.7428C90.9594 43.8063 91.4472 44.043 91.8192 44.4152C92.1912 44.7874 92.4281 45.2736 92.4913 45.796C92.5545 46.3184 92.4422 46.8471 92.1684 47.2974C92.4106 47.1535 92.6246 46.967 92.8001 46.7467Z" fill="black"/>
</g>
<g opacity="0.724">
<path d="M99.2998 52.8945L99.2804 52.9181C99.1523 53.0783 98.9944 53.2113 98.8155 53.3092C98.6365 53.4069 98.4382 53.4678 98.2346 53.4877L92.9194 49.2257L92.6212 48.9878C92.0456 49.4773 91.3367 49.7835 90.5856 49.8667C90.44 49.8836 90.2926 49.8922 90.147 49.8925C89.2871 49.8929 88.4519 49.6005 87.7798 49.0637C86.1356 47.757 85.8618 45.3556 87.1691 43.7128C87.378 43.4504 87.6218 43.2169 87.8903 43.0181C86.6778 44.6575 86.9726 46.9828 88.5835 48.2618C89.2555 48.7986 90.089 49.0908 90.9489 49.0904C91.0963 49.0906 91.2419 49.0823 91.3893 49.0658C92.1404 48.9823 92.8492 48.6758 93.4248 48.1858L99.2998 52.8945Z" fill="black"/>
</g>
</g>
<path d="M84.5527 76.9107H75.6562V62.9102H84.5335V65.8524H78.7796V68.5182H84V71.263H78.7796V73.9486H84.5527V76.9107ZM96.2202 62.6139V75.1533C96.2202 76.0417 96.278 76.6934 96.2991 76.9107H93.4125C93.3932 76.7922 93.3335 76.3576 93.3335 75.9627C92.8791 76.6341 91.8894 77.1279 90.7049 77.1279C87.9359 77.1279 85.8407 74.9952 85.8407 71.974C85.8407 69.0515 87.8184 66.8594 90.6049 66.8594C92.286 66.8594 93.0177 67.4913 93.2546 67.8666V62.6139H96.2202ZM88.8659 71.9937C88.8659 73.6129 89.9135 74.4422 91.0804 74.4422C92.2456 74.4422 93.2932 73.6129 93.2932 71.9937C93.2932 70.3547 92.2456 69.5647 91.0804 69.5647C89.9135 69.5647 88.8659 70.3547 88.8659 71.9937ZM101.635 76.9107H98.6312V67.0963H101.635V76.9107ZM98.3732 64.095C98.3732 63.1272 99.1646 62.3374 100.114 62.3374C101.102 62.3374 101.893 63.1272 101.893 64.095C101.893 65.0625 101.102 65.8524 100.114 65.8524C99.1646 65.8524 98.3732 65.0625 98.3732 64.095ZM107.57 64.2332V67.0963H109.486V69.7228H107.57V73.3957C107.57 74.2054 108.003 74.4224 108.656 74.4224C108.972 74.4224 109.269 74.3631 109.448 74.3238V76.812C109.328 76.871 108.835 77.0882 107.886 77.0882C105.849 77.0882 104.604 75.884 104.604 73.9288V69.7228H102.864V67.0963H103.358C104.387 67.0963 104.882 66.4053 104.882 65.4968V64.2332H107.57ZM115.71 74.4422C116.858 74.4422 117.925 73.6524 117.925 71.9937C117.925 70.3349 116.858 69.5647 115.71 69.5647C114.584 69.5647 113.498 70.3349 113.498 71.9937C113.498 73.6328 114.584 74.4422 115.71 74.4422ZM115.71 66.8003C118.656 66.8003 120.929 68.9527 120.929 71.9937C120.929 75.0347 118.656 77.2067 115.71 77.2067C112.785 77.2067 110.492 75.0347 110.492 71.9937C110.492 68.9527 112.785 66.8003 115.71 66.8003ZM128.815 67.0963V70.0583C128.478 69.9795 128.162 69.9597 127.865 69.9597C126.66 69.9597 125.572 70.6706 125.572 72.6254V76.9107H122.568V67.0963H125.474V68.4194C125.988 67.3137 127.232 66.9977 128.023 66.9977C128.32 66.9977 128.616 67.0372 128.815 67.0963ZM129.764 64.3319C129.764 63.5026 130.455 62.8114 131.464 62.8114C132.651 62.8114 133.302 63.7791 133.302 64.8058C133.302 67.531 131.364 68.4984 130.061 68.5973V67.2544C130.752 67.1754 131.661 66.662 131.74 65.7339C131.74 65.7537 131.503 65.8325 131.307 65.8325C130.317 65.8325 129.764 65.181 129.764 64.3319ZM133.056 74.1264L135.606 73.6721C135.646 74.3436 136.12 74.9952 137.148 74.9952C137.918 74.9952 138.294 74.5805 138.294 74.1459C138.294 73.7905 138.057 73.4945 137.325 73.3364L136.199 73.0797C134.104 72.6254 133.274 71.4406 133.274 70.0583C133.274 68.2613 134.855 66.8003 137.05 66.8003C139.896 66.8003 140.884 68.5775 140.982 69.7228L138.492 70.177C138.413 69.5254 137.997 68.9723 137.088 68.9723C136.515 68.9723 136.022 69.3082 136.022 69.8214C136.022 70.2363 136.357 70.4732 136.792 70.5521L138.097 70.8088C140.133 71.2235 141.121 72.4478 141.121 73.8895C141.121 75.5677 139.836 77.2067 137.208 77.2067C134.123 77.2067 133.135 75.2122 133.056 74.1264ZM83.5912 95.2805C79.5587 95.2805 76.3159 92.3778 76.3159 88.0137C76.3159 83.6496 79.6377 80.6878 83.5526 80.6878C87.7622 80.6878 89.6205 83.3931 90.075 85.407L87.1288 86.3351C86.9129 85.3677 86.0233 83.7288 83.5526 83.7288C81.6732 83.7288 79.5587 85.0713 79.5587 88.0137C79.5587 90.6401 81.496 92.1606 83.5912 92.1606C86.0233 92.1606 86.9919 90.5414 87.2674 89.5342L90.254 90.3833C89.7978 92.3185 87.9395 95.2805 83.5912 95.2805ZM94.7146 89.2184V94.9845H91.7104V80.6878H94.7146V85.802C95.327 85.19 96.3553 84.9136 97.2256 84.9136C99.7946 84.9136 100.942 86.6712 100.942 88.8234V94.9845H97.9363V89.3368C97.9363 88.3692 97.4239 87.6384 96.336 87.6384C95.3867 87.6384 94.7742 88.3101 94.7146 89.2184ZM107.677 92.5161C108.825 92.5161 109.891 91.7263 109.891 90.0675C109.891 88.4087 108.825 87.6384 107.677 87.6384C106.55 87.6384 105.462 88.4087 105.462 90.0675C105.462 91.7064 106.55 92.5161 107.677 92.5161ZM107.677 84.8741C110.623 84.8741 112.896 87.0265 112.896 90.0675C112.896 93.1085 110.623 95.2805 107.677 95.2805C104.752 95.2805 102.458 93.1085 102.458 90.0675C102.458 87.0265 104.752 84.8741 107.677 84.8741ZM117.539 94.9845H114.535V85.1701H117.539V94.9845ZM114.277 82.1686C114.277 81.201 115.068 80.4112 116.017 80.4112C117.005 80.4112 117.795 81.201 117.795 82.1686C117.795 83.1364 117.005 83.9262 116.017 83.9262C115.068 83.9262 114.277 83.1364 114.277 82.1686ZM124.402 87.6384C123.156 87.6384 122.148 88.5075 122.148 90.0873C122.148 91.6471 123.196 92.5161 124.44 92.5161C125.607 92.5161 126.26 91.7854 126.477 91.0547L129.125 91.8642C128.692 93.5824 127.071 95.2805 124.44 95.2805C121.515 95.2805 119.164 93.1283 119.164 90.0873C119.164 87.0265 121.455 84.8741 124.342 84.8741C127.049 84.8741 128.632 86.5329 129.067 88.2903L126.377 89.0999C126.162 88.3494 125.568 87.6384 124.402 87.6384ZM132.837 88.9025H136.769C136.73 88.152 136.216 87.2437 134.793 87.2437C133.528 87.2437 132.895 88.1718 132.837 88.9025ZM136.987 91.4497L139.498 92.1606C139.024 93.8586 137.462 95.2805 134.97 95.2805C132.263 95.2805 129.85 93.3454 129.85 90.0477C129.85 86.8882 132.203 84.8741 134.753 84.8741C137.797 84.8741 139.675 86.7499 139.675 89.9094C139.675 90.324 139.636 90.7783 139.617 90.8375H132.777C132.837 91.9435 133.844 92.7333 135.011 92.7333C136.097 92.7333 136.711 92.2197 136.987 91.4497Z" fill="white"/>
<path d="M84.5493 76.9064V77.3614H85.0055V76.9064H84.5493ZM75.6526 76.9064H75.1981V77.3614H75.6526V76.9064ZM75.6526 62.9059V62.4505H75.1981V62.9059H75.6526ZM84.5299 62.9059H84.9844V62.4505H84.5299V62.9059ZM84.5299 65.8482V66.3034H84.9844V65.8482H84.5299ZM78.7761 65.8482V65.3929H78.3216V65.8482H78.7761ZM78.7761 68.5139H78.3216V68.9693H78.7761V68.5139ZM83.9947 68.5139H84.451V68.0589H83.9947V68.5139ZM83.9947 71.2589V71.714H84.451V71.2589H83.9947ZM78.7761 71.2589V70.8035H78.3216V71.2589H78.7761ZM78.7761 73.9443H78.3216V74.3997H78.7761V73.9443ZM84.5493 73.9443H85.0055V73.489H84.5493V73.9443ZM84.5493 76.4512H75.6526V77.3614H84.5493V76.4512ZM76.1089 76.9064V62.9059H75.1981V76.9064H76.1089ZM75.6526 63.3612H84.5299V62.4505H75.6526V63.3612ZM84.0737 62.9059V65.8482H84.9844V62.9059H84.0737ZM84.5299 65.3929H78.7761V66.3034H84.5299V65.3929ZM78.3216 65.8482V68.5139H79.2323V65.8482H78.3216ZM78.7761 68.9693H83.9947V68.0589H78.7761V68.9693ZM83.5402 68.5139V71.2589H84.451V68.5139H83.5402ZM83.9947 70.8035H78.7761V71.714H83.9947V70.8035ZM78.3216 71.2589V73.9443H79.2323V71.2589H78.3216ZM78.7761 74.3997H84.5493V73.489H78.7761V74.3997ZM84.093 73.9443V76.9064H85.0055V73.9443H84.093ZM96.2149 62.6098H96.6711V62.1545H96.2149V62.6098ZM96.2938 76.9064V77.3614H96.7939L96.7483 76.8651L96.2938 76.9064ZM93.409 76.9064L92.9598 76.9813L93.023 77.3614H93.409V76.9064ZM93.3301 75.9586H93.7845V74.4731L92.9528 75.7035L93.3301 75.9586ZM93.2511 67.8624L92.865 68.1054L93.7056 69.4357V67.8624H93.2511ZM93.2511 62.6098V62.1545H92.7949V62.6098H93.2511ZM95.7604 62.6098V75.149H96.6711V62.6098H95.7604ZM95.7604 75.149C95.7604 76.0576 95.8201 76.7248 95.8411 76.9474L96.7483 76.8651C96.729 76.6533 96.6711 76.0174 96.6711 75.149H95.7604ZM96.2938 76.4512H93.409V77.3614H96.2938V76.4512ZM93.8582 76.8316C93.8407 76.7265 93.7845 76.3192 93.7845 75.9586H92.8738C92.8738 76.3877 92.937 76.8493 92.9598 76.9813L93.8582 76.8316ZM92.9528 75.7035C92.6036 76.2189 91.7771 76.6683 90.6997 76.6683V77.579C91.9965 77.579 93.1458 77.0413 93.7073 76.2136L92.9528 75.7035ZM90.6997 76.6683C88.2044 76.6683 86.2935 74.76 86.2935 71.9697H85.381C85.381 75.2218 87.6604 77.579 90.6997 77.579V76.6683ZM86.2935 71.9697C86.2935 69.263 88.1009 67.3105 90.6014 67.3105V66.4001C87.5288 66.4001 85.381 68.8315 85.381 71.9697H86.2935ZM90.6014 67.3105C92.1632 67.3105 92.7299 67.8913 92.865 68.1054L93.6354 67.6193C93.2967 67.0832 92.4001 66.4001 90.6014 66.4001V67.3105ZM93.7056 67.8624V62.6098H92.7949V67.8624H93.7056ZM93.2511 63.0648H96.2149V62.1545H93.2511V63.0648ZM88.4062 71.9895C88.4062 72.9006 88.7028 73.6345 89.2081 74.1418C89.71 74.6464 90.3838 74.8933 91.0752 74.8933V73.9828C90.6014 73.9828 90.168 73.815 89.8556 73.5C89.5433 73.1879 89.317 72.6972 89.317 71.9895H88.4062ZM91.0752 74.8933C91.7666 74.8933 92.4422 74.6464 92.944 74.1418C93.4494 73.6345 93.7459 72.9006 93.7459 71.9895H92.8335C92.8335 72.6972 92.6071 73.1879 92.2965 73.5C91.9842 73.815 91.5507 73.9828 91.0752 73.9828V74.8933ZM93.7459 71.9895C93.7459 71.0692 93.4494 70.3381 92.9405 69.8365C92.4351 69.3385 91.7613 69.1054 91.0752 69.1054V70.0158C91.5577 70.0158 91.9894 70.1778 92.3 70.4841C92.6071 70.7872 92.8335 71.2706 92.8335 71.9895H93.7459ZM91.0752 69.1054C90.3908 69.1054 89.7152 69.3385 89.2116 69.8365C88.7027 70.3381 88.4062 71.0692 88.4062 71.9895H89.317C89.317 71.2706 89.5451 70.7872 89.8521 70.4841C90.1627 70.1778 90.5944 70.0158 91.0752 70.0158V69.1054ZM101.632 76.9064V77.3614H102.088V76.9064H101.632ZM98.6277 76.9064H98.1714V77.3614H98.6277V76.9064ZM98.6277 67.092V66.637H98.1714V67.092H98.6277ZM101.632 67.092H102.088V66.637H101.632V67.092ZM101.632 76.4512H98.6277V77.3614H101.632V76.4512ZM99.0821 76.9064V67.092H98.1714V76.9064H99.0821ZM98.6277 67.5474H101.632V66.637H98.6277V67.5474ZM101.176 67.092V76.9064H102.088V67.092H101.176ZM98.8259 64.0907C98.8259 63.3712 99.4156 62.7885 100.109 62.7885V61.8779C98.9049 61.8779 97.9135 62.8752 97.9135 64.0907H98.8259ZM100.109 62.7885C100.849 62.7885 101.434 63.3777 101.434 64.0907H102.344C102.344 62.8683 101.346 61.8779 100.109 61.8779V62.7885ZM101.434 64.0907C101.434 64.8036 100.849 65.3929 100.109 65.3929V66.3034C101.346 66.3034 102.344 65.313 102.344 64.0907H101.434ZM100.109 65.3929C99.4156 65.3929 98.8259 64.8101 98.8259 64.0907H97.9135C97.9135 65.3062 98.9049 66.3034 100.109 66.3034V65.3929ZM107.565 64.229H108.021V63.7738H107.565V64.229ZM107.565 67.092H107.11V67.5474H107.565V67.092ZM109.483 67.092H109.939V66.637H109.483V67.092ZM109.483 69.7185V70.1739H109.939V69.7185H109.483ZM107.565 69.7185V69.2632H107.11V69.7185H107.565ZM109.444 74.3195H109.898V73.7522L109.344 73.8752L109.444 74.3195ZM109.444 76.8078L109.648 77.2149L109.898 77.0889V76.8078H109.444ZM104.601 69.7185H105.055V69.2632H104.601V69.7185ZM102.86 69.7185H102.406V70.1739H102.86V69.7185ZM102.86 67.092V66.637H102.406V67.092H102.86ZM104.876 64.229V63.7738H104.422V64.229H104.876ZM107.11 64.229V67.092H108.021V64.229H107.11ZM107.565 67.5474H109.483V66.637H107.565V67.5474ZM109.028 67.092V69.7185H109.939V67.092H109.028ZM109.483 69.2632H107.565V70.1739H109.483V69.2632ZM107.11 69.7185V73.3916H108.021V69.7185H107.11ZM107.11 73.3916C107.11 73.8747 107.242 74.2878 107.575 74.5608C107.889 74.8173 108.293 74.8735 108.653 74.8735V73.9629C108.36 73.9629 108.219 73.9105 108.152 73.8563C108.107 73.8182 108.021 73.718 108.021 73.3916H107.11ZM108.653 74.8735C109.019 74.8735 109.356 74.8052 109.542 74.764L109.344 73.8752C109.176 73.9128 108.918 73.9629 108.653 73.9629V74.8735ZM108.988 74.3195V76.8078H109.898V74.3195H108.988ZM109.239 76.4003C109.183 76.4294 108.758 76.629 107.882 76.629V77.5393C108.904 77.5393 109.467 77.3044 109.648 77.2149L109.239 76.4003ZM107.882 76.629C106.954 76.629 106.256 76.3556 105.794 75.9098C105.333 75.4661 105.055 74.8033 105.055 73.9245H104.145C104.145 75.0007 104.49 75.9177 105.161 76.5651C105.831 77.2103 106.775 77.5393 107.882 77.5393V76.629ZM105.055 73.9245V69.7185H104.145V73.9245H105.055ZM104.601 69.2632H102.86V70.1739H104.601V69.2632ZM103.316 69.7185V67.092H102.406V69.7185H103.316ZM102.86 67.5474H103.355V66.637H102.86V67.5474ZM103.355 67.5474C103.978 67.5474 104.492 67.3336 104.843 66.9337C105.187 66.5428 105.333 66.025 105.333 65.4927H104.422C104.422 65.8691 104.318 66.1511 104.159 66.3324C104.008 66.5051 103.76 66.637 103.355 66.637V67.5474ZM105.333 65.4927V64.229H104.422V65.4927H105.333ZM104.876 64.6843H107.565V63.7738H104.876V64.6843ZM115.707 74.8933C116.384 74.8933 117.058 74.6592 117.565 74.1595C118.074 73.656 118.377 72.9204 118.377 71.9895H117.465C117.465 72.7171 117.233 73.2059 116.925 73.512C116.61 73.8219 116.177 73.9828 115.707 73.9828V74.8933ZM118.377 71.9895C118.377 71.0583 118.074 70.3262 117.563 69.8273C117.054 69.3323 116.381 69.1054 115.707 69.1054V70.0158C116.18 70.0158 116.614 70.1739 116.926 70.4787C117.235 70.7795 117.465 71.262 117.465 71.9895H118.377ZM115.707 69.1054C115.042 69.1054 114.37 69.3332 113.861 69.8261C113.347 70.3241 113.038 71.0557 113.038 71.9895H113.948C113.948 71.2643 114.184 70.7814 114.494 70.4796C114.812 70.173 115.245 70.0158 115.707 70.0158V69.1054ZM113.038 71.9895C113.038 72.9145 113.347 73.6485 113.857 74.1521C114.363 74.6515 115.036 74.8933 115.707 74.8933V73.9828C115.252 73.9828 114.817 73.8196 114.498 73.5046C114.184 73.1935 113.948 72.7036 113.948 71.9895H113.038ZM115.707 67.2513C118.409 67.2513 120.471 69.2079 120.471 71.9895H121.382C121.382 68.6892 118.897 66.3408 115.707 66.3408V67.2513ZM120.471 71.9895C120.471 74.7735 118.407 76.7476 115.707 76.7476V77.6578C118.899 77.6578 121.382 75.2876 121.382 71.9895H120.471ZM115.707 76.7476C113.025 76.7476 110.944 74.7722 110.944 71.9895H110.032C110.032 75.2887 112.536 77.6578 115.707 77.6578V76.7476ZM110.944 71.9895C110.944 69.209 113.024 67.2513 115.707 67.2513V66.3408C112.539 66.3408 110.032 68.688 110.032 71.9895H110.944ZM128.811 67.092H129.266V66.7535L128.941 66.6563L128.811 67.092ZM128.811 70.0542L128.706 70.4975L129.266 70.6291V70.0542H128.811ZM125.568 76.9064V77.3614H126.025V76.9064H125.568ZM122.564 76.9064H122.108V77.3614H122.564V76.9064ZM122.564 67.092V66.637H122.108V67.092H122.564ZM125.47 67.092H125.925V66.637H125.47V67.092ZM125.47 68.4153H125.014L125.883 68.6069L125.47 68.4153ZM128.355 67.092V70.0542H129.266V67.092H128.355ZM128.915 69.6111C128.532 69.5215 128.178 69.5002 127.862 69.5002V70.4108C128.137 70.4108 128.416 70.4292 128.706 70.4975L128.915 69.6111ZM127.862 69.5002C127.172 69.5002 126.47 69.7047 125.94 70.2336C125.409 70.764 125.112 71.5603 125.112 72.6213H126.025C126.025 71.7274 126.27 71.1908 126.584 70.8772C126.9 70.5617 127.346 70.4108 127.862 70.4108V69.5002ZM125.112 72.6213V76.9064H126.025V72.6213H125.112ZM125.568 76.4512H122.564V77.3614H125.568V76.4512ZM123.019 76.9064V67.092H122.108V76.9064H123.019ZM122.564 67.5474H125.47V66.637H122.564V67.5474ZM125.014 67.092V68.4153H125.925V67.092H125.014ZM125.883 68.6069C126.284 67.7422 127.297 67.4488 128.02 67.4488V66.5384C127.162 66.5384 125.683 66.8767 125.056 68.2235L125.883 68.6069ZM128.02 67.4488C128.285 67.4488 128.536 67.4849 128.68 67.5281L128.941 66.6563C128.69 66.5812 128.348 66.5384 128.02 66.5384V67.4488ZM130.057 68.593H129.601V69.084L130.09 69.047L130.057 68.593ZM130.057 67.2501L130.004 66.7981L129.601 66.8439V67.2501H130.057ZM131.736 65.7296H132.193L131.284 65.691L131.736 65.7296ZM130.215 64.3277C130.215 63.7824 130.67 63.2624 131.461 63.2624V62.3519C130.234 62.3519 129.304 63.2142 129.304 64.3277H130.215ZM131.461 63.2624C131.917 63.2624 132.249 63.4435 132.475 63.712C132.709 63.9894 132.844 64.3802 132.844 64.8015H133.754C133.754 64.1963 133.563 63.5899 133.174 63.1264C132.777 62.6546 132.189 62.3519 131.461 62.3519V63.2624ZM132.844 64.8015C132.844 66.045 132.407 66.8439 131.859 67.3472C131.298 67.8618 130.591 68.0963 130.022 68.1389L130.09 69.047C130.827 68.991 131.74 68.6924 132.475 68.0173C133.223 67.3308 133.754 66.2834 133.754 64.8015H132.844ZM130.512 68.593V67.2501H129.601V68.593H130.512ZM130.108 67.7025C130.533 67.6541 131.014 67.4756 131.408 67.1661C131.808 66.852 132.138 66.3843 132.191 65.7684L131.284 65.691C131.256 66.003 131.092 66.2561 130.845 66.4507C130.592 66.6495 130.273 66.7674 130.004 66.7981L130.108 67.7025ZM131.282 65.7296C131.282 65.6166 131.322 65.5338 131.35 65.4906C131.377 65.4466 131.407 65.4168 131.424 65.4011C131.457 65.3703 131.485 65.3527 131.494 65.3476C131.508 65.3401 131.517 65.3359 131.521 65.3341C131.522 65.3329 131.524 65.332 131.526 65.3318C131.526 65.3322 131.524 65.332 131.522 65.3327C131.521 65.3334 131.517 65.335 131.512 65.3364C131.503 65.3392 131.491 65.3427 131.477 65.3464C131.415 65.3627 131.349 65.3731 131.301 65.3731V66.2836C131.454 66.2836 131.603 66.2546 131.71 66.2266C131.765 66.2122 131.819 66.1946 131.866 66.1759C131.889 66.1673 131.922 66.1525 131.958 66.1316C131.973 66.1223 132.008 66.1011 132.045 66.0671C132.063 66.0499 132.094 66.0186 132.122 65.9727C132.151 65.9283 132.193 65.8439 132.193 65.7296H131.282ZM131.301 65.3731C130.912 65.3731 130.65 65.2474 130.487 65.079C130.32 64.908 130.215 64.6533 130.215 64.3277H129.304C129.304 64.851 129.476 65.3467 129.834 65.7138C130.194 66.0837 130.705 66.2836 131.301 66.2836V65.3731ZM133.052 74.1223L132.972 73.6738L132.568 73.7459L132.598 74.1553L133.052 74.1223ZM135.602 73.6678L136.057 73.6411L136.027 73.13L135.521 73.2196L135.602 73.6678ZM137.322 73.3321L137.22 73.7759L137.224 73.7766L137.225 73.7771L137.322 73.3321ZM136.195 73.0754L136.297 72.6316L136.294 72.6313L136.292 72.6307L136.195 73.0754ZM140.979 69.7185L141.061 70.1664L141.468 70.0921L141.433 69.6796L140.979 69.7185ZM138.489 70.1727L138.036 70.2274L138.094 70.7073L138.569 70.6205L138.489 70.1727ZM136.788 70.5478L136.876 70.1013L136.873 70.1007L136.869 70.1L136.788 70.5478ZM138.092 70.8047L138.183 70.3585L138.182 70.358L138.092 70.8047ZM133.131 74.5703L135.683 74.116L135.521 73.2196L132.972 73.6738L133.131 74.5703ZM135.148 73.6948C135.172 74.126 135.339 74.5692 135.683 74.9063C136.032 75.2483 136.529 75.4462 137.145 75.4462V74.5357C136.732 74.5357 136.476 74.4076 136.322 74.2562C136.162 74.0996 136.071 73.8812 136.057 73.6411L135.148 73.6948ZM137.145 75.4462C137.61 75.4462 138.008 75.3203 138.297 75.0793C138.591 74.8359 138.747 74.496 138.747 74.1418H137.834C137.834 74.2221 137.803 74.3067 137.715 74.3793C137.625 74.4541 137.45 74.5357 137.145 74.5357V75.4462ZM138.747 74.1418C138.747 73.8482 138.641 73.5597 138.389 73.3275C138.154 73.1121 137.822 72.9747 137.418 72.8871L137.225 73.7771C137.553 73.8477 137.706 73.9372 137.773 73.9982C137.82 74.0428 137.834 74.08 137.834 74.1418H138.747ZM137.424 72.8883L136.297 72.6316L136.093 73.5192L137.22 73.7759L137.424 72.8883ZM136.292 72.6307C135.311 72.4179 134.676 72.0452 134.286 71.61C133.902 71.179 133.725 70.65 133.725 70.0542H132.814C132.814 70.8409 133.053 71.5953 133.607 72.2159C134.156 72.8322 134.984 73.2791 136.099 73.5204L136.292 72.6307ZM133.725 70.0542C133.725 68.5606 135.048 67.2513 137.045 67.2513V66.3408C134.655 66.3408 132.814 67.954 132.814 70.0542H133.725ZM137.045 67.2513C138.368 67.2513 139.208 67.6607 139.728 68.1568C140.256 68.6611 140.484 69.2851 140.526 69.7575L141.433 69.6796C141.375 69.0068 141.059 68.1696 140.358 67.4986C139.647 66.8199 138.569 66.3408 137.045 66.3408V67.2513ZM140.898 69.2707L138.406 69.7249L138.569 70.6205L141.061 70.1664L140.898 69.2707ZM138.941 70.1179C138.892 69.7159 138.734 69.3083 138.415 68.9991C138.089 68.6838 137.638 68.513 137.085 68.513V69.4234C137.441 69.4234 137.653 69.5288 137.782 69.6531C137.915 69.7831 138.006 69.9779 138.036 70.2274L138.941 70.1179ZM137.085 68.513C136.385 68.513 135.562 68.9442 135.562 69.8172H136.473C136.473 69.722 136.515 69.6368 136.611 69.5627C136.716 69.4832 136.883 69.4234 137.085 69.4234V68.513ZM135.562 69.8172C135.562 70.1635 135.707 70.4489 135.939 70.6512C136.158 70.8428 136.437 70.9467 136.706 70.9958L136.869 70.1C136.704 70.07 136.597 70.016 136.539 69.9658C136.494 69.9263 136.473 69.8858 136.473 69.8172H135.562ZM136.701 70.9946L138.004 71.2513L138.182 70.358L136.876 70.1013L136.701 70.9946ZM138.003 71.2508C138.949 71.4436 139.612 71.8165 140.035 72.2701C140.454 72.7199 140.661 73.2739 140.661 73.8852H141.574C141.574 73.0547 141.286 72.2757 140.703 71.6495C140.122 71.0271 139.273 70.5803 138.183 70.3585L138.003 71.2508ZM140.661 73.8852C140.661 74.608 140.386 75.3157 139.831 75.844C139.28 76.3703 138.42 76.7476 137.204 76.7476V77.6578C138.615 77.6578 139.714 77.2154 140.461 76.5024C141.207 75.7919 141.574 74.8409 141.574 73.8852H140.661ZM137.204 76.7476C135.767 76.7476 134.869 76.2868 134.321 75.746C133.763 75.1943 133.539 74.5299 133.507 74.0889L132.598 74.1553C132.644 74.8005 132.954 75.6763 133.681 76.3935C134.418 77.1213 135.555 77.6578 137.204 77.6578V76.7476ZM90.0715 85.4029L90.2084 85.8372L90.6084 85.7112L90.5154 85.3027L90.0715 85.4029ZM87.1252 86.3308L86.6813 86.4307L86.7901 86.9141L87.2621 86.7653L87.1252 86.3308ZM87.2639 89.5299L87.3885 89.0921L86.9463 88.9663L86.8252 89.4095L87.2639 89.5299ZM90.2487 90.3792L90.6927 90.4833L90.7927 90.0604L90.3733 89.9414L90.2487 90.3792ZM83.5876 94.8212C79.7921 94.8212 76.7687 92.1082 76.7687 88.0094H75.8562C75.8562 92.6387 79.3166 95.7316 83.5876 95.7316V94.8212ZM76.7687 88.0094C76.7687 83.9073 79.8746 81.1385 83.5473 81.1385V80.2283C79.392 80.2283 75.8562 83.3835 75.8562 88.0094H76.7687ZM83.5473 81.1385C87.5078 81.1385 89.2099 83.6566 89.6275 85.5029L90.5154 85.3027C90.0241 83.121 88.0096 80.2283 83.5473 80.2283V81.1385ZM89.9346 84.9688L86.9883 85.8969L87.2621 86.7653L90.2084 85.8372L89.9346 84.9688ZM87.5709 86.2313C87.4463 85.68 87.134 84.9409 86.4953 84.335C85.8495 83.7197 84.8949 83.2693 83.5473 83.2693V84.1795C84.6721 84.1795 85.3986 84.5485 85.8671 84.9946C86.3479 85.4505 86.5883 86.0144 86.6813 86.4307L87.5709 86.2313ZM83.5473 83.2693C82.5049 83.2693 81.3942 83.6411 80.5379 84.4292C79.6745 85.225 79.0989 86.4207 79.0989 88.0094H80.0097C80.0097 86.656 80.4923 85.7093 81.1556 85.0981C81.8276 84.4794 82.712 84.1795 83.5473 84.1795V83.2693ZM79.0989 88.0094C79.0989 90.9088 81.2626 92.6116 83.5876 92.6116V91.7011C81.7206 91.7011 80.0097 90.3627 80.0097 88.0094H79.0989ZM83.5876 92.6116C84.9142 92.6116 85.8741 92.1659 86.5409 91.5568C87.199 90.9558 87.5481 90.2176 87.7043 89.6505L86.8252 89.4095C86.7041 89.8496 86.4304 90.4245 85.9267 90.885C85.4319 91.337 84.6914 91.7011 83.5876 91.7011V92.6116ZM87.1392 89.9677L90.1241 90.8169L90.3733 89.9414L87.3885 89.0921L87.1392 89.9677ZM89.8065 90.275C89.3854 92.064 87.6692 94.8212 83.5876 94.8212V95.7316C88.2044 95.7316 90.2049 92.5646 90.6927 90.4833L89.8065 90.275ZM94.711 89.2141L94.2565 89.1846L94.2548 89.1992V89.2141H94.711ZM94.711 94.9802V95.4352H95.1673V94.9802H94.711ZM91.7069 94.9802H91.2507V95.4352H91.7069V94.9802ZM91.7069 80.6835V80.2283H91.2507V80.6835H91.7069ZM94.711 80.6835H95.1673V80.2283H94.711V80.6835ZM94.711 85.7979H94.2548V86.8969L95.0339 86.1197L94.711 85.7979ZM100.939 94.9802V95.4352H101.393V94.9802H100.939ZM97.9328 94.9802H97.4766V95.4352H97.9328V94.9802ZM94.2548 89.2141V94.9802H95.1673V89.2141H94.2548ZM94.711 94.5248H91.7069V95.4352H94.711V94.5248ZM92.1614 94.9802V80.6835H91.2507V94.9802H92.1614ZM91.7069 81.1385H94.711V80.2283H91.7069V81.1385ZM94.2548 80.6835V85.7979H95.1673V80.6835H94.2548ZM95.0339 86.1197C95.5288 85.6244 96.4202 85.3645 97.2221 85.3645V84.4541C96.2833 84.4541 95.1182 84.747 94.3882 85.4759L95.0339 86.1197ZM97.2221 85.3645C98.3943 85.3645 99.1892 85.7605 99.6981 86.3533C100.216 86.9569 100.482 87.8182 100.482 88.8191H101.393C101.393 87.6678 101.088 86.5742 100.389 85.7609C99.6823 84.9367 98.6189 84.4541 97.2221 84.4541V85.3645ZM100.482 88.8191V94.9802H101.393V88.8191H100.482ZM100.939 94.5248H97.9328V95.4352H100.939V94.5248ZM98.389 94.9802V89.3325H97.4766V94.9802H98.389ZM98.389 89.3325C98.389 88.7735 98.2399 88.2309 97.8837 87.8218C97.5187 87.403 96.9852 87.1793 96.3324 87.1793V88.0895C96.7659 88.0895 97.0326 88.2312 97.1958 88.4195C97.3695 88.6175 97.4766 88.924 97.4766 89.3325H98.389ZM96.3324 87.1793C95.7446 87.1793 95.234 87.3898 94.8637 87.7631C94.497 88.1328 94.2916 88.6364 94.2565 89.1846L95.1655 89.2437C95.1901 88.8833 95.32 88.5971 95.5112 88.4039C95.699 88.2146 95.971 88.0895 96.3324 88.0895V87.1793ZM107.673 92.9671C108.351 92.9671 109.025 92.7331 109.53 92.2333C110.041 91.7299 110.342 90.9943 110.342 90.0634H109.432C109.432 90.7909 109.2 91.2796 108.89 91.5858C108.575 91.8957 108.144 92.0566 107.673 92.0566V92.9671ZM110.342 90.0634C110.342 89.1321 110.041 88.3999 109.528 87.901C109.021 87.4061 108.347 87.1793 107.673 87.1793V88.0895C108.146 88.0895 108.579 88.2475 108.893 88.5525C109.2 88.8533 109.432 89.3357 109.432 90.0634H110.342ZM107.673 87.1793C107.008 87.1793 106.335 87.407 105.827 87.8999C105.313 88.3979 105.004 89.1295 105.004 90.0634H105.915C105.915 89.338 106.15 88.8552 106.461 88.5534C106.779 88.2467 107.212 88.0895 107.673 88.0895V87.1793ZM105.004 90.0634C105.004 90.9881 105.313 91.7223 105.824 92.2258C106.329 92.7253 107.001 92.9671 107.673 92.9671V92.0566C107.219 92.0566 106.784 91.8934 106.464 91.5783C106.149 91.2673 105.915 90.7774 105.915 90.0634H105.004ZM107.673 85.3252C110.376 85.3252 112.436 87.2817 112.436 90.0634H113.348C113.348 86.763 110.864 84.4145 107.673 84.4145V85.3252ZM112.436 90.0634C112.436 92.8473 110.372 94.8212 107.673 94.8212V95.7316C110.865 95.7316 113.348 93.3613 113.348 90.0634H112.436ZM107.673 94.8212C104.992 94.8212 102.911 92.8461 102.911 90.0634H101.999C101.999 93.3625 104.503 95.7316 107.673 95.7316V94.8212ZM102.911 90.0634C102.911 87.2828 104.99 85.3252 107.673 85.3252V84.4145C104.506 84.4145 101.999 86.7618 101.999 90.0634H102.911ZM117.535 94.9802V95.4352H117.99V94.9802H117.535ZM114.529 94.9802H114.075V95.4352H114.529V94.9802ZM114.529 85.1658V84.7108H114.075V85.1658H114.529ZM117.535 85.1658H117.99V84.7108H117.535V85.1658ZM117.535 94.5248H114.529V95.4352H117.535V94.5248ZM114.986 94.9802V85.1658H114.075V94.9802H114.986ZM114.529 85.6212H117.535V84.7108H114.529V85.6212ZM117.079 85.1658V94.9802H117.99V85.1658H117.079ZM114.729 82.1645C114.729 81.4449 115.319 80.8623 116.012 80.8623V79.9518C114.808 79.9518 113.817 80.949 113.817 82.1645H114.729ZM116.012 80.8623C116.753 80.8623 117.337 81.4515 117.337 82.1645H118.248C118.248 80.9421 117.249 79.9518 116.012 79.9518V80.8623ZM117.337 82.1645C117.337 82.8775 116.753 83.4667 116.012 83.4667V84.3773C117.249 84.3773 118.248 83.3869 118.248 82.1645H117.337ZM116.012 83.4667C115.319 83.4667 114.729 82.884 114.729 82.1645H113.817C113.817 83.38 114.808 84.3773 116.012 84.3773V83.4667ZM126.474 91.0504L126.607 90.6152L126.167 90.481L126.037 90.9207L126.474 91.0504ZM129.122 91.8601L129.564 91.9717L129.671 91.5516L129.255 91.4249L129.122 91.8601ZM129.062 88.286L129.194 88.7219L129.61 88.5971L129.506 88.1767L129.062 88.286ZM126.374 89.0956L125.937 89.2221L126.065 89.6642L126.506 89.5313L126.374 89.0956ZM124.398 87.1793C123.668 87.1793 122.982 87.4355 122.478 87.9471C121.975 88.4604 121.689 89.1937 121.689 90.083H122.599C122.599 89.3922 122.819 88.9014 123.129 88.5853C123.442 88.2677 123.882 88.0895 124.398 88.0895V87.1793ZM121.689 90.083C121.689 90.969 121.989 91.6979 122.503 92.2061C123.015 92.7115 123.708 92.9671 124.437 92.9671V92.0566C123.921 92.0566 123.466 91.8776 123.143 91.5586C122.824 91.2424 122.599 90.757 122.599 90.083H121.689ZM124.437 92.9671C125.837 92.9671 126.644 92.0715 126.911 91.1801L126.037 90.9207C125.867 91.4909 125.37 92.0566 124.437 92.0566V92.9671ZM126.341 91.486L128.988 92.2956L129.255 91.4249L126.607 90.6152L126.341 91.486ZM128.681 91.7485C128.294 93.2798 126.842 94.8212 124.437 94.8212V95.7316C127.29 95.7316 129.081 93.8763 129.564 91.9717L128.681 91.7485ZM124.437 94.8212C121.747 94.8212 119.615 92.8569 119.615 90.083H118.704C118.704 93.3911 121.276 95.7316 124.437 95.7316V94.8212ZM119.615 90.083C119.615 87.2793 121.697 85.3252 124.338 85.3252V84.4145C121.206 84.4145 118.704 86.765 118.704 90.083H119.615ZM124.338 85.3252C126.827 85.3252 128.234 86.8304 128.62 88.3953L129.506 88.1767C129.022 86.2264 127.267 84.4145 124.338 84.4145V85.3252ZM128.931 87.8503L126.242 88.6599L126.506 89.5313L129.194 88.7219L128.931 87.8503ZM126.813 88.9691C126.684 88.5273 126.441 88.0775 126.037 87.736C125.626 87.3898 125.081 87.1793 124.398 87.1793V88.0895C124.882 88.0895 125.214 88.2344 125.447 88.4313C125.686 88.6329 125.847 88.9137 125.937 89.2221L126.813 88.9691ZM132.831 88.8982L132.379 88.8612L132.338 89.3532H132.831V88.8982ZM136.766 88.8982V89.3532H137.246L137.222 88.8742L136.766 88.8982ZM136.983 91.4454L137.108 91.0074L136.699 90.8914L136.555 91.2917L136.983 91.4454ZM139.494 92.1565L139.933 92.2786L140.054 91.842L139.619 91.7183L139.494 92.1565ZM139.612 90.8334V91.2885H139.942L140.045 90.9773L139.612 90.8334ZM132.773 90.8334V90.378H132.293L132.317 90.8578L132.773 90.8334ZM132.831 89.3532H136.766V88.443H132.831V89.3532ZM137.222 88.8742C137.197 88.4111 137.025 87.885 136.623 87.4707C136.213 87.0478 135.604 86.7843 134.79 86.7843V87.6945C135.397 87.6945 135.757 87.885 135.969 88.1042C136.19 88.3316 136.295 88.6348 136.311 88.9221L137.222 88.8742ZM134.79 86.7843C133.254 86.7843 132.454 87.9284 132.379 88.8612L133.286 88.9349C133.33 88.4065 133.795 87.6945 134.79 87.6945V86.7843ZM136.859 91.8832L139.37 92.5943L139.619 91.7183L137.108 91.0074L136.859 91.8832ZM139.056 92.034C138.638 93.5297 137.259 94.8212 134.967 94.8212V95.7316C137.657 95.7316 139.401 94.1795 139.933 92.2786L139.056 92.034ZM134.967 94.8212C132.489 94.8212 130.303 93.0693 130.303 90.0435H129.392C129.392 93.6132 132.028 95.7316 134.967 95.7316V94.8212ZM130.303 90.0435C130.303 87.1387 132.447 85.3252 134.749 85.3252V84.4145C131.951 84.4145 129.392 86.629 129.392 90.0435H130.303ZM134.749 85.3252C136.178 85.3252 137.28 85.7626 138.027 86.5217C138.775 87.2817 139.217 88.4155 139.217 89.9053H140.128C140.128 88.2356 139.629 86.8516 138.677 85.8837C137.724 84.9149 136.367 84.4145 134.749 84.4145V85.3252ZM139.217 89.9053C139.217 90.0997 139.206 90.3057 139.196 90.4701C139.189 90.5521 139.184 90.621 139.177 90.6707C139.175 90.6956 139.171 90.7128 139.171 90.7228C139.168 90.7432 139.17 90.7223 139.18 90.6893L140.045 90.9773C140.061 90.9297 140.068 90.8814 140.072 90.8641C140.075 90.8365 140.08 90.8051 140.082 90.7728C140.091 90.7074 140.098 90.6256 140.105 90.5349C140.117 90.354 140.128 90.1255 140.128 89.9053H139.217ZM139.612 90.378H132.773V91.2885H139.612V90.378ZM132.317 90.8578C132.393 92.2586 133.656 93.1844 135.007 93.1844V92.2737C134.025 92.2737 133.272 91.6198 133.228 90.809L132.317 90.8578ZM135.007 93.1844C135.623 93.1844 136.144 93.0377 136.559 92.7499C136.974 92.4616 137.248 92.0563 137.413 91.5993L136.555 91.2917C136.443 91.6049 136.271 91.8411 136.039 92.002C135.806 92.1636 135.478 92.2737 135.007 92.2737V93.1844Z" fill="white" fill-opacity="0.33"/>
<g filter="url(#filter0_f_13365_14448)">
<path d="M146.703 106.46H69.4461V124.821H146.703V106.46Z" fill="#D9D9D9"/>
</g>
<path d="M168.776 123.699C168.943 124.258 168.523 124.82 167.939 124.82H47.9327C47.3501 124.82 46.9307 124.258 47.0974 123.699L49.5944 115.314C49.6418 115.152 49.6418 114.979 49.5944 114.817L47.0974 106.432C46.9307 105.873 47.3501 105.312 47.9327 105.312H167.939C168.523 105.312 168.943 105.873 168.776 106.432L166.279 114.817C166.23 114.979 166.23 115.152 166.279 115.314L168.776 123.699Z" fill="url(#paint3_linear_13365_14448)"/>
<path d="M50.2771 115.518L47.78 123.902C47.7502 124.002 47.8239 124.101 47.9275 124.101H167.934C168.037 124.101 168.111 124.002 168.081 123.902L165.584 115.518C165.496 115.222 165.496 114.907 165.584 114.611L168.081 106.227C168.111 106.128 168.037 106.028 167.934 106.028H47.9275C47.8239 106.028 47.7502 106.128 47.78 106.227L50.2771 114.611M50.2771 115.518L49.5892 115.313M50.2771 115.518C50.3648 115.222 50.3648 114.907 50.2771 114.611M50.2771 114.611L49.5892 114.816" stroke="white" stroke-opacity="0.5" stroke-width="0.659365"/>
<path d="M135.211 108.468L136.759 113.027H141.767L137.715 115.845L139.263 120.405L135.211 117.587L131.159 120.405L132.707 115.845L128.657 113.027H133.663L135.211 108.468Z" fill="url(#paint4_linear_13365_14448)"/>
<path d="M135.218 108.928L136.623 113.072L136.659 113.173H136.766H141.3L137.636 115.721L137.545 115.784L137.582 115.89L138.984 120.022L135.302 117.462L135.218 117.403L135.134 117.462L131.452 120.022L132.854 115.89L132.891 115.784L132.798 115.721L129.136 113.173H133.67H133.777L133.811 113.072L135.218 108.928Z" stroke="white" stroke-opacity="0.33" stroke-width="0.136523"/>
<path d="M121.571 108.468L123.087 113.027H127.99L124.023 115.845L125.539 120.405L121.571 117.587L117.604 120.405L119.12 115.845L115.152 113.027H120.057L121.571 108.468Z" fill="url(#paint5_linear_13365_14448)"/>
<path d="M121.585 108.938L122.959 113.073L122.994 113.174H123.101H127.539L123.951 115.723L123.861 115.786L123.896 115.891L125.268 120.019L121.671 117.464L121.585 117.403L121.499 117.464L117.902 120.019L119.274 115.891L119.309 115.786L119.22 115.723L115.633 113.174H120.071H120.178L120.211 113.073L121.585 108.938Z" stroke="white" stroke-opacity="0.33" stroke-width="0.136523"/>
<path d="M108.219 108.468L109.702 113.027H114.501L110.62 115.845L112.102 120.405L108.219 117.587L104.336 120.405L105.82 115.845L101.937 113.027H106.736L108.219 108.468Z" fill="url(#paint6_linear_13365_14448)"/>
<path d="M108.221 108.948L109.563 113.073L109.597 113.176H109.704H114.047L110.534 115.725L110.446 115.788L110.479 115.891L111.822 120.015L108.309 117.466L108.221 117.403L108.133 117.466L104.622 120.015L105.963 115.891L105.996 115.788L105.908 115.725L102.397 113.176H106.738H106.847L106.88 113.073L108.221 108.948Z" stroke="white" stroke-opacity="0.33" stroke-width="0.136523"/>
<path d="M94.7146 108.468L96.2622 113.027H101.27L97.2186 115.845L98.7663 120.405L94.7146 117.587L90.6628 120.405L92.2105 115.845L88.1588 113.027H93.1669L94.7146 108.468Z" fill="url(#paint7_linear_13365_14448)"/>
<path d="M94.7216 108.928L96.1271 113.072L96.1623 113.173H96.2693H100.804L97.1396 115.721L97.0484 115.784L97.0852 115.89L98.4873 120.022L94.8058 117.462L94.7216 117.403L94.6356 117.462L90.9559 120.022L92.3579 115.89L92.3948 115.784L92.3018 115.721L88.6396 113.173H93.1739H93.2809L93.3143 113.072L94.7216 108.928Z" stroke="white" stroke-opacity="0.33" stroke-width="0.136523"/>
<path d="M81.0748 108.468L82.5892 113.027H87.4938L83.5262 115.845L85.0424 120.405L81.0748 117.587L77.1073 120.405L78.6234 115.845L74.6559 113.027H79.5587L81.0748 108.468Z" fill="url(#paint8_linear_13365_14448)"/>
<path d="M81.0818 108.938L82.4558 113.073L82.4909 113.174H82.598H87.0357L83.4473 115.723L83.3578 115.786L83.3929 115.891L84.7651 120.019L81.1678 117.464L81.0818 117.403L80.9959 117.464L77.3986 120.019L78.7708 115.891L78.8059 115.786L78.7164 115.723L75.1297 113.174H79.5675H79.6745L79.7079 113.073L81.0818 108.938Z" stroke="white" stroke-opacity="0.33" stroke-width="0.136523"/>
<path d="M96.4588 136.134L95.2691 135.988C95.2568 135.879 95.2568 135.77 95.2568 135.673C95.2568 134.325 96.2535 133.124 97.9784 133.124C99.6682 133.124 100.639 134.228 100.639 135.539C100.639 136.571 100.056 137.396 99.1576 137.967L97.6011 138.962C97.1519 139.253 96.7518 139.581 96.6413 140.067H100.688V141.171H95.1725C95.1953 139.884 95.706 138.901 97.0431 138.039L98.3557 137.19C99.0962 136.717 99.4366 136.158 99.4366 135.551C99.4366 134.835 98.9506 134.168 97.9539 134.168C96.9221 134.168 96.436 134.884 96.436 135.782C96.436 135.891 96.4482 136.013 96.4588 136.134ZM102.843 137.238C102.843 138.44 103.062 139.29 103.536 139.788C103.839 140.103 104.227 140.297 104.787 140.297C105.345 140.297 105.734 140.103 106.038 139.788C106.512 139.29 106.731 138.44 106.731 137.238C106.731 136.037 106.512 135.187 106.038 134.689C105.734 134.374 105.345 134.18 104.787 134.18C104.227 134.18 103.839 134.374 103.536 134.689C103.062 135.187 102.843 136.037 102.843 137.238ZM101.663 137.238C101.663 136.158 101.846 135.163 102.369 134.386C102.879 133.621 103.669 133.124 104.787 133.124C105.905 133.124 106.694 133.621 107.205 134.386C107.726 135.163 107.909 136.158 107.909 137.238C107.909 138.319 107.726 139.314 107.205 140.091C106.694 140.855 105.905 141.353 104.787 141.353C103.669 141.353 102.879 140.855 102.369 140.091C101.846 139.314 101.663 138.319 101.663 137.238ZM110.113 136.134L108.921 135.988C108.909 135.879 108.909 135.77 108.909 135.673C108.909 134.325 109.905 133.124 111.63 133.124C113.32 133.124 114.292 134.228 114.292 135.539C114.292 136.571 113.708 137.396 112.81 137.967L111.253 138.962C110.804 139.253 110.404 139.581 110.293 140.067H114.34V141.171H108.825C108.847 139.884 109.358 138.901 110.695 138.039L112.008 137.19C112.748 136.717 113.089 136.158 113.089 135.551C113.089 134.835 112.603 134.168 111.606 134.168C110.574 134.168 110.088 134.884 110.088 135.782C110.088 135.891 110.1 136.013 110.113 136.134ZM117.442 137.518L116.86 136.534L119.179 134.398H115.414V133.306H120.759V134.374L118.511 136.449C119.665 136.449 120.941 137.226 120.941 138.841C120.941 140.164 119.922 141.365 118.086 141.365C116.263 141.365 115.231 140.176 115.157 138.889L116.324 138.622C116.374 139.666 117.126 140.321 118.074 140.321C119.155 140.321 119.739 139.654 119.739 138.865C119.739 137.833 118.913 137.396 118.135 137.396C117.891 137.396 117.649 137.445 117.442 137.518Z" fill="white"/>
<path d="M96.4535 136.136L96.4184 136.431L96.7869 136.476L96.7501 136.107L96.4535 136.136ZM95.2638 135.991L94.9673 136.024L94.9936 136.257L95.2269 136.285L95.2638 135.991ZM99.1523 137.969L98.9926 137.719L98.9909 137.719L99.1523 137.969ZM97.5959 138.964L97.4362 138.714L97.4344 138.715L97.5959 138.964ZM96.636 140.069L96.3465 140.004L96.264 140.366H96.636V140.069ZM100.682 140.069H100.981V139.772H100.682V140.069ZM100.682 141.174V141.47H100.981V141.174H100.682ZM95.1655 141.174L94.869 141.168L94.8637 141.47H95.1655V141.174ZM98.3504 137.192L98.189 136.942L98.1872 136.943L98.3504 137.192ZM96.4904 135.841L95.2989 135.696L95.2269 136.285L96.4184 136.431L96.4904 135.841ZM95.5586 135.958C95.5481 135.867 95.5481 135.775 95.5481 135.675H94.9532C94.9532 135.77 94.9532 135.895 94.9673 136.024L95.5586 135.958ZM95.5481 135.675C95.5481 134.489 96.4149 133.423 97.9731 133.423V132.829C96.0815 132.829 94.9532 134.167 94.9532 135.675H95.5481ZM97.9731 133.423C98.7505 133.423 99.3384 133.676 99.7297 134.056C100.123 134.436 100.337 134.961 100.337 135.542H100.932C100.932 134.811 100.66 134.129 100.144 133.629C99.6279 133.129 98.8839 132.829 97.9731 132.829V133.423ZM100.337 135.542C100.337 136.445 99.8314 137.186 98.9926 137.719L99.3103 138.22C100.27 137.611 100.932 136.702 100.932 135.542H100.337ZM98.9909 137.719L97.4362 138.714L97.7573 139.214L99.312 138.219L98.9909 137.719ZM97.4344 138.715C96.9834 139.007 96.4833 139.391 96.3465 140.004L96.9273 140.134C97.008 139.775 97.3098 139.504 97.759 139.213L97.4344 138.715ZM96.636 140.366H100.682V139.772H96.636V140.366ZM100.386 140.069V141.174H100.981V140.069H100.386ZM100.682 140.877H95.1655V141.47H100.682V140.877ZM95.4639 141.179C95.4744 140.575 95.5989 140.059 95.8674 139.597C96.1359 139.133 96.5588 138.704 97.1993 138.291L96.8764 137.792C96.1798 138.242 95.6797 138.735 95.3516 139.3C95.0252 139.866 94.8812 140.485 94.869 141.168L95.4639 141.179ZM97.1993 138.291L98.5119 137.442L98.1872 136.943L96.8764 137.792L97.1993 138.291ZM98.5101 137.443C99.3068 136.934 99.7279 136.293 99.7279 135.554H99.1348C99.1348 136.029 98.8751 136.504 98.189 136.942L98.5101 137.443ZM99.7279 135.554C99.7279 135.13 99.584 134.707 99.2787 134.388C98.9698 134.066 98.5171 133.873 97.9486 133.873V134.467C98.3767 134.467 98.6663 134.608 98.8488 134.799C99.0348 134.993 99.1348 135.262 99.1348 135.554H99.7279ZM97.9486 133.873C97.359 133.873 96.8905 134.081 96.5764 134.447C96.2675 134.806 96.1324 135.285 96.1324 135.784H96.7273C96.7273 135.386 96.8343 135.057 97.0273 134.834C97.2133 134.617 97.5064 134.467 97.9486 134.467V133.873ZM96.1324 135.784C96.1324 135.911 96.1464 136.048 96.1587 136.166L96.7501 136.107C96.7378 135.982 96.7273 135.876 96.7273 135.784H96.1324ZM106.033 139.79L106.247 139.996L106.249 139.994L106.033 139.79ZM106.033 134.692L106.249 134.487L106.247 134.486L106.033 134.692ZM102.364 134.389L102.609 134.554L102.611 134.553L102.364 134.389ZM102.364 140.093L102.611 139.928L102.609 139.927L102.364 140.093ZM102.539 137.241C102.539 138.461 102.758 139.41 103.315 139.994L103.745 139.585C103.353 139.174 103.134 138.424 103.134 137.241H102.539ZM103.315 139.994C103.674 140.367 104.139 140.597 104.782 140.597V140.002C104.304 140.002 103.992 139.843 103.745 139.585L103.315 139.994ZM104.782 140.597C105.422 140.597 105.887 140.368 106.247 139.996L105.819 139.584C105.57 139.842 105.257 140.002 104.782 140.002V140.597ZM106.249 139.994C106.805 139.41 107.022 138.461 107.022 137.241H106.428C106.428 138.424 106.208 139.174 105.817 139.585L106.249 139.994ZM107.022 137.241C107.022 136.021 106.805 135.071 106.249 134.487L105.817 134.897C106.208 135.308 106.428 136.058 106.428 137.241H107.022ZM106.247 134.486C105.887 134.113 105.422 133.885 104.782 133.885V134.479C105.257 134.479 105.57 134.639 105.819 134.898L106.247 134.486ZM104.782 133.885C104.139 133.885 103.674 134.113 103.315 134.486L103.745 134.898C103.992 134.639 104.304 134.479 104.782 134.479V133.885ZM103.315 134.486C102.758 135.07 102.539 136.021 102.539 137.241H103.134C103.134 136.058 103.353 135.309 103.745 134.898L103.315 134.486ZM101.956 137.241C101.956 136.188 102.135 135.261 102.609 134.554L102.116 134.223C101.546 135.07 101.362 136.134 101.362 137.241H101.956ZM102.611 134.553C103.069 133.867 103.767 133.423 104.782 133.423V132.829C103.559 132.829 102.678 133.38 102.116 134.223L102.611 134.553ZM104.782 133.423C105.794 133.423 106.494 133.867 106.952 134.553L107.447 134.224C106.884 133.38 106.003 132.829 104.782 132.829V133.423ZM106.952 134.553C107.428 135.26 107.607 136.188 107.607 137.241H108.202C108.202 136.134 108.016 135.07 107.445 134.223L106.952 134.553ZM107.607 137.241C107.607 138.294 107.428 139.221 106.952 139.927L107.445 140.259C108.016 139.412 108.202 138.348 108.202 137.241H107.607ZM106.952 139.927C106.494 140.614 105.794 141.058 104.782 141.058V141.653C106.003 141.653 106.884 141.101 107.447 140.258L106.952 139.927ZM104.782 141.058C103.767 141.058 103.069 140.615 102.611 139.928L102.116 140.258C102.678 141.101 103.559 141.653 104.782 141.653V141.058ZM102.609 139.927C102.135 139.221 101.956 138.294 101.956 137.241H101.362C101.362 138.348 101.546 139.411 102.116 140.258L102.609 139.927ZM110.106 136.136L110.07 136.431L110.439 136.476L110.402 136.107L110.106 136.136ZM108.916 135.991L108.619 136.024L108.646 136.257L108.879 136.285L108.916 135.991ZM112.804 137.969L112.645 137.719L112.643 137.719L112.804 137.969ZM111.248 138.964L111.088 138.714L111.086 138.715L111.248 138.964ZM110.288 140.069L109.998 140.004L109.916 140.366H110.288V140.069ZM114.335 140.069H114.633V139.772H114.335V140.069ZM114.335 141.174V141.47H114.633V141.174H114.335ZM108.818 141.174L108.521 141.168L108.516 141.47H108.818V141.174ZM110.142 135.841L108.951 135.696L108.879 136.285L110.07 136.431L110.142 135.841ZM109.211 135.958C109.2 135.867 109.2 135.775 109.2 135.675H108.605C108.605 135.77 108.605 135.895 108.619 136.024L109.211 135.958ZM109.2 135.675C109.2 134.489 110.067 133.423 111.625 133.423V132.829C109.734 132.829 108.605 134.167 108.605 135.675H109.2ZM111.625 133.423C112.403 133.423 112.99 133.676 113.382 134.056C113.775 134.436 113.989 134.961 113.989 135.542H114.584C114.584 134.811 114.312 134.129 113.796 133.629C113.28 133.129 112.536 132.829 111.625 132.829V133.423ZM113.989 135.542C113.989 136.445 113.483 137.186 112.645 137.719L112.962 138.22C113.922 137.611 114.584 136.702 114.584 135.542H113.989ZM112.643 137.719L111.088 138.714L111.409 139.214L112.964 138.219L112.643 137.719ZM111.086 138.715C110.635 139.007 110.137 139.391 109.998 140.004L110.579 140.134C110.66 139.775 110.962 139.504 111.411 139.213L111.086 138.715ZM110.288 140.366H114.335V139.772H110.288V140.366ZM114.038 140.069V141.174H114.633V140.069H114.038ZM114.335 140.877H108.818V141.47H114.335V140.877ZM109.116 141.179C109.126 140.575 109.251 140.059 109.519 139.597C109.788 139.133 110.211 138.704 110.851 138.291L110.528 137.792C109.832 138.242 109.332 138.735 109.004 139.3C108.677 139.866 108.533 140.485 108.521 141.168L109.116 141.179ZM110.851 138.291L112.164 137.442L111.841 136.942L110.528 137.792L110.851 138.291ZM112.162 137.443C112.959 136.934 113.38 136.293 113.38 135.554H112.785C112.785 136.029 112.527 136.504 111.841 136.942L112.162 137.443ZM113.38 135.554C113.38 135.13 113.236 134.707 112.931 134.388C112.622 134.066 112.169 133.873 111.601 133.873V134.467C112.029 134.467 112.318 134.608 112.501 134.799C112.687 134.993 112.785 135.262 112.785 135.554H113.38ZM111.601 133.873C111.011 133.873 110.544 134.081 110.228 134.447C109.92 134.806 109.784 135.285 109.784 135.784H110.379C110.379 135.386 110.486 135.057 110.679 134.834C110.865 134.617 111.158 134.467 111.601 134.467V133.873ZM109.784 135.784C109.784 135.911 109.798 136.048 109.811 136.166L110.402 136.107C110.39 135.982 110.379 135.876 110.379 135.784H109.784ZM117.437 137.52L117.181 137.672L117.305 137.881L117.535 137.8L117.437 137.52ZM116.854 136.537L116.653 136.318L116.475 136.481L116.598 136.688L116.854 136.537ZM119.174 134.401L119.376 134.619L119.936 134.104H119.174V134.401ZM115.407 134.401H115.11V134.698H115.407V134.401ZM115.407 133.308V133.011H115.11V133.308H115.407ZM120.753 133.308H121.052V133.011H120.753V133.308ZM120.753 134.376L120.955 134.595L121.052 134.506V134.376H120.753ZM118.506 136.452L118.304 136.234L117.746 136.749H118.506V136.452ZM115.152 138.892L115.086 138.602L114.842 138.658L114.856 138.908L115.152 138.892ZM116.319 138.625L116.616 138.611L116.6 138.256L116.252 138.335L116.319 138.625ZM117.693 137.368L117.109 136.385L116.598 136.688L117.181 137.672L117.693 137.368ZM117.054 136.755L119.376 134.619L118.972 134.182L116.653 136.318L117.054 136.755ZM119.174 134.104H115.407V134.698H119.174V134.104ZM115.705 134.401V133.308H115.11V134.401H115.705ZM115.407 133.605H120.753V133.011H115.407V133.605ZM120.457 133.308V134.376H121.052V133.308H120.457ZM120.552 134.158L118.304 136.234L118.707 136.67L120.955 134.595L120.552 134.158ZM118.506 136.749C119.02 136.749 119.557 136.923 119.96 137.268C120.357 137.607 120.639 138.122 120.639 138.843H121.234C121.234 137.95 120.878 137.269 120.348 136.817C119.823 136.369 119.146 136.155 118.506 136.155V136.749ZM120.639 138.843C120.639 139.427 120.415 139.98 119.99 140.387C119.567 140.794 118.93 141.07 118.081 141.07V141.665C119.065 141.665 119.857 141.341 120.402 140.815C120.948 140.291 121.234 139.582 121.234 138.843H120.639ZM118.081 141.07C116.41 141.07 115.514 139.999 115.449 138.875L114.856 138.908C114.938 140.358 116.105 141.665 118.081 141.665V141.07ZM115.219 139.181L116.386 138.914L116.252 138.335L115.086 138.602L115.219 139.181ZM116.023 138.638C116.079 139.844 116.967 140.621 118.069 140.621V140.027C117.275 140.027 116.658 139.492 116.616 138.611L116.023 138.638ZM118.069 140.621C118.672 140.621 119.165 140.434 119.511 140.107C119.857 139.781 120.03 139.336 120.03 138.867H119.436C119.436 139.187 119.318 139.471 119.102 139.676C118.885 139.88 118.548 140.027 118.069 140.027V140.621ZM120.03 138.867C120.03 138.262 119.783 137.808 119.406 137.513C119.039 137.224 118.569 137.102 118.13 137.102V137.696C118.467 137.696 118.799 137.791 119.039 137.979C119.271 138.161 119.436 138.441 119.436 138.867H120.03ZM118.13 137.102C117.849 137.102 117.572 137.157 117.337 137.24L117.535 137.8C117.714 137.737 117.925 137.696 118.13 137.696V137.102Z" fill="url(#paint9_linear_13365_14448)"/>
<path d="M147.563 136.294H125.737V137.729H147.563V136.294Z" fill="white"/>
<path d="M90.4172 136.294H68.5897V137.729H90.4172V136.294Z" fill="white"/>
</g>
<defs>
<filter id="filter0_f_13365_14448" x="63.439" y="100.453" width="89.2707" height="30.3744" filterUnits="userSpaceOnUse" color-interpolation-filters="sRGB">
<feFlood flood-opacity="0" result="BackgroundImageFix"/>
<feBlend mode="normal" in="SourceGraphic" in2="BackgroundImageFix" result="shape"/>
<feGaussianBlur stdDeviation="3.00351" result="effect1_foregroundBlur_13365_14448"/>
</filter>
<radialGradient id="paint0_radial_13365_14448" cx="0" cy="0" r="1" gradientUnits="userSpaceOnUse" gradientTransform="translate(108.149 27.0096) rotate(90) scale(96.9672 97.073)">
<stop stop-color="#2D4172"/>
<stop offset="1" stop-color="#0E2357"/>
</radialGradient>
<linearGradient id="paint1_linear_13365_14448" x1="108.163" y1="24.0752" x2="108.163" y2="145.053" gradientUnits="userSpaceOnUse">
<stop stop-color="white"/>
<stop offset="1" stop-color="white" stop-opacity="0"/>
</linearGradient>
<linearGradient id="paint2_linear_13365_14448" x1="108.161" y1="24.075" x2="108.161" y2="145.052" gradientUnits="userSpaceOnUse">
<stop stop-color="white"/>
<stop offset="1" stop-color="white" stop-opacity="0"/>
</linearGradient>
<linearGradient id="paint3_linear_13365_14448" x1="107.937" y1="124.82" x2="107.937" y2="105.312" gradientUnits="userSpaceOnUse">
<stop stop-color="#00A775"/>
<stop offset="0.473958" stop-color="#00DD9B"/>
</linearGradient>
<linearGradient id="paint4_linear_13365_14448" x1="135.211" y1="108.468" x2="135.211" y2="121.665" gradientUnits="userSpaceOnUse">
<stop offset="0.572917" stop-color="white"/>
<stop offset="1" stop-color="white" stop-opacity="0.45"/>
</linearGradient>
<linearGradient id="paint5_linear_13365_14448" x1="121.571" y1="108.468" x2="121.571" y2="121.665" gradientUnits="userSpaceOnUse">
<stop offset="0.572917" stop-color="white"/>
<stop offset="1" stop-color="white" stop-opacity="0.45"/>
</linearGradient>
<linearGradient id="paint6_linear_13365_14448" x1="108.219" y1="108.468" x2="108.219" y2="121.665" gradientUnits="userSpaceOnUse">
<stop offset="0.572917" stop-color="white"/>
<stop offset="1" stop-color="white" stop-opacity="0.45"/>
</linearGradient>
<linearGradient id="paint7_linear_13365_14448" x1="94.7146" y1="108.468" x2="94.7146" y2="121.665" gradientUnits="userSpaceOnUse">
<stop offset="0.572917" stop-color="white"/>
<stop offset="1" stop-color="white" stop-opacity="0.45"/>
</linearGradient>
<linearGradient id="paint8_linear_13365_14448" x1="81.0748" y1="108.468" x2="81.0748" y2="121.665" gradientUnits="userSpaceOnUse">
<stop offset="0.572917" stop-color="white"/>
<stop offset="1" stop-color="white" stop-opacity="0.45"/>
</linearGradient>
<linearGradient id="paint9_linear_13365_14448" x1="121.499" y1="142.806" x2="121.499" y2="135.701" gradientUnits="userSpaceOnUse">
<stop stop-color="white" stop-opacity="0.33"/>
<stop offset="1" stop-color="white" stop-opacity="0"/>
</linearGradient>
</defs>
</svg>
