<svg width="216" height="188" viewBox="0 0 216 188" fill="none" xmlns="http://www.w3.org/2000/svg">
<path d="M171.152 93.6586C171.152 100.149 171.152 106.64 171.15 113.131C171.15 113.679 171.135 114.227 171.121 114.775C171.084 116.269 170.861 117.742 170.541 119.196C169.488 123.989 167.306 128.171 163.979 131.728C162.199 133.629 160.193 135.229 157.938 136.494C154.907 138.19 151.867 139.867 148.831 141.553C146.569 142.809 144.306 144.066 142.042 145.321C139.874 146.523 137.703 147.721 135.533 148.925C133.308 150.16 131.086 151.4 128.859 152.635C127.183 153.567 125.501 154.492 123.823 155.423C121.54 156.688 119.255 157.95 116.977 159.225C115.428 160.092 113.824 160.812 112.099 161.234C110.033 161.739 107.949 161.876 105.833 161.663C103.34 161.411 101.018 160.636 98.8243 159.415C95.5441 157.591 92.2562 155.783 88.974 153.965C85.8987 152.262 82.8254 150.554 79.752 148.848C76.2455 146.9 72.741 144.949 69.2325 143.004C66.7992 141.654 64.362 140.315 61.9287 138.966C60.2876 138.056 58.6446 137.153 57.0191 136.214C55.6512 135.424 54.3907 134.473 53.2004 133.426C51.1339 131.607 49.4051 129.497 47.9962 127.114C46.5444 124.656 45.5102 122.026 44.9033 119.221C44.6165 117.892 44.4136 116.551 44.3609 115.19C44.3199 114.162 44.2789 113.133 44.2789 112.104C44.2731 99.4514 44.2711 86.7989 44.277 74.1461C44.2789 71.5936 44.5833 69.0784 45.2839 66.6199C46.2985 63.0573 47.9513 59.8423 50.2812 56.9935C52.4257 54.3717 54.98 52.2639 57.9265 50.6403C61.9872 48.402 66.0381 46.1428 70.093 43.8955C73.2249 42.1607 76.3587 40.4324 79.4886 38.6962C83.2605 36.604 87.0305 34.506 90.8004 32.4119C93.5733 30.8731 96.3422 29.3297 99.1189 27.8007C100.947 26.7935 102.897 26.1408 104.953 25.8244C106.06 25.654 107.168 25.5645 108.288 25.6073C111.19 25.7185 113.92 26.4678 116.472 27.8816C121.151 30.4731 125.829 33.0685 130.506 35.6626C132.881 36.9804 135.257 38.2974 137.634 39.6145C141.672 41.852 145.707 44.0889 149.744 46.3283C152.421 47.8138 155.099 49.3007 157.774 50.7909C159.631 51.8244 161.327 53.083 162.88 54.55C165.206 56.7487 167.068 59.2994 168.477 62.1941C169.408 64.1055 170.1 66.1054 170.547 68.1884C170.963 70.1193 171.158 72.0757 171.154 74.0575C171.144 80.5897 171.152 87.1239 171.152 93.6586Z" fill="#302A4E"/>
<path d="M122.1 145.235V143.471H117.639V141.543L122.055 134.697H124.658V141.393H125.876V143.471H124.658V145.235H122.1ZM122.219 141.393V137.821H122.293L119.75 141.782L119.631 141.393H122.219Z" fill="#EF7E21"/>
<path d="M109.211 145.233V143.231L112.497 139.883C112.774 139.604 112.987 139.354 113.137 139.135C113.295 138.916 113.408 138.712 113.479 138.522C113.549 138.323 113.582 138.129 113.582 137.94C113.582 137.571 113.449 137.287 113.182 137.088C112.913 136.878 112.552 136.774 112.095 136.774C111.709 136.774 111.293 136.848 110.846 136.998C110.411 137.147 109.99 137.382 109.582 137.7L108.719 135.698C109.186 135.329 109.756 135.045 110.431 134.846C111.114 134.636 111.799 134.532 112.482 134.532C113.286 134.532 113.969 134.656 114.534 134.906C115.1 135.155 115.526 135.518 115.813 135.996C116.111 136.465 116.259 137.028 116.259 137.686C116.259 138.004 116.214 138.313 116.125 138.612C116.037 138.911 115.908 139.205 115.738 139.494C115.571 139.783 115.362 140.077 115.114 140.376C114.876 140.665 114.605 140.964 114.296 141.273L112.439 143.156V142.991H116.616V145.233H109.211Z" fill="#EF7E21"/>
<path d="M103.808 145.398C102.916 145.398 102.173 145.188 101.578 144.77C100.982 144.352 100.532 143.739 100.225 142.932C99.917 142.115 99.7648 141.118 99.7648 139.942C99.7648 138.767 99.9131 137.78 100.21 136.983C100.518 136.176 100.969 135.568 101.564 135.16C102.169 134.741 102.916 134.532 103.808 134.532C104.702 134.532 105.445 134.741 106.038 135.16C106.643 135.568 107.094 136.176 107.393 136.983C107.699 137.79 107.853 138.777 107.853 139.942C107.853 141.108 107.699 142.1 107.393 142.917C107.084 143.724 106.633 144.342 106.038 144.77C105.445 145.188 104.702 145.398 103.808 145.398ZM103.808 143.156C104.284 143.156 104.637 142.897 104.864 142.379C105.092 141.86 105.207 141.048 105.207 139.942C105.207 138.836 105.092 138.034 104.864 137.536C104.637 137.028 104.284 136.774 103.808 136.774C103.332 136.774 102.981 137.028 102.752 137.536C102.524 138.034 102.411 138.836 102.411 139.942C102.411 141.048 102.524 141.86 102.752 142.379C102.981 142.897 103.332 143.156 103.808 143.156Z" fill="#EF7E21"/>
<path d="M91.3819 145.233V143.231L94.668 139.883C94.947 139.604 95.1597 139.354 95.308 139.135C95.4661 138.916 95.5812 138.712 95.6495 138.522C95.7197 138.323 95.7549 138.129 95.7549 137.94C95.7549 137.571 95.6202 137.287 95.3529 137.088C95.0856 136.878 94.7226 136.774 94.268 136.774C93.8797 136.774 93.464 136.848 93.0172 136.998C92.582 137.147 92.1605 137.382 91.7546 137.7L90.8922 135.698C91.3566 135.329 91.9283 135.045 92.6015 134.846C93.2864 134.636 93.9694 134.532 94.6543 134.532C95.4563 134.532 96.1412 134.656 96.7052 134.906C97.271 135.155 97.6964 135.518 97.9852 135.996C98.2818 136.465 98.4301 137.028 98.4301 137.686C98.4301 138.004 98.3853 138.313 98.2975 138.612C98.2077 138.911 98.0789 139.205 97.9111 139.494C97.7413 139.783 97.5345 140.077 97.2847 140.376C97.0486 140.665 96.7754 140.964 96.4671 141.273L94.6095 143.156V142.991H98.7872V145.233H91.3819Z" fill="#EF7E21"/>
<path d="M173 94.0763C173 101.246 173 108.416 173 115.586C173 116.018 172.99 116.45 172.988 116.881C172.984 117.912 172.789 118.921 172.645 119.936C172.489 121.052 172.178 122.129 171.847 123.195C171.507 124.287 171.072 125.343 170.58 126.376C169.952 127.693 169.209 128.934 168.36 130.11C167.286 131.598 166.063 132.944 164.685 134.153C163.126 135.521 161.401 136.608 159.596 137.593C157.241 138.88 154.907 140.208 152.56 141.512C151.243 142.245 149.918 142.962 148.599 143.692C147.135 144.502 145.678 145.32 144.216 146.131C142.979 146.816 141.738 147.489 140.503 148.176C138.547 149.263 136.598 150.362 134.643 151.446C133.201 152.246 131.747 153.025 130.305 153.823C128.451 154.851 126.603 155.89 124.753 156.923C124.197 157.233 123.641 157.54 123.085 157.847C121.126 158.928 119.167 160.008 117.208 161.09C116.447 161.512 115.705 161.978 114.925 162.359C113.762 162.926 112.552 163.38 111.285 163.649C109.834 163.957 108.36 164.068 106.879 163.959C105.332 163.845 103.825 163.501 102.383 162.911C101.689 162.626 101.012 162.29 100.346 161.938C99.3901 161.433 98.4496 160.892 97.5051 160.364C95.468 159.23 93.4308 158.093 91.3936 156.959C90.3438 156.375 89.294 155.793 88.2422 155.213C86.2421 154.109 84.24 153.008 82.2399 151.904C80.6125 151.004 78.9851 150.102 77.3577 149.201C75.1742 147.99 72.9907 146.78 70.8091 145.569C69.3066 144.735 67.804 143.897 66.2996 143.066C63.8877 141.733 61.4739 140.407 59.0641 139.072C57.745 138.341 56.4278 137.61 55.1224 136.857C53.6277 135.996 52.2266 134.999 50.968 133.802C50.7104 133.557 50.4255 133.341 50.1797 133.087C48.4566 131.308 46.9893 129.338 45.8302 127.123C44.9189 125.384 44.2281 123.565 43.7598 121.659C43.3969 120.177 43.1666 118.674 43.0749 117.139C42.9793 115.511 43.0085 113.885 43.0085 112.258C42.9988 98.9732 42.9929 85.6877 43.0164 72.4032C43.0183 71.0238 43.1295 69.6432 43.3637 68.2705C43.8359 65.5111 44.7277 62.9145 46.0546 60.4705C46.759 59.1703 47.602 57.9637 48.5172 56.8075C49.2138 55.9282 49.9923 55.1303 50.8021 54.367C52.1329 53.1137 53.5847 52.0244 55.1809 51.1416C57.4874 49.8644 59.7939 48.5822 62.1003 47.3038C63.7063 46.4138 65.3161 45.5259 66.922 44.6358C68.6119 43.7005 70.2998 42.7637 71.9896 41.827C73.6151 40.9248 75.2425 40.0218 76.8699 39.1204C79.0534 37.91 81.2389 36.7015 83.4205 35.4911C84.925 34.6579 86.4275 33.8241 87.928 32.9867C89.7798 31.9549 91.6278 30.9145 93.4796 29.8864C94.9216 29.0863 96.3714 28.3006 97.8154 27.5056C98.8672 26.9264 99.9092 26.3271 100.971 25.7651C102.436 24.9895 103.986 24.4765 105.627 24.2412C106.555 24.1081 107.484 23.9549 108.421 24.0125C109.681 24.0894 110.932 24.2621 112.156 24.6046C113.243 24.9082 114.283 25.3263 115.274 25.8788C116.796 26.7278 118.33 27.5552 119.858 28.3963C121.61 29.3626 123.362 30.3325 125.112 31.303C127.275 32.501 129.437 33.7004 131.601 34.8998C133.763 36.0983 135.925 37.2971 138.087 38.4957C140.249 39.6945 142.411 40.893 144.573 42.0926C146.737 43.2911 148.899 44.4899 151.061 45.6899C153.139 46.8441 155.219 47.9966 157.298 49.1536C158.613 49.8867 159.936 50.6112 161.237 51.3689C162.236 51.9495 163.179 52.6194 164.073 53.3597C165.13 54.2346 166.106 55.1937 167.017 56.2254C168.008 57.3492 168.865 58.5717 169.632 59.8638C170.606 61.5086 171.353 63.2556 171.917 65.088C172.282 66.2746 172.536 67.4826 172.733 68.7092C172.957 70.0857 173.002 71.4657 173 72.8543C172.998 79.9275 173 87.0024 173 94.0763ZM170.91 94.0057C170.91 86.9081 170.912 79.8104 170.908 72.7125C170.908 71.6844 170.914 70.6576 170.768 69.6324C170.6 68.4741 170.395 67.3271 170.075 66.204C169.577 64.4522 168.889 62.7821 167.985 61.2066C167.441 60.2553 166.84 59.3429 166.159 58.486C165.481 57.6307 164.748 56.8298 163.959 56.0765C162.771 54.9426 161.479 53.9555 160.069 53.1359C158.705 52.3431 157.319 51.5868 155.941 50.8199C153.82 49.6406 151.699 48.4657 149.578 47.2893C147.375 46.0676 145.17 44.8459 142.967 43.6244C140.846 42.448 138.725 41.2708 136.602 40.0959C134.315 38.8297 132.028 37.567 129.741 36.3006C127.598 35.1142 125.462 33.9221 123.319 32.7377C121.382 31.6664 119.44 30.6044 117.502 29.5331C116.802 29.146 116.115 28.7337 115.412 28.3503C114.173 27.6739 112.934 27.0019 111.555 26.6451C110.437 26.3566 109.313 26.1666 108.161 26.14C107.289 26.1191 106.434 26.2429 105.58 26.399C104.136 26.6616 102.782 27.1725 101.494 27.8718C100.584 28.3661 99.6867 28.8848 98.7813 29.3885C97.2573 30.2353 95.7353 31.0814 94.2094 31.924C92.8278 32.6866 91.4404 33.4392 90.0628 34.2055C88.1271 35.2797 86.1972 36.3653 84.2635 37.4411C83.0068 38.1389 81.7462 38.8254 80.4896 39.5211C78.4075 40.673 76.3274 41.827 74.2473 42.9803C73.3848 43.4596 72.5204 43.9372 71.656 44.4179C69.97 45.3576 68.286 46.303 66.5981 47.2389C65.2575 47.9815 63.9112 48.7089 62.5725 49.4499C60.5744 50.5559 58.5782 51.6682 56.582 52.7791C54.8882 53.7231 53.3194 54.8512 51.9281 56.2197C51.3388 56.8002 50.7904 57.4263 50.2421 58.05C49.2235 59.2156 48.3884 60.5201 47.6722 61.8936C46.478 64.188 45.676 66.6206 45.3423 69.2094C45.196 70.3489 45.0945 71.4865 45.0945 72.637C45.0984 85.8497 45.0926 99.0624 45.1023 112.274C45.1023 114.093 44.9989 115.915 45.2136 117.73C45.2819 118.299 45.3072 118.876 45.4145 119.437C45.8302 121.626 46.4663 123.742 47.4771 125.732C48.4976 127.745 49.7679 129.563 51.3251 131.185C52.814 132.737 54.4706 134.053 56.3283 135.105C57.8854 135.987 59.4543 136.849 61.0193 137.718C63.1404 138.896 65.2595 140.074 67.3826 141.249C69.7944 142.584 72.2062 143.915 74.6181 145.247C76.9889 146.557 79.3598 147.866 81.7306 149.174C82.3707 149.527 83.0146 149.871 83.6507 150.227C85.4186 151.215 87.1826 152.21 88.9505 153.195C90.2677 153.929 91.5946 154.646 92.9117 155.375C94.4572 156.231 95.9987 157.092 97.5422 157.952C98.3442 158.399 99.1365 158.868 99.9482 159.292C100.949 159.815 101.9 160.433 102.953 160.854C104.428 161.443 105.943 161.81 107.527 161.84C108.302 161.854 109.069 161.829 109.841 161.727C111.252 161.541 112.593 161.146 113.853 160.497C114.899 159.959 115.92 159.366 116.95 158.797C118.683 157.84 120.414 156.883 122.143 155.926C123.813 155.002 125.481 154.076 127.15 153.152C128.797 152.239 130.445 151.327 132.094 150.412C134.153 149.27 136.212 148.127 138.27 146.983C139.898 146.08 141.523 145.177 143.149 144.274C145.229 143.12 147.307 141.964 149.387 140.811C151.137 139.841 152.89 138.874 154.642 137.905C156.394 136.936 158.15 135.976 159.895 134.994C161.524 134.076 162.997 132.932 164.324 131.604C164.793 131.135 165.222 130.625 165.665 130.131C166.621 129.069 167.398 127.871 168.098 126.627C169.072 124.898 169.784 123.054 170.258 121.12C170.635 119.588 170.896 118.037 170.908 116.45C170.91 116.186 170.912 115.923 170.912 115.659C170.91 108.442 170.91 101.224 170.91 94.0057Z" fill="#EF7E21"/>
<path d="M138.565 53.3516C140.866 53.3516 143.166 53.3559 145.467 53.3486C146.134 53.3465 146.698 53.55 147.159 54.0661C147.442 54.3848 147.58 54.7488 147.615 55.1632C147.631 55.3294 147.621 55.4984 147.621 55.6661C147.621 57.8461 147.621 60.0262 147.621 62.2064C147.621 62.3258 147.617 62.4459 147.621 62.5653C147.648 63.6684 146.683 64.5108 145.691 64.5323C145.153 64.5447 144.612 64.5266 144.072 64.5417C142.735 64.5792 141.492 64.9699 140.327 65.6211C139.281 66.2059 138.245 66.8147 137.203 67.409C136.61 67.7464 136.015 68.0796 135.418 68.4069C135.232 68.5083 135.037 68.5997 134.838 68.6658C134.551 68.7608 134.319 68.5839 134.331 68.2665C134.34 68.0565 134.383 67.8399 134.454 67.6428C134.577 67.3074 134.735 66.9865 134.873 66.657C134.975 66.416 135.094 66.1779 135.16 65.9261C135.316 65.3339 135.133 64.713 134.413 64.5433C134.165 64.4843 133.907 64.4396 133.654 64.4347C132.902 64.4201 132.147 64.3913 131.4 64.439C130.418 64.5015 129.406 63.6733 129.415 62.4049C129.433 60.0572 129.415 57.7094 129.423 55.3617C129.427 54.2624 130.233 53.4163 131.312 53.3523C131.476 53.3421 131.64 53.3502 131.806 53.3502C134.058 53.3516 136.311 53.3516 138.565 53.3516Z" fill="#F38020"/>
<path d="M108.401 96.5853C108.401 95.7227 108.401 94.8602 108.401 93.9974C108.401 92.798 108.401 91.5994 108.401 90.3999C108.401 90.2561 108.396 90.1114 108.403 89.9682C108.427 89.574 108.573 89.4014 108.969 89.3825C109.461 89.3588 109.955 89.3739 110.448 89.3733C110.708 89.3733 110.967 89.3588 111.223 89.3798C111.598 89.41 111.758 89.5912 111.785 89.9819C111.795 90.1251 111.787 90.2697 111.787 90.4136C111.787 94.2506 111.787 98.0877 111.787 101.925C111.787 102.116 111.795 102.311 111.765 102.499C111.728 102.733 111.572 102.881 111.344 102.926C111.231 102.948 111.11 102.941 110.993 102.941C110.452 102.942 109.912 102.92 109.373 102.948C108.92 102.97 108.62 102.787 108.382 102.405C107.773 101.436 107.147 100.481 106.526 99.5195C105.843 98.4582 105.158 97.3969 104.471 96.3378C104.399 96.2248 104.304 96.1264 104.224 96.0264C103.989 96.1458 104.073 96.3364 104.073 96.4861C104.066 98.2848 104.069 100.084 104.069 101.882C104.069 102.074 104.075 102.267 104.06 102.457C104.04 102.723 103.929 102.851 103.685 102.91C103.593 102.931 103.5 102.94 103.406 102.94C102.702 102.942 101.995 102.941 101.291 102.941C101.244 102.941 101.195 102.94 101.15 102.933C100.885 102.893 100.723 102.737 100.692 102.469C100.674 102.327 100.682 102.182 100.682 102.038C100.68 98.105 100.682 94.1715 100.682 90.2389C100.682 90.1186 100.674 89.9978 100.684 89.879C100.713 89.6006 100.852 89.4424 101.125 89.3971C101.261 89.3739 101.404 89.3761 101.544 89.3747C102.015 89.3725 102.487 89.3976 102.955 89.3674C103.513 89.3315 103.872 89.5589 104.163 90.0466C104.879 91.2568 105.634 92.4426 106.374 93.6384C106.912 94.5097 107.451 95.3825 107.994 96.2515C108.075 96.3847 108.183 96.5034 108.276 96.6285C108.319 96.6142 108.36 96.5999 108.401 96.5853Z" fill="#FBFBFC"/>
<path d="M108.401 113.687C108.401 112.373 108.401 111.223 108.401 110.074C108.401 109.115 108.401 108.156 108.401 107.198C108.401 107.054 108.394 106.91 108.407 106.767C108.437 106.45 108.585 106.317 108.913 106.291C108.959 106.288 109.006 106.289 109.055 106.289C109.736 106.289 110.417 106.283 111.098 106.291C111.609 106.298 111.765 106.46 111.787 106.974C111.793 107.118 111.787 107.262 111.787 107.406C111.787 111.169 111.787 114.931 111.787 118.694C111.787 118.885 111.797 119.078 111.781 119.269C111.752 119.611 111.574 119.807 111.244 119.814C110.54 119.829 109.836 119.817 109.129 119.818C108.815 119.819 108.604 119.654 108.44 119.396C108.031 118.753 107.617 118.114 107.205 117.472C106.267 116.01 105.328 114.547 104.391 113.083C104.341 113.005 104.302 112.92 104.276 112.874C103.997 112.98 104.073 113.149 104.073 113.274C104.067 115.096 104.067 116.917 104.067 118.739C104.067 118.93 104.075 119.123 104.062 119.313C104.04 119.648 103.911 119.774 103.58 119.814C103.533 119.82 103.486 119.82 103.437 119.82C102.733 119.821 102.028 119.829 101.324 119.817C100.842 119.809 100.701 119.657 100.682 119.17C100.676 119.05 100.68 118.93 100.68 118.81C100.68 114.975 100.68 111.141 100.68 107.306C100.68 106.318 100.709 106.29 101.662 106.289C102.13 106.288 102.602 106.309 103.07 106.283C103.548 106.255 103.855 106.446 104.106 106.863C105.156 108.593 106.232 110.308 107.297 112.029C107.572 112.474 107.849 112.919 108.128 113.362C108.175 113.436 108.241 113.498 108.401 113.687Z" fill="#FBFBFC"/>
<path d="M94.11 113.558C94.1158 113.363 94.1217 113.159 94.1217 112.954C94.1236 111.085 94.1275 109.215 94.1197 107.346C94.1178 106.353 94.0787 106.267 95.1871 106.292C95.6574 106.303 96.1257 106.293 96.596 106.294C96.7364 106.294 96.8789 106.287 97.0194 106.303C97.2672 106.331 97.4038 106.469 97.4311 106.714C97.4448 106.832 97.4409 106.953 97.4409 107.073C97.4409 111.051 97.4409 115.029 97.4389 119.007C97.4389 119.754 97.3726 119.818 96.6311 119.824C96.0906 119.827 95.55 119.808 95.0115 119.829C94.588 119.846 94.3071 119.672 94.0827 119.312C93.4758 118.344 92.8475 117.389 92.2308 116.427C91.4971 115.286 90.7674 114.143 90.0337 113.001C89.9966 112.944 89.9419 112.898 89.8971 112.845C89.7351 112.853 89.8053 112.982 89.7917 113.052C89.7722 113.144 89.7839 113.243 89.7839 113.339C89.7839 115.16 89.7839 116.981 89.7839 118.802C89.7839 118.994 89.7917 119.187 89.7702 119.377C89.7448 119.595 89.5673 119.769 89.3546 119.807C89.2629 119.824 89.1673 119.822 89.0736 119.822C88.3926 119.823 87.7116 119.823 87.0306 119.822C86.9837 119.822 86.935 119.823 86.8881 119.818C86.5681 119.785 86.4178 119.644 86.3886 119.331C86.3749 119.212 86.3808 119.091 86.3808 118.972C86.3808 115.042 86.3788 111.112 86.3808 107.181C86.3808 107.037 86.3749 106.893 86.3925 106.751C86.4256 106.463 86.5642 106.327 86.8452 106.297C86.9389 106.287 87.0345 106.293 87.1281 106.293C87.6433 106.293 88.1623 106.32 88.6755 106.285C89.2083 106.248 89.5692 106.429 89.8288 106.914C90.098 107.418 90.4259 107.889 90.7264 108.374C91.7528 110.034 92.7792 111.695 93.8095 113.353C93.868 113.445 93.8992 113.589 94.11 113.558Z" fill="#FDFDFD"/>
<path d="M133.64 115.155C133.041 115.144 132.483 115.115 131.891 115.181C131.874 115.36 131.843 115.522 131.843 115.683C131.839 116.81 131.845 117.937 131.839 119.064C131.835 119.719 131.745 119.813 131.105 119.819C130.401 119.827 129.696 119.821 128.99 119.821C128.92 119.821 128.849 119.823 128.779 119.816C128.457 119.782 128.317 119.64 128.293 119.319C128.283 119.199 128.287 119.079 128.287 118.959C128.287 115.026 128.287 111.093 128.289 107.161C128.289 106.343 128.336 106.292 129.113 106.291C130.805 106.288 132.496 106.285 134.19 106.291C135.162 106.295 136.108 106.456 136.994 106.882C137.849 107.294 138.555 107.892 138.906 108.806C139.529 110.427 139.494 111.999 138.38 113.414C138.136 113.725 137.79 113.955 137.484 114.216C137.363 114.321 137.224 114.407 137.059 114.527C137.17 114.761 137.26 114.976 137.371 115.18C138.015 116.377 138.664 117.571 139.312 118.766C139.392 118.913 139.48 119.057 139.537 119.213C139.638 119.491 139.488 119.742 139.193 119.798C139.078 119.819 138.959 119.82 138.842 119.82C138.114 119.822 137.384 119.805 136.657 119.827C136.169 119.841 135.868 119.625 135.657 119.191C135.148 118.139 134.621 117.095 134.1 116.049C133.952 115.754 133.798 115.462 133.64 115.155ZM131.858 112.16C131.971 112.204 132.036 112.251 132.102 112.252C132.758 112.258 133.413 112.264 134.069 112.253C134.256 112.25 134.444 112.209 134.623 112.155C134.947 112.057 135.215 111.861 135.386 111.558C135.81 110.813 135.644 109.286 134.303 109.131C134.118 109.109 133.933 109.072 133.747 109.069C133.253 109.06 132.762 109.06 132.27 109.07C132.137 109.072 132.005 109.123 131.858 109.155C131.858 110.161 131.858 111.138 131.858 112.16Z" fill="#FCFCFC"/>
<path d="M64.2273 115.145C63.7395 115.145 63.2965 115.142 62.8516 115.147C62.7385 115.148 62.6253 115.174 62.479 115.192C62.4653 115.396 62.4419 115.582 62.4419 115.768C62.438 116.726 62.4399 117.685 62.4399 118.643C62.4399 118.787 62.4419 118.931 62.4399 119.074C62.4224 119.703 62.317 119.814 61.6828 119.821C60.9784 119.828 60.274 119.825 59.5695 119.821C59.431 119.82 59.2866 119.811 59.1539 119.772C59.0153 119.731 58.908 119.626 58.8885 119.467C58.871 119.326 58.8632 119.182 58.8632 119.039C58.8632 115.061 58.8632 111.085 58.8632 107.107C58.8632 106.964 58.8612 106.819 58.8807 106.677C58.908 106.472 59.0446 106.337 59.2514 106.307C59.3666 106.29 59.4856 106.292 59.6027 106.292C61.3628 106.291 63.1248 106.28 64.8849 106.297C65.806 106.305 66.7055 106.471 67.5504 106.876C69.0042 107.573 69.7594 108.763 69.8647 110.377C69.9369 111.511 69.7027 112.576 68.9281 113.445C68.6783 113.725 68.3719 113.953 68.0831 114.195C67.9426 114.314 67.7846 114.412 67.6031 114.54C67.8763 115.048 68.13 115.528 68.3895 116.007C68.9222 116.992 69.4608 117.974 69.9896 118.96C70.2882 119.515 70.1164 119.809 69.4803 119.819C68.7056 119.832 67.931 119.815 67.1563 119.825C66.7621 119.83 66.4792 119.667 66.2977 119.316C66.1552 119.041 66.0206 118.762 65.8821 118.484C65.3416 117.396 64.803 116.307 64.2273 115.145ZM62.4575 112.17C63.0409 112.285 64.5883 112.291 65.0313 112.193C65.0527 112.188 65.0781 112.185 65.0996 112.18C65.7104 112.026 66.0713 111.605 66.126 110.973C66.1396 110.807 66.1396 110.638 66.1279 110.472C66.085 109.83 65.6986 109.336 65.0937 109.176C64.8479 109.11 64.5864 109.082 64.3307 109.073C63.839 109.057 63.3453 109.062 62.8536 109.073C62.7248 109.076 62.596 109.132 62.4575 109.167C62.4575 110.178 62.4575 111.155 62.4575 112.17Z" fill="#FCFCFC"/>
<path d="M77.0885 98.2456C76.5148 98.2456 75.9548 98.2456 75.3538 98.2456C75.3362 98.4096 75.3031 98.5686 75.3011 98.7277C75.2972 99.8545 75.3031 100.98 75.2972 102.107C75.2933 102.84 75.1996 102.935 74.4855 102.941C73.8279 102.947 73.1703 102.944 72.5127 102.941C72.3741 102.94 72.2297 102.937 72.0951 102.906C71.896 102.86 71.7595 102.732 71.7438 102.511C71.7321 102.344 71.7302 102.176 71.7302 102.008C71.7302 98.1248 71.7302 94.2423 71.7302 90.3593C71.7302 90.2873 71.7282 90.2153 71.7302 90.1435C71.7438 89.5045 71.8297 89.411 72.4834 89.4088C74.1967 89.4037 75.9119 89.408 77.6271 89.4067C78.3822 89.4067 79.1257 89.511 79.8438 89.7499C81.5532 90.3169 82.7239 91.6536 82.7278 93.7128C82.7298 94.0927 82.6947 94.4783 82.6264 94.8517C82.439 95.8706 81.8732 96.6426 81.0575 97.2355C80.8877 97.3599 80.7043 97.4679 80.4975 97.6031C80.5638 97.7614 80.6145 97.9161 80.6906 98.0563C81.3365 99.2514 81.9863 100.444 82.6342 101.638C82.7474 101.847 82.8683 102.055 82.9601 102.275C83.0908 102.583 82.9425 102.855 82.6205 102.921C82.5288 102.939 82.4332 102.941 82.3415 102.941C81.5883 102.942 80.837 102.934 80.0857 102.945C79.6389 102.951 79.3365 102.768 79.1335 102.351C78.552 101.15 77.951 99.9565 77.3578 98.7608C77.2758 98.5924 77.1822 98.4268 77.0885 98.2456ZM75.3167 95.3454C76.1441 95.3454 76.8934 95.3713 77.6408 95.3381C78.3257 95.3079 78.7784 94.9345 78.9559 94.3467C79.3052 93.1783 78.6262 92.2257 77.4202 92.2041C76.8602 92.1939 76.2982 92.1998 75.7362 92.2047C75.6035 92.2063 75.4709 92.2327 75.2952 92.2529C75.303 93.2875 75.2777 94.2819 75.3167 95.3454Z" fill="#FCFCFD"/>
<path d="M97.8622 96.5027C97.8212 97.1048 97.8134 97.9949 97.6885 98.8682C97.351 101.23 95.786 102.522 93.7156 102.951C92.5292 103.198 91.3331 103.195 90.1467 102.956C88.8354 102.692 87.7192 102.094 86.9172 100.957C86.4958 100.358 86.2753 99.6791 86.1426 98.9718C86.0567 98.5042 86.0196 98.0215 86.0079 97.5451C85.9884 96.6351 86.004 95.7234 86.0021 94.8126C86.0021 94.0644 86.1094 93.3353 86.3396 92.6232C86.7533 91.3438 87.5885 90.4453 88.7554 89.861C89.655 89.4113 90.6189 89.2236 91.616 89.1955C92.7068 89.1653 93.7703 89.2962 94.785 89.7316C96.3792 90.4151 97.3314 91.6331 97.6846 93.3526C97.8778 94.3009 97.7939 95.2629 97.8622 96.5027ZM94.1879 96.191C94.1742 96.1904 94.1586 96.1889 94.1449 96.1883C94.1449 95.9011 94.1586 95.6132 94.141 95.3277C94.1137 94.852 94.0981 94.3715 94.022 93.9031C93.8952 93.121 93.4932 92.5267 92.7341 92.2533C92.3302 92.1079 91.9029 92.1109 91.4814 92.1699C90.7204 92.277 90.1896 92.6952 89.9301 93.4418C89.7642 93.9182 89.7018 94.4139 89.7037 94.9191C89.7057 95.7313 89.694 96.5437 89.7076 97.3559C89.7135 97.7128 89.733 98.0755 89.8032 98.4228C90.0491 99.6087 90.6618 100.112 91.7838 100.196C92.4844 100.249 93.1361 100.053 93.5966 99.4468C93.8288 99.1387 93.9888 98.7876 94.024 98.402C94.0942 97.666 94.1352 96.9279 94.1879 96.191Z" fill="#FBFBFC"/>
<path d="M150.515 110.334C150.115 110.334 149.717 110.335 149.317 110.334C148.958 110.334 148.673 110.203 148.521 109.854C148.386 109.547 148.14 109.375 147.855 109.245C147.201 108.947 146.534 108.941 145.867 109.189C145.455 109.342 145.211 109.649 145.201 110.109C145.192 110.542 145.418 110.847 145.793 111.005C146.224 111.187 146.667 111.352 147.12 111.468C148.076 111.714 149.055 111.853 149.99 112.184C150.64 112.414 151.254 112.697 151.766 113.178C152.156 113.543 152.451 113.967 152.579 114.497C153.075 116.561 152.419 118.1 150.837 119.079C150.041 119.573 149.157 119.806 148.245 119.943C147.094 120.117 145.949 120.049 144.817 119.791C143.765 119.552 142.823 119.096 142.075 118.273C141.597 117.747 141.314 117.126 141.203 116.424C141.123 115.925 141.293 115.723 141.802 115.681C141.919 115.671 142.036 115.678 142.155 115.678C142.743 115.678 143.33 115.69 143.917 115.674C144.323 115.664 144.653 115.78 144.891 116.131C145.346 116.8 146.005 117.049 146.77 117.08C147.219 117.098 147.664 117.079 148.095 116.941C148.271 116.884 148.45 116.808 148.605 116.706C149.204 116.31 149.221 115.562 148.634 115.16C148.421 115.015 148.179 114.899 147.933 114.83C147.28 114.644 146.616 114.484 145.955 114.326C144.993 114.096 144.046 113.833 143.184 113.314C142.099 112.659 141.568 111.693 141.533 110.414C141.488 108.785 142.2 107.62 143.578 106.841C144.138 106.523 144.739 106.326 145.369 106.223C146.757 105.998 148.124 106.036 149.453 106.563C150.302 106.9 151.028 107.412 151.6 108.14C151.93 108.558 152.162 109.027 152.259 109.554C152.361 110.093 152.177 110.312 151.641 110.336C151.617 110.337 151.594 110.337 151.571 110.337C151.219 110.337 150.866 110.337 150.513 110.337L150.515 110.334Z" fill="#FBFBFC"/>
<path d="M71.7302 111.145C71.7302 109.756 71.7263 108.366 71.7322 106.976C71.7341 106.284 71.82 106.199 72.5088 106.194C73.1898 106.188 73.8708 106.19 74.5518 106.194C74.6904 106.195 74.8328 106.205 74.9675 106.238C75.1392 106.282 75.2602 106.401 75.2777 106.588C75.2972 106.802 75.2992 107.018 75.2992 107.233C75.3011 109.629 75.2992 112.025 75.3031 114.421C75.3031 114.682 75.3246 114.947 75.3656 115.205C75.5665 116.441 76.4017 116.909 77.4515 116.915C77.7715 116.917 78.1091 116.841 78.4096 116.721C79.0516 116.464 79.397 115.933 79.5082 115.251C79.5531 114.97 79.5531 114.679 79.5531 114.391C79.557 112.019 79.5726 109.648 79.5472 107.276C79.5355 106.102 79.8712 106.177 80.6458 106.19C81.1844 106.199 81.7249 106.192 82.2654 106.192C82.4059 106.192 82.5484 106.184 82.6889 106.201C82.9796 106.236 83.1416 106.414 83.1689 106.724C83.1806 106.866 83.1728 107.011 83.1728 107.155C83.1728 109.647 83.1786 112.138 83.1669 114.63C83.165 115.058 83.1142 115.489 83.0499 115.913C82.7454 117.916 81.5415 119.104 79.6916 119.64C78.2184 120.066 76.7178 120.049 75.2387 119.646C74.1694 119.355 73.2503 118.804 72.5888 117.865C72.1127 117.185 71.8746 116.416 71.7751 115.598C71.7341 115.266 71.7322 114.929 71.7322 114.594C71.7263 113.446 71.7302 112.296 71.7302 111.145Z" fill="#FBFBFB"/>
<path d="M118.462 109.318C118.382 110.031 118.451 110.768 118.427 111.464C118.601 111.69 118.802 111.625 118.982 111.626C120.509 111.631 122.035 111.627 123.563 111.63C124.414 111.63 124.486 111.705 124.488 112.573C124.49 112.956 124.496 113.341 124.488 113.723C124.475 114.265 124.305 114.441 123.756 114.445C122.558 114.454 121.358 114.448 120.16 114.448C119.739 114.448 119.315 114.445 118.892 114.45C118.757 114.452 118.622 114.474 118.441 114.493C118.416 115.285 118.425 116.04 118.437 116.75C118.673 116.959 118.894 116.896 119.099 116.896C120.744 116.901 122.389 116.899 124.034 116.9C124.221 116.9 124.41 116.894 124.595 116.914C124.875 116.944 125.017 117.093 125.038 117.38C125.056 117.618 125.046 117.859 125.046 118.099C125.048 118.482 125.056 118.866 125.044 119.249C125.031 119.657 124.892 119.791 124.48 119.818C124.34 119.828 124.199 119.821 124.059 119.821C121.356 119.821 118.654 119.821 115.953 119.821C115.787 119.821 115.621 119.829 115.459 119.813C115.19 119.787 115.034 119.64 114.989 119.363C114.964 119.199 114.964 119.029 114.964 118.862C114.964 115.122 114.962 111.381 114.966 107.642C114.966 107.331 114.979 107.018 115.013 106.709C115.038 106.458 115.184 106.322 115.428 106.297C115.59 106.281 115.756 106.29 115.92 106.29C118.599 106.29 121.278 106.289 123.955 106.29C124.119 106.29 124.285 106.282 124.449 106.301C124.707 106.332 124.888 106.505 124.892 106.775C124.908 107.446 124.904 108.117 124.89 108.788C124.884 108.996 124.734 109.142 124.529 109.171C124.344 109.198 124.154 109.196 123.967 109.196C122.369 109.198 120.771 109.194 119.173 109.201C118.944 109.201 118.701 109.13 118.462 109.318Z" fill="#FBFBFC"/>
<path d="M62.4088 98.1989C62.3971 98.4515 62.3795 98.6608 62.3776 98.8702C62.3756 99.9256 62.3795 100.98 62.3756 102.036C62.3717 102.84 62.2722 102.937 61.476 102.94C60.8887 102.943 60.3013 102.942 59.714 102.94C59.5735 102.94 59.4291 102.945 59.2925 102.922C59.0213 102.877 58.8827 102.725 58.8496 102.441C58.8301 102.276 58.8359 102.106 58.834 101.939C58.834 98.1018 58.834 94.264 58.834 90.4271C58.834 90.3069 58.8281 90.1866 58.8359 90.0672C58.8691 89.5513 59.0154 89.409 59.5403 89.3758C59.6808 89.3672 59.8213 89.3744 59.9638 89.3744C62.5005 89.3744 65.0392 89.3729 67.5778 89.3766C67.812 89.3766 68.0481 89.3882 68.2764 89.4313C68.4774 89.4686 68.614 89.6212 68.6179 89.8363C68.6277 90.5557 68.6316 91.2754 68.6179 91.994C68.612 92.2509 68.4189 92.4251 68.1593 92.4545C67.9954 92.4726 67.8295 92.4645 67.6656 92.4645C66.1631 92.4653 64.6567 92.4645 63.1542 92.4653C62.922 92.4653 62.6917 92.471 62.4712 92.4747C62.3561 93.0272 62.3366 94.1346 62.4244 95.0354C62.5746 95.0505 62.7327 95.0792 62.8908 95.0792C64.3718 95.0829 65.8529 95.0792 67.332 95.0821C68.1652 95.0835 68.2471 95.17 68.251 96.042C68.253 96.5694 68.2589 97.0974 68.2413 97.6248C68.2296 97.9974 68.0852 98.1349 67.7203 98.1694C67.5583 98.1853 67.3925 98.1751 67.2266 98.1751C65.8646 98.1751 64.5006 98.1738 63.1386 98.1767C62.9083 98.1738 62.68 98.1889 62.4088 98.1989Z" fill="#FCFCFC"/>
<path d="M118.825 92.5941C118.103 92.5941 117.471 92.5941 116.839 92.5941C116.416 92.5941 115.992 92.6041 115.571 92.5898C115.184 92.5769 114.985 92.407 114.975 92.0271C114.956 91.3328 114.96 90.6371 114.987 89.9428C115.001 89.5831 115.171 89.437 115.524 89.3917C115.686 89.3709 115.852 89.3758 116.015 89.3758C119.116 89.3752 122.217 89.3752 125.317 89.3752C125.46 89.3752 125.602 89.3644 125.741 89.3801C126.071 89.4176 126.25 89.5982 126.272 89.9399C126.289 90.2264 126.278 90.5149 126.278 90.8027C126.278 91.1861 126.285 91.5703 126.274 91.9532C126.262 92.3876 126.092 92.5653 125.68 92.589C125.446 92.6028 125.212 92.5928 124.976 92.5928C124.18 92.5928 123.384 92.5928 122.607 92.5928C122.42 92.805 122.488 93.0301 122.488 93.2345C122.482 96.0628 122.484 98.8918 122.484 101.72C122.484 101.911 122.494 102.104 122.478 102.295C122.449 102.674 122.299 102.955 121.809 102.946C121.034 102.933 120.258 102.943 119.483 102.943C119.436 102.943 119.389 102.944 119.343 102.939C118.985 102.899 118.849 102.757 118.829 102.387C118.82 102.196 118.825 102.004 118.825 101.812C118.825 99.0077 118.825 96.2032 118.825 93.3985C118.825 93.1633 118.825 92.9274 118.825 92.5941Z" fill="#FBFBFC"/>
<path d="M99.6613 60.092C99.714 59.8451 99.7081 59.5991 99.8252 59.3487C99.9833 59.0098 100.02 58.6126 100.108 58.2399C100.223 57.7514 100.333 57.2622 100.448 56.7736C100.502 56.5342 100.649 56.4024 100.896 56.401C101.318 56.3996 101.741 56.3902 102.165 56.4018C102.469 56.4096 102.547 56.4751 102.635 56.8227C102.83 57.6111 103.006 58.4041 103.197 59.1941C103.291 59.5846 103.398 59.9726 103.541 60.5165C103.786 59.4603 103.995 58.5645 104.206 57.6688C104.282 57.3428 104.364 57.0182 104.45 56.6952C104.499 56.511 104.629 56.4269 104.809 56.4031C105.109 56.3627 106.518 56.4131 106.836 56.4779C106.959 56.665 106.869 56.8529 106.815 57.0268C106.085 59.3508 105.347 61.6727 104.61 63.9937C104.559 64.1492 104.477 64.2938 104.405 64.4607C103.829 64.5125 103.275 64.5399 102.686 64.4434C102.249 63.0599 101.97 61.654 101.57 60.1948C101.486 60.3941 101.408 60.528 101.371 60.6726C101.078 61.7813 100.797 62.893 100.504 64.0017C100.385 64.4534 100.333 64.5017 99.872 64.4952C99.4544 64.4895 99.0291 64.568 98.6056 64.427C98.5607 64.3434 98.5003 64.2657 98.4729 64.1773C97.6963 61.6676 96.9236 59.1572 96.1528 56.6456C96.1411 56.6075 96.1723 56.5563 96.1918 56.4743C96.2582 56.4528 96.3421 56.4031 96.426 56.4024C96.9899 56.3953 97.5539 56.391 98.1159 56.401C98.4866 56.4075 98.5744 56.4736 98.6661 56.8284C98.8613 57.5925 99.0408 58.3602 99.2281 59.1265C99.3061 59.4458 99.3823 59.766 99.4603 60.0855C99.4564 60.1552 99.4349 60.2279 99.4486 60.2934C99.4681 60.3833 99.511 60.4682 99.5481 60.5531C99.5637 60.5912 99.591 60.6243 99.6281 60.6826C99.6398 60.4639 99.6515 60.2783 99.6613 60.092Z" fill="#F9F8FA"/>
<path d="M74.0463 56.645C73.9097 56.4226 73.82 56.2608 73.7165 56.1082C73.3555 55.5751 72.4286 55.3721 71.8842 55.7032C71.3515 56.0283 71.2501 56.8521 71.7711 57.2191C71.9447 57.3407 72.1281 57.4529 72.3174 57.5399C72.6179 57.6774 72.9302 57.7847 73.2326 57.915C73.5995 58.0724 73.9702 58.2235 74.3254 58.407C76.2396 59.3969 76.4094 61.3288 75.8767 62.8197C75.5664 63.6887 74.9146 64.2342 74.06 64.4874C73.0258 64.7939 71.9681 64.7988 70.93 64.5082C70.0441 64.2601 69.4295 63.6434 68.9807 62.8463C68.8343 62.5865 68.889 62.3901 69.1524 62.2513C69.691 61.9677 70.2178 61.6533 70.8266 61.4273C70.934 61.6009 71.0315 61.7584 71.1291 61.9159C71.3301 62.2426 71.615 62.4405 71.9955 62.4476C72.3233 62.4541 72.655 62.4578 72.977 62.408C73.3594 62.3483 73.5995 62.0844 73.6892 61.7007C73.7712 61.3432 73.6736 61.0123 73.3926 60.7963C73.1175 60.5828 72.8014 60.4137 72.4852 60.2633C72.0598 60.0618 71.6169 59.9043 71.1857 59.7143C70.971 59.6193 70.7642 59.5028 70.5612 59.3848C69.5075 58.7724 68.9787 57.8336 68.9826 56.6089C68.9865 54.7721 70.1378 53.6798 71.494 53.4404C72.2472 53.3072 72.9848 53.295 73.7263 53.4727C74.6766 53.7008 75.3478 54.3067 75.8415 55.1355C76.0347 55.4607 75.9937 55.6074 75.6854 55.7773C75.1683 56.0593 74.6454 56.3284 74.0463 56.645Z" fill="#FAF9FA"/>
<path d="M104.327 69.9538C104.327 68.8776 104.327 67.8991 104.327 66.9061C104.43 66.8565 104.508 66.791 104.594 66.7824C105.195 66.7206 106.243 66.7694 106.614 66.8651C106.63 66.8832 106.645 66.8996 106.657 66.9198C106.671 66.94 106.686 66.963 106.686 66.9854C106.694 70.4381 106.7 73.8902 106.704 77.3431C106.704 77.4365 106.68 77.5301 106.671 77.6144C106.243 77.7943 105.818 77.8172 104.834 77.7136C104.776 77.5899 104.709 77.4497 104.639 77.3006C104.547 77.3251 104.473 77.3281 104.419 77.3626C103.613 77.8711 102.754 77.8207 101.898 77.5813C100.826 77.282 100.169 76.558 99.956 75.4385C99.8994 75.1343 99.8682 74.8205 99.8604 74.5104C99.8448 73.9593 99.8428 73.4068 99.8584 72.8564C99.8838 71.993 100.083 71.1842 100.738 70.5799C101.656 69.733 102.7 69.3919 103.915 69.8295C104.021 69.8675 104.132 69.8956 104.327 69.9538ZM104.313 73.7219C104.313 73.3881 104.313 73.0541 104.313 72.7197C104.313 72.696 104.315 72.6722 104.313 72.6483C104.272 72.1044 103.954 71.7692 103.429 71.7137C102.729 71.6396 102.266 72.0397 102.237 72.7844C102.214 73.3801 102.229 73.9773 102.233 74.5737C102.235 74.691 102.255 74.8113 102.284 74.9248C102.419 75.432 102.906 75.7796 103.384 75.7156C103.937 75.6407 104.28 75.2839 104.311 74.7234C104.329 74.3904 104.313 74.0558 104.313 73.7219Z" fill="#FAF9FA"/>
<path d="M99.2809 77.6604C99.1014 77.7065 98.994 77.7569 98.8867 77.7583C98.3247 77.7669 97.7608 77.7699 97.1988 77.7605C96.8124 77.754 96.7246 77.6769 96.6017 77.287C96.4671 76.8588 96.3402 76.4271 96.2017 75.9711C95.3704 75.9172 94.5782 75.9539 93.8113 75.9452C93.5381 76.1696 93.5323 76.477 93.4484 76.7417C93.064 77.9533 93.1674 77.7446 92.1156 77.7626C91.7624 77.7683 91.4112 77.7734 91.0599 77.7575C90.9331 77.7518 90.8082 77.6834 90.6482 77.6324C90.7165 77.3633 90.7653 77.1344 90.8355 76.9122C91.819 73.796 92.8025 70.6793 93.7938 67.566C94.0513 66.7617 93.9772 66.7631 94.867 66.7709C95.9519 66.7811 95.8134 66.6617 96.1587 67.7488C97.1364 70.8173 98.1081 73.8874 99.0818 76.9567C99.1462 77.1597 99.197 77.3662 99.2809 77.6604ZM94.9275 70.734C94.7967 71.8951 94.3791 72.865 94.2699 73.9364C94.7694 74.04 95.2104 74.1206 95.6611 73.8745C95.4211 72.8463 95.1889 71.8535 94.9275 70.734Z" fill="#FAF9FA"/>
<path d="M114.111 64.4115C113.984 64.443 113.875 64.4905 113.764 64.4942C113.436 64.505 113.108 64.4999 112.778 64.4978C112.271 64.4948 112.271 64.4942 111.849 64.102C111.028 64.6409 110.113 64.5725 109.209 64.4093C108.081 64.2049 107.35 63.248 107.404 62.1859C107.422 61.8537 107.416 61.5083 107.51 61.1953C107.679 60.6174 108.077 60.2146 108.618 59.9671C109.026 59.78 109.451 59.6497 109.906 59.6513C110.329 59.6527 110.751 59.6548 111.172 59.6484C111.332 59.6462 111.492 59.6203 111.629 59.6074C111.806 59.3347 111.691 59.1166 111.594 58.9015C111.498 58.6944 111.326 58.5714 111.12 58.5C110.612 58.3266 110.058 58.5065 109.748 58.9511C109.64 59.1053 109.555 59.2735 109.439 59.4642C108.817 59.28 108.294 58.9123 107.728 58.6447C107.631 58.5986 107.558 58.4951 107.449 58.3929C107.722 57.5921 108.255 57.0417 108.948 56.651C109.691 56.2323 110.503 56.1372 111.336 56.2545C111.637 56.297 111.937 56.3696 112.22 56.4782C113.367 56.9172 113.953 57.8086 114.121 59.016C114.15 59.2282 114.152 59.4456 114.154 59.6605C114.156 61.0968 114.156 62.5329 114.152 63.969C114.152 64.1092 114.126 64.2481 114.111 64.4115ZM111.656 61.3694C111.106 61.3449 110.554 61.3182 109.999 61.3888C109.902 61.401 109.789 61.5018 109.732 61.5938C109.463 62.0371 109.722 62.5415 110.224 62.5696C110.364 62.5774 110.505 62.5658 110.647 62.5723C110.94 62.586 111.209 62.5313 111.418 62.3032C111.617 62.0845 111.744 61.8386 111.656 61.3694Z" fill="#F9F9FA"/>
<path d="M134.319 74.147C134.12 74.3362 133.899 74.2823 133.693 74.2831C132.658 74.2874 131.624 74.2831 130.592 74.2866C130.385 74.2874 130.182 74.3117 129.989 74.3247C129.835 75.1794 130.057 75.6348 130.682 75.7602C131.183 75.8608 131.616 75.7249 131.923 75.2838C132.03 75.1298 132.11 74.9572 132.196 74.8076C132.264 74.7925 132.321 74.7593 132.354 74.7752C132.9 75.0443 133.453 75.3083 133.989 75.5982C134.231 75.7292 134.258 75.8875 134.118 76.1401C133.611 77.0668 132.863 77.6805 131.837 77.91C131.21 78.051 130.578 78.0553 129.952 77.8998C128.557 77.5546 127.556 76.6128 127.487 74.9039C127.454 74.114 127.458 73.3211 127.487 72.5303C127.534 71.1985 128.215 70.2539 129.378 69.7352C130.588 69.1956 131.817 69.2552 132.949 70.0021C133.86 70.6029 134.331 71.4849 134.35 72.5944C134.36 73.1196 134.397 73.647 134.319 74.147ZM129.96 72.603C130.857 72.6993 131.626 72.6777 132.075 72.5475C132.141 72.2461 132.069 71.9748 131.86 71.7591C131.618 71.508 131.306 71.4317 130.963 71.4252C130.426 71.4158 129.763 71.8771 129.96 72.603Z" fill="#F8F8F9"/>
<path d="M123.243 61.0604C123.224 61.243 123.216 61.336 123.202 61.4279C123.134 61.9359 123.456 62.3404 123.87 62.4828C124.33 62.6402 124.836 62.5165 125.15 62.1344C125.296 61.954 125.405 61.7424 125.55 61.5201C125.696 61.5698 125.831 61.5986 125.952 61.6582C126.352 61.8567 126.75 62.0619 127.144 62.2741C127.519 62.4771 127.558 62.6332 127.343 63.0188C126.84 63.9332 126.069 64.4729 125.074 64.6787C124.35 64.8283 123.632 64.7801 122.919 64.5614C121.52 64.1326 120.765 62.8217 120.804 61.669C120.83 60.9035 120.816 60.1358 120.806 59.3695C120.794 58.3026 121.245 57.4888 122.067 56.8563C123.157 56.0174 124.937 55.9425 126.131 56.6837C127.004 57.2262 127.53 58.0176 127.644 59.063C127.688 59.4658 127.675 59.8759 127.677 60.2825C127.679 60.4947 127.663 60.707 127.653 60.9582C127.472 60.989 127.318 61.0367 127.164 61.0373C126.106 61.0437 125.05 61.0394 123.995 61.0416C123.764 61.0424 123.532 61.0531 123.243 61.0604ZM125.384 59.3444C125.364 58.5277 124.947 58.14 124.198 58.1902C123.879 58.2119 123.6 58.3198 123.407 58.5795C123.232 58.8141 123.148 59.0789 123.273 59.3674C123.858 59.4898 124.824 59.4825 125.384 59.3444Z" fill="#FAFAFB"/>
<path d="M83.844 60.4915C83.8147 61.0275 83.8108 61.5563 83.7484 62.0772C83.6118 63.237 82.9523 64.0011 81.9103 64.4126C80.9346 64.7984 79.9336 64.7947 78.9443 64.4458C77.7598 64.0278 77.0105 63.0183 76.9637 61.7448C76.9344 60.9073 76.9363 60.0669 76.9617 59.2288C77.0007 57.8884 77.7696 56.8711 79.0262 56.4459C79.9726 56.1256 80.9229 56.1205 81.8556 56.481C82.9288 56.8954 83.606 57.669 83.7484 58.854C83.8148 59.3979 83.8147 59.9504 83.844 60.4915ZM79.3423 60.4748C79.3423 60.8089 79.3423 61.1433 79.3423 61.4771C79.3423 61.5247 79.3443 61.5728 79.3482 61.6203C79.4087 62.1808 79.7677 62.5284 80.318 62.5586C80.9424 62.5931 81.4029 62.201 81.4322 61.542C81.4654 60.8275 81.4595 60.1094 81.4341 59.3943C81.4127 58.7597 80.9931 58.3517 80.4175 58.3401C79.7209 58.3266 79.3208 58.8683 79.3404 59.4008C79.354 59.759 79.3423 60.1173 79.3423 60.4748Z" fill="#FBFBFB"/>
<path d="M126.732 71.8409C126.145 72.2367 125.483 72.4619 124.81 72.7606C124.711 72.6166 124.625 72.4813 124.529 72.3548C124.387 72.1669 124.262 71.9525 124.084 71.8064C123.768 71.5475 123.397 71.5136 123.023 71.6856C122.667 71.8496 122.488 72.1389 122.488 72.5374C122.486 73.3037 122.502 74.0708 122.484 74.8371C122.466 75.6018 123.343 76.0882 124.014 75.6212C124.184 75.5039 124.32 75.327 124.447 75.1585C124.558 75.0097 124.634 74.8333 124.722 74.678C125.247 74.7441 126.153 75.1558 126.691 75.5637C126.504 76.5113 125.754 77.4164 124.833 77.7171C123.77 78.0638 122.707 78.0372 121.678 77.548C120.857 77.1573 120.359 76.4881 120.15 75.6026C120.07 75.2564 120.043 74.8924 120.029 74.5354C120.012 73.9851 120.014 73.4333 120.029 72.8828C120.039 72.5498 120.066 72.2116 120.135 71.8864C120.379 70.7294 121.079 69.9796 122.176 69.635C123.001 69.3753 123.844 69.3818 124.679 69.6134C125.392 69.8121 125.918 70.2762 126.318 70.895C126.496 71.1719 126.677 71.4518 126.732 71.8409Z" fill="#F8F8F9"/>
<path d="M89.2764 59.359C89.0344 59.359 88.8257 59.3553 88.6169 59.3596C88.412 59.3639 88.2051 59.3763 87.969 59.3863C87.889 59.8482 87.9358 60.2763 87.928 60.7002C87.9202 61.1066 87.9261 61.5139 87.9261 61.9203C87.9261 62.3514 87.9339 62.7823 87.9241 63.2127C87.9144 63.6126 87.9729 64.0178 87.8714 64.4473C87.1065 64.5595 86.365 64.4711 85.6586 64.4969C85.4616 64.2408 85.5123 63.9933 85.5123 63.7595C85.5084 62.5629 85.5103 61.3665 85.5084 60.1691C85.5084 59.9331 85.4986 59.6972 85.4928 59.4316C85.2645 59.3849 85.0654 59.3445 84.8449 59.2992C84.8176 59.1755 84.7708 59.0625 84.7727 58.9503C84.7786 58.3813 84.7279 57.81 84.8137 57.2149C85.0303 57.1682 85.2293 57.1257 85.4616 57.0753C85.4947 56.7781 85.524 56.4982 85.5572 56.2191C85.7367 54.7348 86.5914 53.7751 88.0158 53.457C88.8588 53.2685 89.4715 53.2901 90.3321 53.5492C90.4218 53.9103 90.1974 54.2211 90.1174 54.5557C90.0335 54.9011 89.9262 55.2398 89.8267 55.5903C89.6003 55.5903 89.4169 55.5874 89.2354 55.5911C89.0247 55.5954 88.812 55.5795 88.6071 55.6184C88.2383 55.6882 87.9827 55.9759 87.9456 56.3566C87.9222 56.5869 87.9495 56.8228 87.9534 57.0523C88.4178 57.2639 88.8842 57.0394 89.2959 57.2157C89.4091 57.7739 89.4091 58.7194 89.2764 59.359Z" fill="#F9F8FA"/>
<path d="M115.567 69.7055C115.68 69.9285 115.565 70.1215 115.487 70.3187C114.95 71.672 114.413 73.0261 113.875 74.3794C113.541 75.2226 113.208 76.0652 112.872 76.9078C112.802 77.0855 112.722 77.2588 112.653 77.4373C112.564 77.6682 112.392 77.7639 112.158 77.7631C111.783 77.7625 111.406 77.7588 111.03 77.7647C110.755 77.769 110.612 77.6272 110.513 77.3724C110.134 76.3933 109.734 75.4219 109.348 74.4449C108.794 73.0461 108.245 71.6469 107.697 70.2459C107.638 70.0955 107.601 69.9366 107.539 69.7314C107.677 69.6883 107.781 69.6314 107.884 69.6293C108.448 69.62 109.014 69.6373 109.576 69.6192C109.916 69.6085 110.085 69.7567 110.195 70.0747C110.647 71.3835 111.12 72.6858 111.6 74.0305C111.67 73.8844 111.752 73.7541 111.799 73.6123C112.185 72.482 112.564 71.3495 112.946 70.2186C112.985 70.1057 113.012 69.9784 113.083 69.8897C113.167 69.7862 113.28 69.6812 113.401 69.6422C113.625 69.571 115.266 69.6438 115.567 69.7055Z" fill="#F8F8F9"/>
<path d="M94.0358 56.3421C94.5138 56.4752 94.9724 56.3032 95.4446 56.4896C95.4505 57.1739 95.4837 57.8574 95.4154 58.5854C94.949 58.6078 94.5119 58.6286 94.0358 58.6509C94.0143 58.8128 93.9811 58.9481 93.9811 59.0826C93.9753 59.8007 93.9772 60.5187 93.9792 61.2376C93.9792 61.357 93.9811 61.4778 93.9987 61.5951C94.0826 62.1341 94.348 62.3857 94.8827 62.4391C95.0427 62.455 95.2007 62.4636 95.3471 62.475C95.4797 63.0045 95.4934 63.8895 95.3841 64.6005C95.2397 64.6234 95.0817 64.6724 94.9256 64.6681C94.5763 64.6571 94.2251 64.635 93.8777 64.5903C92.6718 64.4341 91.8171 63.4313 91.6435 62.1606C91.6083 61.9009 91.6103 61.6353 91.6083 61.3727C91.6044 60.6784 91.6103 59.9841 91.6064 59.2897C91.6044 59.1034 91.581 58.9165 91.5654 58.7192C91.1966 58.5178 90.7985 58.7006 90.4083 58.5595C90.3185 58.1416 90.377 57.717 90.3712 57.2645C91.0444 56.5753 91.7176 55.8766 92.4064 55.1937C92.5137 55.0858 92.6893 54.9987 92.8357 54.9909C93.1811 54.9723 93.5343 54.9348 93.8933 55.0262C94.0768 55.4442 93.8953 55.8923 94.0358 56.3421Z" fill="#F8F8F9"/>
<path d="M119.92 58.7891C119.629 58.7624 119.422 58.7479 119.216 58.7242C118.488 58.6416 118.002 59.1127 118.006 59.8631C118.012 61.0352 118.01 62.2073 118.006 63.3794C118.006 63.7319 118.029 64.0867 117.975 64.478C117.19 64.509 116.451 64.5276 115.756 64.4736C115.695 64.4062 115.676 64.3909 115.664 64.3715C115.652 64.3515 115.641 64.3269 115.641 64.3046C115.633 61.9137 115.625 59.5229 115.619 57.1314C115.617 56.9421 115.619 56.7521 115.619 56.5328C115.771 56.4824 115.898 56.4047 116.023 56.4069C116.532 56.4155 117.046 56.3449 117.578 56.4557C117.625 56.6558 117.666 56.8348 117.707 57.0104C117.766 57.0104 117.826 57.0292 117.848 57.0076C118.218 56.6364 118.677 56.4808 119.177 56.4169C119.458 56.381 119.475 56.3881 119.934 56.5946C119.979 57.2875 119.984 57.994 119.92 58.7891Z" fill="#F9F8FA"/>
<path d="M116.507 69.7334C117.083 69.5939 118.215 69.588 118.812 69.7112C118.829 69.7903 118.864 69.8803 118.864 69.9701C118.866 72.5316 118.866 75.0921 118.866 77.678C118.689 77.7119 118.556 77.758 118.423 77.7601C117.906 77.7688 117.391 77.7701 116.874 77.7601C116.579 77.7543 116.493 77.6593 116.476 77.3794C116.47 77.2837 116.474 77.188 116.474 77.0917C116.474 74.8152 116.472 72.5387 116.476 70.2624C116.476 70.0982 116.495 69.9327 116.507 69.7334Z" fill="#F8F8F9"/>
<path d="M117.635 68.7186C116.958 68.7021 116.455 68.158 116.472 67.461C116.49 66.7651 117.009 66.2738 117.698 66.2571C118.269 66.2436 118.888 66.7255 118.915 67.4869C118.939 68.1769 118.338 68.7358 117.635 68.7186Z" fill="#F8F8F9"/>
<path d="M99.6615 60.0886C99.6498 60.2743 99.64 60.4607 99.6283 60.6786C99.5912 60.6211 99.562 60.5872 99.5464 60.5491C99.5093 60.4642 99.4683 60.3793 99.4488 60.2894C99.4351 60.2239 99.4546 60.1512 99.4605 60.0815C99.5268 60.0843 99.5932 60.0864 99.6615 60.0886Z" fill="#443E60"/>
<path d="M131.854 112.159C131.854 111.137 131.854 110.16 131.854 109.154C132.003 109.122 132.133 109.071 132.266 109.068C132.758 109.058 133.25 109.059 133.743 109.068C133.929 109.071 134.114 109.108 134.299 109.13C135.64 109.285 135.806 110.812 135.382 111.557C135.211 111.86 134.943 112.056 134.619 112.154C134.44 112.208 134.251 112.248 134.065 112.252C133.41 112.262 132.754 112.256 132.098 112.251C132.032 112.25 131.968 112.203 131.854 112.159Z" fill="#373155"/>
<path d="M62.475 112.168C62.475 111.153 62.475 110.177 62.475 109.164C62.6135 109.13 62.7423 109.074 62.873 109.071C63.3648 109.06 63.8565 109.056 64.3482 109.071C64.6039 109.079 64.8653 109.108 65.1131 109.174C65.7181 109.333 66.1025 109.828 66.1473 110.469C66.1591 110.636 66.1591 110.805 66.1434 110.971C66.0908 111.603 65.7298 112.024 65.119 112.178C65.0956 112.183 65.0722 112.185 65.0488 112.191C64.6058 112.288 63.0584 112.283 62.475 112.168Z" fill="#352F53"/>
<path d="M75.3186 95.3452C75.2796 94.2817 75.305 93.2875 75.2972 92.2529C75.4708 92.2327 75.6035 92.2055 75.7362 92.2047C76.2982 92.1996 76.8601 92.1947 77.4221 92.2039C78.6281 92.2255 79.3091 93.1781 78.9578 94.3467C78.7803 94.9345 78.3276 95.3071 77.6407 95.3381C76.8953 95.3705 76.146 95.3452 75.3186 95.3452Z" fill="#352F53"/>
<path d="M94.1898 96.1932C94.1371 96.93 94.0961 97.6681 94.0259 98.4036C93.9888 98.7892 93.8308 99.1403 93.5966 99.4482C93.1361 100.055 92.4863 100.25 91.7858 100.198C90.6618 100.114 90.0491 99.6108 89.8052 98.4244C89.733 98.0768 89.7154 97.7136 89.7096 97.3574C89.6959 96.545 89.7057 95.7328 89.7037 94.9205C89.7037 94.4154 89.7662 93.9196 89.932 93.4434C90.1916 92.6965 90.7204 92.2785 91.4833 92.1713C91.9029 92.1122 92.3302 92.1095 92.7341 92.2548C93.4951 92.5282 93.8952 93.1225 94.024 93.9045C94.1001 94.3736 94.1156 94.8536 94.143 95.3292C94.1586 95.6148 94.1449 95.9025 94.1449 96.1896C94.1605 96.191 94.1761 96.1918 94.1898 96.1932Z" fill="#332D51"/>
<path d="M104.323 73.7209C104.323 74.0549 104.339 74.3901 104.319 74.7225C104.29 75.2829 103.946 75.6398 103.394 75.7146C102.914 75.7795 102.426 75.4312 102.294 74.924C102.264 74.8102 102.245 74.6902 102.243 74.5729C102.239 73.9764 102.223 73.3792 102.247 72.7835C102.276 72.0388 102.739 71.6387 103.439 71.7129C103.964 71.7682 104.28 72.1036 104.323 72.6474C104.325 72.6712 104.323 72.6949 104.323 72.7186C104.323 73.0524 104.323 73.3865 104.323 73.7209Z" fill="#373155"/>
<path d="M94.9353 70.7344C95.1948 71.8539 95.427 72.8467 95.6651 73.8743C95.2163 74.1202 94.7753 74.0404 94.2758 73.9361C94.385 72.8661 94.8026 71.8957 94.9353 70.7344Z" fill="#443E60"/>
<path d="M111.66 61.3713C111.748 61.8403 111.621 62.0864 111.42 62.3045C111.211 62.5324 110.942 62.588 110.649 62.5736C110.509 62.5672 110.366 62.5785 110.228 62.5707C109.726 62.5426 109.467 62.039 109.734 61.5951C109.791 61.5029 109.904 61.4021 110.003 61.39C110.558 61.3201 111.11 61.3468 111.66 61.3713Z" fill="#352F53"/>
<path d="M129.954 72.6061C129.757 71.8803 130.42 71.4189 130.957 71.4284C131.3 71.4348 131.612 71.5111 131.854 71.7622C132.063 71.9779 132.135 72.2492 132.069 72.5508C131.62 72.6809 130.853 72.7026 129.954 72.6061Z" fill="#373155"/>
<path d="M125.382 59.3472C124.822 59.4845 123.854 59.4926 123.27 59.371C123.146 59.0817 123.228 58.8169 123.403 58.5831C123.598 58.3234 123.877 58.2148 124.195 58.1938C124.945 58.1436 125.362 58.5305 125.382 59.3472Z" fill="#373155"/>
<path d="M79.3383 60.4782C79.3383 60.1199 79.3481 59.7615 79.3364 59.404C79.3188 58.8723 79.7169 58.3305 80.4155 58.3435C80.9892 58.3543 81.4087 58.7622 81.4321 59.3975C81.4555 60.1126 81.4614 60.8307 81.4301 61.5452C81.3989 62.2042 80.9404 62.5962 80.3159 62.5617C79.7637 62.5315 79.4047 62.184 79.3442 61.6236C79.3403 61.5762 79.3403 61.5285 79.3403 61.4804C79.3383 61.1466 79.3383 60.8126 79.3383 60.4782Z" fill="#373155"/>
<path d="M154.142 84.7271C154.142 84.4021 154.404 84.1387 154.728 84.1387H157.056C157.38 84.1387 157.641 84.4021 157.641 84.7271V87.1209C157.641 87.4459 157.38 87.7093 157.056 87.7093H154.728C154.404 87.7093 154.142 87.4459 154.142 87.1209V84.7271Z" fill="#EF7E21"/>
<path d="M148.973 84.7271C148.973 84.4021 149.237 84.1387 149.559 84.1387H151.889C152.211 84.1387 152.474 84.4021 152.474 84.7271V87.1209C152.474 87.4459 152.211 87.7093 151.889 87.7093H149.559C149.237 87.7093 148.973 87.4459 148.973 87.1209V84.7271Z" fill="#EF7E21"/>
<path d="M154.142 89.9712C154.142 89.6462 154.404 89.3828 154.728 89.3828H157.056C157.38 89.3828 157.641 89.6462 157.641 89.9712V92.365C157.641 92.69 157.38 92.9534 157.056 92.9534H154.728C154.404 92.9534 154.142 92.69 154.142 92.365V89.9712Z" fill="#EF7E21"/>
<path d="M154.539 95.2075C154.539 94.8825 154.8 94.6191 155.124 94.6191H156.666C156.989 94.6191 157.251 94.8825 157.251 95.2075V96.799C157.251 97.124 156.989 97.3874 156.666 97.3874H155.124C154.8 97.3874 154.539 97.124 154.539 96.799V95.2075Z" fill="#EF7E21"/>
<path d="M149.356 95.2075C149.356 94.8825 149.617 94.6191 149.941 94.6191H151.483C151.807 94.6191 152.068 94.8825 152.068 95.2075V96.799C152.068 97.124 151.807 97.3874 151.483 97.3874H149.941C149.617 97.3874 149.356 97.124 149.356 96.799V95.2075Z" fill="#EF7E21"/>
<path d="M144.569 95.2075C144.569 94.8825 144.831 94.6191 145.154 94.6191H146.696C147.018 94.6191 147.281 94.8825 147.281 95.2075V96.799C147.281 97.124 147.018 97.3874 146.696 97.3874H145.153C144.831 97.3874 144.569 97.124 144.569 96.799V95.2075Z" fill="#EF7E21"/>
<path d="M144.569 90.3736C144.569 90.0486 144.831 89.7852 145.154 89.7852H146.696C147.018 89.7852 147.281 90.0486 147.281 90.3736V91.9648C147.281 92.2898 147.018 92.5532 146.696 92.5532H145.153C144.831 92.5532 144.569 92.2898 144.569 91.9648V90.3736Z" fill="#EF7E21"/>
<path d="M144.569 85.1289C144.569 84.8039 144.831 84.5405 145.154 84.5405H146.696C147.018 84.5405 147.281 84.8039 147.281 85.1289V86.7202C147.281 87.0451 147.018 87.3086 146.696 87.3086H145.153C144.831 87.3086 144.569 87.0451 144.569 86.7202V85.1289Z" fill="#EF7E21"/>
<path d="M140.788 85.4356C140.788 85.1106 141.049 84.8472 141.373 84.8472H142.31C142.634 84.8472 142.895 85.1106 142.895 85.4356V86.4094C142.895 86.7344 142.634 86.9978 142.31 86.9978H141.373C141.049 86.9978 140.788 86.7344 140.788 86.4094V85.4356Z" fill="#EF7E21"/>
<path d="M140.788 90.6846C140.788 90.3596 141.049 90.0962 141.373 90.0962H142.31C142.634 90.0962 142.895 90.3596 142.895 90.6846V91.6584C142.895 91.9834 142.634 92.2468 142.31 92.2468H141.373C141.049 92.2468 140.788 91.9834 140.788 91.6584V90.6846Z" fill="#EF7E21"/>
<path d="M140.788 95.5181C140.788 95.1931 141.049 94.9297 141.373 94.9297H142.31C142.634 94.9297 142.895 95.1931 142.895 95.5181V96.4919C142.895 96.8169 142.634 97.0803 142.31 97.0803H141.373C141.049 97.0803 140.788 96.8169 140.788 96.4919V95.5181Z" fill="#EF7E21"/>
<path d="M144.874 99.7124C144.874 99.3874 145.135 99.124 145.459 99.124H146.396C146.72 99.124 146.981 99.3874 146.981 99.7124V100.686C146.981 101.011 146.72 101.275 146.396 101.275H145.459C145.135 101.275 144.874 101.011 144.874 100.686V99.7124Z" fill="#EF7E21"/>
<path d="M149.652 99.7124C149.652 99.3874 149.914 99.124 150.238 99.124H151.174C151.498 99.124 151.76 99.3874 151.76 99.7124V100.686C151.76 101.011 151.498 101.275 151.174 101.275H150.238C149.914 101.275 149.652 101.011 149.652 100.686V99.7124Z" fill="#EF7E21"/>
<path d="M154.843 99.7124C154.843 99.3874 155.104 99.124 155.428 99.124H156.365C156.689 99.124 156.95 99.3874 156.95 99.7124V100.686C156.95 101.011 156.689 101.275 156.365 101.275H155.428C155.104 101.275 154.843 101.011 154.843 100.686V99.7124Z" fill="#EF7E21"/>
<path d="M155.178 103.547C155.178 103.222 155.44 102.959 155.764 102.959H156.01C156.334 102.959 156.595 103.222 156.595 103.547V103.816C156.595 104.141 156.334 104.404 156.01 104.404H155.764C155.44 104.404 155.178 104.141 155.178 103.816V103.547Z" fill="#EF7E21"/>
<path d="M150.011 103.547C150.011 103.222 150.273 102.959 150.597 102.959H150.841C151.165 102.959 151.426 103.222 151.426 103.547V103.816C151.426 104.141 151.165 104.404 150.841 104.404H150.597C150.273 104.404 150.011 104.141 150.011 103.816V103.547Z" fill="#EF7E21"/>
<path d="M137.693 91.0366C137.693 90.7116 137.954 90.4482 138.278 90.4482H138.524C138.848 90.4482 139.109 90.7116 139.109 91.0366V91.3049C139.109 91.6299 138.848 91.8933 138.524 91.8933H138.278C137.954 91.8933 137.693 91.6299 137.693 91.3049V91.0366Z" fill="#EF7E21"/>
<path d="M137.693 85.7876C137.693 85.4626 137.954 85.1992 138.278 85.1992H138.524C138.848 85.1992 139.109 85.4626 139.109 85.7876V86.0559C139.109 86.3809 138.848 86.6443 138.524 86.6443H138.278C137.954 86.6443 137.693 86.3809 137.693 86.0559V85.7876Z" fill="#EF7E21"/>
<path d="M148.973 89.9712C148.973 89.6462 149.237 89.3828 149.559 89.3828H151.889C152.211 89.3828 152.474 89.6462 152.474 89.9712V92.365C152.474 92.69 152.211 92.9534 151.889 92.9534H149.559C149.237 92.9534 148.973 92.69 148.973 92.365V89.9712Z" fill="#EF7E21"/>
</svg>
