<svg width="216" height="188" viewBox="0 0 216 188" fill="none" xmlns="http://www.w3.org/2000/svg">
<path fill-rule="evenodd" clip-rule="evenodd" d="M41.8171 121.697V34.6095C41.8171 34.151 42.1531 33.7616 42.6071 33.6942L107.864 24.01C107.953 23.9967 108.047 23.9967 108.136 24.01L173.393 33.6942C173.847 33.7616 174.183 34.151 174.183 34.6095V121.697C174.183 122.014 174.02 122.308 173.752 122.478L108.495 163.856C108.193 164.048 107.807 164.048 107.505 163.856L42.2478 122.478C41.9797 122.308 41.8171 122.014 41.8171 121.697Z" fill="url(#paint0_linear_13365_14632)"/>
<path fill-rule="evenodd" clip-rule="evenodd" d="M171.657 37.0682C171.611 36.7616 171.327 36.1956 171.12 35.9977L108.892 26.6681C108.824 26.6414 108.774 26.6681 107.996 26.6681C107.221 26.6681 107.103 26.6681 107.103 26.6681L44.7553 35.9977C44.5498 36.1938 44.2656 36.7562 44.2192 37.0593V119.848C44.2639 120.154 44.5498 120.718 44.7589 120.914L107.996 161.492L171.121 120.909C171.327 120.715 171.607 120.156 171.654 119.855L171.657 37.0682Z" fill="#F06A2B"/>
<path fill-rule="evenodd" clip-rule="evenodd" d="M47.3326 38.2759V118.639L108.004 158.814L168.551 118.637L168.555 38.2768L108.004 29.3477L47.3326 38.2759Z" fill="url(#paint1_linear_13365_14632)"/>
<path fill-rule="evenodd" clip-rule="evenodd" d="M47.1789 118.635L107.996 158.814V29.3477L47.3254 38.2764L47.1789 118.635Z" fill="url(#paint2_linear_13365_14632)"/>
<path fill-rule="evenodd" clip-rule="evenodd" d="M47.3201 65.1841H168.541V114.687L47.1736 114.666L47.3201 65.1841Z" fill="url(#paint3_linear_13365_14632)"/>
<path fill-rule="evenodd" clip-rule="evenodd" d="M47.2522 65.1875L168.625 65.167L47.1789 114.67L47.2522 65.1875Z" fill="url(#paint4_linear_13365_14632)"/>
<path fill-rule="evenodd" clip-rule="evenodd" d="M47.3254 65.1875H168.548V114.69L47.1789 114.67L47.3254 65.1875Z" fill="url(#paint5_linear_13365_14632)"/>
<path fill-rule="evenodd" clip-rule="evenodd" d="M47.2522 65.1875L168.625 65.167L47.1789 114.67L47.2522 65.1875Z" fill="url(#paint6_linear_13365_14632)"/>
<path d="M60.571 77.7082L63.7505 78.7153C63.2626 80.4865 62.4512 81.8038 61.3128 82.667C60.185 83.5231 58.7479 83.951 57.0053 83.951C54.8499 83.951 53.0787 83.2168 51.6917 81.7484C50.303 80.2724 49.6096 78.2578 49.6096 75.7047C49.6096 73.0037 50.3067 70.908 51.7025 69.4174C53.0966 67.9193 54.9321 67.1704 57.2055 67.1704C59.1912 67.1704 60.8034 67.757 62.0437 68.9303C62.7819 69.624 63.3359 70.6202 63.7059 71.919L60.4601 72.6938C60.2689 71.8525 59.8668 71.1884 59.2537 70.7014C58.6478 70.2143 57.9097 69.9709 57.0393 69.9709C55.8364 69.9709 54.8571 70.4025 54.1046 71.266C53.3593 72.1292 52.9857 73.5278 52.9857 75.4611C52.9857 77.5125 53.3558 78.9736 54.0939 79.8444C54.8321 80.7153 55.7918 81.1507 56.9732 81.1507C57.8436 81.1507 58.5924 80.8738 59.2216 80.3205C59.8489 79.767 60.2993 78.8962 60.571 77.7082Z" fill="black"/>
<path d="M74.2919 83.6742V81.9143C73.863 82.5415 73.2982 83.036 72.5976 83.3976C71.9023 83.7591 71.1696 83.94 70.3939 83.94C69.6039 83.94 68.8944 83.7665 68.267 83.4197C67.6397 83.0728 67.1857 82.5858 66.9051 81.9586C66.6245 81.3313 66.4851 80.4643 66.4851 79.3572V71.9189H69.5967V77.3206C69.5967 78.9735 69.6521 79.9883 69.7629 80.3646C69.8809 80.7336 70.0901 81.0287 70.3939 81.2501C70.696 81.4641 71.0802 81.5711 71.5449 81.5711C72.0775 81.5711 72.5529 81.4273 72.9729 81.1395C73.3947 80.8443 73.6825 80.4827 73.838 80.0546C73.9917 79.6193 74.0702 78.5603 74.0702 76.8779V71.9189H77.1819V83.6742H74.2919Z" fill="black"/>
<path d="M79.3177 80.3205L82.4419 79.8444C82.5741 80.4496 82.8441 80.9109 83.2498 81.2281C83.6555 81.538 84.2238 81.693 84.9548 81.693C85.7591 81.693 86.365 81.5454 86.7707 81.2503C87.0441 81.0437 87.18 80.767 87.18 80.4201C87.18 80.184 87.1068 79.9885 86.9584 79.8335C86.8047 79.6859 86.4561 79.5493 85.9182 79.4239C83.4088 78.8703 81.8182 78.3649 81.1462 77.9074C80.215 77.2727 79.7503 76.391 79.7503 75.2618C79.7503 74.2436 80.1524 73.3875 80.9567 72.6939C81.7627 72.0002 83.0102 71.6533 84.6992 71.6533C86.3096 71.6533 87.5052 71.9153 88.2881 72.4394C89.0709 72.9632 89.6089 73.738 89.9038 74.7637L86.9708 75.3062C86.8439 74.8486 86.6044 74.4981 86.2505 74.2547C85.9038 74.0111 85.4052 73.8894 84.7546 73.8894C83.9361 73.8894 83.3499 74.0038 82.9942 74.2325C82.7583 74.3948 82.6403 74.6052 82.6403 74.8634C82.6403 75.0847 82.744 75.2729 82.9513 75.4279C83.2319 75.6345 84.1988 75.926 85.852 76.3024C87.5124 76.6788 88.6724 77.1399 89.3283 77.6861C89.9789 78.2394 90.3024 79.0107 90.3024 79.9996C90.3024 81.0769 89.852 82.0029 88.953 82.7779C88.0522 83.5527 86.7189 83.9401 84.9548 83.9401C83.3534 83.9401 82.0827 83.6154 81.1462 82.9659C80.215 82.3166 79.6073 81.4347 79.3177 80.3205Z" fill="black"/>
<path d="M98.4309 71.919V74.3985H96.304V79.1361C96.304 80.0953 96.3237 80.6561 96.3594 80.8186C96.4041 80.9736 96.4971 81.1026 96.6365 81.2059C96.7848 81.3092 96.9617 81.3609 97.169 81.3609C97.4568 81.3609 97.8733 81.2613 98.4202 81.062L98.6847 83.475C97.9626 83.7849 97.1423 83.9401 96.2272 83.9401C95.666 83.9401 95.1602 83.8477 94.7098 83.6632C94.2594 83.4715 93.927 83.2279 93.7143 82.9328C93.5069 82.6302 93.3622 82.2243 93.2817 81.7151C93.2156 81.3535 93.1817 80.6229 93.1817 79.5234V74.3985H91.7536V71.919H93.1817V69.5834L96.304 67.7681V71.919H98.4309Z" fill="black"/>
<path d="M99.8697 77.6307C99.8697 76.5976 100.125 75.5977 100.635 74.6309C101.144 73.6642 101.864 72.9264 102.794 72.4172C103.732 71.908 104.776 71.6533 105.927 71.6533C107.707 71.6533 109.164 72.2328 110.302 73.3913C111.439 74.5425 112.007 75.9998 112.007 77.7635C112.007 79.542 111.43 81.0178 110.279 82.1911C109.135 83.3571 107.691 83.9401 105.95 83.9401C104.872 83.9401 103.841 83.6965 102.86 83.2095C101.886 82.7225 101.144 82.0104 100.635 81.0732C100.125 80.1286 99.8697 78.9812 99.8697 77.6307ZM103.06 77.7967C103.06 78.9628 103.337 79.8555 103.889 80.4755C104.443 81.0953 105.126 81.4052 105.937 81.4052C106.751 81.4052 107.43 81.0953 107.975 80.4755C108.529 79.8555 108.806 78.9552 108.806 77.7746C108.806 76.6234 108.529 75.738 107.975 75.118C107.43 74.4981 106.751 74.1882 105.937 74.1882C105.126 74.1882 104.443 74.4981 103.889 75.118C103.337 75.738 103.06 76.6307 103.06 77.7967Z" fill="black"/>
<path d="M114.221 71.9191H117.088V73.5241C118.116 72.2769 119.337 71.6533 120.754 71.6533C121.506 71.6533 122.161 71.8083 122.715 72.1184C123.269 72.4283 123.723 72.8967 124.077 73.5241C124.593 72.8967 125.151 72.4283 125.748 72.1184C126.346 71.8083 126.984 71.6533 127.664 71.6533C128.527 71.6533 129.258 71.8304 129.857 72.1847C130.454 72.5316 130.9 73.0444 131.197 73.7233C131.41 74.225 131.517 75.0368 131.517 76.1585V83.6744H128.405V76.9555C128.405 75.7896 128.298 75.0368 128.085 74.6974C127.796 74.2547 127.354 74.0333 126.756 74.0333C126.32 74.0333 125.91 74.1661 125.526 74.4316C125.144 74.6974 124.867 75.0885 124.697 75.605C124.527 76.1142 124.441 76.9222 124.441 78.0293V83.6744H121.329V77.2321C121.329 76.0884 121.274 75.3505 121.163 75.0184C121.053 74.6863 120.879 74.4391 120.643 74.2767C120.414 74.1144 120.102 74.0333 119.703 74.0333C119.222 74.0333 118.79 74.1623 118.407 74.4207C118.023 74.679 117.746 75.0516 117.576 75.5387C117.414 76.0257 117.333 76.8337 117.333 77.9628V83.6744H114.221V71.9191Z" fill="black"/>
<path d="M141.438 79.9331L144.539 80.4533C144.141 81.5897 143.51 82.4569 142.646 83.0546C141.79 83.6449 140.716 83.9401 139.424 83.9401C137.379 83.9401 135.865 83.2722 134.884 81.9366C134.108 80.8666 133.721 79.5161 133.721 77.8852C133.721 75.9371 134.23 74.4132 135.249 73.3137C136.268 72.2068 137.556 71.6533 139.113 71.6533C140.863 71.6533 142.244 72.2328 143.254 73.3913C144.266 74.5425 144.75 76.3097 144.705 78.6934H136.909C136.932 79.6158 137.183 80.3352 137.663 80.8517C138.142 81.3609 138.741 81.6156 139.456 81.6156C139.944 81.6156 140.353 81.4828 140.686 81.217C141.018 80.9515 141.268 80.5234 141.438 79.9331ZM141.617 76.7894C141.594 75.8892 141.361 75.2066 140.918 74.7417C140.475 74.2694 139.937 74.0333 139.302 74.0333C138.623 74.0333 138.062 74.2804 137.619 74.7748C137.176 75.2693 136.957 75.9408 136.965 76.7894H141.617Z" fill="black"/>
<path d="M150.232 83.6744H147.12V71.9191H150.01V73.5905C150.503 72.8009 150.947 72.2807 151.338 72.0297C151.737 71.7788 152.187 71.6533 152.689 71.6533C153.399 71.6533 154.081 71.849 154.737 72.2401L153.774 74.9519C153.25 74.6125 152.762 74.4427 152.312 74.4427C151.878 74.4427 151.508 74.5646 151.206 74.808C150.902 75.0441 150.662 75.4759 150.485 76.1031C150.316 76.7304 150.232 78.0439 150.232 80.0437V83.6744Z" fill="black"/>
<path d="M154.993 80.3205L158.115 79.8444C158.248 80.4496 158.517 80.9109 158.923 81.2281C159.329 81.538 159.897 81.693 160.628 81.693C161.433 81.693 162.038 81.5454 162.444 81.2503C162.718 81.0437 162.855 80.767 162.855 80.4201C162.855 80.184 162.78 79.9885 162.633 79.8335C162.478 79.6859 162.131 79.5493 161.592 79.4239C159.082 78.8703 157.491 78.3649 156.819 77.9074C155.89 77.2727 155.424 76.391 155.424 75.2618C155.424 74.2436 155.826 73.3875 156.632 72.6939C157.436 72.0002 158.684 71.6533 160.374 71.6533C161.983 71.6533 163.179 71.9153 163.961 72.4394C164.744 72.9632 165.282 73.738 165.579 74.7637L162.644 75.3062C162.519 74.8486 162.278 74.4981 161.924 74.2547C161.577 74.0111 161.079 73.8894 160.43 73.8894C159.609 73.8894 159.023 74.0038 158.669 74.2325C158.432 74.3948 158.314 74.6052 158.314 74.8634C158.314 75.0847 158.417 75.2729 158.625 75.4279C158.905 75.6345 159.872 75.926 161.525 76.3024C163.186 76.6788 164.346 77.1399 165.002 77.6861C165.652 78.2394 165.978 79.0107 165.978 79.9996C165.978 81.0769 165.527 82.0029 164.626 82.7779C163.726 83.5527 162.392 83.9401 160.628 83.9401C159.027 83.9401 157.758 83.6154 156.819 82.9659C155.89 82.3166 155.281 81.4347 154.993 80.3205Z" fill="black"/>
<path d="M66.0436 106.339V90.2446H69.3215V103.605H77.4715V106.339H66.0436Z" fill="black"/>
<path d="M79.0764 100.296C79.0764 99.2627 79.332 98.2627 79.8414 97.296C80.3507 96.3294 81.0692 95.5914 82.0004 95.0822C82.9369 94.573 83.9825 94.3184 85.1335 94.3184C86.9136 94.3184 88.3703 94.8978 89.507 96.0563C90.6455 97.2075 91.2139 98.6648 91.2139 100.429C91.2139 102.207 90.6365 103.683 89.4855 104.856C88.3417 106.022 86.8975 106.605 85.1567 106.605C84.079 106.605 83.0478 106.362 82.0666 105.875C81.0926 105.388 80.3507 104.675 79.8414 103.738C79.332 102.794 79.0764 101.646 79.0764 100.296ZM82.2668 100.462C82.2668 101.628 82.542 102.521 83.0961 103.141C83.6501 103.76 84.3329 104.07 85.1443 104.07C85.9575 104.07 86.6367 103.76 87.1818 103.141C87.7359 102.521 88.0128 101.62 88.0128 100.44C88.0128 99.2884 87.7359 98.403 87.1818 97.783C86.6367 97.1632 85.9575 96.8533 85.1443 96.8533C84.3329 96.8533 83.6501 97.1632 83.0961 97.783C82.542 98.403 82.2668 99.2958 82.2668 100.462Z" fill="black"/>
<path d="M96.8938 106.339L92.154 94.5835H95.4211L97.6356 100.583L98.2771 102.586C98.4469 102.077 98.5543 101.742 98.599 101.579C98.7026 101.247 98.8134 100.915 98.9313 100.583L101.167 94.5835H104.368L99.6945 106.339H96.8938Z" fill="black"/>
<path d="M113.094 102.598L116.195 103.118C115.796 104.255 115.165 105.122 114.3 105.72C113.444 106.31 112.37 106.605 111.078 106.605C109.033 106.605 107.521 105.937 106.538 104.602C105.762 103.532 105.376 102.181 105.376 100.55C105.376 98.6021 105.886 97.0783 106.904 95.9787C107.923 94.8719 109.21 94.3184 110.768 94.3184C112.518 94.3184 113.898 94.8978 114.91 96.0563C115.921 97.2075 116.404 98.9748 116.361 101.358H108.565C108.586 102.281 108.838 103 109.317 103.517C109.798 104.026 110.395 104.281 111.112 104.281C111.6 104.281 112.009 104.148 112.341 103.882C112.674 103.616 112.924 103.188 113.094 102.598ZM113.271 99.4545C113.249 98.5542 113.017 97.8716 112.574 97.4068C112.13 96.9344 111.591 96.6983 110.956 96.6983C110.277 96.6983 109.716 96.9455 109.273 97.4398C108.831 97.9344 108.613 98.6059 108.62 99.4545H113.271Z" fill="black"/>
<path d="M125.219 90.1118H128.496V98.9008C128.496 100.295 128.538 101.199 128.618 101.613C128.759 102.277 129.09 102.812 129.615 103.218C130.146 103.616 130.87 103.815 131.785 103.815C132.715 103.815 133.417 103.627 133.889 103.251C134.361 102.867 134.647 102.398 134.741 101.845C134.838 101.292 134.886 100.373 134.886 99.0888V90.1118H138.164V98.635C138.164 100.583 138.075 101.96 137.898 102.764C137.721 103.568 137.392 104.247 136.913 104.801C136.439 105.354 135.805 105.797 135.008 106.129C134.21 106.453 133.168 106.616 131.885 106.616C130.334 106.616 129.158 106.439 128.352 106.085C127.555 105.723 126.924 105.258 126.459 104.69C125.994 104.114 125.687 103.513 125.54 102.886C125.326 101.956 125.219 100.583 125.219 98.7678V90.1118Z" fill="black"/>
<path d="M140.511 102.986L143.633 102.51C143.767 103.115 144.035 103.576 144.441 103.893C144.848 104.203 145.417 104.358 146.148 104.358C146.952 104.358 147.556 104.211 147.964 103.915C148.235 103.709 148.373 103.432 148.373 103.085C148.373 102.849 148.3 102.654 148.151 102.499C147.996 102.351 147.649 102.214 147.111 102.089C144.6 101.536 143.009 101.03 142.337 100.572C141.408 99.9379 140.943 99.0561 140.943 97.9269C140.943 96.9087 141.345 96.0526 142.149 95.3589C142.954 94.6653 144.201 94.3184 145.892 94.3184C147.502 94.3184 148.698 94.5804 149.479 95.1044C150.262 95.6283 150.802 96.403 151.097 97.4289L148.162 97.9712C148.037 97.5137 147.797 97.1632 147.442 96.9197C147.095 96.6761 146.598 96.5544 145.947 96.5544C145.129 96.5544 144.541 96.6688 144.187 96.8976C143.951 97.0599 143.833 97.2702 143.833 97.5285C143.833 97.7499 143.937 97.938 144.142 98.0929C144.423 98.2997 145.39 98.591 147.043 98.9674C148.705 99.3438 149.863 99.8049 150.521 100.351C151.17 100.904 151.495 101.676 151.495 102.665C151.495 103.742 151.045 104.668 150.144 105.443C149.243 106.218 147.912 106.605 146.148 106.605C144.544 106.605 143.276 106.28 142.337 105.631C141.408 104.982 140.798 104.1 140.511 102.986Z" fill="black"/>
<path fill-rule="evenodd" clip-rule="evenodd" d="M58.8695 47.3248C58.8248 47.4165 58.7604 47.4633 58.6496 47.4633C58.5853 47.4633 58.4977 47.4165 58.3887 47.3024C58.2814 47.1884 58.126 47.0767 57.9527 46.9627C57.7561 46.8242 57.5361 46.7123 57.2537 46.6208C56.9696 46.5068 56.621 46.4597 56.2064 46.4597C55.79 46.4597 55.4415 46.5314 55.1144 46.6431C54.8088 46.7572 54.5479 46.938 54.328 47.1437C54.11 47.3493 53.9581 47.5974 53.8473 47.8701C53.7383 48.1428 53.6738 48.4401 53.6738 48.735C53.6738 49.1441 53.7614 49.4636 53.9115 49.7364C54.067 49.9844 54.2852 50.2123 54.5693 50.3957C54.8303 50.5767 55.1358 50.7353 55.4843 50.8493C55.8347 50.9878 56.185 51.0997 56.5353 51.2136C56.882 51.3276 57.2324 51.464 57.5809 51.6227C57.9312 51.759 58.2154 51.9646 58.4978 52.168C58.7819 52.3737 58.9785 52.6709 59.1518 52.986C59.3073 53.3056 59.3931 53.7147 59.3931 54.1929C59.3931 54.6936 59.3073 55.1472 59.1518 55.5786C58.9999 56.0122 58.7604 56.3988 58.4548 56.7162C58.1509 57.0358 57.756 57.2839 57.32 57.4894C56.8606 57.6705 56.3584 57.7621 55.79 57.7621C55.0501 57.7621 54.3941 57.6258 53.8687 57.3532C53.3235 57.0805 52.8643 56.6916 52.4514 56.2178L52.6694 55.8512C52.7337 55.7597 52.7999 55.7395 52.8857 55.7395C52.9322 55.7395 52.9965 55.7597 53.0626 55.8312C53.127 55.8982 53.236 55.9899 53.3236 56.0792C53.4344 56.1709 53.5649 56.2848 53.7168 56.3988C53.8687 56.5105 54.0438 56.6245 54.2404 56.7162C54.437 56.8077 54.6569 56.8973 54.9179 56.9643C55.1806 57.0358 55.4629 57.056 55.79 57.056C56.2493 57.056 56.6425 56.9888 56.9911 56.8526C57.3414 56.7162 57.6469 56.5105 57.8864 56.2848C58.1259 56.0569 58.3243 55.7395 58.4548 55.4199C58.5853 55.0801 58.6496 54.7159 58.6496 54.3515C58.6496 53.9425 58.562 53.6028 58.4119 53.3302C58.2582 53.0553 58.0384 52.8273 57.756 52.6462C57.4932 52.4652 57.1894 52.3065 56.8391 52.1926C56.4888 52.0786 56.1421 51.9401 55.79 51.8282C55.4415 51.7143 55.093 51.5757 54.7427 51.4416C54.3941 51.3031 54.11 51.122 53.8258 50.8963C53.5649 50.6683 53.345 50.3957 53.1716 50.0536C53.0179 49.7117 52.9322 49.3049 52.9322 48.7798C52.9322 48.3954 52.9964 48.0086 53.1484 47.6444C53.3021 47.2778 53.5005 46.9627 53.7811 46.6655C54.067 46.3927 54.3941 46.1648 54.8088 45.9838C55.2234 45.8251 55.6827 45.7334 56.2064 45.7334C56.7962 45.7334 57.32 45.8251 57.799 46.0306C58.2583 46.234 58.6925 46.5314 59.0875 46.9157L58.8695 47.3248Z" fill="black"/>
<path fill-rule="evenodd" clip-rule="evenodd" d="M71.1588 51.7467C71.1588 50.9342 71.048 50.1882 70.8264 49.5333C70.6084 48.8785 70.2991 48.3367 69.9041 47.886C69.5073 47.4333 69.0231 47.0935 68.4529 46.8471C67.8792 46.5984 67.2626 46.4853 66.5816 46.4853C65.8989 46.4853 65.284 46.5984 64.7103 46.8471C64.1383 47.0935 63.6558 47.4333 63.2591 47.886C62.8641 48.3367 62.5334 48.8785 62.3118 49.5333C62.0919 50.1882 61.9811 50.912 61.9811 51.7467C61.9811 52.5592 62.0919 53.3052 62.3118 53.9601C62.5334 54.6149 62.8408 55.1566 63.2591 55.6095C63.6558 56.0601 64.1383 56.3999 64.7103 56.6485C65.284 56.8949 65.8989 57.0104 66.5816 57.0104C67.2626 57.0104 67.9006 56.8949 68.4529 56.6485C69.0231 56.422 69.5073 56.0601 69.9041 55.6095C70.2991 55.1566 70.6084 54.6149 70.8264 53.9601C71.048 53.3052 71.1588 52.5837 71.1588 51.7467ZM71.8915 51.7478C71.8915 52.6523 71.7629 53.4659 71.5055 54.2126C71.2481 54.9595 70.8818 55.5906 70.4099 56.113C69.9363 56.6308 69.3786 57.0397 68.7316 57.3332C68.0864 57.6288 67.3555 57.7621 66.5601 57.7621C65.7845 57.7621 65.0553 57.6288 64.4083 57.3332C63.7631 57.0397 63.2054 56.6553 62.73 56.113C62.2582 55.5906 61.8918 54.9595 61.6344 54.2126C61.3771 53.4659 61.2484 52.6523 61.2484 51.7478C61.2484 50.8454 61.3771 50.0297 61.6344 49.2851C61.8918 48.5384 62.2582 47.9049 62.73 47.3848C63.2054 46.8647 63.7631 46.4558 64.4083 46.1623C65.0553 45.8691 65.7845 45.7334 66.5601 45.7334C67.3555 45.7334 68.0864 45.8691 68.7316 46.1623C69.3786 46.4558 69.9363 46.8426 70.4099 47.3848C70.8818 47.9049 71.2481 48.5384 71.5055 49.2851C71.7629 50.0297 71.8915 50.8454 71.8915 51.7478Z" fill="black"/>
<path fill-rule="evenodd" clip-rule="evenodd" d="M77.9255 57.0077C78.4527 57.0077 78.9174 56.9153 79.341 56.7082C79.7628 56.501 80.1024 56.2262 80.3973 55.8839C80.694 55.5416 80.9048 55.1046 81.0514 54.6475C81.2015 54.1654 81.2856 53.6632 81.2856 53.0889V45.7334H82.0684V53.0889C82.0684 53.7533 81.963 54.3479 81.7735 54.9222C81.5823 55.4943 81.3052 55.9763 80.9477 56.4108C80.5885 56.8229 80.1435 57.1675 79.6377 57.3974C79.1301 57.6247 78.5385 57.7621 77.904 57.7621C77.2695 57.7621 76.6761 57.6472 76.1685 57.3974C75.6609 57.145 75.2195 56.8229 74.8566 56.4108C74.501 55.9988 74.224 55.4943 74.0346 54.9222C73.8433 54.3479 73.7379 53.7308 73.7379 53.0889V45.7334H74.5422V53.0664C74.5422 53.616 74.6262 54.1429 74.7745 54.6226C74.9229 55.1046 75.1551 55.5168 75.4286 55.8614C75.7253 56.206 76.0631 56.4807 76.4867 56.6857C76.9085 56.9153 77.3964 57.0077 77.9255 57.0077Z" fill="black"/>
<path fill-rule="evenodd" clip-rule="evenodd" d="M86.8672 51.6657H87.1013H87.6679C88.2613 51.6657 88.8046 51.5975 89.271 51.4813C89.7357 51.3401 90.1487 51.1783 90.4597 50.9254C90.7957 50.6908 91.028 50.39 91.2085 50.0665C91.3891 49.7407 91.4676 49.3466 91.4676 48.9319C91.4676 48.0731 91.1585 47.4467 90.5383 47.0297C89.9181 46.6127 89.012 46.4033 87.7966 46.4033H85.3426V51.6657V52.3151V57.7621H84.3847V45.7334H87.7966C89.3498 45.7334 90.5133 46.0113 91.2604 46.5445C92.0378 47.0753 92.3988 47.8635 92.3988 48.9069C92.3988 49.3718 92.3202 49.7886 92.1414 50.1599C91.9591 50.529 91.7 50.8775 91.364 51.1555C91.028 51.4334 90.6402 51.6886 90.1755 51.8504C89.7108 52.0371 89.1656 52.1533 88.5991 52.2216C88.7546 52.3151 88.8815 52.4312 89.012 52.568L93.641 57.7621H92.7867C92.683 57.7621 92.6061 57.7371 92.5275 57.7142C92.4507 57.6939 92.3721 57.6209 92.3202 57.5525L88.0307 52.6841C87.9271 52.5679 87.7966 52.4768 87.6947 52.4312C87.5661 52.3833 86.8136 52.363 86.5562 52.363C86.5562 51.7342 86.6581 51.6657 86.8672 51.6657Z" fill="black"/>
<path fill-rule="evenodd" clip-rule="evenodd" d="M101.518 55.6557C101.562 55.6557 101.627 55.6801 101.648 55.7225L101.97 56.0855C101.734 56.3371 101.496 56.5841 101.214 56.7891C100.935 56.994 100.633 57.1743 100.309 57.3101C99.9858 57.446 99.6176 57.5573 99.253 57.6508C98.8652 57.7421 98.4309 57.7621 97.9805 57.7621C97.2013 57.7621 96.4881 57.6263 95.8411 57.3325C95.1941 57.0385 94.6329 56.651 94.1807 56.1077C93.7268 55.5888 93.3604 54.9543 93.1012 54.2062C92.842 53.4602 92.7134 52.643 92.7134 51.7367C92.7134 50.8548 92.8421 50.0377 93.1227 49.2917C93.3836 48.5435 93.7715 47.9312 94.2451 47.3879C94.7205 46.8669 95.3032 46.4571 95.9716 46.1632C96.6418 45.8692 97.3961 45.7334 98.195 45.7334C98.6043 45.7334 98.9706 45.7557 99.3155 45.8247C99.6623 45.8916 99.9644 45.9829 100.266 46.0964C100.569 46.2099 100.826 46.3681 101.085 46.5484C101.344 46.7287 101.605 46.9337 101.841 47.1607L101.605 47.5237C101.562 47.5906 101.496 47.615 101.41 47.615C101.367 47.615 101.301 47.5906 101.239 47.5237C101.173 47.4547 101.064 47.3879 100.956 47.2966C100.849 47.2052 100.697 47.1162 100.547 47.0249C100.395 46.9114 100.2 46.8201 99.9644 46.7532C99.7481 46.6621 99.4872 46.5952 99.1869 46.5262C98.9063 46.4571 98.5614 46.4349 98.195 46.4349C97.5033 46.4349 96.8777 46.5484 96.3165 46.7979C95.7571 47.0472 95.2603 47.3879 94.8492 47.8622C94.4399 48.3164 94.1146 48.882 93.8787 49.5167C93.6427 50.1512 93.5337 50.8972 93.5337 51.7122C93.5337 52.5517 93.6427 53.2775 93.8787 53.9345C94.1146 54.589 94.4184 55.1347 94.8277 55.5888C95.2388 56.041 95.7125 56.3793 96.254 56.6288C96.792 56.8803 97.396 56.994 98.0216 56.994C98.4308 56.994 98.7776 56.9695 99.0993 56.9026C99.4246 56.8558 99.707 56.7668 99.9644 56.651C100.224 56.5375 100.483 56.4038 100.697 56.2458C100.935 56.0855 101.151 55.9052 101.367 55.6801C101.389 55.6557 101.41 55.6335 101.432 55.6335C101.451 55.6801 101.496 55.6557 101.518 55.6557Z" fill="black"/>
<path fill-rule="evenodd" clip-rule="evenodd" d="M111.233 45.7334V46.4524H104.735V51.3301H110.138V52.0262H104.735V57.0431H111.233V57.7621H103.828V45.7334H111.233Z" fill="black"/>
<path fill-rule="evenodd" clip-rule="evenodd" d="M121.417 45.7334V47.526H115.555V51.0799H120.495V52.87H115.555V57.7621H113.085V45.7579H121.417V45.7334Z" fill="black"/>
<path fill-rule="evenodd" clip-rule="evenodd" d="M131.653 51.7478C131.653 51.1065 131.562 50.5305 131.383 50.0239C131.204 49.5151 130.961 49.0738 130.648 48.7173C130.334 48.363 129.933 48.0978 129.465 47.8999C128.997 47.7021 128.482 47.6129 127.903 47.6129C127.322 47.6129 126.809 47.7021 126.343 47.8999C125.873 48.0978 125.494 48.363 125.158 48.7173C124.825 49.0738 124.579 49.5151 124.398 50.0239C124.221 50.5305 124.132 51.1065 124.132 51.7478C124.132 52.389 124.221 52.9653 124.398 53.4739C124.579 53.9804 124.825 54.4239 125.158 54.7783C125.494 55.1327 125.873 55.3979 126.343 55.5979C126.809 55.7958 127.322 55.8826 127.903 55.8826C128.482 55.8826 128.997 55.7958 129.465 55.5979C129.933 55.3979 130.312 55.1327 130.648 54.7783C130.961 54.4239 131.204 53.9804 131.383 53.4739C131.562 52.9653 131.653 52.389 131.653 51.7478ZM133.908 51.7478C133.908 52.6139 133.774 53.4144 133.485 54.1452C133.193 54.8782 132.791 55.5196 132.253 56.054C131.74 56.5863 131.092 57.0074 130.353 57.3193C129.615 57.6292 128.788 57.7621 127.892 57.7621C126.999 57.7621 126.17 57.6095 125.431 57.3193C124.693 57.0074 124.068 56.6104 123.531 56.054C122.992 55.5196 122.59 54.8782 122.3 54.1452C122.009 53.4144 121.875 52.6139 121.875 51.7478C121.875 50.884 122.009 50.0833 122.3 49.3503C122.59 48.6174 122.992 47.9761 123.531 47.4415C124.068 46.9092 124.693 46.4882 125.431 46.1763C126.17 45.8666 126.999 45.7334 127.892 45.7334C128.788 45.7334 129.615 45.8884 130.353 46.2002C131.092 46.5123 131.717 46.9332 132.253 47.4656C132.768 47.9979 133.193 48.6413 133.485 49.3743C133.753 50.0833 133.908 50.884 133.908 51.7478Z" fill="black"/>
<path fill-rule="evenodd" clip-rule="evenodd" d="M137.61 51.4522H138.073C138.457 51.4522 138.779 51.4053 139.061 51.2938C139.343 51.18 139.567 51.0438 139.749 50.8609C139.93 50.6802 140.069 50.4549 140.151 50.2027C140.232 49.9549 140.292 49.6583 140.292 49.3637C140.292 48.7501 140.112 48.2749 139.749 47.958C139.386 47.639 138.841 47.4581 138.114 47.4581H136.825V51.4522V53.0654V57.7621H134.827V45.7334H138.094C138.82 45.7334 139.445 45.8249 139.969 45.9834C140.494 46.1395 140.916 46.3895 141.242 46.6841C141.563 46.9807 141.824 47.3668 141.967 47.7773C142.128 48.2057 142.208 48.6608 142.208 49.1807C142.208 49.5912 142.148 49.9773 142.046 50.341C141.948 50.7024 141.785 51.0216 141.583 51.3161C141.381 51.6105 141.138 51.8627 140.838 52.0881C140.534 52.3156 140.21 52.4965 139.828 52.6125C140.069 52.7687 140.293 52.9962 140.475 53.2907L143.158 57.7398H141.363C141.181 57.7398 141.038 57.6953 140.916 57.6283C140.795 57.5591 140.696 57.4476 140.616 57.2869L138.377 53.4291C138.316 53.3376 138.194 53.1324 138.073 53.11H137.369V51.6575C137.388 51.4522 137.61 51.4522 137.61 51.4522Z" fill="black"/>
<path fill-rule="evenodd" clip-rule="evenodd" d="M149.874 56.0571C150.373 56.0571 150.823 56.0115 151.186 55.9221C151.549 55.8351 151.912 55.7021 152.251 55.5475V52.8888H150.757C150.621 52.8888 150.509 52.843 150.417 52.7778C150.328 52.6884 150.282 52.6014 150.282 52.4904V51.2491H154.267V56.5232C153.974 56.743 153.656 56.9194 153.315 57.0762C152.977 57.2308 152.636 57.3659 152.251 57.4747C151.869 57.5857 151.483 57.6511 151.05 57.6969C150.621 57.7403 150.167 57.7621 149.67 57.7621C148.787 57.7621 147.994 57.6075 147.247 57.3201C146.5 57.0304 145.865 56.6102 145.343 56.0789C144.8 55.5475 144.393 54.9052 144.076 54.1736C143.781 53.4441 143.622 52.6232 143.622 51.7587C143.622 50.8724 143.758 50.0754 144.055 49.3221C144.348 48.5904 144.755 47.948 145.299 47.4167C145.842 46.8853 146.5 46.4651 147.268 46.1777C148.039 45.888 148.9 45.7334 149.851 45.7334C150.823 45.7334 151.685 45.8662 152.387 46.1538C153.113 46.4433 153.702 46.8201 154.199 47.2621L153.542 48.2594C153.406 48.4597 153.249 48.5707 153.043 48.5707C152.907 48.5707 152.771 48.5251 152.635 48.4358C152.455 48.3248 152.274 48.2354 152.092 48.1244C151.912 48.0156 151.708 47.9284 151.483 47.8587C151.256 47.7934 151.007 47.728 150.736 47.6824C150.464 47.6388 150.123 47.617 149.76 47.617C149.172 47.617 148.627 47.7041 148.153 47.9044C147.676 48.1048 147.268 48.3705 146.931 48.7471C146.591 49.1021 146.341 49.5441 146.16 50.0536C145.978 50.5632 145.887 51.1381 145.887 51.7587C145.887 52.4468 145.978 53.0434 146.183 53.5747C146.387 54.1061 146.659 54.5502 146.997 54.9052C147.338 55.2601 147.767 55.5475 148.244 55.7457C148.718 55.9461 149.308 56.0571 149.874 56.0571Z" fill="black"/>
<path fill-rule="evenodd" clip-rule="evenodd" d="M162.169 52.9288H158.153V55.969H163.99V57.7621H155.66V45.7334H163.99V47.5289H158.128V51.227H162.743V52.5429C162.743 52.5429 162.718 52.9288 162.169 52.9288Z" fill="black"/>
<path fill-rule="evenodd" clip-rule="evenodd" d="M105.979 122.07H109.099C109.255 122.07 109.382 122.196 109.382 122.352V122.455C109.382 122.571 109.339 122.682 109.26 122.768L99.4014 133.507C99.2405 133.684 99.2388 133.955 99.4014 134.132L107.178 142.652C107.339 142.827 107.34 143.095 107.181 143.272L105.8 144.82C105.63 145.011 105.337 145.027 105.146 144.857C105.135 144.847 105.124 144.836 105.114 144.824L95.321 134.131C95.1584 133.955 95.1584 133.684 95.3193 133.507L105.637 122.22C105.725 122.124 105.848 122.07 105.979 122.07Z" fill="#F06A2A"/>
<path fill-rule="evenodd" clip-rule="evenodd" d="M110.459 147.054H107.344C107.19 147.054 107.063 146.928 107.063 146.774V146.673C107.063 146.558 107.108 146.447 107.185 146.361L117.031 135.582C117.192 135.406 117.192 135.136 117.031 134.959L109.276 126.45C109.117 126.274 109.115 126.006 109.274 125.829L110.649 124.3C110.82 124.11 111.112 124.095 111.303 124.266C111.314 124.275 111.324 124.286 111.335 124.297L121.126 134.959C121.287 135.135 121.288 135.406 121.126 135.583L110.801 146.903C110.713 146.999 110.59 147.054 110.459 147.054Z" fill="#F06A2A"/>
<path fill-rule="evenodd" clip-rule="evenodd" d="M108.565 139.652C110.681 139.652 112.35 137.303 112.152 134.791C112.064 133.674 111.378 131.673 111.144 132.029C111.029 132.205 111.29 133.577 111.205 134.417C111.063 135.813 110.527 136.663 110.254 136.166C109.98 135.669 110.075 134.688 110.007 133.656C109.936 132.537 109.748 131.422 109.514 130.73C109.414 130.429 108.456 127.866 107.764 127.624C107.719 127.624 107.693 127.624 107.68 127.624C107.659 127.624 107.594 127.645 107.557 127.679C107.403 127.813 107.632 128.692 106.999 129.764C106.583 130.467 105.771 131.385 105.374 132.285C104.837 133.505 104.74 134.699 104.769 135.33C104.888 138.083 106.45 139.652 108.565 139.652Z" fill="#F06A2A"/>
<defs>
<linearGradient id="paint0_linear_13365_14632" x1="91.6267" y1="149.821" x2="367.109" y2="324.629" gradientUnits="userSpaceOnUse">
<stop stop-color="#C2C2BD"/>
<stop offset="1" stop-color="#F06A2A"/>
</linearGradient>
<linearGradient id="paint1_linear_13365_14632" x1="131.022" y1="49.9967" x2="104.418" y2="31.0362" gradientUnits="userSpaceOnUse">
<stop stop-color="white"/>
<stop offset="1" stop-color="#E7E7E7"/>
</linearGradient>
<linearGradient id="paint2_linear_13365_14632" x1="70.8836" y1="73.1446" x2="118.806" y2="140.938" gradientUnits="userSpaceOnUse">
<stop stop-color="white"/>
<stop offset="1" stop-color="#F3F3F3"/>
</linearGradient>
<linearGradient id="paint3_linear_13365_14632" x1="287.53" y1="74.3759" x2="176.453" y2="145.317" gradientUnits="userSpaceOnUse">
<stop stop-color="#FFCB00"/>
<stop offset="1" stop-color="#F06A2B"/>
</linearGradient>
<linearGradient id="paint4_linear_13365_14632" x1="-52.1026" y1="80.8488" x2="93.9931" y2="130.69" gradientUnits="userSpaceOnUse">
<stop stop-color="#FFCB00"/>
<stop offset="1" stop-color="#F06A2B"/>
</linearGradient>
<linearGradient id="paint5_linear_13365_14632" x1="287.537" y1="74.3791" x2="176.46" y2="145.32" gradientUnits="userSpaceOnUse">
<stop stop-color="#FFCB00"/>
<stop offset="1" stop-color="#F06A2B"/>
</linearGradient>
<linearGradient id="paint6_linear_13365_14632" x1="-52.1026" y1="80.8488" x2="93.9931" y2="130.69" gradientUnits="userSpaceOnUse">
<stop stop-color="#FFCB00"/>
<stop offset="1" stop-color="#F06A2B"/>
</linearGradient>
</defs>
</svg>
