<svg width="216" height="188" viewBox="0 0 216 188" fill="none" xmlns="http://www.w3.org/2000/svg">
<path d="M57.7424 132.997L108.97 159.977L158.252 132.997V27.4937H57.7424V132.997Z" fill="white"/>
<path d="M159.291 27.897L56.7069 134.877L109.881 162.125L159.291 135.951V27.897Z" fill="#F2F3F2"/>
<path d="M54.3783 62.6577V135.275L56.1938 136.215L107.422 163.195L108.978 164L110.534 163.195L159.944 136.215L161.76 135.275V24H54.3783V62.6577ZM57.75 133.262V27.4899H158.388V133.262L108.978 160.242L57.75 133.262Z" fill="#DCDEDC"/>
<path d="M108.065 29.2349C108.584 29.2349 109.103 29.2349 109.621 29.3691L108.065 32.4564C105.731 32.3221 103.656 34.2013 103.526 36.6175C103.397 39.0335 105.212 41.1812 107.547 41.3154H108.065C109.103 41.3154 110.14 40.9128 110.918 40.2416L112.603 43.1945C111.306 44.1343 109.75 44.6712 108.065 44.6712C103.916 44.8054 100.413 41.5839 100.283 37.2886C100.154 32.9933 103.266 29.3691 107.416 29.2349H108.065ZM113.383 35.8121L115.327 39.1679L113.383 42.3892L111.566 39.1679H107.806L109.75 35.8121H113.383ZM110.269 34.604C110.269 34.0671 110.4 33.5302 110.659 33.1275C110.918 32.7248 111.437 32.3221 111.825 32.0537L112.084 31.9195C112.603 31.651 112.734 31.5168 112.734 31.2483C112.734 30.9799 112.344 30.7114 112.084 30.7114C111.566 30.7114 111.178 30.9799 110.918 31.5168L110.269 30.8456C110.4 30.5772 110.659 30.3087 110.918 30.0403C111.306 29.7718 111.696 29.7718 112.084 29.7718C112.474 29.7718 112.993 29.906 113.252 30.1745C113.512 30.4429 113.771 30.8456 113.771 31.2483C113.771 31.9195 113.383 32.4564 112.603 32.7248L112.215 32.9933C111.825 33.2617 111.566 33.396 111.437 33.7987H113.771V34.7382L110.269 34.604ZM108.065 51.3825L120.386 44.1343V24H95.6143V44.0001L108.065 51.3825ZM164.221 98.8993H51.9096L47.7599 108.295L51.9096 117.691H164.221L168.24 108.295L164.221 98.8993Z" fill="#FF492C"/>
<path d="M69.6747 78.7528C70.5304 78.7528 71.282 78.9317 71.9314 79.2897C72.5788 79.6475 73.0805 80.162 73.4345 80.8331C73.7904 81.4954 73.9665 82.256 73.9665 83.1151C73.9665 83.9653 73.7847 84.7123 73.4212 85.3568C73.0502 85.9921 72.5315 86.4887 71.8651 86.8466C71.2006 87.2046 70.4301 87.3835 69.5574 87.3835H66.7953C66.7347 87.3835 66.7044 87.4193 66.7044 87.4909V92.6184C66.7044 92.6902 66.678 92.7483 66.6268 92.7929C66.5833 92.8376 66.5265 92.8601 66.4584 92.8601H64.1885C64.1185 92.8601 64.0635 92.8376 64.02 92.7929C63.9764 92.7483 63.9556 92.6902 63.9556 92.6184V78.9944C63.9556 78.9228 63.9764 78.8645 64.02 78.8198C64.0635 78.7751 64.1185 78.7528 64.1885 78.7528H69.6747ZM69.2583 85.1152C69.8641 85.1152 70.3449 84.9361 70.699 84.5781C71.0624 84.2203 71.2442 83.755 71.2442 83.1823C71.2442 82.5828 71.0624 82.104 70.699 81.746C70.3449 81.3791 69.8641 81.1957 69.2583 81.1957H66.7953C66.7347 81.1957 66.7044 81.2315 66.7044 81.303V85.0077C66.7044 85.0792 66.7347 85.1152 66.7953 85.1152H69.2583ZM83.7842 86.6185C83.8542 87.1285 83.8751 87.6968 83.8486 88.3231C83.841 88.4931 83.7577 88.5783 83.6025 88.5783H77.5975C77.5199 88.5783 77.4896 88.6095 77.5066 88.6722C77.5502 88.9406 77.624 89.2091 77.7281 89.4775C78.0651 90.2293 78.7523 90.6051 79.7897 90.6051C80.6189 90.5962 81.272 90.2471 81.7472 89.558C81.8078 89.4775 81.8684 89.4372 81.929 89.4372C81.9649 89.4372 82.0066 89.4641 82.0596 89.5178L83.4605 90.9405C83.5286 91.0123 83.5646 91.0749 83.5646 91.1285C83.5646 91.1554 83.5381 91.2092 83.4851 91.2896C83.0535 91.8445 82.5045 92.2695 81.8381 92.5648C81.1566 92.8691 80.4126 93.0211 79.608 93.0211C78.5024 93.0211 77.5597 92.7617 76.7816 92.2426C76.0111 91.7146 75.4583 90.9809 75.1213 90.0413C74.8449 89.3702 74.7067 88.4931 74.7067 87.4104C74.7067 86.6677 74.8051 86.0144 75.0039 85.4507C75.3068 84.5022 75.8293 83.7459 76.5733 83.1823C77.3173 82.6185 78.1995 82.3367 79.2199 82.3367C80.5167 82.3367 81.5579 82.7259 82.3455 83.5043C83.1311 84.283 83.6119 85.321 83.7842 86.6185ZM79.2445 84.793C78.4229 84.793 77.8833 85.1868 77.624 85.9741C77.5729 86.1532 77.5293 86.3679 77.4933 86.6185C77.4933 86.6812 77.5294 86.7124 77.5975 86.7124H80.9578C81.0354 86.7124 81.06 86.6812 81.0354 86.6185C80.9653 86.2337 80.9313 86.0459 80.9313 86.0548C80.8196 85.6521 80.6151 85.3388 80.3217 85.1152C80.0358 84.9003 79.678 84.793 79.2445 84.793ZM90.5275 82.3768C90.9951 82.3768 91.3661 82.4709 91.6425 82.6587C91.7391 82.7124 91.7732 82.8109 91.7467 82.954L91.3454 85.2494C91.3359 85.4103 91.245 85.4596 91.0727 85.3971C90.8739 85.3253 90.6487 85.2896 90.3988 85.2896C90.2947 85.2896 90.147 85.303 89.9577 85.3299C89.4996 85.3746 89.1058 85.5536 88.7764 85.8668C88.4565 86.1801 88.2974 86.6005 88.2974 87.1285V92.6184C88.2974 92.6902 88.2709 92.7483 88.2198 92.7929C88.1763 92.8376 88.1252 92.8601 88.0646 92.8601H85.7815C85.7209 92.8601 85.6641 92.8376 85.613 92.7929C85.5694 92.7483 85.5486 92.6902 85.5486 92.6184V82.7528C85.5486 82.6901 85.5694 82.6318 85.613 82.5782C85.6641 82.5335 85.7209 82.511 85.7815 82.511H88.0646C88.1252 82.511 88.1763 82.5335 88.2198 82.5782C88.2709 82.6318 88.2974 82.6901 88.2974 82.7528V83.5178C88.2974 83.5536 88.3106 83.5804 88.3372 83.5984C88.3542 83.6162 88.3712 83.6073 88.3883 83.5715C88.924 82.7751 89.6378 82.3768 90.5275 82.3768ZM98.8156 82.4976C98.8837 82.4976 98.9406 82.5201 98.9841 82.5648C99.0277 82.6095 99.0485 82.6678 99.0485 82.7393V84.6453C99.0485 84.7169 99.0277 84.775 98.9841 84.8199C98.9406 84.8646 98.8837 84.8869 98.8156 84.8869H96.9338C96.8657 84.8869 96.8316 84.9183 96.8316 84.981V92.6184C96.8316 92.6902 96.8089 92.7483 96.7654 92.7929C96.7237 92.8376 96.6669 92.8601 96.5969 92.8601H94.327C94.2588 92.8601 94.2021 92.8376 94.1585 92.7929C94.1169 92.7483 94.0942 92.6902 94.0942 92.6184V84.981C94.0942 84.9183 94.0601 84.8869 93.9901 84.8869H92.8504C92.7803 84.8869 92.7235 84.8646 92.68 84.8199C92.6383 84.775 92.6156 84.7169 92.6156 84.6453V82.7393C92.6156 82.6678 92.6383 82.6095 92.68 82.5648C92.7235 82.5201 92.7803 82.4976 92.8504 82.4976H93.9901C94.0601 82.4976 94.0942 82.4618 94.0942 82.3902V81.9472C94.0942 81.115 94.2153 80.4663 94.4576 80.0009C94.7075 79.5447 95.107 79.2179 95.6503 79.0212C96.205 78.8244 96.9698 78.7394 97.9467 78.766H98.685C98.7455 78.766 98.7986 78.7886 98.8402 78.8333C98.8932 78.887 98.9198 78.9451 98.9198 79.0078V80.6319C98.9198 80.7035 98.8932 80.7616 98.8402 80.8064C98.7986 80.86 98.7455 80.8869 98.685 80.8869H98.0376C97.587 80.8958 97.2727 80.9899 97.091 81.1688C96.9168 81.3568 96.8316 81.6922 96.8316 82.1756V82.3902C96.8316 82.4618 96.8657 82.4976 96.9338 82.4976H98.8156ZM104.457 93.0211C103.367 93.0211 102.433 92.7259 101.655 92.1353C100.877 91.5446 100.345 90.7393 100.059 89.7191C99.8777 89.0926 99.7887 88.4081 99.7887 87.6654C99.7887 86.8781 99.8777 86.1666 100.059 85.5313C100.362 84.538 100.904 83.7593 101.682 83.1956C102.46 82.6318 103.393 82.3501 104.482 82.3501C105.538 82.3501 106.445 82.6274 107.206 83.1823C107.95 83.7459 108.476 84.5245 108.789 85.5179C109.004 86.189 109.112 86.8913 109.112 87.6251C109.112 88.35 109.021 89.0302 108.84 89.6655C108.556 90.7124 108.024 91.5312 107.246 92.1218C106.475 92.7214 105.546 93.0211 104.457 93.0211ZM104.457 90.5916C104.881 90.5916 105.243 90.4574 105.546 90.189C105.849 89.9205 106.064 89.5491 106.195 89.0749C106.29 88.6453 106.337 88.1754 106.337 87.6654C106.337 87.1017 106.29 86.6274 106.195 86.2426C106.047 85.7863 105.828 85.4283 105.532 85.1688C105.229 84.9183 104.862 84.793 104.431 84.793C103.999 84.793 103.636 84.9183 103.342 85.1688C103.047 85.4283 102.835 85.7863 102.706 86.2426C102.602 86.5559 102.551 87.0301 102.551 87.6654C102.551 88.2739 102.598 88.7437 102.693 89.0749C102.823 89.5491 103.039 89.9205 103.342 90.189C103.643 90.4574 104.016 90.5916 104.457 90.5916ZM115.856 82.3768C116.323 82.3768 116.694 82.4709 116.971 82.6587C117.075 82.7124 117.111 82.8109 117.075 82.954L116.673 85.2494C116.664 85.4103 116.573 85.4596 116.401 85.3971C116.202 85.3253 115.977 85.2896 115.727 85.2896C115.623 85.2896 115.481 85.303 115.299 85.3299C114.831 85.3746 114.434 85.5536 114.106 85.8668C113.786 86.1801 113.625 86.6005 113.625 87.1285V92.6184C113.625 92.6902 113.599 92.7483 113.548 92.7929C113.504 92.8376 113.448 92.8601 113.379 92.8601H111.11C111.049 92.8601 110.992 92.8376 110.941 92.7929C110.897 92.7483 110.877 92.6902 110.877 92.6184V82.7528C110.877 82.6901 110.897 82.6318 110.941 82.5782C110.992 82.5335 111.049 82.511 111.11 82.511H113.379C113.448 82.511 113.504 82.5335 113.548 82.5782C113.599 82.6318 113.625 82.6901 113.625 82.7528V83.5178C113.625 83.5536 113.635 83.5804 113.652 83.5984C113.686 83.6162 113.707 83.6073 113.716 83.5715C114.252 82.7751 114.966 82.3768 115.856 82.3768ZM129.408 82.3501C130.419 82.3501 131.211 82.6632 131.782 83.2897C132.352 83.925 132.638 84.8153 132.638 85.9607V92.6184C132.638 92.6902 132.617 92.7483 132.574 92.7929C132.53 92.8376 132.477 92.8601 132.417 92.8601H130.135C130.075 92.8601 130.018 92.8376 129.967 92.7929C129.923 92.7483 129.901 92.6902 129.901 92.6184V86.5782C129.901 86.0324 129.768 85.5983 129.499 85.2761C129.223 84.9541 128.856 84.793 128.398 84.793C127.947 84.793 127.58 84.9541 127.296 85.2761C127.01 85.5983 126.866 86.0279 126.866 86.5648V92.6184C126.866 92.6902 126.845 92.7483 126.802 92.7929C126.751 92.8376 126.694 92.8601 126.633 92.8601H124.377C124.308 92.8601 124.252 92.8376 124.208 92.7929C124.164 92.7483 124.144 92.6902 124.144 92.6184V86.5782C124.144 86.0413 124 85.6072 123.716 85.2761C123.43 84.9541 123.059 84.793 122.601 84.793C122.194 84.793 121.847 84.9183 121.563 85.1688C121.285 85.4283 121.122 85.7863 121.069 86.2426V92.6184C121.069 92.6902 121.048 92.7483 121.005 92.7929C120.954 92.8376 120.897 92.8601 120.836 92.8601H118.567C118.498 92.8601 118.442 92.8376 118.398 92.7929C118.355 92.7483 118.334 92.6902 118.334 92.6184V82.7528C118.334 82.6901 118.355 82.6318 118.398 82.5782C118.442 82.5335 118.498 82.511 118.567 82.511H120.836C120.897 82.511 120.954 82.5335 121.005 82.5782C121.048 82.6318 121.069 82.6901 121.069 82.7528V83.5447C121.069 83.5804 121.083 83.6073 121.109 83.6251C121.136 83.6342 121.16 83.6162 121.187 83.5715C121.722 82.7571 122.548 82.3501 123.663 82.3501C124.312 82.3501 124.878 82.4932 125.363 82.7795C125.848 83.057 126.219 83.4597 126.478 83.9877C126.512 84.0681 126.559 84.0681 126.62 83.9877C126.896 83.4328 127.282 83.0212 127.775 82.7528C128.259 82.4843 128.803 82.3501 129.408 82.3501ZM143.363 86.6185C143.44 87.1285 143.467 87.6968 143.44 88.3231C143.423 88.4931 143.338 88.5783 143.181 88.5783H137.178C137.1 88.5783 137.074 88.6095 137.1 88.6722C137.134 88.9406 137.202 89.2091 137.307 89.4775C137.644 90.2293 138.331 90.6051 139.368 90.6051C140.199 90.5962 140.856 90.2471 141.341 89.558C141.392 89.4775 141.449 89.4372 141.509 89.4372C141.553 89.4372 141.6 89.4641 141.651 89.5178L143.052 90.9405C143.113 91.0123 143.143 91.0749 143.143 91.1285C143.143 91.1554 143.117 91.2092 143.065 91.2896C142.641 91.8445 142.092 92.2695 141.418 92.5648C140.744 92.8691 140.004 93.0211 139.2 93.0211C138.085 93.0211 137.142 92.7617 136.373 92.2426C135.595 91.7146 135.037 90.9809 134.7 90.0413C134.433 89.3702 134.298 88.4931 134.298 87.4104C134.298 86.6677 134.393 86.0144 134.584 85.4507C134.885 84.5022 135.41 83.7459 136.152 83.1823C136.896 82.6185 137.782 82.3367 138.812 82.3367C140.108 82.3367 141.15 82.7259 141.937 83.5043C142.723 84.283 143.2 85.321 143.363 86.6185ZM138.825 84.793C138.011 84.793 137.475 85.1868 137.216 85.9741C137.165 86.1532 137.117 86.3679 137.074 86.6185C137.074 86.6812 137.108 86.7124 137.178 86.7124H140.536C140.614 86.7124 140.64 86.6812 140.614 86.6185C140.553 86.2337 140.523 86.0459 140.523 86.0548C140.402 85.6521 140.199 85.3388 139.913 85.1152C139.62 84.9003 139.256 84.793 138.825 84.793ZM150.108 82.3768C150.574 82.3768 150.947 82.4709 151.223 82.6587C151.327 82.7124 151.365 82.8109 151.338 82.954L150.937 85.2494C150.92 85.4103 150.825 85.4596 150.651 85.3971C150.462 85.3253 150.237 85.2896 149.977 85.2896C149.873 85.2896 149.731 85.303 149.549 85.3299C149.082 85.3746 148.684 85.5536 148.357 85.8668C148.037 86.1801 147.876 86.6005 147.876 87.1285V92.6184C147.876 92.6902 147.855 92.7483 147.812 92.7929C147.76 92.8376 147.704 92.8601 147.643 92.8601H145.36C145.299 92.8601 145.248 92.8376 145.205 92.7929C145.154 92.7483 145.127 92.6902 145.127 92.6184V82.7528C145.127 82.6901 145.154 82.6318 145.205 82.5782C145.248 82.5335 145.299 82.511 145.36 82.511H147.643C147.704 82.511 147.76 82.5335 147.812 82.5782C147.855 82.6318 147.876 82.6901 147.876 82.7528V83.5178C147.876 83.5536 147.889 83.5804 147.916 83.5984C147.942 83.6162 147.963 83.6073 147.98 83.5715C148.508 82.7751 149.216 82.3768 150.108 82.3768ZM96.5969 58.8735C96.5969 58.8108 96.6196 58.7527 96.6631 58.6989C96.7048 58.6543 96.7578 58.6319 96.8184 58.6319H99.0996C99.1602 58.6319 99.217 58.6543 99.27 58.6989C99.3116 58.7527 99.3343 58.8108 99.3343 58.8735V72.4843C99.3343 72.5558 99.3116 72.614 99.27 72.6588C99.217 72.7035 99.1602 72.7258 99.0996 72.7258H96.8184C96.7578 72.7258 96.7048 72.7035 96.6631 72.6588C96.6196 72.614 96.5969 72.5558 96.5969 72.4843V66.9272C96.5969 66.8646 96.5628 66.8333 96.4947 66.8333H92.1878C92.1272 66.8333 92.0969 66.8646 92.0969 66.9272V72.4843C92.0969 72.5558 92.0761 72.614 92.0326 72.6588C91.9815 72.7035 91.9246 72.7258 91.864 72.7258H89.581C89.5204 72.7258 89.4693 72.7035 89.4257 72.6588C89.3746 72.614 89.3481 72.5558 89.3481 72.4843V58.8735C89.3481 58.8108 89.3746 58.7527 89.4257 58.6989C89.4693 58.6543 89.5204 58.6319 89.581 58.6319H91.864C91.9246 58.6319 91.9815 58.6543 92.0326 58.6989C92.0761 58.7527 92.0969 58.8108 92.0969 58.8735V64.2829C92.0969 64.3545 92.1272 64.3902 92.1878 64.3902H96.4947C96.5628 64.3902 96.5969 64.3545 96.5969 64.2829V58.8735ZM102.874 61.209C102.433 61.209 102.066 61.057 101.773 60.7528C101.477 60.4575 101.332 60.0815 101.332 59.6252C101.332 59.1508 101.474 58.7662 101.759 58.4708C102.045 58.1755 102.416 58.0278 102.874 58.0278C103.333 58.0278 103.704 58.1755 103.989 58.4708C104.275 58.7662 104.417 59.1508 104.417 59.6252C104.417 60.0815 104.272 60.4575 103.976 60.7528C103.683 61.057 103.316 61.209 102.874 61.209ZM101.706 72.7258C101.646 72.7258 101.591 72.7035 101.538 72.6588C101.496 72.614 101.474 72.5558 101.474 72.4843V62.605C101.474 62.5335 101.496 62.4753 101.538 62.4305C101.591 62.3858 101.646 62.3635 101.706 62.3635H103.989C104.05 62.3635 104.101 62.3858 104.145 62.4305C104.198 62.4753 104.222 62.5335 104.222 62.605V72.4843C104.222 72.5558 104.198 72.614 104.145 72.6588C104.101 72.7035 104.05 72.7258 103.989 72.7258H101.706ZM112.459 62.6185C112.459 62.5558 112.484 62.4977 112.537 62.4439C112.579 62.3992 112.632 62.3769 112.692 62.3769H114.975C115.034 62.3769 115.091 62.3992 115.144 62.4439C115.185 62.4977 115.208 62.5558 115.208 62.6185V71.7997C115.208 73.5535 114.72 74.8064 113.743 75.5581C112.766 76.3186 111.503 76.6989 109.955 76.6989C109.497 76.6989 108.991 76.6632 108.438 76.5916C108.308 76.5738 108.243 76.4888 108.243 76.3366L108.321 74.2561C108.321 74.0772 108.412 74.0011 108.594 74.0279C109.061 74.1084 109.489 74.1487 109.877 74.1487C110.708 74.1487 111.348 73.9653 111.797 73.5984C112.238 73.2135 112.459 72.6096 112.459 71.7863C112.459 71.7414 112.446 71.7147 112.42 71.7056C112.393 71.6967 112.368 71.7102 112.342 71.746C111.85 72.2919 111.13 72.5647 110.189 72.5647C109.341 72.5647 108.567 72.3544 107.867 71.934C107.159 71.5133 106.653 70.8333 106.35 69.8935C106.159 69.2762 106.064 68.4752 106.064 67.491C106.064 66.4439 106.182 65.5939 106.415 64.9406C106.683 64.1174 107.142 63.4596 107.789 62.9676C108.438 62.4663 109.194 62.2158 110.059 62.2158C111.053 62.2158 111.814 62.5246 112.342 63.1419C112.368 63.1688 112.393 63.1777 112.42 63.1688C112.446 63.1599 112.459 63.1376 112.459 63.1018V62.6185ZM112.302 69.1151C112.406 68.7213 112.459 68.171 112.459 67.4641C112.459 67.0525 112.446 66.7349 112.42 66.5111C112.393 66.2784 112.35 66.0592 112.289 65.8534C112.17 65.4954 111.975 65.2047 111.706 64.9809C111.439 64.7662 111.1 64.6587 110.695 64.6587C110.305 64.6587 109.977 64.7662 109.709 64.9809C109.432 65.2047 109.23 65.4954 109.099 65.8534C108.917 66.2561 108.826 66.8019 108.826 67.491C108.826 68.2426 108.904 68.7796 109.061 69.1017C109.173 69.4685 109.375 69.7593 109.671 69.9742C109.964 70.198 110.311 70.3097 110.708 70.3097C111.123 70.3097 111.469 70.198 111.746 69.9742C112.013 69.7593 112.2 69.4731 112.302 69.1151ZM122.393 62.2158C123.43 62.2158 124.265 62.5469 124.895 63.2091C125.528 63.8622 125.842 64.7528 125.842 65.8801V72.4843C125.842 72.5558 125.821 72.614 125.777 72.6588C125.734 72.7035 125.683 72.7258 125.622 72.7258H123.339C123.279 72.7258 123.222 72.7035 123.171 72.6588C123.127 72.614 123.106 72.5558 123.106 72.4843V66.4573C123.106 65.9293 122.959 65.4954 122.665 65.1554C122.379 64.8243 121.995 64.6587 121.51 64.6587C121.035 64.6587 120.651 64.8243 120.356 65.1554C120.062 65.4954 119.916 65.9293 119.916 66.4573V72.4843C119.916 72.5558 119.894 72.614 119.85 72.6588C119.807 72.7035 119.752 72.7258 119.682 72.7258H117.412C117.344 72.7258 117.287 72.7035 117.243 72.6588C117.202 72.614 117.179 72.5558 117.179 72.4843V58.8735C117.179 58.8108 117.202 58.7527 117.243 58.6989C117.287 58.6543 117.344 58.6319 117.412 58.6319H119.682C119.752 58.6319 119.807 58.6543 119.85 58.6989C119.894 58.7527 119.916 58.8108 119.916 58.8735V63.3299C119.916 63.3657 119.928 63.3926 119.954 63.4104C119.981 63.4194 119.998 63.4104 120.007 63.3837C120.543 62.605 121.338 62.2158 122.393 62.2158Z" fill="#252530"/>
<path d="M87.6954 113.532C87.6007 113.532 87.5401 113.487 87.5155 113.398L85.1548 104.311L85.1415 104.257C85.1415 104.177 85.1889 104.136 85.2835 104.136H86.5557C86.6504 104.136 86.7109 104.181 86.7374 104.27L88.216 110.391C88.2235 110.418 88.2368 110.431 88.2539 110.431C88.2709 110.431 88.2841 110.418 88.2936 110.391L89.7059 104.27C89.7324 104.181 89.7892 104.136 89.8743 104.136H91.12C91.2147 104.136 91.2753 104.181 91.3018 104.27L92.8068 110.405C92.8144 110.431 92.8276 110.445 92.8447 110.445C92.8617 110.445 92.8749 110.431 92.8844 110.405L94.3364 104.27C94.3629 104.181 94.4235 104.136 94.5182 104.136H95.7241C95.8452 104.136 95.8926 104.194 95.8661 104.311L93.6228 113.398C93.5962 113.487 93.5375 113.532 93.441 113.532H92.2351C92.1404 113.532 92.0798 113.487 92.0533 113.398L90.537 106.995C90.5275 106.968 90.5142 106.951 90.4972 106.942C90.4802 106.942 90.4669 106.959 90.4593 106.995L89.0054 113.398C88.9808 113.487 88.924 113.532 88.8369 113.532H87.6954ZM97.3067 113.532C97.2632 113.532 97.2235 113.514 97.1894 113.478C97.1629 113.452 97.1515 113.416 97.1515 113.371V104.297C97.1515 104.252 97.1629 104.217 97.1894 104.19C97.2235 104.154 97.2632 104.136 97.3067 104.136H98.4994C98.543 104.136 98.577 104.154 98.6035 104.19C98.6376 104.217 98.6547 104.252 98.6547 104.297V113.371C98.6547 113.416 98.6376 113.452 98.6035 113.478C98.577 113.514 98.543 113.532 98.4994 113.532H97.3067ZM105.828 104.297C105.828 104.252 105.839 104.217 105.866 104.19C105.9 104.154 105.939 104.136 105.983 104.136H107.176C107.219 104.136 107.253 104.154 107.28 104.19C107.314 104.217 107.331 104.252 107.331 104.297V113.371C107.331 113.416 107.314 113.452 107.28 113.478C107.253 113.514 107.219 113.532 107.176 113.532H106.021C105.936 113.532 105.875 113.496 105.839 113.425L102.104 107.089C102.087 107.062 102.07 107.049 102.053 107.049C102.036 107.058 102.026 107.08 102.026 107.116L102.053 113.371C102.053 113.416 102.036 113.452 102.002 113.478C101.975 113.514 101.941 113.532 101.898 113.532H100.705C100.661 113.532 100.622 113.514 100.588 113.478C100.561 113.452 100.548 113.416 100.548 113.371V104.297C100.548 104.252 100.561 104.217 100.588 104.19C100.622 104.154 100.661 104.136 100.705 104.136H101.858C101.945 104.136 102.005 104.172 102.04 104.244L105.761 110.579C105.778 110.606 105.797 110.615 105.814 110.606C105.832 110.606 105.839 110.588 105.839 110.552L105.828 104.297ZM115.191 104.136C115.233 104.136 115.269 104.154 115.293 104.19C115.329 104.217 115.346 104.252 115.346 104.297V105.331C115.346 105.376 115.329 105.411 115.293 105.438C115.269 105.474 115.233 105.492 115.191 105.492H112.804C112.76 105.492 112.739 105.514 112.739 105.559V113.371C112.739 113.416 112.726 113.452 112.7 113.478C112.666 113.514 112.626 113.532 112.584 113.532H111.39C111.348 113.532 111.312 113.514 111.287 113.478C111.251 113.452 111.234 113.416 111.234 113.371V105.559C111.234 105.514 111.214 105.492 111.17 105.492H108.874C108.832 105.492 108.792 105.474 108.758 105.438C108.732 105.411 108.719 105.376 108.719 105.331V104.297C108.719 104.252 108.732 104.217 108.758 104.19C108.792 104.154 108.832 104.136 108.874 104.136H115.191ZM122.881 105.317C122.881 105.362 122.864 105.398 122.83 105.425C122.803 105.461 122.769 105.478 122.726 105.478H118.303C118.26 105.478 118.237 105.501 118.237 105.546V108.056C118.237 108.1 118.26 108.123 118.303 108.123H121.274C121.315 108.123 121.355 108.136 121.389 108.163C121.416 108.199 121.429 108.239 121.429 108.284V109.304C121.429 109.349 121.416 109.389 121.389 109.425C121.355 109.452 121.315 109.465 121.274 109.465H118.303C118.26 109.465 118.237 109.488 118.237 109.532V112.123C118.237 112.168 118.26 112.19 118.303 112.19H122.726C122.769 112.19 122.803 112.208 122.83 112.244C122.864 112.27 122.881 112.306 122.881 112.351V113.371C122.881 113.416 122.864 113.452 122.83 113.478C122.803 113.514 122.769 113.532 122.726 113.532H116.889C116.846 113.532 116.808 113.514 116.772 113.478C116.747 113.452 116.734 113.416 116.734 113.371V104.297C116.734 104.252 116.747 104.217 116.772 104.19C116.808 104.154 116.846 104.136 116.889 104.136H122.726C122.769 104.136 122.803 104.154 122.83 104.19C122.864 104.217 122.881 104.252 122.881 104.297V105.317ZM129.509 113.532C129.422 113.532 129.361 113.492 129.327 113.411L127.614 109.546C127.597 109.51 127.572 109.492 127.536 109.492H125.98C125.936 109.492 125.916 109.514 125.916 109.559V113.371C125.916 113.416 125.899 113.452 125.864 113.478C125.838 113.514 125.804 113.532 125.76 113.532H124.568C124.524 113.532 124.484 113.514 124.45 113.478C124.424 113.452 124.411 113.416 124.411 113.371V104.297C124.411 104.252 124.424 104.217 124.45 104.19C124.484 104.154 124.524 104.136 124.568 104.136H128.132C128.661 104.136 129.128 104.248 129.533 104.472C129.94 104.704 130.257 105.027 130.48 105.438C130.705 105.859 130.817 106.338 130.817 106.874C130.817 107.492 130.662 108.015 130.351 108.445C130.048 108.883 129.624 109.188 129.081 109.358C129.062 109.358 129.051 109.367 129.041 109.385C129.032 109.402 129.032 109.42 129.041 109.438L130.87 113.344C130.887 113.38 130.896 113.407 130.896 113.425C130.896 113.496 130.847 113.532 130.753 113.532H129.509ZM125.98 105.478C125.936 105.478 125.916 105.501 125.916 105.546V108.217C125.916 108.262 125.936 108.284 125.98 108.284H127.926C128.341 108.284 128.678 108.154 128.937 107.895C129.189 107.644 129.314 107.309 129.314 106.888C129.314 106.467 129.189 106.127 128.937 105.868C128.678 105.608 128.341 105.478 127.926 105.478H125.98Z" fill="white"/>
<path d="M91.3624 137.773C91.3378 137.8 91.3283 137.827 91.3378 137.854C91.3548 137.88 91.3794 137.894 91.4154 137.894H96.5117C96.5723 137.894 96.6234 137.916 96.6669 137.961C96.7199 138.006 96.7445 138.059 96.7445 138.122V140.015C96.7445 140.077 96.7199 140.131 96.6669 140.176C96.6234 140.22 96.5723 140.243 96.5117 140.243H88.0551C87.987 140.243 87.9302 140.22 87.8866 140.176C87.8431 140.131 87.8223 140.077 87.8223 140.015V138.216C87.8223 138.1 87.862 138.001 87.9396 137.921C88.553 137.303 89.1796 136.628 89.8195 135.894C90.4594 135.16 90.8607 134.704 91.0254 134.525C91.3719 134.095 91.7259 133.684 92.0894 133.29C93.2309 131.983 93.8007 131.012 93.8007 130.377C93.8007 129.921 93.6455 129.545 93.335 129.249C93.0227 128.963 92.6156 128.82 92.1158 128.82C91.6142 128.82 91.2072 128.963 90.8967 129.249C90.5768 129.545 90.4158 129.934 90.4158 130.417V130.9C90.4158 130.963 90.395 131.017 90.3515 131.062C90.3079 131.106 90.2568 131.129 90.1962 131.129H87.9775C87.9169 131.129 87.8658 131.106 87.8223 131.062C87.7712 131.017 87.7446 130.963 87.7446 130.9V129.988C87.7882 129.29 88.004 128.668 88.3921 128.122C88.7821 127.585 89.297 127.174 89.9368 126.887C90.5843 126.601 91.3113 126.458 92.1158 126.458C93.0056 126.458 93.7799 126.632 94.4368 126.981C95.0937 127.321 95.5992 127.782 95.9532 128.364C96.3167 128.954 96.4984 129.603 96.4984 130.31C96.4984 130.856 96.364 131.415 96.0971 131.988C95.8377 132.56 95.4439 133.178 94.9158 133.84C94.5277 134.341 94.1074 134.842 93.6587 135.343C93.2082 135.836 92.538 136.547 91.6483 137.478L91.3624 137.773ZM102.854 140.458C101.47 140.458 100.381 140.059 99.5842 139.263C98.7815 138.467 98.3783 137.379 98.3783 136.001V130.86C98.3783 129.509 98.7815 128.44 99.5842 127.652C100.381 126.856 101.47 126.458 102.854 126.458C104.228 126.458 105.322 126.856 106.134 127.652C106.939 128.44 107.34 129.509 107.34 130.86V136.001C107.34 137.379 106.939 138.467 106.134 139.263C105.322 140.059 104.228 140.458 102.854 140.458ZM102.854 138.109C103.416 138.109 103.861 137.929 104.188 137.572C104.527 137.214 104.696 136.735 104.696 136.135V130.78C104.696 130.189 104.527 129.715 104.188 129.357C103.861 128.999 103.416 128.82 102.854 128.82C102.301 128.82 101.86 128.999 101.53 129.357C101.193 129.715 101.025 130.189 101.025 130.78V136.135C101.025 136.735 101.193 137.214 101.53 137.572C101.86 137.929 102.301 138.109 102.854 138.109ZM112.605 137.773C112.58 137.8 112.575 137.827 112.594 137.854C112.601 137.88 112.628 137.894 112.671 137.894H117.768C117.828 137.894 117.879 137.916 117.923 137.961C117.966 138.006 117.987 138.059 117.987 138.122V140.015C117.987 140.077 117.966 140.131 117.923 140.176C117.879 140.22 117.828 140.243 117.768 140.243H109.3C109.239 140.243 109.186 140.22 109.143 140.176C109.099 140.131 109.078 140.077 109.078 140.015V138.216C109.078 138.1 109.112 138.001 109.182 137.921C109.805 137.303 110.432 136.628 111.062 135.894C111.702 135.16 112.105 134.704 112.268 134.525C112.624 134.095 112.982 133.684 113.345 133.29C114.487 131.983 115.057 131.012 115.057 130.377C115.057 129.921 114.901 129.545 114.591 129.249C114.271 128.963 113.86 128.82 113.359 128.82C112.857 128.82 112.45 128.963 112.139 129.249C111.827 129.545 111.672 129.934 111.672 130.417V130.9C111.672 130.963 111.651 131.017 111.607 131.062C111.564 131.106 111.507 131.129 111.439 131.129H109.22C109.16 131.129 109.109 131.106 109.065 131.062C109.021 131.017 109.001 130.963 109.001 130.9V129.988C109.035 129.29 109.247 128.668 109.637 128.122C110.025 127.585 110.543 127.174 111.193 126.887C111.84 126.601 112.563 126.458 113.359 126.458C114.248 126.458 115.023 126.632 115.68 126.981C116.346 127.321 116.855 127.782 117.209 128.364C117.565 128.954 117.741 129.603 117.741 130.31C117.741 130.856 117.612 131.415 117.353 131.988C117.084 132.56 116.687 133.178 116.159 133.84C115.77 134.341 115.35 134.842 114.901 135.343C114.451 135.836 113.783 136.547 112.891 137.478L112.605 137.773ZM127.468 133.746C127.72 134.337 127.845 135.021 127.845 135.8C127.845 136.507 127.731 137.156 127.508 137.746C127.205 138.578 126.699 139.227 125.989 139.692C125.281 140.167 124.443 140.404 123.474 140.404C122.523 140.404 121.688 140.158 120.971 139.666C120.253 139.165 119.735 138.493 119.415 137.652C119.242 137.151 119.142 136.605 119.116 136.015C119.116 135.862 119.189 135.786 119.337 135.786H121.567C121.715 135.786 121.789 135.862 121.789 136.015C121.84 136.444 121.91 136.762 121.995 136.968C122.109 137.308 122.294 137.572 122.553 137.759C122.803 137.947 123.106 138.041 123.46 138.041C124.161 138.041 124.645 137.724 124.914 137.088C125.086 136.704 125.174 136.252 125.174 135.733C125.174 135.115 125.077 134.614 124.888 134.229C124.602 133.621 124.123 133.316 123.447 133.316C123.309 133.316 123.163 133.357 123.008 133.437C122.86 133.527 122.678 133.648 122.463 133.8C122.41 133.836 122.362 133.854 122.319 133.854C122.241 133.854 122.186 133.818 122.15 133.746L121.035 132.122C121.011 132.086 120.997 132.041 120.997 131.988C120.997 131.907 121.022 131.845 121.075 131.8L124.057 129.088C124.083 129.062 124.096 129.035 124.096 129.008C124.087 128.981 124.066 128.968 124.032 128.968H119.61C119.549 128.968 119.492 128.945 119.441 128.9C119.398 128.856 119.375 128.802 119.375 128.739V126.847C119.375 126.784 119.398 126.731 119.441 126.686C119.492 126.641 119.549 126.619 119.61 126.619H127.442C127.512 126.619 127.568 126.641 127.61 126.686C127.654 126.731 127.676 126.784 127.676 126.847V128.994C127.676 129.093 127.633 129.191 127.546 129.29L125.083 131.625C125.056 131.652 125.047 131.675 125.056 131.692C125.056 131.719 125.083 131.733 125.134 131.733C126.222 131.956 127 132.628 127.468 133.746Z" fill="#252530"/>
</svg>
