<svg width="402" height="614" viewBox="0 0 402 614" fill="none" xmlns="http://www.w3.org/2000/svg">
<path d="M13 61C13 32.8335 35.8335 10 64 10H337C365.167 10 388 32.8335 388 61V604H13V61Z" fill="#101418"/>
<path d="M13 61C13 32.8335 35.8335 10 64 10H337C365.167 10 388 32.8335 388 61V604H13V61Z" stroke="#272A2E" stroke-width="19"/>
<path d="M23 59C23 36.9086 40.9086 19 63 19H339C361.091 19 379 36.9086 379 59V604H23V59Z" fill="#0B0F12"/>
<path d="M52.5239 142.033C51.1938 142.033 49.9434 141.771 48.7725 141.246C47.6017 140.713 46.5713 139.982 45.6815 139.055C44.801 138.118 44.1079 137.031 43.6021 135.795C43.1056 134.559 42.8574 133.238 42.8574 131.833C42.8574 130.428 43.1056 129.107 43.6021 127.871C44.1079 126.634 44.801 125.552 45.6815 124.625C46.5713 123.688 47.6017 122.958 48.7725 122.433C49.9434 121.899 51.1938 121.632 52.5239 121.632C54.1162 121.632 55.5821 122.002 56.9216 122.742C58.261 123.482 59.371 124.466 60.2515 125.693L57.6522 127.084C57.0434 126.316 56.2893 125.702 55.3901 125.243C54.4909 124.784 53.5355 124.555 52.5239 124.555C51.5872 124.555 50.7114 124.747 49.8965 125.131C49.0816 125.515 48.3651 126.04 47.7469 126.705C47.1286 127.37 46.6463 128.142 46.2997 129.023C45.9531 129.903 45.7798 130.84 45.7798 131.833C45.7798 132.835 45.9531 133.776 46.2997 134.657C46.6463 135.528 47.1286 136.301 47.7469 136.975C48.3744 137.64 49.0957 138.165 49.9106 138.549C50.7255 138.924 51.5966 139.111 52.5239 139.111C53.5542 139.111 54.5143 138.881 55.4042 138.422C56.3034 137.954 57.0527 137.336 57.6522 136.568L60.2515 137.987C59.371 139.214 58.261 140.197 56.9216 140.937C55.5821 141.668 54.1162 142.033 52.5239 142.033ZM75.9674 132.859V141.668H73.045V133.575C73.045 132.948 72.8904 132.376 72.5813 131.861C72.2816 131.346 71.8741 130.938 71.3589 130.639C70.8531 130.33 70.2818 130.175 69.6448 130.175C69.0266 130.175 68.4599 130.33 67.9448 130.639C67.4296 130.938 67.0175 131.346 66.7084 131.861C66.3993 132.376 66.2447 132.948 66.2447 133.575V141.668H63.3223V120.593H66.2447V129.107C66.7318 128.526 67.3312 128.067 68.0431 127.73C68.755 127.393 69.5231 127.224 70.3473 127.224C71.387 127.224 72.3331 127.477 73.1855 127.983C74.0378 128.489 74.7122 129.168 75.2087 130.02C75.7145 130.873 75.9674 131.819 75.9674 132.859ZM89.7655 127.618H92.6879V141.668H89.7514L89.639 139.631C89.2269 140.352 88.6696 140.933 87.9671 141.373C87.2645 141.813 86.4356 142.033 85.4802 142.033C84.4498 142.033 83.4804 141.841 82.5718 141.457C81.6632 141.064 80.8624 140.521 80.1692 139.827C79.4855 139.134 78.9515 138.338 78.5675 137.439C78.1835 136.53 77.9915 135.556 77.9915 134.516C77.9915 133.514 78.1788 132.573 78.5535 131.692C78.9281 130.803 79.448 130.025 80.113 129.36C80.7781 128.695 81.5461 128.175 82.4172 127.8C83.2977 127.416 84.2391 127.224 85.2413 127.224C86.2623 127.224 87.1615 127.459 87.9389 127.927C88.7258 128.386 89.3767 128.976 89.8919 129.697L89.7655 127.618ZM85.4099 139.209C86.2342 139.209 86.9554 139.008 87.5736 138.605C88.1919 138.193 88.6696 137.64 89.0068 136.947C89.3533 136.254 89.5266 135.486 89.5266 134.643C89.5266 133.791 89.3533 133.018 89.0068 132.325C88.6602 131.631 88.1778 131.084 87.5596 130.681C86.9508 130.269 86.2342 130.063 85.4099 130.063C84.595 130.063 83.8504 130.269 83.176 130.681C82.5015 131.093 81.9676 131.646 81.5742 132.339C81.1808 133.032 80.9841 133.8 80.9841 134.643C80.9841 135.495 81.1855 136.268 81.5883 136.961C82.0004 137.645 82.539 138.193 83.2041 138.605C83.8785 139.008 84.6138 139.209 85.4099 139.209ZM103.247 130.54H100.296L100.282 141.668H97.36L97.374 130.54H95.14V127.618H97.374L97.36 123.206H100.282L100.296 127.618H103.247V130.54ZM110.122 141.935C109.382 141.888 108.661 141.738 107.959 141.485C107.256 141.232 106.638 140.891 106.104 140.46C105.579 140.019 105.186 139.504 104.924 138.914L107.411 137.846C107.532 138.099 107.743 138.347 108.043 138.591C108.352 138.835 108.713 139.036 109.125 139.195C109.537 139.345 109.968 139.42 110.417 139.42C110.858 139.42 111.265 139.359 111.64 139.237C112.024 139.106 112.338 138.909 112.581 138.647C112.825 138.385 112.946 138.071 112.946 137.706C112.946 137.294 112.806 136.975 112.525 136.75C112.253 136.516 111.911 136.338 111.499 136.217C111.087 136.095 110.675 135.978 110.263 135.865C109.345 135.659 108.502 135.378 107.734 135.022C106.975 134.657 106.371 134.193 105.921 133.631C105.472 133.06 105.247 132.362 105.247 131.538C105.247 130.639 105.49 129.861 105.977 129.206C106.465 128.54 107.102 128.03 107.888 127.674C108.684 127.318 109.532 127.14 110.431 127.14C111.555 127.14 112.586 127.379 113.522 127.857C114.459 128.334 115.176 128.99 115.672 129.824L113.354 131.201C113.213 130.92 113.003 130.667 112.722 130.442C112.441 130.217 112.122 130.039 111.766 129.908C111.41 129.768 111.04 129.688 110.656 129.669C110.178 129.65 109.734 129.707 109.321 129.838C108.919 129.96 108.596 130.156 108.352 130.428C108.108 130.699 107.987 131.046 107.987 131.468C107.987 131.88 108.132 132.189 108.422 132.395C108.713 132.592 109.078 132.751 109.518 132.873C109.968 132.994 110.427 133.13 110.895 133.28C111.729 133.542 112.511 133.865 113.241 134.249C113.972 134.624 114.562 135.088 115.012 135.64C115.461 136.193 115.677 136.868 115.658 137.664C115.658 138.544 115.391 139.317 114.857 139.982C114.333 140.647 113.649 141.153 112.806 141.499C111.963 141.846 111.068 141.991 110.122 141.935Z" fill="#E2E2E5"/>
<path d="M286.5 127.1H286.507M286.5 133.9V129.65M295 130.5C295 135.195 291.195 139 286.5 139C281.805 139 278 135.195 278 130.5C278 125.805 281.805 122 286.5 122C291.195 122 295 125.805 295 130.5Z" stroke="white" stroke-width="1.5" stroke-miterlimit="10" stroke-linecap="round" stroke-linejoin="round"/>
<path d="M315.7 136.45V128.8C315.7 127.448 316.237 126.15 317.194 125.194C318.15 124.238 319.447 123.7 320.8 123.7C322.153 123.7 323.45 124.238 324.406 125.194C325.363 126.15 325.9 127.448 325.9 128.8V136.45M315.7 136.45H325.9M315.7 136.45H314M325.9 136.45H327.6M319.95 139H321.65" stroke="white" stroke-width="1.5" stroke-linecap="round" stroke-linejoin="round"/>
<path d="M320.8 123.7C321.269 123.7 321.65 123.319 321.65 122.85C321.65 122.381 321.269 122 320.8 122C320.331 122 319.95 122.381 319.95 122.85C319.95 123.319 320.331 123.7 320.8 123.7Z" stroke="white" stroke-width="1.5"/>
<path d="M355 122V124M355 138.004V140.004M348 131H346M364 131H362M362 124L360 126M348 124L350 126M350 136L348 138M362 138L360 136M359 131C359 132.061 358.579 133.078 357.828 133.828C357.078 134.579 356.061 135 355 135C353.939 135 352.922 134.579 352.172 133.828C351.421 133.078 351 132.061 351 131C351 129.939 351.421 128.922 352.172 128.172C352.922 127.421 353.939 127 355 127C356.061 127 357.078 127.421 357.828 128.172C358.579 128.922 359 129.939 359 131Z" stroke="white" stroke-width="1.5" stroke-linecap="round" stroke-linejoin="round"/>
<rect opacity="0.35" x="327.296" y="35.7047" width="19.6702" height="9.67898" rx="2.02946" stroke="#E2E2E5" stroke-width="0.936675"/>
<path opacity="0.4" d="M348.371 38.6709V42.4176C349.125 42.1003 349.615 41.3621 349.615 40.5442C349.615 39.7264 349.125 38.9882 348.371 38.6709Z" fill="#E2E2E5"/>
<rect x="328.701" y="37.1094" width="16.8602" height="6.86895" rx="1.2489" fill="#E2E2E5"/>
<path fill-rule="evenodd" clip-rule="evenodd" d="M314.963 37.3732C317.046 37.3733 319.051 38.1733 320.561 39.6079C320.675 39.7187 320.856 39.7173 320.968 39.6048L322.055 38.5086C322.112 38.4515 322.144 38.3742 322.143 38.2938C322.143 38.2134 322.11 38.1365 322.053 38.0801C318.089 34.2845 311.835 34.2845 307.872 38.0801C307.814 38.1365 307.782 38.2134 307.781 38.2938C307.78 38.3742 307.812 38.4515 307.869 38.5086L308.956 39.6048C309.068 39.7175 309.25 39.7189 309.364 39.6079C310.874 38.1732 312.879 37.3732 314.963 37.3732ZM314.963 40.9397C316.107 40.9396 317.212 41.3649 318.06 42.1327C318.175 42.2417 318.356 42.2393 318.468 42.1274L319.554 41.0312C319.611 40.9737 319.643 40.8957 319.642 40.8146C319.641 40.7336 319.608 40.6562 319.549 40.5999C316.965 38.1979 312.962 38.1979 310.378 40.5999C310.32 40.6562 310.286 40.7336 310.286 40.8147C310.285 40.8958 310.317 40.9738 310.374 41.0312L311.459 42.1274C311.571 42.2393 311.752 42.2417 311.867 42.1327C312.715 41.3654 313.818 40.9402 314.963 40.9397ZM317.138 43.3393C317.139 43.4206 317.107 43.499 317.049 43.5559L315.171 45.4499C315.116 45.5055 315.041 45.5368 314.963 45.5368C314.884 45.5368 314.809 45.5055 314.754 45.4499L312.875 43.5559C312.817 43.4989 312.785 43.4205 312.787 43.3392C312.789 43.258 312.824 43.181 312.885 43.1265C314.084 42.1128 315.841 42.1128 317.041 43.1265C317.101 43.181 317.136 43.258 317.138 43.3393Z" fill="#E2E2E5"/>
<path fill-rule="evenodd" clip-rule="evenodd" d="M302.161 35.5479H301.224C300.707 35.5479 300.288 35.9672 300.288 36.4845V44.6024C300.288 45.1197 300.707 45.5391 301.224 45.5391H302.161C302.678 45.5391 303.098 45.1197 303.098 44.6024V36.4845C303.098 35.9672 302.678 35.5479 302.161 35.5479ZM296.853 37.7334H297.79C298.307 37.7334 298.726 38.1528 298.726 38.6701V44.6024C298.726 45.1197 298.307 45.539 297.79 45.539H296.853C296.336 45.539 295.916 45.1197 295.916 44.6024V38.6701C295.916 38.1528 296.336 37.7334 296.853 37.7334ZM293.419 39.919H292.482C291.965 39.919 291.545 40.3384 291.545 40.8557V44.6024C291.545 45.1197 291.965 45.5391 292.482 45.5391H293.419C293.936 45.5391 294.355 45.1197 294.355 44.6024V40.8557C294.355 40.3384 293.936 39.919 293.419 39.919ZM289.047 41.7924H288.111C287.593 41.7924 287.174 42.2117 287.174 42.729V44.6024C287.174 45.1197 287.593 45.5391 288.111 45.5391H289.047C289.565 45.5391 289.984 45.1197 289.984 44.6024V42.729C289.984 42.2117 289.565 41.7924 289.047 41.7924Z" fill="#E2E2E5"/>
<path d="M55.8484 46.3079C55.0268 46.3079 54.3217 46.1 53.7329 45.6842C53.1475 45.2651 52.6968 44.6614 52.3808 43.873C52.0681 43.0814 51.9118 42.1284 51.9118 41.0141C51.9151 39.8998 52.0731 38.9518 52.3858 38.1702C52.7018 37.3852 53.1525 36.7864 53.7379 36.374C54.3267 35.9615 55.0302 35.7553 55.8484 35.7553C56.6667 35.7553 57.3702 35.9615 57.9589 36.374C58.5477 36.7864 58.9984 37.3852 59.3111 38.1702C59.6271 38.9552 59.7851 39.9031 59.7851 41.0141C59.7851 42.1317 59.6271 43.0864 59.3111 43.878C58.9984 44.6664 58.5477 45.2684 57.9589 45.6842C57.3735 46.1 56.67 46.3079 55.8484 46.3079ZM55.8484 44.7462C56.4871 44.7462 56.991 44.4319 57.3602 43.8032C57.7328 43.1712 57.919 42.2415 57.919 41.0141C57.919 40.2025 57.8342 39.5206 57.6646 38.9685C57.4949 38.4163 57.2554 38.0005 56.9461 37.7211C56.6368 37.4384 56.2709 37.297 55.8484 37.297C55.2131 37.297 54.7108 37.613 54.3416 38.245C53.9724 38.8737 53.7861 39.7967 53.7828 41.0141C53.7795 41.8291 53.861 42.5143 54.0273 43.0698C54.1969 43.6252 54.4364 44.0443 54.7458 44.3271C55.0551 44.6065 55.4227 44.7462 55.8484 44.7462ZM64.7092 35.7553C65.1982 35.7586 65.6739 35.8451 66.1362 36.0147C66.6019 36.1811 67.021 36.4538 67.3935 36.833C67.7661 37.2089 68.0621 37.7128 68.2816 38.3448C68.5012 38.9768 68.6109 39.7585 68.6109 40.6898C68.6143 41.5679 68.5211 42.3529 68.3315 43.0448C68.1453 43.7333 67.8775 44.3154 67.5282 44.7911C67.179 45.2667 66.7582 45.6293 66.2659 45.8788C65.7736 46.1282 65.2198 46.253 64.6045 46.253C63.9592 46.253 63.3871 46.1266 62.8881 45.8738C62.3925 45.621 61.9917 45.2751 61.6857 44.836C61.3797 44.3969 61.1917 43.8947 61.1219 43.3292H62.943C63.0361 43.735 63.2257 44.0577 63.5118 44.2971C63.8012 44.5333 64.1654 44.6514 64.6045 44.6514C65.313 44.6514 65.8585 44.3437 66.241 43.7284C66.6235 43.113 66.8148 42.2581 66.8148 41.1638H66.7449C66.5819 41.4565 66.3707 41.7093 66.1113 41.9222C65.8518 42.1317 65.5574 42.2931 65.2281 42.4062C64.9022 42.5193 64.5562 42.5758 64.1903 42.5758C63.5916 42.5758 63.0528 42.4328 62.5738 42.1467C62.0981 41.8607 61.7206 41.4682 61.4412 40.9692C61.1651 40.4703 61.0254 39.8998 61.0221 39.2579C61.0221 38.5926 61.1751 37.9955 61.4811 37.4667C61.7904 36.9345 62.2212 36.5154 62.7734 36.2093C63.3255 35.9 63.9708 35.7486 64.7092 35.7553ZM64.7142 37.2521C64.355 37.2521 64.0307 37.3403 63.7413 37.5166C63.4552 37.6895 63.2291 37.9257 63.0627 38.2251C62.8998 38.5211 62.8183 38.8521 62.8183 39.2179C62.8216 39.5805 62.9031 39.9098 63.0627 40.2058C63.2257 40.5019 63.4469 40.7364 63.7263 40.9093C64.0091 41.0823 64.3317 41.1688 64.6943 41.1688C64.9637 41.1688 65.2148 41.1172 65.4477 41.0141C65.6805 40.911 65.8834 40.768 66.0564 40.585C66.2327 40.3988 66.369 40.1875 66.4655 39.9514C66.5653 39.7152 66.6135 39.4657 66.6102 39.203C66.6102 38.8537 66.527 38.5311 66.3607 38.235C66.1977 37.939 65.9732 37.7012 65.6872 37.5215C65.4044 37.3419 65.0801 37.2521 64.7142 37.2521ZM71.124 44.8859C70.8213 44.8859 70.5619 44.7795 70.3457 44.5666C70.1295 44.3504 70.023 44.0909 70.0263 43.7882C70.023 43.4889 70.1295 43.2327 70.3457 43.0199C70.5619 42.807 70.8213 42.7005 71.124 42.7005C71.4167 42.7005 71.6712 42.807 71.8874 43.0199C72.1069 43.2327 72.2183 43.4889 72.2217 43.7882C72.2183 43.9911 72.1651 44.1757 72.062 44.342C71.9622 44.5084 71.8292 44.6414 71.6629 44.7412C71.4999 44.8377 71.3203 44.8859 71.124 44.8859ZM71.124 39.8217C70.8213 39.8217 70.5619 39.7152 70.3457 39.5023C70.1295 39.2861 70.023 39.0267 70.0263 38.724C70.023 38.4246 70.1295 38.1685 70.3457 37.9556C70.5619 37.7394 70.8213 37.6313 71.124 37.6313C71.4167 37.6313 71.6712 37.7394 71.8874 37.9556C72.1069 38.1685 72.2183 38.4246 72.2217 38.724C72.2183 38.9236 72.1651 39.1065 72.062 39.2728C71.9622 39.4391 71.8292 39.5722 71.6629 39.672C71.4999 39.7718 71.3203 39.8217 71.124 39.8217ZM73.6009 44.2173V42.7454L77.9367 35.895H79.1641V37.9905H78.4157L75.4969 42.6157V42.6955H81.549V44.2173H73.6009ZM78.4755 46.1133V43.7683L78.4955 43.1097V35.895H80.2418V46.1133H78.4755ZM86.8811 35.895V46.1133H85.03V37.6962H84.9701L82.5802 39.2229V37.5265L85.1198 35.895H86.8811Z" fill="#E2E2E5"/>
<rect x="54" y="175" width="294" height="56.2827" rx="28.1414" fill="#3B383E"/>
<rect x="54" y="175" width="294" height="56.2827" rx="28.1414" stroke="url(#paint0_linear_12406_19245)" stroke-width="2"/>
<path d="M89.8147 195.229C89.6858 195.186 89.6858 195.004 89.8147 194.961L90.5713 194.709C90.7376 194.653 90.8888 194.56 91.0127 194.436C91.1366 194.312 91.23 194.161 91.2854 193.994L91.5373 193.238C91.5803 193.109 91.7623 193.109 91.8053 193.238L92.0572 193.995C92.1127 194.161 92.2061 194.312 92.3302 194.436C92.4542 194.56 92.6053 194.653 92.7717 194.709L93.528 194.961C93.5562 194.97 93.5808 194.988 93.5982 195.012C93.6156 195.036 93.625 195.065 93.625 195.095C93.625 195.124 93.6156 195.153 93.5982 195.177C93.5808 195.201 93.5562 195.219 93.528 195.229L92.7713 195.481C92.605 195.536 92.4539 195.629 92.33 195.753C92.206 195.877 92.1127 196.028 92.0572 196.195L91.8053 196.951C91.796 196.979 91.7781 197.004 91.754 197.021C91.73 197.039 91.701 197.048 91.6713 197.048C91.6416 197.048 91.6127 197.039 91.5886 197.021C91.5645 197.004 91.5466 196.979 91.5373 196.951L91.2854 196.195C91.23 196.028 91.1366 195.877 91.0126 195.753C90.8887 195.629 90.7376 195.536 90.5713 195.481L89.8147 195.229ZM87.8229 196.738C87.8059 196.732 87.7912 196.721 87.7808 196.707C87.7704 196.692 87.7647 196.675 87.7647 196.657C87.7647 196.639 87.7704 196.622 87.7808 196.607C87.7912 196.593 87.8059 196.582 87.8229 196.577L88.2768 196.425C88.4791 196.358 88.6377 196.199 88.7053 195.997L88.8565 195.543C88.8621 195.526 88.8728 195.511 88.8873 195.501C88.9017 195.491 88.9191 195.485 88.9369 195.485C88.9547 195.485 88.9721 195.491 88.9866 195.501C89.001 195.511 89.0118 195.526 89.0174 195.543L89.1686 195.997C89.2018 196.097 89.2578 196.187 89.3322 196.262C89.4066 196.336 89.4973 196.392 89.5971 196.425L90.051 196.577C90.0679 196.582 90.0826 196.593 90.0931 196.607C90.1035 196.622 90.1091 196.639 90.1091 196.657C90.1091 196.675 90.1035 196.692 90.0931 196.707C90.0826 196.721 90.0679 196.732 90.051 196.738L89.5971 196.889C89.4973 196.922 89.4066 196.978 89.3322 197.052C89.2578 197.127 89.2018 197.217 89.1686 197.317L89.0174 197.771C89.0118 197.788 89.001 197.803 88.9866 197.813C88.9721 197.823 88.9547 197.829 88.9369 197.829C88.9191 197.829 88.9017 197.823 88.8873 197.813C88.8728 197.803 88.8621 197.788 88.8565 197.771L88.7053 197.317C88.672 197.217 88.616 197.127 88.5416 197.052C88.4672 196.978 88.3766 196.922 88.2768 196.889L87.8229 196.738ZM87.4131 193.976C87.402 193.973 87.3923 193.965 87.3855 193.956C87.3787 193.946 87.375 193.935 87.375 193.923C87.375 193.911 87.3787 193.9 87.3855 193.89C87.3923 193.881 87.402 193.873 87.4131 193.869L87.7154 193.769C87.8506 193.724 87.9564 193.618 88.0014 193.483L88.1022 193.18C88.106 193.169 88.1132 193.16 88.1228 193.153C88.1324 193.146 88.1439 193.142 88.1557 193.142C88.1674 193.142 88.1789 193.146 88.1885 193.153C88.1981 193.16 88.2053 193.169 88.2092 193.18L88.31 193.483C88.3321 193.549 88.3695 193.61 88.4191 193.66C88.4688 193.709 88.5293 193.747 88.5959 193.769L88.8982 193.869C88.9094 193.873 88.919 193.881 88.9258 193.89C88.9327 193.9 88.9363 193.911 88.9363 193.923C88.9363 193.935 88.9327 193.946 88.9258 193.956C88.919 193.965 88.9094 193.973 88.8982 193.976L88.5959 194.077C88.5293 194.099 88.4688 194.137 88.4191 194.186C88.3695 194.236 88.3321 194.297 88.31 194.363L88.2092 194.665C88.2053 194.676 88.1981 194.686 88.1885 194.693C88.1789 194.699 88.1674 194.703 88.1557 194.703C88.1439 194.703 88.1324 194.699 88.1228 194.693C88.1132 194.686 88.106 194.676 88.1022 194.665L88.0014 194.363C87.9564 194.228 87.8506 194.122 87.7154 194.077L87.4131 193.976Z" fill="#8C9198"/>
<path d="M91.1549 211.228L86.9752 206.907C87.9815 205.522 88.5247 203.836 88.5229 202.104C88.5229 197.679 85.0411 194.079 80.7614 194.079C76.4818 194.079 73 197.679 73 202.104C73 206.528 76.4818 210.128 80.7614 210.128C82.4369 210.13 84.0675 209.568 85.4071 208.528L89.5868 212.849C89.7984 213.045 90.0743 213.149 90.358 213.141C90.6417 213.133 90.9116 213.013 91.1122 212.805C91.3129 212.598 91.4291 212.319 91.4371 212.026C91.445 211.732 91.344 211.447 91.1549 211.228ZM75.2176 202.104C75.2176 200.97 75.5427 199.862 76.1519 198.919C76.761 197.977 77.6269 197.242 78.6399 196.808C79.6529 196.374 80.7676 196.261 81.843 196.482C82.9184 196.703 83.9062 197.249 84.6816 198.051C85.4569 198.852 85.9849 199.874 86.1988 200.985C86.4127 202.097 86.3029 203.25 85.8833 204.297C85.4637 205.344 84.7532 206.24 83.8415 206.869C82.9298 207.499 81.8579 207.835 80.7614 207.835C79.2917 207.834 77.8826 207.229 76.8433 206.155C75.804 205.08 75.2193 203.623 75.2176 202.104Z" fill="#8C9198"/>
<path d="M113.405 207.042H107.325L106.205 210.142H104.285L109.325 196.282H111.425L116.445 210.142H114.525L113.405 207.042ZM112.885 205.562L110.365 198.522L107.845 205.562H112.885ZM122.522 210.322C121.682 210.322 120.928 210.182 120.262 209.902C119.595 209.608 119.068 209.208 118.682 208.702C118.295 208.182 118.082 207.588 118.042 206.922H119.922C119.975 207.468 120.228 207.915 120.682 208.262C121.148 208.608 121.755 208.782 122.502 208.782C123.195 208.782 123.742 208.628 124.142 208.322C124.542 208.015 124.742 207.628 124.742 207.162C124.742 206.682 124.528 206.328 124.102 206.102C123.675 205.862 123.015 205.628 122.122 205.402C121.308 205.188 120.642 204.975 120.122 204.762C119.615 204.535 119.175 204.208 118.802 203.782C118.442 203.342 118.262 202.768 118.262 202.062C118.262 201.502 118.428 200.988 118.762 200.522C119.095 200.055 119.568 199.688 120.182 199.422C120.795 199.142 121.495 199.002 122.282 199.002C123.495 199.002 124.475 199.308 125.222 199.922C125.968 200.535 126.368 201.375 126.422 202.442H124.602C124.562 201.868 124.328 201.408 123.902 201.062C123.488 200.715 122.928 200.542 122.222 200.542C121.568 200.542 121.048 200.682 120.662 200.962C120.275 201.242 120.082 201.608 120.082 202.062C120.082 202.422 120.195 202.722 120.422 202.962C120.662 203.188 120.955 203.375 121.302 203.522C121.662 203.655 122.155 203.808 122.782 203.982C123.568 204.195 124.208 204.408 124.702 204.622C125.195 204.822 125.615 205.128 125.962 205.542C126.322 205.955 126.508 206.495 126.522 207.162C126.522 207.762 126.355 208.302 126.022 208.782C125.688 209.262 125.215 209.642 124.602 209.922C124.002 210.188 123.308 210.322 122.522 210.322ZM135.211 210.142L130.911 205.302V210.142H129.091V195.342H130.911V204.042L135.131 199.182H137.671L132.511 204.642L137.691 210.142H135.211ZM144.036 204.622C144.036 203.502 144.262 202.522 144.716 201.682C145.169 200.828 145.789 200.168 146.576 199.702C147.376 199.235 148.262 199.002 149.236 199.002C150.196 199.002 151.029 199.208 151.736 199.622C152.442 200.035 152.969 200.555 153.316 201.182V199.182H155.156V210.142H153.316V208.102C152.956 208.742 152.416 209.275 151.696 209.702C150.989 210.115 150.162 210.322 149.216 210.322C148.242 210.322 147.362 210.082 146.576 209.602C145.789 209.122 145.169 208.448 144.716 207.582C144.262 206.715 144.036 205.728 144.036 204.622ZM153.316 204.642C153.316 203.815 153.149 203.095 152.816 202.482C152.482 201.868 152.029 201.402 151.456 201.082C150.896 200.748 150.276 200.582 149.596 200.582C148.916 200.582 148.296 200.742 147.736 201.062C147.176 201.382 146.729 201.848 146.396 202.462C146.062 203.075 145.896 203.795 145.896 204.622C145.896 205.462 146.062 206.195 146.396 206.822C146.729 207.435 147.176 207.908 147.736 208.242C148.296 208.562 148.916 208.722 149.596 208.722C150.276 208.722 150.896 208.562 151.456 208.242C152.029 207.908 152.482 207.435 152.816 206.822C153.149 206.195 153.316 205.468 153.316 204.642ZM162.883 204.622C162.883 203.502 163.11 202.522 163.563 201.682C164.017 200.828 164.637 200.168 165.423 199.702C166.223 199.235 167.117 199.002 168.103 199.002C169.05 199.002 169.877 199.215 170.583 199.642C171.303 200.055 171.83 200.568 172.163 201.182V199.182H174.003V215.342H172.163V208.122C171.817 208.735 171.283 209.255 170.563 209.682C169.843 210.108 169.003 210.322 168.043 210.322C167.083 210.322 166.21 210.082 165.423 209.602C164.637 209.122 164.017 208.448 163.563 207.582C163.11 206.715 162.883 205.728 162.883 204.622ZM172.163 204.642C172.163 203.815 171.997 203.095 171.663 202.482C171.33 201.868 170.877 201.402 170.303 201.082C169.743 200.748 169.123 200.582 168.443 200.582C167.763 200.582 167.143 200.742 166.583 201.062C166.023 201.382 165.577 201.848 165.243 202.462C164.91 203.075 164.743 203.795 164.743 204.622C164.743 205.462 164.91 206.195 165.243 206.822C165.577 207.435 166.023 207.908 166.583 208.242C167.143 208.562 167.763 208.722 168.443 208.722C169.123 208.722 169.743 208.562 170.303 208.242C170.877 207.908 171.33 207.435 171.663 206.822C171.997 206.195 172.163 205.468 172.163 204.642ZM186.799 199.182V210.142H184.979V208.522C184.632 209.082 184.146 209.522 183.519 209.842C182.906 210.148 182.226 210.302 181.479 210.302C180.626 210.302 179.859 210.128 179.179 209.782C178.499 209.422 177.959 208.888 177.559 208.182C177.172 207.475 176.979 206.615 176.979 205.602V199.182H178.779V205.362C178.779 206.442 179.052 207.275 179.599 207.862C180.146 208.435 180.892 208.722 181.839 208.722C182.812 208.722 183.579 208.422 184.139 207.822C184.699 207.222 184.979 206.348 184.979 205.202V199.182H186.799ZM199.872 204.242C199.872 204.588 199.852 204.955 199.812 205.342H191.052C191.119 206.422 191.485 207.268 192.152 207.882C192.832 208.482 193.652 208.782 194.612 208.782C195.399 208.782 196.052 208.602 196.572 208.242C197.105 207.868 197.479 207.375 197.692 206.762H199.652C199.359 207.815 198.772 208.675 197.892 209.342C197.012 209.995 195.919 210.322 194.612 210.322C193.572 210.322 192.639 210.088 191.812 209.622C190.999 209.155 190.359 208.495 189.892 207.642C189.425 206.775 189.192 205.775 189.192 204.642C189.192 203.508 189.419 202.515 189.872 201.662C190.325 200.808 190.959 200.155 191.772 199.702C192.599 199.235 193.545 199.002 194.612 199.002C195.652 199.002 196.572 199.228 197.372 199.682C198.172 200.135 198.785 200.762 199.212 201.562C199.652 202.348 199.872 203.242 199.872 204.242ZM197.992 203.862C197.992 203.168 197.839 202.575 197.532 202.082C197.225 201.575 196.805 201.195 196.272 200.942C195.752 200.675 195.172 200.542 194.532 200.542C193.612 200.542 192.825 200.835 192.172 201.422C191.532 202.008 191.165 202.822 191.072 203.862H197.992ZM206.154 210.322C205.314 210.322 204.561 210.182 203.894 209.902C203.228 209.608 202.701 209.208 202.314 208.702C201.928 208.182 201.714 207.588 201.674 206.922H203.554C203.608 207.468 203.861 207.915 204.314 208.262C204.781 208.608 205.388 208.782 206.134 208.782C206.828 208.782 207.374 208.628 207.774 208.322C208.174 208.015 208.374 207.628 208.374 207.162C208.374 206.682 208.161 206.328 207.734 206.102C207.308 205.862 206.648 205.628 205.754 205.402C204.941 205.188 204.274 204.975 203.754 204.762C203.248 204.535 202.808 204.208 202.434 203.782C202.074 203.342 201.894 202.768 201.894 202.062C201.894 201.502 202.061 200.988 202.394 200.522C202.728 200.055 203.201 199.688 203.814 199.422C204.428 199.142 205.128 199.002 205.914 199.002C207.128 199.002 208.108 199.308 208.854 199.922C209.601 200.535 210.001 201.375 210.054 202.442H208.234C208.194 201.868 207.961 201.408 207.534 201.062C207.121 200.715 206.561 200.542 205.854 200.542C205.201 200.542 204.681 200.682 204.294 200.962C203.908 201.242 203.714 201.608 203.714 202.062C203.714 202.422 203.828 202.722 204.054 202.962C204.294 203.188 204.588 203.375 204.934 203.522C205.294 203.655 205.788 203.808 206.414 203.982C207.201 204.195 207.841 204.408 208.334 204.622C208.828 204.822 209.248 205.128 209.594 205.542C209.954 205.955 210.141 206.495 210.154 207.162C210.154 207.762 209.988 208.302 209.654 208.782C209.321 209.262 208.848 209.642 208.234 209.922C207.634 210.188 206.941 210.322 206.154 210.322ZM214.944 200.682V207.142C214.944 207.675 215.057 208.055 215.284 208.282C215.51 208.495 215.904 208.602 216.464 208.602H217.804V210.142H216.164C215.15 210.142 214.39 209.908 213.884 209.442C213.377 208.975 213.124 208.208 213.124 207.142V200.682H211.704V199.182H213.124V196.422H214.944V199.182H217.804V200.682H214.944ZM220.949 197.402C220.602 197.402 220.309 197.282 220.069 197.042C219.829 196.802 219.709 196.508 219.709 196.162C219.709 195.815 219.829 195.522 220.069 195.282C220.309 195.042 220.602 194.922 220.949 194.922C221.282 194.922 221.562 195.042 221.789 195.282C222.029 195.522 222.149 195.815 222.149 196.162C222.149 196.508 222.029 196.802 221.789 197.042C221.562 197.282 221.282 197.402 220.949 197.402ZM221.829 199.182V210.142H220.009V199.182H221.829ZM229.711 210.322C228.684 210.322 227.751 210.088 226.911 209.622C226.084 209.155 225.431 208.495 224.951 207.642C224.484 206.775 224.251 205.775 224.251 204.642C224.251 203.522 224.491 202.535 224.971 201.682C225.464 200.815 226.131 200.155 226.971 199.702C227.811 199.235 228.751 199.002 229.791 199.002C230.831 199.002 231.771 199.235 232.611 199.702C233.451 200.155 234.111 200.808 234.591 201.662C235.084 202.515 235.331 203.508 235.331 204.642C235.331 205.775 235.077 206.775 234.571 207.642C234.077 208.495 233.404 209.155 232.551 209.622C231.697 210.088 230.751 210.322 229.711 210.322ZM229.711 208.722C230.364 208.722 230.977 208.568 231.551 208.262C232.124 207.955 232.584 207.495 232.931 206.882C233.291 206.268 233.471 205.522 233.471 204.642C233.471 203.762 233.297 203.015 232.951 202.402C232.604 201.788 232.151 201.335 231.591 201.042C231.031 200.735 230.424 200.582 229.771 200.582C229.104 200.582 228.491 200.735 227.931 201.042C227.384 201.335 226.944 201.788 226.611 202.402C226.277 203.015 226.111 203.762 226.111 204.642C226.111 205.535 226.271 206.288 226.591 206.902C226.924 207.515 227.364 207.975 227.911 208.282C228.457 208.575 229.057 208.722 229.711 208.722ZM243.064 198.982C244.397 198.982 245.477 199.388 246.304 200.202C247.13 201.002 247.544 202.162 247.544 203.682V210.142H245.744V203.942C245.744 202.848 245.47 202.015 244.924 201.442C244.377 200.855 243.63 200.562 242.684 200.562C241.724 200.562 240.957 200.862 240.384 201.462C239.824 202.062 239.544 202.935 239.544 204.082V210.142H237.724V199.182H239.544V200.742C239.904 200.182 240.39 199.748 241.004 199.442C241.63 199.135 242.317 198.982 243.064 198.982Z" fill="#8C9198"/>
<path d="M317.003 203.141L312.288 203.141M327.419 202.606C327.52 202.655 327.604 202.731 327.663 202.826C327.722 202.92 327.754 203.029 327.754 203.141C327.754 203.253 327.722 203.362 327.663 203.456C327.604 203.551 327.519 203.627 327.419 203.675L309.461 212.323C309.354 212.375 309.233 212.393 309.116 212.376C308.998 212.358 308.888 212.305 308.8 212.225C308.713 212.144 308.652 212.039 308.624 211.922C308.597 211.806 308.606 211.685 308.649 211.574L311.81 203.354C311.863 203.217 311.863 203.065 311.81 202.928L308.65 194.708C308.607 194.597 308.599 194.475 308.626 194.36C308.653 194.244 308.714 194.139 308.802 194.058C308.889 193.978 308.999 193.925 309.116 193.907C309.234 193.89 309.354 193.908 309.461 193.959L327.419 202.606Z" stroke="#92CCFF" stroke-width="2" stroke-linecap="round" stroke-linejoin="round"/>
<path d="M54.32 269.282V253.882H59.622C60.4507 253.882 61.1987 254.088 61.866 254.498C62.5407 254.909 63.076 255.463 63.472 256.159C63.8753 256.856 64.077 257.626 64.077 258.469C64.077 259.327 63.8717 260.105 63.461 260.801C63.0577 261.491 62.5187 262.041 61.844 262.451C61.1693 262.862 60.4287 263.067 59.622 263.067H56.608V269.282H54.32ZM56.608 260.779H59.391C59.831 260.779 60.2307 260.669 60.59 260.449C60.9567 260.229 61.2463 259.936 61.459 259.569C61.679 259.203 61.789 258.788 61.789 258.326C61.789 257.864 61.679 257.45 61.459 257.083C61.2463 256.709 60.9567 256.416 60.59 256.203C60.2307 255.983 59.831 255.873 59.391 255.873H56.608V260.779ZM65.4964 258.282H67.7844V269.282H65.4964V258.282ZM66.6624 256.687C66.3104 256.687 66.0171 256.574 65.7824 256.346C65.5478 256.119 65.4304 255.833 65.4304 255.488C65.4304 255.151 65.5478 254.869 65.7824 254.641C66.0171 254.407 66.3068 254.289 66.6514 254.289C66.9888 254.289 67.2748 254.407 67.5094 254.641C67.7441 254.869 67.8614 255.151 67.8614 255.488C67.8614 255.833 67.7441 256.119 67.5094 256.346C67.2821 256.574 66.9998 256.687 66.6624 256.687ZM79.8483 262.385V269.282H77.5603V262.946C77.5603 262.455 77.4393 262.008 77.1973 261.604C76.9626 261.201 76.6436 260.882 76.2403 260.647C75.8443 260.405 75.3969 260.284 74.8983 260.284C74.4143 260.284 73.9706 260.405 73.5673 260.647C73.1639 260.882 72.8413 261.201 72.5993 261.604C72.3573 262.008 72.2363 262.455 72.2363 262.946V269.282H69.9483V258.282H72.2363V259.448C72.6176 258.994 73.0869 258.634 73.6443 258.37C74.2016 258.106 74.8029 257.974 75.4483 257.974C76.2623 257.974 77.0029 258.172 77.6703 258.568C78.3376 258.964 78.8656 259.496 79.2543 260.163C79.6503 260.831 79.8483 261.571 79.8483 262.385ZM91.5618 262.385V269.282H89.2738V262.946C89.2738 262.455 89.1528 262.008 88.9108 261.604C88.6761 261.201 88.3571 260.882 87.9538 260.647C87.5578 260.405 87.1105 260.284 86.6118 260.284C86.1278 260.284 85.6841 260.405 85.2808 260.647C84.8775 260.882 84.5548 261.201 84.3128 261.604C84.0708 262.008 83.9498 262.455 83.9498 262.946V269.282H81.6618V258.282H83.9498V259.448C84.3311 258.994 84.8005 258.634 85.3578 258.37C85.9151 258.106 86.5165 257.974 87.1618 257.974C87.9758 257.974 88.7165 258.172 89.3838 258.568C90.0511 258.964 90.5791 259.496 90.9678 260.163C91.3638 260.831 91.5618 261.571 91.5618 262.385ZM98.0005 269.568C96.9885 269.568 96.0645 269.308 95.2285 268.787C94.3998 268.267 93.7362 267.57 93.2375 266.697C92.7462 265.817 92.5005 264.846 92.5005 263.782C92.5005 262.976 92.6435 262.224 92.9295 261.527C93.2155 260.823 93.6078 260.207 94.1065 259.679C94.6125 259.144 95.1992 258.726 95.8665 258.425C96.5338 258.125 97.2452 257.974 98.0005 257.974C98.8438 257.974 99.6175 258.15 100.321 258.502C101.025 258.847 101.627 259.327 102.125 259.943C102.624 260.552 102.991 261.256 103.225 262.055C103.46 262.847 103.53 263.691 103.434 264.585H94.9535C95.0488 265.091 95.2322 265.55 95.5035 265.96C95.7822 266.364 96.1342 266.683 96.5595 266.917C96.9922 267.152 97.4725 267.273 98.0005 267.28C98.5578 267.28 99.0638 267.141 99.5185 266.862C99.9805 266.584 100.358 266.199 100.651 265.707L102.972 266.246C102.532 267.222 101.869 268.021 100.981 268.644C100.094 269.26 99.1005 269.568 98.0005 269.568ZM94.8765 262.836H101.124C101.051 262.308 100.864 261.832 100.563 261.406C100.27 260.974 99.8998 260.633 99.4525 260.383C99.0125 260.127 98.5285 259.998 98.0005 259.998C97.4798 259.998 96.9958 260.123 96.5485 260.372C96.1085 260.622 95.7418 260.963 95.4485 261.395C95.1625 261.821 94.9718 262.301 94.8765 262.836ZM113.422 252.782H115.71V269.282H113.422V267.665C113.062 268.237 112.593 268.699 112.014 269.051C111.434 269.396 110.756 269.568 109.979 269.568C109.179 269.568 108.431 269.418 107.735 269.117C107.038 268.817 106.422 268.402 105.887 267.874C105.359 267.339 104.944 266.723 104.644 266.026C104.343 265.33 104.193 264.582 104.193 263.782C104.193 262.983 104.343 262.235 104.644 261.538C104.944 260.834 105.359 260.218 105.887 259.69C106.422 259.155 107.038 258.737 107.735 258.436C108.431 258.136 109.179 257.985 109.979 257.985C110.756 257.985 111.434 258.161 112.014 258.513C112.593 258.858 113.062 259.313 113.422 259.877V252.782ZM110.001 267.357C110.646 267.357 111.211 267.2 111.695 266.884C112.179 266.562 112.553 266.129 112.817 265.586C113.088 265.044 113.224 264.442 113.224 263.782C113.224 263.115 113.088 262.51 112.817 261.967C112.545 261.425 112.168 260.996 111.684 260.68C111.207 260.358 110.646 260.196 110.001 260.196C109.363 260.196 108.78 260.358 108.252 260.68C107.731 261.003 107.313 261.436 106.998 261.978C106.69 262.521 106.536 263.122 106.536 263.782C106.536 264.45 106.693 265.055 107.009 265.597C107.331 266.133 107.753 266.562 108.274 266.884C108.802 267.2 109.377 267.357 110.001 267.357ZM129.994 269.568C128.952 269.568 127.973 269.363 127.057 268.952C126.14 268.534 125.333 267.962 124.637 267.236C123.947 266.503 123.405 265.652 123.009 264.684C122.62 263.716 122.426 262.682 122.426 261.582C122.426 260.482 122.62 259.448 123.009 258.48C123.405 257.512 123.947 256.665 124.637 255.939C125.333 255.206 126.14 254.634 127.057 254.223C127.973 253.805 128.952 253.596 129.994 253.596C131.24 253.596 132.388 253.886 133.437 254.465C134.485 255.045 135.354 255.815 136.044 256.775L134.009 257.864C133.532 257.263 132.942 256.783 132.238 256.423C131.534 256.064 130.786 255.884 129.994 255.884C129.26 255.884 128.575 256.035 127.937 256.335C127.299 256.636 126.738 257.047 126.254 257.567C125.77 258.088 125.392 258.693 125.121 259.382C124.849 260.072 124.714 260.805 124.714 261.582C124.714 262.367 124.849 263.104 125.121 263.793C125.392 264.475 125.77 265.08 126.254 265.608C126.745 266.129 127.31 266.54 127.948 266.84C128.586 267.134 129.268 267.28 129.994 267.28C130.8 267.28 131.552 267.101 132.249 266.741C132.953 266.375 133.539 265.891 134.009 265.289L136.044 266.4C135.354 267.361 134.485 268.131 133.437 268.71C132.388 269.282 131.24 269.568 129.994 269.568ZM147.702 262.385V269.282H145.414V262.946C145.414 262.455 145.293 262.008 145.051 261.604C144.816 261.201 144.497 260.882 144.094 260.647C143.698 260.405 143.25 260.284 142.752 260.284C142.268 260.284 141.824 260.405 141.421 260.647C141.017 260.882 140.695 261.201 140.453 261.604C140.211 262.008 140.09 262.455 140.09 262.946V269.282H137.802V252.782H140.09V259.448C140.471 258.994 140.94 258.634 141.498 258.37C142.055 258.106 142.656 257.974 143.302 257.974C144.116 257.974 144.856 258.172 145.524 258.568C146.191 258.964 146.719 259.496 147.108 260.163C147.504 260.831 147.702 261.571 147.702 262.385ZM157.858 258.282H160.146V269.282H157.847L157.759 267.687C157.437 268.252 157 268.707 156.45 269.051C155.9 269.396 155.251 269.568 154.503 269.568C153.697 269.568 152.938 269.418 152.226 269.117C151.515 268.809 150.888 268.384 150.345 267.841C149.81 267.299 149.392 266.675 149.091 265.971C148.791 265.26 148.64 264.497 148.64 263.683C148.64 262.899 148.787 262.162 149.08 261.472C149.374 260.776 149.781 260.167 150.301 259.646C150.822 259.126 151.423 258.719 152.105 258.425C152.795 258.125 153.532 257.974 154.316 257.974C155.116 257.974 155.82 258.158 156.428 258.524C157.044 258.884 157.554 259.346 157.957 259.91L157.858 258.282ZM154.448 267.357C155.094 267.357 155.658 267.2 156.142 266.884C156.626 266.562 157 266.129 157.264 265.586C157.536 265.044 157.671 264.442 157.671 263.782C157.671 263.115 157.536 262.51 157.264 261.967C156.993 261.425 156.615 260.996 156.131 260.68C155.655 260.358 155.094 260.196 154.448 260.196C153.81 260.196 153.227 260.358 152.699 260.68C152.171 261.003 151.753 261.436 151.445 261.978C151.137 262.521 150.983 263.122 150.983 263.782C150.983 264.45 151.141 265.055 151.456 265.597C151.779 266.133 152.201 266.562 152.721 266.884C153.249 267.2 153.825 267.357 154.448 267.357ZM167.767 260.57H165.457L165.446 269.282H163.158L163.169 260.57H161.42V258.282H163.169L163.158 254.828H165.446L165.457 258.282H167.767V260.57ZM172.504 269.491C171.925 269.455 171.36 269.337 170.81 269.139C170.26 268.941 169.776 268.674 169.358 268.336C168.947 267.992 168.639 267.588 168.434 267.126L170.381 266.29C170.476 266.488 170.641 266.683 170.876 266.873C171.118 267.064 171.4 267.222 171.723 267.346C172.046 267.464 172.383 267.522 172.735 267.522C173.08 267.522 173.399 267.475 173.692 267.379C173.993 267.277 174.238 267.123 174.429 266.917C174.62 266.712 174.715 266.466 174.715 266.18C174.715 265.858 174.605 265.608 174.385 265.432C174.172 265.249 173.905 265.11 173.582 265.014C173.259 264.919 172.937 264.827 172.614 264.739C171.895 264.578 171.235 264.358 170.634 264.079C170.04 263.793 169.567 263.43 169.215 262.99C168.863 262.543 168.687 261.997 168.687 261.351C168.687 260.647 168.878 260.039 169.259 259.525C169.64 259.005 170.139 258.605 170.755 258.326C171.378 258.048 172.042 257.908 172.746 257.908C173.626 257.908 174.433 258.095 175.166 258.469C175.899 258.843 176.46 259.357 176.849 260.009L175.034 261.087C174.924 260.867 174.759 260.669 174.539 260.493C174.319 260.317 174.07 260.178 173.791 260.075C173.512 259.965 173.223 259.903 172.922 259.888C172.548 259.874 172.2 259.918 171.877 260.02C171.562 260.116 171.309 260.27 171.118 260.482C170.927 260.695 170.832 260.966 170.832 261.296C170.832 261.619 170.946 261.861 171.173 262.022C171.4 262.176 171.686 262.301 172.031 262.396C172.383 262.492 172.742 262.598 173.109 262.715C173.762 262.921 174.374 263.174 174.946 263.474C175.518 263.768 175.98 264.131 176.332 264.563C176.684 264.996 176.853 265.524 176.838 266.147C176.838 266.837 176.629 267.442 176.211 267.962C175.8 268.483 175.265 268.879 174.605 269.15C173.945 269.422 173.245 269.535 172.504 269.491Z" fill="#C2C7CE"/>
<path d="M53 307.282C53 298.446 60.1634 291.282 69 291.282H331C339.837 291.282 347 298.446 347 307.282V539.193C347 548.03 339.837 555.193 331 555.193H69C60.1634 555.193 53 548.03 53 539.193V307.282Z" fill="#1A1C1E"/>
<mask id="path-22-inside-1_12406_19245" fill="white">
<path d="M53 291.282H347V359.509H53V291.282Z"/>
</mask>
<path d="M347 359.009H53V360.009H347V359.009Z" fill="#42474E" mask="url(#path-22-inside-1_12406_19245)"/>
<path d="M79 321.734H106.847M104.361 336.652H81.4864C80.8269 336.652 80.1945 336.391 79.7282 335.924C79.262 335.458 79 334.826 79 334.166V317.259C79 316.599 79.262 315.967 79.7282 315.501C80.1945 315.034 80.8269 314.772 81.4864 314.772H86.2036C86.6945 314.772 87.1745 314.918 87.5829 315.19L89.3134 316.344C89.7219 316.616 90.2018 316.762 90.6927 316.762H104.361C105.02 316.762 105.653 317.024 106.119 317.49C106.585 317.956 106.847 318.588 106.847 319.248V334.166C106.847 334.826 106.585 335.458 106.119 335.924C105.653 336.391 105.02 336.652 104.361 336.652Z" stroke="#C2C7CE" stroke-width="2" stroke-linecap="round" stroke-linejoin="round"/>
<path d="M132.128 332.896L129.278 321.749H130.981L133.067 329.926L135.145 321.749H136.65L138.736 329.926L140.822 321.749H142.526L139.691 332.896H137.789L135.902 325.515L134.015 332.896H132.128ZM145.999 333.103C145.266 333.103 144.598 332.914 143.992 332.537C143.393 332.16 142.912 331.656 142.551 331.024C142.196 330.388 142.018 329.684 142.018 328.915C142.018 328.331 142.121 327.787 142.328 327.282C142.535 326.773 142.819 326.327 143.18 325.945C143.547 325.557 143.971 325.255 144.454 325.037C144.937 324.82 145.452 324.711 145.999 324.711C146.731 324.711 147.397 324.899 147.997 325.276C148.602 325.653 149.083 326.16 149.438 326.797C149.799 327.434 149.98 328.14 149.98 328.915C149.98 329.493 149.876 330.035 149.669 330.539C149.462 331.043 149.176 331.489 148.809 331.876C148.448 332.259 148.026 332.558 147.543 332.776C147.066 332.994 146.551 333.103 145.999 333.103ZM145.999 331.446C146.439 331.446 146.835 331.33 147.185 331.096C147.535 330.863 147.811 330.555 148.013 330.173C148.22 329.785 148.324 329.366 148.324 328.915C148.324 328.453 148.217 328.028 148.005 327.641C147.798 327.253 147.52 326.945 147.169 326.717C146.819 326.484 146.429 326.367 145.999 326.367C145.564 326.367 145.168 326.484 144.813 326.717C144.462 326.951 144.184 327.261 143.977 327.649C143.775 328.036 143.674 328.458 143.674 328.915C143.674 329.387 143.78 329.814 143.992 330.196C144.205 330.579 144.486 330.884 144.836 331.112C145.192 331.335 145.579 331.446 145.999 331.446ZM150.884 332.896V324.934H152.54V325.778C152.816 325.449 153.156 325.189 153.559 324.997C153.962 324.806 154.398 324.711 154.865 324.711C155.162 324.711 155.457 324.751 155.748 324.83L155.088 326.502C154.881 326.423 154.674 326.383 154.467 326.383C154.116 326.383 153.795 326.47 153.503 326.646C153.211 326.815 152.978 327.046 152.803 327.338C152.627 327.63 152.54 327.954 152.54 328.31V332.896H150.884ZM163.078 332.896H161.167L159.209 329.52L157.927 331.048V332.896H156.271V320.953H157.927V328.477L160.889 324.934H163.054L160.339 328.174L163.078 332.896Z" fill="#E2E2E5"/>
<path d="M324.514 322.053L318.267 328.143L312.019 322.053C311.908 321.944 311.758 321.883 311.602 321.883C311.446 321.883 311.296 321.944 311.184 322.053C311.13 322.106 311.087 322.169 311.058 322.239C311.029 322.309 311.013 322.384 311.013 322.459C311.013 322.535 311.029 322.61 311.058 322.68C311.087 322.75 311.13 322.813 311.184 322.866L317.83 329.346C317.947 329.459 318.104 329.523 318.267 329.523C318.43 329.523 318.586 329.459 318.703 329.346L325.349 322.867C325.404 322.814 325.447 322.751 325.476 322.681C325.506 322.611 325.521 322.535 325.521 322.459C325.521 322.383 325.506 322.308 325.476 322.238C325.447 322.168 325.404 322.105 325.349 322.052C325.238 321.943 325.088 321.882 324.932 321.882C324.776 321.882 324.626 321.943 324.514 322.052V322.053Z" fill="#C2C7CE"/>
<mask id="path-27-inside-2_12406_19245" fill="white">
<path d="M53 359.509H347V427.736H53V359.509Z"/>
</mask>
<path d="M347 427.236H53V428.236H347V427.236Z" fill="#42474E" mask="url(#path-27-inside-2_12406_19245)"/>
<path d="M79 389.961H106.847M104.361 404.879H81.4864C80.8269 404.879 80.1945 404.617 79.7282 404.151C79.262 403.684 79 403.052 79 402.393V385.485C79 384.826 79.262 384.194 79.7282 383.727C80.1945 383.261 80.8269 382.999 81.4864 382.999H86.2036C86.6945 382.999 87.1745 383.144 87.5829 383.417L89.3134 384.57C89.7219 384.843 90.2018 384.988 90.6927 384.988H104.361C105.02 384.988 105.653 385.25 106.119 385.716C106.585 386.183 106.847 386.815 106.847 387.474V402.393C106.847 403.052 106.585 403.684 106.119 404.151C105.653 404.617 105.02 404.879 104.361 404.879Z" stroke="#C2C7CE" stroke-width="2" stroke-linecap="round" stroke-linejoin="round"/>
<path d="M134.835 401.329C134.081 401.329 133.373 401.18 132.709 400.883C132.046 400.581 131.462 400.167 130.957 399.641C130.459 399.11 130.066 398.495 129.779 397.794C129.498 397.093 129.357 396.345 129.357 395.549C129.357 394.753 129.498 394.004 129.779 393.304C130.066 392.603 130.459 391.99 130.957 391.464C131.462 390.934 132.046 390.52 132.709 390.222C133.373 389.92 134.081 389.769 134.835 389.769C135.737 389.769 136.568 389.978 137.327 390.398C138.086 390.817 138.715 391.374 139.214 392.07L137.741 392.858C137.396 392.423 136.969 392.075 136.459 391.815C135.949 391.555 135.408 391.425 134.835 391.425C134.304 391.425 133.808 391.533 133.346 391.751C132.884 391.969 132.478 392.266 132.128 392.643C131.778 393.02 131.504 393.458 131.308 393.957C131.111 394.455 131.013 394.986 131.013 395.549C131.013 396.117 131.111 396.65 131.308 397.149C131.504 397.643 131.778 398.081 132.128 398.463C132.483 398.84 132.892 399.137 133.354 399.355C133.816 399.567 134.309 399.673 134.835 399.673C135.419 399.673 135.963 399.543 136.467 399.283C136.977 399.018 137.401 398.667 137.741 398.232L139.214 399.036C138.715 399.731 138.086 400.289 137.327 400.708C136.568 401.122 135.737 401.329 134.835 401.329ZM146.155 393.16H147.811V401.122H146.147L146.084 399.968C145.85 400.376 145.534 400.705 145.136 400.955C144.738 401.204 144.268 401.329 143.727 401.329C143.143 401.329 142.594 401.22 142.079 401.003C141.564 400.78 141.11 400.472 140.717 400.079C140.33 399.686 140.027 399.235 139.81 398.726C139.592 398.211 139.483 397.659 139.483 397.07C139.483 396.502 139.589 395.968 139.802 395.469C140.014 394.965 140.309 394.524 140.685 394.148C141.062 393.771 141.498 393.476 141.991 393.264C142.49 393.046 143.024 392.937 143.592 392.937C144.17 392.937 144.68 393.07 145.12 393.335C145.566 393.596 145.935 393.93 146.227 394.339L146.155 393.16ZM143.687 399.729C144.154 399.729 144.563 399.615 144.913 399.386C145.263 399.153 145.534 398.84 145.725 398.447C145.922 398.054 146.02 397.619 146.02 397.141C146.02 396.658 145.922 396.22 145.725 395.828C145.529 395.435 145.256 395.124 144.905 394.896C144.56 394.662 144.154 394.546 143.687 394.546C143.225 394.546 142.803 394.662 142.421 394.896C142.039 395.13 141.736 395.443 141.513 395.835C141.291 396.228 141.179 396.663 141.179 397.141C141.179 397.624 141.293 398.062 141.521 398.455C141.755 398.842 142.06 399.153 142.437 399.386C142.819 399.615 143.236 399.729 143.687 399.729ZM151.406 401.273C150.987 401.247 150.578 401.162 150.18 401.019C149.782 400.875 149.432 400.682 149.129 400.437C148.832 400.188 148.609 399.896 148.46 399.562L149.87 398.956C149.939 399.1 150.058 399.24 150.228 399.378C150.403 399.516 150.607 399.631 150.841 399.721C151.075 399.806 151.319 399.848 151.574 399.848C151.823 399.848 152.054 399.814 152.266 399.745C152.484 399.67 152.662 399.559 152.8 399.41C152.938 399.262 153.007 399.084 153.007 398.877C153.007 398.643 152.927 398.463 152.768 398.335C152.614 398.203 152.42 398.102 152.187 398.033C151.953 397.964 151.719 397.898 151.486 397.834C150.966 397.717 150.488 397.558 150.053 397.356C149.623 397.149 149.281 396.886 149.026 396.568C148.771 396.244 148.644 395.849 148.644 395.382C148.644 394.872 148.782 394.432 149.058 394.06C149.334 393.683 149.695 393.394 150.14 393.192C150.592 392.99 151.072 392.89 151.581 392.89C152.218 392.89 152.802 393.025 153.333 393.296C153.864 393.566 154.27 393.938 154.551 394.41L153.238 395.191C153.158 395.031 153.038 394.888 152.879 394.761C152.72 394.633 152.54 394.532 152.338 394.458C152.136 394.378 151.926 394.333 151.709 394.323C151.438 394.312 151.186 394.344 150.953 394.418C150.724 394.487 150.541 394.599 150.403 394.753C150.265 394.907 150.196 395.103 150.196 395.342C150.196 395.575 150.278 395.751 150.443 395.867C150.607 395.979 150.814 396.069 151.064 396.138C151.319 396.207 151.579 396.284 151.844 396.369C152.317 396.518 152.76 396.701 153.174 396.918C153.588 397.131 153.922 397.393 154.177 397.706C154.432 398.02 154.554 398.402 154.543 398.853C154.543 399.352 154.392 399.79 154.089 400.167C153.792 400.544 153.405 400.83 152.927 401.027C152.449 401.223 151.942 401.305 151.406 401.273ZM158.919 401.329C158.186 401.329 157.517 401.141 156.912 400.764C156.313 400.387 155.832 399.883 155.471 399.251C155.116 398.614 154.938 397.911 154.938 397.141C154.938 396.557 155.041 396.013 155.248 395.509C155.455 394.999 155.739 394.554 156.1 394.171C156.467 393.784 156.891 393.481 157.374 393.264C157.857 393.046 158.372 392.937 158.919 392.937C159.529 392.937 160.089 393.065 160.599 393.32C161.108 393.569 161.543 393.917 161.904 394.363C162.265 394.803 162.531 395.313 162.701 395.891C162.87 396.464 162.921 397.075 162.852 397.722H156.713C156.782 398.089 156.915 398.42 157.111 398.718C157.313 399.01 157.568 399.24 157.876 399.41C158.189 399.58 158.537 399.668 158.919 399.673C159.322 399.673 159.688 399.572 160.017 399.37C160.352 399.169 160.625 398.89 160.838 398.535L162.517 398.925C162.199 399.631 161.719 400.209 161.076 400.66C160.434 401.106 159.715 401.329 158.919 401.329ZM156.658 396.456H161.18C161.127 396.074 160.991 395.729 160.774 395.421C160.561 395.108 160.293 394.861 159.97 394.681C159.651 394.495 159.301 394.402 158.919 394.402C158.542 394.402 158.192 394.493 157.868 394.673C157.549 394.854 157.284 395.1 157.072 395.414C156.865 395.721 156.727 396.069 156.658 396.456ZM166.208 401.273C165.789 401.247 165.38 401.162 164.982 401.019C164.584 400.875 164.233 400.682 163.931 400.437C163.634 400.188 163.411 399.896 163.262 399.562L164.671 398.956C164.74 399.1 164.86 399.24 165.029 399.378C165.205 399.516 165.409 399.631 165.643 399.721C165.876 399.806 166.12 399.848 166.375 399.848C166.624 399.848 166.855 399.814 167.068 399.745C167.285 399.67 167.463 399.559 167.601 399.41C167.739 399.262 167.808 399.084 167.808 398.877C167.808 398.643 167.729 398.463 167.569 398.335C167.415 398.203 167.222 398.102 166.988 398.033C166.755 397.964 166.521 397.898 166.287 397.834C165.767 397.717 165.29 397.558 164.854 397.356C164.424 397.149 164.082 396.886 163.827 396.568C163.572 396.244 163.445 395.849 163.445 395.382C163.445 394.872 163.583 394.432 163.859 394.06C164.135 393.683 164.496 393.394 164.942 393.192C165.393 392.99 165.873 392.89 166.383 392.89C167.02 392.89 167.604 393.025 168.135 393.296C168.665 393.566 169.071 393.938 169.353 394.41L168.039 395.191C167.959 395.031 167.84 394.888 167.681 394.761C167.522 394.633 167.341 394.532 167.139 394.458C166.938 394.378 166.728 394.333 166.51 394.323C166.24 394.312 165.988 394.344 165.754 394.418C165.526 394.487 165.343 394.599 165.205 394.753C165.067 394.907 164.998 395.103 164.998 395.342C164.998 395.575 165.08 395.751 165.244 395.867C165.409 395.979 165.616 396.069 165.865 396.138C166.12 396.207 166.38 396.284 166.646 396.369C167.118 396.518 167.561 396.701 167.975 396.918C168.389 397.131 168.724 397.393 168.979 397.706C169.233 398.02 169.355 398.402 169.345 398.853C169.345 399.352 169.193 399.79 168.891 400.167C168.594 400.544 168.206 400.83 167.729 401.027C167.251 401.223 166.744 401.305 166.208 401.273Z" fill="#E2E2E5"/>
<path d="M324.514 390.28L318.267 396.37L312.019 390.28C311.908 390.171 311.758 390.11 311.602 390.11C311.446 390.11 311.296 390.171 311.184 390.28C311.13 390.333 311.087 390.396 311.058 390.466C311.029 390.535 311.013 390.61 311.013 390.686C311.013 390.762 311.029 390.837 311.058 390.906C311.087 390.976 311.13 391.039 311.184 391.092L317.83 397.572C317.947 397.686 318.104 397.75 318.267 397.75C318.43 397.75 318.586 397.686 318.703 397.572L325.349 391.093C325.404 391.04 325.447 390.977 325.476 390.907C325.506 390.837 325.521 390.762 325.521 390.686C325.521 390.61 325.506 390.535 325.476 390.465C325.447 390.395 325.404 390.331 325.349 390.278C325.238 390.169 325.088 390.108 324.932 390.108C324.776 390.108 324.626 390.169 324.514 390.278V390.28Z" fill="#C2C7CE"/>
<mask id="path-32-inside-3_12406_19245" fill="white">
<path d="M53 427.736H347V486.966H53V427.736Z"/>
</mask>
<path d="M347 486.466H53V487.466H347V486.466Z" fill="#42474E" mask="url(#path-32-inside-3_12406_19245)"/>
<path d="M77.848 461.059C77.0943 461.059 76.3857 460.91 75.7222 460.613C75.0588 460.31 74.4749 459.896 73.9706 459.371C73.4717 458.84 73.0789 458.224 72.7923 457.524C72.511 456.823 72.3703 456.075 72.3703 455.278C72.3703 454.482 72.511 453.734 72.7923 453.033C73.0789 452.332 73.4717 451.719 73.9706 451.194C74.4749 450.663 75.0588 450.249 75.7222 449.952C76.3857 449.649 77.0943 449.498 77.848 449.498C78.7503 449.498 79.581 449.708 80.34 450.127C81.0991 450.546 81.728 451.104 82.227 451.799L80.7541 452.587C80.409 452.152 79.9818 451.804 79.4722 451.544C78.9627 451.284 78.4213 451.154 77.848 451.154C77.3172 451.154 76.821 451.263 76.3592 451.481C75.8974 451.698 75.4913 451.995 75.141 452.372C74.7907 452.749 74.5174 453.187 74.321 453.686C74.1246 454.185 74.0264 454.716 74.0264 455.278C74.0264 455.846 74.1246 456.38 74.321 456.879C74.5174 457.372 74.7907 457.81 75.141 458.192C75.4966 458.569 75.9054 458.866 76.3671 459.084C76.8289 459.296 77.3225 459.403 77.848 459.403C78.4319 459.403 78.9759 459.272 79.4802 459.012C79.9897 458.747 80.4143 458.397 80.7541 457.961L82.227 458.766C81.728 459.461 81.0991 460.018 80.34 460.438C79.581 460.852 78.7503 461.059 77.848 461.059ZM90.5596 455.86V460.852H88.9035V456.266C88.9035 455.91 88.8159 455.586 88.6408 455.294C88.4709 455.002 88.24 454.771 87.9481 454.602C87.6615 454.426 87.3377 454.339 86.9768 454.339C86.6265 454.339 86.3053 454.426 86.0134 454.602C85.7215 454.771 85.4879 455.002 85.3128 455.294C85.1376 455.586 85.05 455.91 85.05 456.266V460.852H83.394V448.909H85.05V453.734C85.326 453.405 85.6657 453.145 86.0691 452.954C86.4725 452.762 86.9078 452.667 87.3749 452.667C87.964 452.667 88.5001 452.81 88.9831 453.097C89.4661 453.383 89.8483 453.768 90.1296 454.251C90.4162 454.734 90.5596 455.27 90.5596 455.86ZM97.8054 452.89H99.4614V460.852H97.7974L97.7337 459.697C97.5002 460.106 97.1843 460.435 96.7863 460.684C96.3882 460.934 95.9184 461.059 95.377 461.059C94.7932 461.059 94.2438 460.95 93.7289 460.732C93.2141 460.509 92.7603 460.201 92.3675 459.809C91.98 459.416 91.6775 458.965 91.4599 458.455C91.2422 457.94 91.1334 457.388 91.1334 456.799C91.1334 456.231 91.2396 455.698 91.4519 455.199C91.6642 454.694 91.9588 454.254 92.3356 453.877C92.7125 453.5 93.1477 453.206 93.6414 452.993C94.1403 452.776 94.6737 452.667 95.2417 452.667C95.8202 452.667 96.3298 452.8 96.7703 453.065C97.2162 453.325 97.5851 453.659 97.877 454.068L97.8054 452.89ZM95.3372 459.458C95.8043 459.458 96.213 459.344 96.5633 459.116C96.9136 458.882 97.1843 458.569 97.3754 458.176C97.5718 457.784 97.67 457.348 97.67 456.871C97.67 456.388 97.5718 455.95 97.3754 455.557C97.179 455.164 96.9057 454.854 96.5554 454.625C96.2104 454.392 95.8043 454.275 95.3372 454.275C94.8754 454.275 94.4535 454.392 94.0713 454.625C93.6891 454.859 93.3866 455.172 93.1637 455.565C92.9407 455.958 92.8293 456.393 92.8293 456.871C92.8293 457.354 92.9434 457.792 93.1716 458.184C93.4052 458.572 93.7104 458.882 94.0872 459.116C94.4694 459.344 94.8861 459.458 95.3372 459.458ZM104.872 454.546H103.2L103.192 460.852H101.536L101.544 454.546H100.278V452.89H101.544L101.536 450.39H103.192L103.2 452.89H104.872V454.546ZM115.552 452.89H117.208V460.852H115.544L115.481 459.697C115.247 460.106 114.931 460.435 114.533 460.684C114.135 460.934 113.666 461.059 113.124 461.059C112.54 461.059 111.991 460.95 111.476 460.732C110.961 460.509 110.507 460.201 110.115 459.809C109.727 459.416 109.425 458.965 109.207 458.455C108.989 457.94 108.881 457.388 108.881 456.799C108.881 456.231 108.987 455.698 109.199 455.199C109.411 454.694 109.706 454.254 110.083 453.877C110.46 453.5 110.895 453.206 111.388 452.993C111.887 452.776 112.421 452.667 112.989 452.667C113.567 452.667 114.077 452.8 114.517 453.065C114.963 453.325 115.332 453.659 115.624 454.068L115.552 452.89ZM113.084 459.458C113.551 459.458 113.96 459.344 114.31 459.116C114.661 458.882 114.931 458.569 115.123 458.176C115.319 457.784 115.417 457.348 115.417 456.871C115.417 456.388 115.319 455.95 115.123 455.557C114.926 455.164 114.653 454.854 114.302 454.625C113.957 454.392 113.551 454.275 113.084 454.275C112.623 454.275 112.201 454.392 111.818 454.625C111.436 454.859 111.134 455.172 110.911 455.565C110.688 455.958 110.576 456.393 110.576 456.871C110.576 457.354 110.69 457.792 110.919 458.184C111.152 458.572 111.457 458.882 111.834 459.116C112.216 459.344 112.633 459.458 113.084 459.458ZM122.617 452.667C123.392 452.667 124.096 452.855 124.727 453.232C125.364 453.609 125.871 454.116 126.248 454.753C126.625 455.385 126.813 456.088 126.813 456.863C126.813 457.441 126.704 457.985 126.487 458.495C126.269 458.999 125.967 459.445 125.579 459.832C125.197 460.215 124.751 460.515 124.242 460.732C123.737 460.95 123.196 461.059 122.617 461.059C122.06 461.059 121.572 460.931 121.152 460.676C120.738 460.416 120.399 460.085 120.133 459.681V460.852H118.477V448.909H120.133V454.044C120.399 453.636 120.738 453.304 121.152 453.049C121.572 452.794 122.06 452.667 122.617 452.667ZM122.601 459.45C123.063 459.45 123.485 459.334 123.867 459.1C124.25 458.866 124.552 458.553 124.775 458.16C125.003 457.768 125.117 457.335 125.117 456.863C125.117 456.38 125.003 455.942 124.775 455.549C124.547 455.156 124.242 454.846 123.859 454.618C123.477 454.384 123.058 454.267 122.601 454.267C122.14 454.267 121.734 454.384 121.383 454.618C121.033 454.851 120.76 455.164 120.563 455.557C120.367 455.95 120.269 456.385 120.269 456.863C120.269 457.34 120.367 457.776 120.563 458.168C120.76 458.561 121.033 458.874 121.383 459.108C121.734 459.336 122.14 459.45 122.601 459.45ZM131.208 461.059C130.476 461.059 129.807 460.87 129.202 460.493C128.602 460.116 128.122 459.612 127.761 458.981C127.405 458.344 127.227 457.64 127.227 456.871C127.227 456.287 127.331 455.743 127.538 455.239C127.745 454.729 128.029 454.283 128.39 453.901C128.756 453.513 129.181 453.211 129.664 452.993C130.147 452.776 130.662 452.667 131.208 452.667C131.941 452.667 132.607 452.855 133.207 453.232C133.812 453.609 134.292 454.116 134.648 454.753C135.009 455.39 135.189 456.096 135.189 456.871C135.189 457.449 135.086 457.991 134.879 458.495C134.672 458.999 134.385 459.445 134.019 459.832C133.658 460.215 133.236 460.515 132.753 460.732C132.275 460.95 131.76 461.059 131.208 461.059ZM131.208 459.403C131.649 459.403 132.044 459.286 132.395 459.052C132.745 458.819 133.021 458.511 133.223 458.129C133.43 457.741 133.533 457.322 133.533 456.871C133.533 456.409 133.427 455.984 133.215 455.597C133.008 455.209 132.729 454.901 132.379 454.673C132.028 454.44 131.638 454.323 131.208 454.323C130.773 454.323 130.378 454.44 130.022 454.673C129.672 454.907 129.393 455.217 129.186 455.605C128.984 455.992 128.884 456.414 128.884 456.871C128.884 457.343 128.99 457.77 129.202 458.153C129.414 458.535 129.696 458.84 130.046 459.068C130.402 459.291 130.789 459.403 131.208 459.403ZM135.619 457.866V452.89H137.275V457.46C137.275 457.815 137.363 458.139 137.538 458.431C137.713 458.723 137.947 458.957 138.239 459.132C138.531 459.302 138.852 459.387 139.202 459.387C139.558 459.387 139.879 459.302 140.166 459.132C140.457 458.957 140.688 458.723 140.858 458.431C141.033 458.139 141.121 457.815 141.121 457.46V452.89H142.777L142.785 460.852H141.129L141.121 459.992C140.85 460.321 140.513 460.581 140.11 460.772C139.706 460.963 139.274 461.059 138.812 461.059C138.223 461.059 137.687 460.915 137.204 460.629C136.721 460.342 136.336 459.957 136.049 459.474C135.763 458.991 135.619 458.455 135.619 457.866ZM148.203 454.546H146.531L146.523 460.852H144.867L144.875 454.546H143.609V452.89H144.875L144.867 450.39H146.523L146.531 452.89H148.203V454.546ZM156.424 449.705H158.359L162.411 460.852H160.659L159.887 458.734H154.895L154.131 460.852H152.371L156.424 449.705ZM155.508 457.078H159.274L157.387 451.903L155.508 457.078ZM170.498 455.86V460.852H168.842V456.266C168.842 455.91 168.755 455.586 168.58 455.294C168.41 455.002 168.179 454.771 167.887 454.602C167.6 454.426 167.276 454.339 166.916 454.339C166.565 454.339 166.244 454.426 165.952 454.602C165.66 454.771 165.427 455.002 165.252 455.294C165.076 455.586 164.989 455.91 164.989 456.266V460.852H163.333V452.89H164.989V453.734C165.265 453.405 165.604 453.145 166.008 452.954C166.411 452.762 166.847 452.667 167.314 452.667C167.903 452.667 168.439 452.81 168.922 453.097C169.405 453.383 169.787 453.768 170.068 454.251C170.355 454.734 170.498 455.27 170.498 455.86ZM177.744 452.89H179.4V460.852H177.736L177.672 459.697C177.439 460.106 177.123 460.435 176.725 460.684C176.327 460.934 175.857 461.059 175.316 461.059C174.732 461.059 174.183 460.95 173.668 460.732C173.153 460.509 172.699 460.201 172.306 459.809C171.919 459.416 171.616 458.965 171.399 458.455C171.181 457.94 171.072 457.388 171.072 456.799C171.072 456.231 171.178 455.698 171.391 455.199C171.603 454.694 171.898 454.254 172.274 453.877C172.651 453.5 173.086 453.206 173.58 452.993C174.079 452.776 174.612 452.667 175.18 452.667C175.759 452.667 176.269 452.8 176.709 453.065C177.155 453.325 177.524 453.659 177.816 454.068L177.744 452.89ZM175.276 459.458C175.743 459.458 176.152 459.344 176.502 459.116C176.852 458.882 177.123 458.569 177.314 458.176C177.511 457.784 177.609 457.348 177.609 456.871C177.609 456.388 177.511 455.95 177.314 455.557C177.118 455.164 176.844 454.854 176.494 454.625C176.149 454.392 175.743 454.275 175.276 454.275C174.814 454.275 174.392 454.392 174.01 454.625C173.628 454.859 173.325 455.172 173.102 455.565C172.879 455.958 172.768 456.393 172.768 456.871C172.768 457.354 172.882 457.792 173.11 458.184C173.344 458.572 173.649 458.882 174.026 459.116C174.408 459.344 174.825 459.458 175.276 459.458ZM180.669 460.852V448.909H182.325V460.852H180.669ZM188.866 452.89H190.634L186.271 464.832H184.511L185.952 460.852L183.094 452.89H184.901L186.78 458.582L188.866 452.89ZM195.849 454.546H194.177L194.169 460.852H192.513L192.521 454.546H191.255V452.89H192.521L192.513 450.39H194.169L194.177 452.89H195.849V454.546ZM196.783 452.89H198.439V460.852H196.783V452.89ZM197.627 451.735C197.372 451.735 197.16 451.653 196.99 451.489C196.82 451.324 196.735 451.117 196.735 450.868C196.735 450.623 196.82 450.419 196.99 450.254C197.16 450.085 197.37 450 197.619 450C197.863 450 198.07 450.085 198.24 450.254C198.41 450.419 198.495 450.623 198.495 450.868C198.495 451.117 198.41 451.324 198.24 451.489C198.076 451.653 197.871 451.735 197.627 451.735ZM205.021 458.59L206.502 459.395C206.141 459.899 205.682 460.302 205.125 460.605C204.573 460.907 203.973 461.059 203.325 461.059C202.593 461.059 201.924 460.87 201.319 460.493C200.719 460.116 200.239 459.612 199.878 458.981C199.522 458.344 199.344 457.64 199.344 456.871C199.344 456.287 199.448 455.743 199.655 455.239C199.862 454.729 200.146 454.283 200.507 453.901C200.873 453.513 201.298 453.211 201.781 452.993C202.264 452.776 202.779 452.667 203.325 452.667C203.973 452.667 204.573 452.818 205.125 453.121C205.682 453.423 206.141 453.829 206.502 454.339L205.021 455.143C204.798 454.878 204.538 454.676 204.241 454.538C203.944 454.395 203.638 454.323 203.325 454.323C202.89 454.323 202.495 454.442 202.139 454.681C201.789 454.915 201.51 455.225 201.303 455.613C201.101 455.995 201 456.414 201 456.871C201 457.322 201.104 457.741 201.311 458.129C201.518 458.511 201.797 458.819 202.147 459.052C202.503 459.286 202.895 459.403 203.325 459.403C203.654 459.403 203.968 459.328 204.265 459.18C204.562 459.031 204.814 458.835 205.021 458.59ZM209.946 461.003C209.526 460.976 209.118 460.891 208.72 460.748C208.322 460.605 207.971 460.411 207.669 460.167C207.371 459.917 207.148 459.625 207 459.291L208.409 458.686C208.478 458.829 208.598 458.97 208.767 459.108C208.943 459.246 209.147 459.36 209.38 459.45C209.614 459.535 209.858 459.578 210.113 459.578C210.362 459.578 210.593 459.543 210.806 459.474C211.023 459.4 211.201 459.288 211.339 459.14C211.477 458.991 211.546 458.813 211.546 458.606C211.546 458.373 211.466 458.192 211.307 458.065C211.153 457.932 210.96 457.831 210.726 457.762C210.492 457.693 210.259 457.627 210.025 457.563C209.505 457.447 209.027 457.287 208.592 457.086C208.162 456.879 207.82 456.616 207.565 456.297C207.31 455.974 207.183 455.578 207.183 455.111C207.183 454.602 207.321 454.161 207.597 453.789C207.873 453.413 208.234 453.123 208.68 452.922C209.131 452.72 209.611 452.619 210.121 452.619C210.758 452.619 211.342 452.754 211.872 453.025C212.403 453.296 212.809 453.667 213.091 454.14L211.777 454.92C211.697 454.761 211.578 454.618 211.419 454.49C211.259 454.363 211.079 454.262 210.877 454.188C210.676 454.108 210.466 454.063 210.248 454.052C209.978 454.042 209.725 454.073 209.492 454.148C209.264 454.217 209.081 454.328 208.943 454.482C208.805 454.636 208.736 454.832 208.736 455.071C208.736 455.305 208.818 455.48 208.982 455.597C209.147 455.708 209.354 455.799 209.603 455.868C209.858 455.937 210.118 456.013 210.384 456.098C210.856 456.247 211.299 456.43 211.713 456.648C212.127 456.86 212.462 457.123 212.716 457.436C212.971 457.749 213.093 458.131 213.083 458.582C213.083 459.081 212.931 459.519 212.629 459.896C212.332 460.273 211.944 460.56 211.466 460.756C210.989 460.952 210.482 461.035 209.946 461.003Z" fill="#E2E2E5"/>
<path d="M324.514 454.009L318.267 460.099L312.019 454.009C311.908 453.9 311.758 453.839 311.602 453.839C311.446 453.839 311.296 453.9 311.184 454.009C311.13 454.062 311.087 454.125 311.058 454.195C311.029 454.265 311.013 454.34 311.013 454.415C311.013 454.491 311.029 454.566 311.058 454.636C311.087 454.706 311.13 454.769 311.184 454.822L317.83 461.302C317.947 461.415 318.104 461.479 318.267 461.479C318.43 461.479 318.586 461.415 318.703 461.302L325.349 454.823C325.404 454.77 325.447 454.707 325.476 454.637C325.506 454.567 325.521 454.491 325.521 454.415C325.521 454.34 325.506 454.264 325.476 454.194C325.447 454.124 325.404 454.061 325.349 454.008C325.238 453.899 325.088 453.838 324.932 453.838C324.776 453.838 324.626 453.899 324.514 454.008V454.009Z" fill="#C2C7CE"/>
<path d="M79 517.418H106.847M104.361 532.336H81.4864C80.8269 532.336 80.1945 532.074 79.7282 531.608C79.262 531.142 79 530.509 79 529.85V512.942C79 512.283 79.262 511.651 79.7282 511.184C80.1945 510.718 80.8269 510.456 81.4864 510.456H86.2036C86.6945 510.456 87.1745 510.601 87.5829 510.874L89.3134 512.027C89.7219 512.3 90.2018 512.445 90.6927 512.445H104.361C105.02 512.445 105.653 512.707 106.119 513.173C106.585 513.64 106.847 514.272 106.847 514.932V529.85C106.847 530.509 106.585 531.142 106.119 531.608C105.653 532.074 105.02 532.336 104.361 532.336Z" stroke="#C2C7CE" stroke-width="2" stroke-linecap="round" stroke-linejoin="round"/>
<path d="M133.649 528.786C133.038 528.786 132.452 528.691 131.889 528.499C131.326 528.308 130.835 528.035 130.416 527.679C129.997 527.318 129.697 526.891 129.516 526.398L131.069 525.816C131.159 526.071 131.332 526.299 131.586 526.501C131.847 526.697 132.154 526.851 132.51 526.963C132.871 527.074 133.25 527.13 133.649 527.13C134.073 527.13 134.471 527.061 134.843 526.923C135.22 526.785 135.522 526.594 135.75 526.35C135.984 526.106 136.101 525.819 136.101 525.49C136.101 525.15 135.979 524.872 135.735 524.654C135.496 524.436 135.188 524.264 134.811 524.136C134.439 524.009 134.052 523.914 133.649 523.85C132.868 523.722 132.168 523.537 131.547 523.293C130.931 523.048 130.443 522.706 130.082 522.265C129.726 521.825 129.548 521.252 129.548 520.546C129.548 519.882 129.737 519.304 130.114 518.81C130.496 518.316 130.997 517.934 131.618 517.664C132.245 517.388 132.921 517.25 133.649 517.25C134.248 517.25 134.827 517.345 135.384 517.536C135.947 517.722 136.44 517.995 136.865 518.356C137.295 518.712 137.603 519.144 137.789 519.654L136.22 520.219C136.13 519.959 135.957 519.734 135.703 519.543C135.448 519.346 135.14 519.192 134.779 519.081C134.423 518.969 134.047 518.914 133.649 518.914C133.224 518.908 132.826 518.977 132.454 519.121C132.088 519.259 131.788 519.45 131.555 519.694C131.321 519.938 131.204 520.222 131.204 520.546C131.204 520.944 131.313 521.246 131.531 521.453C131.748 521.66 132.04 521.814 132.407 521.915C132.778 522.011 133.192 522.098 133.649 522.178C134.381 522.295 135.058 522.488 135.679 522.759C136.305 523.03 136.807 523.391 137.184 523.842C137.566 524.288 137.757 524.837 137.757 525.49C137.757 526.148 137.566 526.727 137.184 527.226C136.807 527.719 136.305 528.104 135.679 528.38C135.058 528.651 134.381 528.786 133.649 528.786ZM139.215 528.579V517.433H146.133V519.089H140.871V521.78H145.106V523.436H140.871V526.923H146.133V528.579H139.215ZM152.591 528.786C151.838 528.786 151.129 528.637 150.465 528.34C149.802 528.038 149.218 527.621 148.714 527.09C148.21 526.559 147.814 525.946 147.528 525.251C147.241 524.55 147.098 523.802 147.098 523.006C147.098 522.21 147.241 521.464 147.528 520.769C147.814 520.068 148.21 519.452 148.714 518.922C149.218 518.391 149.802 517.977 150.465 517.679C151.129 517.377 151.838 517.226 152.591 517.226C153.35 517.226 154.062 517.377 154.725 517.679C155.388 517.977 155.972 518.391 156.477 518.922C156.981 519.452 157.374 520.068 157.655 520.769C157.942 521.464 158.085 522.21 158.085 523.006C158.085 523.802 157.942 524.55 157.655 525.251C157.374 525.946 156.981 526.559 156.477 527.09C155.972 527.621 155.388 528.038 154.725 528.34C154.062 528.637 153.35 528.786 152.591 528.786ZM152.591 527.13C153.122 527.13 153.618 527.021 154.08 526.804C154.542 526.586 154.948 526.289 155.298 525.912C155.654 525.53 155.93 525.092 156.126 524.598C156.328 524.099 156.429 523.569 156.429 523.006C156.429 522.443 156.328 521.912 156.126 521.414C155.93 520.915 155.654 520.477 155.298 520.1C154.948 519.718 154.542 519.42 154.08 519.208C153.618 518.991 153.122 518.882 152.591 518.882C152.06 518.882 151.564 518.991 151.102 519.208C150.641 519.426 150.232 519.726 149.876 520.108C149.526 520.485 149.25 520.923 149.048 521.421C148.852 521.915 148.754 522.443 148.754 523.006C148.754 523.574 148.852 524.107 149.048 524.606C149.25 525.1 149.526 525.538 149.876 525.92C150.232 526.297 150.641 526.594 151.102 526.812C151.564 527.024 152.06 527.13 152.591 527.13ZM166.465 517.433H168.4L172.452 528.579H170.7L169.928 526.461H164.936L164.172 528.579H162.412L166.465 517.433ZM165.549 524.805H169.315L167.428 519.63L165.549 524.805ZM178.935 520.617H180.591V528.786C180.591 529.333 180.474 529.837 180.241 530.299C180.013 530.761 179.702 531.159 179.309 531.493C178.916 531.833 178.465 532.096 177.956 532.281C177.451 532.467 176.923 532.56 176.371 532.56C175.814 532.56 175.278 532.441 174.763 532.202C174.248 531.968 173.794 531.65 173.402 531.246C173.014 530.843 172.725 530.386 172.534 529.877L174.054 529.192C174.161 529.521 174.33 529.813 174.564 530.068C174.803 530.323 175.079 530.524 175.392 530.673C175.711 530.822 176.037 530.896 176.371 530.896C176.7 530.896 177.016 530.843 177.319 530.737C177.627 530.636 177.9 530.493 178.139 530.307C178.383 530.121 178.577 529.898 178.72 529.638C178.863 529.378 178.935 529.094 178.935 528.786V527.441C178.675 527.844 178.341 528.17 177.932 528.42C177.523 528.664 177.048 528.786 176.507 528.786C175.944 528.786 175.413 528.677 174.914 528.46C174.415 528.242 173.978 527.942 173.601 527.56C173.224 527.173 172.929 526.727 172.717 526.222C172.505 525.718 172.398 525.177 172.398 524.598C172.398 524.02 172.505 523.478 172.717 522.974C172.929 522.464 173.224 522.019 173.601 521.636C173.978 521.249 174.415 520.946 174.914 520.729C175.413 520.511 175.944 520.402 176.507 520.402C177.048 520.402 177.523 520.527 177.932 520.777C178.341 521.021 178.675 521.347 178.935 521.756V520.617ZM176.523 527.186C176.984 527.186 177.388 527.069 177.733 526.835C178.078 526.597 178.346 526.281 178.537 525.888C178.728 525.495 178.824 525.065 178.824 524.598C178.824 524.121 178.725 523.688 178.529 523.3C178.338 522.908 178.07 522.595 177.725 522.361C177.38 522.122 176.979 522.003 176.523 522.003C176.077 522.003 175.668 522.119 175.297 522.353C174.93 522.587 174.638 522.9 174.421 523.293C174.203 523.685 174.094 524.121 174.094 524.598C174.094 525.076 174.203 525.511 174.421 525.904C174.644 526.297 174.938 526.61 175.304 526.843C175.676 527.072 176.082 527.186 176.523 527.186ZM182.12 528.579V520.617H183.776V521.461C184.052 521.132 184.391 520.872 184.795 520.681C185.198 520.49 185.633 520.394 186.1 520.394C186.398 520.394 186.692 520.434 186.984 520.514L186.323 522.186C186.116 522.106 185.909 522.066 185.702 522.066C185.352 522.066 185.031 522.154 184.739 522.329C184.447 522.499 184.214 522.73 184.038 523.022C183.863 523.314 183.776 523.638 183.776 523.993V528.579H182.12ZM190.652 528.786C189.92 528.786 189.251 528.598 188.646 528.221C188.046 527.844 187.566 527.34 187.205 526.708C186.849 526.071 186.671 525.368 186.671 524.598C186.671 524.014 186.775 523.47 186.982 522.966C187.189 522.457 187.473 522.011 187.834 521.629C188.2 521.241 188.625 520.938 189.108 520.721C189.591 520.503 190.105 520.394 190.652 520.394C191.263 520.394 191.822 520.522 192.332 520.777C192.842 521.026 193.277 521.374 193.638 521.82C193.999 522.26 194.264 522.77 194.434 523.348C194.604 523.921 194.654 524.532 194.585 525.179H188.447C188.516 525.546 188.648 525.877 188.845 526.175C189.046 526.467 189.301 526.697 189.609 526.867C189.922 527.037 190.27 527.125 190.652 527.13C191.056 527.13 191.422 527.029 191.751 526.828C192.085 526.626 192.359 526.347 192.571 525.992L194.251 526.382C193.932 527.088 193.452 527.666 192.81 528.117C192.167 528.563 191.448 528.786 190.652 528.786ZM188.391 523.914H192.913C192.86 523.531 192.725 523.186 192.507 522.878C192.295 522.565 192.027 522.319 191.703 522.138C191.385 521.952 191.034 521.859 190.652 521.859C190.275 521.859 189.925 521.95 189.601 522.13C189.283 522.311 189.017 522.557 188.805 522.871C188.598 523.178 188.46 523.526 188.391 523.914ZM199.009 528.786C198.277 528.786 197.608 528.598 197.003 528.221C196.403 527.844 195.923 527.34 195.562 526.708C195.206 526.071 195.028 525.368 195.028 524.598C195.028 524.014 195.132 523.47 195.339 522.966C195.546 522.457 195.83 522.011 196.191 521.629C196.557 521.241 196.982 520.938 197.465 520.721C197.948 520.503 198.462 520.394 199.009 520.394C199.62 520.394 200.18 520.522 200.689 520.777C201.199 521.026 201.634 521.374 201.995 521.82C202.356 522.26 202.621 522.77 202.791 523.348C202.961 523.921 203.011 524.532 202.942 525.179H196.804C196.873 525.546 197.005 525.877 197.202 526.175C197.404 526.467 197.658 526.697 197.966 526.867C198.279 527.037 198.627 527.125 199.009 527.13C199.413 527.13 199.779 527.029 200.108 526.828C200.442 526.626 200.716 526.347 200.928 525.992L202.608 526.382C202.289 527.088 201.809 527.666 201.167 528.117C200.525 528.563 199.805 528.786 199.009 528.786ZM196.748 523.914H201.27C201.217 523.531 201.082 523.186 200.864 522.878C200.652 522.565 200.384 522.319 200.06 522.138C199.742 521.952 199.391 521.859 199.009 521.859C198.632 521.859 198.282 521.95 197.958 522.13C197.64 522.311 197.374 522.557 197.162 522.871C196.955 523.178 196.817 523.526 196.748 523.914ZM203.879 528.579V520.617H205.535V521.461C205.811 521.132 206.148 520.872 206.546 520.681C206.949 520.49 207.384 520.394 207.852 520.394C208.42 520.394 208.942 520.532 209.42 520.808C209.898 521.079 210.277 521.44 210.559 521.891C210.84 521.44 211.214 521.079 211.681 520.808C212.154 520.532 212.674 520.394 213.242 520.394C213.831 520.394 214.367 520.538 214.85 520.824C215.333 521.111 215.718 521.496 216.004 521.979C216.291 522.462 216.434 522.998 216.434 523.587V528.579H214.778V524.009C214.778 523.659 214.693 523.338 214.524 523.046C214.354 522.754 214.125 522.518 213.839 522.337C213.552 522.157 213.234 522.066 212.883 522.066C212.533 522.066 212.215 522.151 211.928 522.321C211.641 522.491 211.413 522.722 211.243 523.014C211.073 523.306 210.989 523.638 210.989 524.009V528.579H209.332V524.009C209.332 523.638 209.248 523.306 209.078 523.014C208.908 522.722 208.677 522.491 208.385 522.321C208.098 522.151 207.78 522.066 207.43 522.066C207.085 522.066 206.766 522.157 206.474 522.337C206.188 522.518 205.959 522.754 205.789 523.046C205.62 523.338 205.535 523.659 205.535 524.009V528.579H203.879ZM220.995 528.786C220.262 528.786 219.594 528.598 218.989 528.221C218.389 527.844 217.908 527.34 217.547 526.708C217.192 526.071 217.014 525.368 217.014 524.598C217.014 524.014 217.118 523.47 217.325 522.966C217.532 522.457 217.816 522.011 218.176 521.629C218.543 521.241 218.967 520.938 219.45 520.721C219.933 520.503 220.448 520.394 220.995 520.394C221.605 520.394 222.165 520.522 222.675 520.777C223.184 521.026 223.62 521.374 223.981 521.82C224.342 522.26 224.607 522.77 224.777 523.348C224.947 523.921 224.997 524.532 224.928 525.179H218.79C218.859 525.546 218.991 525.877 219.188 526.175C219.389 526.467 219.644 526.697 219.952 526.867C220.265 527.037 220.613 527.125 220.995 527.13C221.398 527.13 221.765 527.029 222.094 526.828C222.428 526.626 222.701 526.347 222.914 525.992L224.594 526.382C224.275 527.088 223.795 527.666 223.153 528.117C222.51 528.563 221.791 528.786 220.995 528.786ZM218.734 523.914H223.256C223.203 523.531 223.068 523.186 222.85 522.878C222.638 522.565 222.37 522.319 222.046 522.138C221.727 521.952 221.377 521.859 220.995 521.859C220.618 521.859 220.268 521.95 219.944 522.13C219.626 522.311 219.36 522.557 219.148 522.871C218.941 523.178 218.803 523.526 218.734 523.914ZM233.03 523.587V528.579H231.374V523.993C231.374 523.638 231.286 523.314 231.111 523.022C230.941 522.73 230.71 522.499 230.419 522.329C230.132 522.154 229.808 522.066 229.447 522.066C229.097 522.066 228.776 522.154 228.484 522.329C228.192 522.499 227.958 522.73 227.783 523.022C227.608 523.314 227.52 523.638 227.52 523.993V528.579H225.864V520.617H227.52V521.461C227.796 521.132 228.136 520.872 228.54 520.681C228.943 520.49 229.378 520.394 229.845 520.394C230.434 520.394 230.971 520.538 231.454 520.824C231.937 521.111 232.319 521.496 232.6 521.979C232.887 522.462 233.03 522.998 233.03 523.587ZM238.441 522.273H236.769L236.761 528.579H235.105L235.113 522.273H233.847V520.617H235.113L235.105 518.117H236.761L236.769 520.617H238.441V522.273ZM241.764 528.73C241.344 528.704 240.936 528.619 240.538 528.476C240.14 528.332 239.789 528.139 239.487 527.894C239.189 527.645 238.967 527.353 238.818 527.019L240.227 526.414C240.296 526.557 240.416 526.697 240.585 526.835C240.761 526.973 240.965 527.088 241.198 527.178C241.432 527.263 241.676 527.305 241.931 527.305C242.18 527.305 242.411 527.271 242.624 527.202C242.841 527.127 243.019 527.016 243.157 526.867C243.295 526.719 243.364 526.541 243.364 526.334C243.364 526.1 243.284 525.92 243.125 525.792C242.971 525.66 242.778 525.559 242.544 525.49C242.31 525.421 242.077 525.355 241.843 525.291C241.323 525.174 240.845 525.015 240.41 524.813C239.98 524.606 239.638 524.343 239.383 524.025C239.128 523.701 239.001 523.306 239.001 522.839C239.001 522.329 239.139 521.889 239.415 521.517C239.691 521.14 240.052 520.851 240.498 520.649C240.949 520.448 241.429 520.347 241.939 520.347C242.576 520.347 243.16 520.482 243.69 520.753C244.221 521.023 244.627 521.395 244.909 521.867L243.595 522.648C243.515 522.488 243.396 522.345 243.237 522.218C243.077 522.09 242.897 521.989 242.695 521.915C242.494 521.836 242.284 521.79 242.066 521.78C241.796 521.769 241.543 521.801 241.31 521.875C241.082 521.944 240.899 522.056 240.761 522.21C240.623 522.364 240.554 522.56 240.554 522.799C240.554 523.032 240.636 523.208 240.8 523.324C240.965 523.436 241.172 523.526 241.421 523.595C241.676 523.664 241.936 523.741 242.202 523.826C242.674 523.975 243.117 524.158 243.531 524.375C243.945 524.588 244.28 524.85 244.534 525.164C244.789 525.477 244.911 525.859 244.901 526.31C244.901 526.809 244.749 527.247 244.447 527.624C244.15 528.001 243.762 528.287 243.284 528.484C242.807 528.68 242.3 528.762 241.764 528.73ZM254.484 528.786C253.731 528.786 253.022 528.637 252.358 528.34C251.695 528.038 251.111 527.624 250.607 527.098C250.108 526.567 249.715 525.952 249.429 525.251C249.147 524.55 249.007 523.802 249.007 523.006C249.007 522.21 249.147 521.461 249.429 520.761C249.715 520.06 250.108 519.447 250.607 518.922C251.111 518.391 251.695 517.977 252.358 517.679C253.022 517.377 253.731 517.226 254.484 517.226C255.387 517.226 256.217 517.435 256.976 517.855C257.735 518.274 258.364 518.831 258.863 519.527L257.39 520.315C257.045 519.88 256.618 519.532 256.108 519.272C255.599 519.012 255.057 518.882 254.484 518.882C253.953 518.882 253.457 518.991 252.995 519.208C252.534 519.426 252.128 519.723 251.777 520.1C251.427 520.477 251.154 520.915 250.957 521.414C250.761 521.912 250.663 522.443 250.663 523.006C250.663 523.574 250.761 524.107 250.957 524.606C251.154 525.1 251.427 525.538 251.777 525.92C252.133 526.297 252.542 526.594 253.003 526.812C253.465 527.024 253.959 527.13 254.484 527.13C255.068 527.13 255.612 527 256.116 526.74C256.626 526.475 257.051 526.124 257.39 525.689L258.863 526.493C258.364 527.188 257.735 527.746 256.976 528.165C256.217 528.579 255.387 528.786 254.484 528.786ZM263.114 528.786C262.381 528.786 261.712 528.598 261.107 528.221C260.507 527.844 260.027 527.34 259.666 526.708C259.31 526.071 259.133 525.368 259.133 524.598C259.133 524.014 259.236 523.47 259.443 522.966C259.65 522.457 259.934 522.011 260.295 521.629C260.661 521.241 261.086 520.938 261.569 520.721C262.052 520.503 262.567 520.394 263.114 520.394C263.846 520.394 264.512 520.583 265.112 520.96C265.717 521.337 266.197 521.843 266.553 522.48C266.914 523.117 267.094 523.823 267.094 524.598C267.094 525.177 266.991 525.718 266.784 526.222C266.577 526.727 266.29 527.173 265.924 527.56C265.563 527.942 265.141 528.242 264.658 528.46C264.18 528.677 263.666 528.786 263.114 528.786ZM263.114 527.13C263.554 527.13 263.95 527.013 264.3 526.78C264.65 526.546 264.926 526.238 265.128 525.856C265.335 525.469 265.438 525.049 265.438 524.598C265.438 524.136 265.332 523.712 265.12 523.324C264.913 522.937 264.634 522.629 264.284 522.401C263.934 522.167 263.543 522.05 263.114 522.05C262.678 522.05 262.283 522.167 261.927 522.401C261.577 522.634 261.298 522.945 261.091 523.332C260.89 523.72 260.789 524.142 260.789 524.598C260.789 525.071 260.895 525.498 261.107 525.88C261.319 526.262 261.601 526.567 261.951 526.796C262.307 527.019 262.694 527.13 263.114 527.13ZM267.999 528.579V520.617H269.655V521.461C269.931 521.132 270.27 520.872 270.674 520.681C271.077 520.49 271.512 520.394 271.979 520.394C272.277 520.394 272.571 520.434 272.863 520.514L272.202 522.186C271.995 522.106 271.788 522.066 271.581 522.066C271.231 522.066 270.91 522.154 270.618 522.329C270.326 522.499 270.092 522.73 269.917 523.022C269.742 523.314 269.655 523.638 269.655 523.993V528.579H267.999ZM273.515 528.786C273.271 528.786 273.064 528.701 272.894 528.531C272.729 528.361 272.647 528.154 272.647 527.91C272.647 527.671 272.729 527.467 272.894 527.297C273.064 527.127 273.271 527.042 273.515 527.042C273.759 527.042 273.966 527.127 274.136 527.297C274.306 527.467 274.391 527.671 274.391 527.91C274.391 528.154 274.306 528.361 274.136 528.531C273.966 528.701 273.759 528.786 273.515 528.786ZM276.476 528.786C276.232 528.786 276.025 528.701 275.855 528.531C275.691 528.361 275.608 528.154 275.608 527.91C275.608 527.671 275.691 527.467 275.855 527.297C276.025 527.127 276.232 527.042 276.476 527.042C276.72 527.042 276.927 527.127 277.097 527.297C277.267 527.467 277.352 527.671 277.352 527.91C277.352 528.154 277.267 528.361 277.097 528.531C276.927 528.701 276.72 528.786 276.476 528.786ZM279.437 528.786C279.193 528.786 278.986 528.701 278.816 528.531C278.652 528.361 278.569 528.154 278.569 527.91C278.569 527.671 278.652 527.467 278.816 527.297C278.986 527.127 279.193 527.042 279.437 527.042C279.681 527.042 279.888 527.127 280.058 527.297C280.228 527.467 280.313 527.671 280.313 527.91C280.313 528.154 280.228 528.361 280.058 528.531C279.888 528.701 279.681 528.786 279.437 528.786Z" fill="#E2E2E5"/>
<path d="M324.514 517.737L318.267 523.827L312.019 517.737C311.908 517.628 311.758 517.567 311.602 517.567C311.446 517.567 311.296 517.628 311.184 517.737C311.13 517.79 311.087 517.853 311.058 517.923C311.029 517.992 311.013 518.067 311.013 518.143C311.013 518.219 311.029 518.294 311.058 518.363C311.087 518.433 311.13 518.496 311.184 518.549L317.83 525.029C317.947 525.143 318.104 525.207 318.267 525.207C318.43 525.207 318.586 525.143 318.703 525.029L325.349 518.551C325.404 518.498 325.447 518.434 325.476 518.364C325.506 518.294 325.521 518.219 325.521 518.143C325.521 518.067 325.506 517.992 325.476 517.922C325.447 517.852 325.404 517.789 325.349 517.736C325.238 517.626 325.088 517.565 324.932 517.565C324.776 517.565 324.626 517.626 324.514 517.736V517.737Z" fill="#C2C7CE"/>
<rect y="114" width="13" height="54" rx="6.5" fill="#272A2E"/>
<rect y="184" width="13" height="71" rx="6.5" fill="#272A2E"/>
<rect y="259" width="13" height="71" rx="6.5" fill="#272A2E"/>
<rect x="389" y="184" width="13" height="119" rx="6.5" fill="#272A2E"/>
<path d="M125 19H277V38C277 46.8366 269.837 54 261 54H141C132.163 54 125 46.8366 125 38V19Z" fill="#272A2E"/>
<defs>
<linearGradient id="paint0_linear_12406_19245" x1="94.555" y1="134.122" x2="463.419" y2="207.436" gradientUnits="userSpaceOnUse">
<stop stop-color="#92CCFF"/>
<stop offset="1" stop-color="#006397"/>
</linearGradient>
</defs>
</svg>
