<svg width="481" height="335" viewBox="0 0 481 335" fill="none" xmlns="http://www.w3.org/2000/svg">
<g filter="url(#filter0_d_15417_126718)">
<rect x="35" y="59.3403" width="279" height="243.272" rx="9.88069" transform="rotate(-7.8986 35 59.3403)" fill="white" shape-rendering="crispEdges"/>
<rect x="35.564" y="59.7669" width="278" height="242.272" rx="9.38069" transform="rotate(-7.8986 35.564 59.7669)" stroke="#E9E8EC" shape-rendering="crispEdges"/>
<path d="M56.2757 88.1231L54.8765 78.0378L58.4714 77.5391C59.256 77.4302 59.9258 77.4829 60.4809 77.697C61.0359 77.9111 61.4759 78.2482 61.8007 78.7084C62.1251 79.1654 62.3301 79.7024 62.4157 80.3196C62.5018 80.9401 62.4496 81.5162 62.259 82.0479C62.0712 82.5759 61.7381 83.0203 61.2594 83.3811C60.7836 83.7383 60.1551 83.971 59.3737 84.0794L56.9017 84.4224L56.7227 83.1322L59.0568 82.8084C59.5526 82.7396 59.9429 82.5984 60.2278 82.3849C60.5123 82.1681 60.706 81.9003 60.809 81.5815C60.912 81.2627 60.9371 80.9129 60.8842 80.5321C60.8314 80.1513 60.7123 79.8231 60.5268 79.5477C60.3414 79.2723 60.0811 79.0725 59.746 78.9483C59.4142 78.8237 58.9955 78.7965 58.4899 78.8666L56.5792 79.1317L57.7974 87.912L56.2757 88.1231ZM65.0276 86.9088L63.9783 79.3449L65.4014 79.1475L65.5681 80.349L65.6469 80.3381C65.7283 79.9119 65.9268 79.5581 66.2425 79.2767C66.561 78.9916 66.9418 78.8183 67.385 78.7568C67.4769 78.7441 67.5857 78.7323 67.7114 78.7216C67.8403 78.7104 67.9416 78.7047 68.0152 78.7046L68.2106 80.1129C68.1492 80.1047 68.0417 80.1012 67.8879 80.1025C67.7337 80.1005 67.5811 80.1099 67.4301 80.1309C67.0821 80.1792 66.7821 80.2961 66.5301 80.4816C66.281 80.6634 66.0956 80.8949 65.974 81.1761C65.8519 81.4541 65.8137 81.7572 65.8592 82.0855L66.5001 86.7046L65.0276 86.9088ZM73.2862 85.9187C72.577 86.0171 71.9357 85.9404 71.362 85.6887C70.7884 85.437 70.3149 85.0393 69.9417 84.4955C69.5684 83.9516 69.3276 83.2891 69.2192 82.5077C69.1103 81.7231 69.1612 81.0167 69.3719 80.3885C69.5825 79.7603 69.9296 79.247 70.4131 78.8487C70.8965 78.4504 71.4928 78.202 72.2019 78.1036C72.911 78.0052 73.5524 78.0819 74.1261 78.3336C74.6997 78.5853 75.1734 78.9847 75.5471 79.5318C75.9208 80.0789 76.1621 80.7447 76.271 81.5294C76.3794 82.3107 76.328 83.0138 76.1169 83.6387C75.9058 84.2636 75.5585 84.7753 75.075 85.1736C74.5916 85.5719 73.9953 85.8203 73.2862 85.9187ZM73.1196 84.682C73.5792 84.6182 73.9432 84.4439 74.2115 84.1591C74.4798 83.8742 74.6582 83.5199 74.7466 83.096C74.8384 82.6717 74.8505 82.2166 74.7831 81.7308C74.7161 81.2482 74.5808 80.8152 74.377 80.4319C74.1761 80.0449 73.9075 79.7492 73.5714 79.5449C73.2352 79.3406 72.8373 79.2703 72.3776 79.334C71.9148 79.3983 71.5477 79.5747 71.2766 79.8632C71.0087 80.1514 70.8291 80.5092 70.7379 80.9368C70.6495 81.3606 70.6387 81.8139 70.7057 82.2965C70.7731 82.7823 70.907 83.2172 71.1075 83.6009C71.3112 83.9842 71.581 84.2764 71.9167 84.4774C72.2557 84.678 72.6567 84.7462 73.1196 84.682ZM77.385 77.4849L78.8574 77.2806L79.9751 85.337C80.0453 85.8426 80.0125 86.2821 79.877 86.6556C79.7447 87.0287 79.5122 87.3303 79.1794 87.5605C78.8499 87.7902 78.4241 87.9413 77.9021 88.0137C77.8496 88.021 77.8004 88.0279 77.7544 88.0342C77.7051 88.0411 77.654 88.0465 77.6011 88.0505L77.4255 86.7849C77.4714 86.7785 77.5125 86.7729 77.5486 86.7678C77.5814 86.7633 77.6192 86.7581 77.6618 86.7521C78.0098 86.7038 78.248 86.5754 78.3763 86.3669C78.5084 86.1612 78.5501 85.8827 78.5013 85.5314L77.385 77.4849ZM77.9519 76.2167C77.6958 76.2522 77.464 76.1974 77.2565 76.0522C77.0518 75.9033 76.9328 75.709 76.8996 75.4693C76.8659 75.2264 76.9275 75.007 77.0843 74.8112C77.244 74.6117 77.4519 74.4942 77.708 74.4587C77.9641 74.4232 78.1945 74.4799 78.3992 74.6288C78.6067 74.774 78.7273 74.9681 78.761 75.211C78.7943 75.4507 78.731 75.6703 78.5713 75.8698C78.4144 76.0655 78.208 76.1812 77.9519 76.2167ZM85.1688 84.2701C84.4236 84.3735 83.7597 84.3033 83.1771 84.0596C82.5973 83.8121 82.121 83.4181 81.7482 82.8775C81.3783 82.3333 81.1389 81.6688 81.03 80.8842C80.9225 80.1094 80.9722 79.4065 81.1791 78.7755C81.3893 78.144 81.7324 77.6263 82.2084 77.2223C82.6877 76.8178 83.2786 76.5669 83.9811 76.4694C84.4079 76.4102 84.8314 76.4234 85.2515 76.509C85.6716 76.5946 86.0618 76.7663 86.4222 77.0242C86.7825 77.282 87.0881 77.6395 87.3389 78.0966C87.5892 78.5504 87.762 79.1204 87.8572 79.8065L87.9296 80.3285L81.9169 81.1627L81.7638 80.0596L86.3337 79.4256C86.28 79.0382 86.1536 78.7061 85.9546 78.4292C85.7551 78.149 85.5004 77.9417 85.1907 77.8074C84.8842 77.6725 84.5406 77.6315 84.1597 77.6844C83.7461 77.7418 83.3991 77.8936 83.1187 78.14C82.8412 78.3826 82.6413 78.678 82.5189 79.0263C82.3994 79.3708 82.3658 79.7318 82.4182 80.1093L82.5378 80.9711C82.6079 81.4767 82.7562 81.8945 82.9827 82.2244C83.2125 82.5539 83.5012 82.7899 83.8489 82.9324C84.1961 83.0716 84.5848 83.1114 85.0148 83.0517C85.2939 83.013 85.5428 82.9383 85.7617 82.8277C85.9801 82.7137 86.1619 82.5647 86.307 82.3806C86.4521 82.1965 86.5526 81.9801 86.6084 81.7314L88.0369 81.7892C87.9822 82.2151 87.8318 82.6024 87.5857 82.951C87.3425 83.296 87.016 83.5839 86.6064 83.8147C86.1995 84.0418 85.7203 84.1936 85.1688 84.2701ZM93.2338 83.1512C92.5017 83.2528 91.8483 83.1744 91.2738 82.9162C90.7021 82.6542 90.2343 82.249 89.8704 81.7005C89.5065 81.152 89.272 80.4986 89.1668 79.7402C89.0602 78.972 89.1106 78.2741 89.318 77.6463C89.5249 77.0153 89.868 76.4976 90.3473 76.0931C90.8265 75.6887 91.4224 75.437 92.1348 75.3382C92.7093 75.2585 93.2362 75.2941 93.7156 75.4451C94.1945 75.5928 94.5983 75.838 94.9269 76.1805C95.2587 76.5227 95.4863 76.9445 95.6094 77.4461L94.1764 77.6449C94.0484 77.3012 93.8255 77.021 93.5076 76.8041C93.193 76.5867 92.801 76.5106 92.3316 76.5757C91.9212 76.6327 91.5767 76.7909 91.2982 77.0504C91.0225 77.3061 90.8268 77.6445 90.7112 78.0654C90.5952 78.483 90.5745 78.961 90.6492 79.4994C90.7257 80.051 90.8755 80.5154 91.0985 80.8927C91.3215 81.27 91.6009 81.5474 91.9367 81.725C92.2758 81.9022 92.6538 81.9618 93.0708 81.904C93.3498 81.8653 93.5955 81.7793 93.808 81.6461C94.0232 81.5092 94.1945 81.3331 94.3219 81.118C94.4526 80.9025 94.5303 80.6541 94.5549 80.373L95.9879 80.1742C96.0032 80.6706 95.9046 81.1294 95.6919 81.5504C95.4793 81.9714 95.165 82.3228 94.749 82.6047C94.3364 82.8862 93.8313 83.0683 93.2338 83.1512ZM100.376 74.2952L100.54 75.4771L96.4083 76.0503L96.2443 74.8684L100.376 74.2952ZM97.1009 72.9025L98.5733 72.6983L99.566 79.8535C99.6056 80.1391 99.6781 80.3482 99.7835 80.4808C99.8885 80.6101 100.012 80.6917 100.154 80.7256C100.298 80.7557 100.451 80.7596 100.612 80.7372C100.73 80.7209 100.833 80.6983 100.919 80.6696C101.005 80.6409 101.072 80.6182 101.12 80.6015L101.555 81.7809C101.474 81.8256 101.357 81.8753 101.204 81.93C101.052 81.988 100.857 82.035 100.622 82.0711C100.235 82.1314 99.8643 82.1125 99.5094 82.0145C99.1545 81.9165 98.8527 81.7309 98.604 81.4575C98.3553 81.1842 98.1993 80.8194 98.1359 80.363L97.1009 72.9025Z" fill="#1B1B1F"/>
<path d="M303.677 85.7388L304.108 85.4857L304.107 85.4859C304.04 85.3717 303.93 85.2883 303.802 85.2551L303.677 85.7388ZM303.677 85.7388L304.159 85.8641C304.126 85.9925 304.043 86.1022 303.929 86.1692L303.677 85.7388ZM61.9064 118.776L65.8365 118.231L65.9739 119.222L62.0438 119.767L61.9064 118.776ZM69.7666 117.686L73.6968 117.141L73.8342 118.131L69.9041 118.676L69.7666 117.686ZM77.6269 116.595L81.557 116.05L81.6944 117.041L77.7643 117.586L77.6269 116.595ZM85.4872 115.505L89.4173 114.96L89.5547 115.95L85.6246 116.495L85.4872 115.505ZM93.3474 114.414L97.2775 113.869L97.415 114.86L93.4848 115.405L93.3474 114.414ZM101.208 113.324L105.138 112.779L105.275 113.769L101.345 114.314L101.208 113.324ZM109.068 112.233L112.998 111.688L113.135 112.679L109.205 113.224L109.068 112.233ZM116.928 111.143L120.858 110.598L120.996 111.588L117.066 112.133L116.928 111.143ZM124.788 110.052L128.719 109.507L128.856 110.498L124.926 111.043L124.788 110.052ZM132.649 108.962L136.579 108.417L136.716 109.407L132.786 109.952L132.649 108.962ZM140.509 107.871L144.439 107.326L144.577 108.317L140.646 108.862L140.509 107.871ZM148.369 106.781L152.299 106.236L152.437 107.226L148.507 107.771L148.369 106.781ZM156.229 105.69L160.16 105.145L160.297 106.136L156.367 106.681L156.229 105.69ZM164.09 104.6L168.02 104.055L168.157 105.045L164.227 105.59L164.09 104.6ZM171.95 103.509L175.88 102.964L176.018 103.955L172.087 104.5L171.95 103.509ZM179.879 102.914L179.81 102.419L183.74 101.874L183.809 102.369L183.808 102.369L183.877 102.864L179.947 103.409L179.878 102.914L179.879 102.914ZM187.67 101.328L191.6 100.783L191.737 101.774L187.807 102.319L187.67 101.328ZM195.53 100.238L199.46 99.6927L199.597 100.683L195.667 101.228L195.53 100.238ZM203.39 99.1474L207.32 98.6022L207.458 99.5927L203.528 100.138L203.39 99.1474ZM211.25 98.0569L215.18 97.5117L215.318 98.5022L211.388 99.0474L211.25 98.0569ZM219.111 96.9664L223.041 96.4212L223.178 97.4117L219.248 97.9569L219.111 96.9664ZM226.971 95.8759L230.901 95.3307L231.038 96.3212L227.108 96.8664L226.971 95.8759ZM234.831 94.7854L238.761 94.2402L238.899 95.2307L234.969 95.7759L234.831 94.7854ZM242.691 93.6949L246.622 93.1497L246.759 94.1402L242.829 94.6854L242.691 93.6949ZM250.552 92.6044L254.482 92.0591L254.619 93.0497L250.689 93.5949L250.552 92.6044ZM258.412 91.5139L262.342 90.9686L262.479 91.9592L258.549 92.5044L258.412 91.5139ZM266.272 90.4234L270.202 89.8781L270.34 90.8686L266.41 91.4139L266.272 90.4234ZM274.132 89.3329L278.063 88.7876L278.2 89.7781L274.27 90.3234L274.132 89.3329ZM281.993 88.2424L285.923 87.6971L286.06 88.6876L282.13 89.2329L281.993 88.2424ZM289.853 87.1519L293.783 86.6066L293.921 87.5971L289.99 88.1424L289.853 87.1519ZM297.713 86.0614L301.643 85.5161L301.781 86.5066L297.851 87.0519L297.713 86.0614Z" stroke="#D8E2FF" stroke-width="0.5" stroke-dasharray="4 4"/>
<path d="M307.937 116.445L308.368 116.192L308.367 116.192C308.3 116.078 308.19 115.994 308.062 115.961L307.937 116.445ZM307.937 116.445L308.419 116.57C308.386 116.699 308.303 116.808 308.189 116.875L307.937 116.445ZM66.1664 149.482L70.0965 148.937L70.2339 149.928L66.3038 150.473L66.1664 149.482ZM74.0266 148.392L77.9568 147.847L78.0942 148.837L74.1641 149.382L74.0266 148.392ZM81.8869 147.301L85.817 146.756L85.9545 147.747L82.0243 148.292L81.8869 147.301ZM89.7472 146.211L93.6773 145.666L93.8147 146.656L89.8846 147.201L89.7472 146.211ZM97.6074 145.12L101.538 144.575L101.675 145.566L97.7448 146.111L97.6074 145.12ZM105.468 144.03L109.398 143.485L109.535 144.475L105.605 145.02L105.468 144.03ZM113.328 142.939L117.258 142.394L117.395 143.385L113.465 143.93L113.328 142.939ZM121.188 141.849L125.118 141.304L125.256 142.294L121.326 142.839L121.188 141.849ZM129.048 140.758L132.979 140.213L133.116 141.204L129.186 141.749L129.048 140.758ZM136.909 139.668L140.839 139.123L140.976 140.113L137.046 140.658L136.909 139.668ZM144.769 138.577L148.699 138.032L148.837 139.023L144.906 139.568L144.769 138.577ZM152.629 137.487L156.559 136.942L156.697 137.932L152.767 138.477L152.629 137.487ZM160.49 136.396L164.42 135.851L164.557 136.842L160.627 137.387L160.49 136.396ZM168.35 135.306L172.28 134.761L172.417 135.751L168.487 136.296L168.35 135.306ZM176.21 134.215L180.14 133.67L180.278 134.661L176.347 135.206L176.21 134.215ZM184.139 133.62L184.07 133.125L188 132.58L188.069 133.075L188.068 133.075L188.137 133.57L184.207 134.116L184.138 133.62L184.139 133.62ZM191.93 132.035L195.86 131.489L195.997 132.48L192.067 133.025L191.93 132.035ZM199.79 130.944L203.72 130.399L203.857 131.389L199.927 131.935L199.79 130.944ZM207.65 129.853L211.58 129.308L211.718 130.299L207.788 130.844L207.65 129.853ZM215.51 128.763L219.44 128.218L219.578 129.208L215.648 129.753L215.51 128.763ZM223.371 127.672L227.301 127.127L227.438 128.118L223.508 128.663L223.371 127.672ZM231.231 126.582L235.161 126.037L235.298 127.027L231.368 127.572L231.231 126.582ZM239.091 125.491L243.021 124.946L243.159 125.937L239.229 126.482L239.091 125.491ZM246.951 124.401L250.882 123.856L251.019 124.846L247.089 125.391L246.951 124.401ZM254.812 123.31L258.742 122.765L258.879 123.756L254.949 124.301L254.812 123.31ZM262.672 122.22L266.602 121.675L266.739 122.665L262.809 123.21L262.672 122.22ZM270.532 121.129L274.462 120.584L274.6 121.575L270.67 122.12L270.532 121.129ZM278.392 120.039L282.323 119.494L282.46 120.484L278.53 121.029L278.392 120.039ZM286.253 118.948L290.183 118.403L290.32 119.394L286.39 119.939L286.253 118.948ZM294.113 117.858L298.043 117.313L298.181 118.303L294.25 118.848L294.113 117.858ZM301.973 116.767L305.903 116.222L306.041 117.213L302.111 117.758L301.973 116.767Z" stroke="#D8E2FF" stroke-width="0.5" stroke-dasharray="4 4"/>
<path d="M312.197 147.15L312.628 146.897L312.627 146.897C312.56 146.783 312.45 146.7 312.322 146.667L312.197 147.15ZM312.197 147.15L312.679 147.276C312.646 147.404 312.563 147.514 312.449 147.581L312.197 147.15ZM70.4264 180.188L74.3565 179.643L74.4939 180.633L70.5638 181.179L70.4264 180.188ZM78.2867 179.098L82.2168 178.552L82.3542 179.543L78.4241 180.088L78.2867 179.098ZM86.1469 178.007L90.077 177.462L90.2145 178.452L86.2843 178.998L86.1469 178.007ZM94.0072 176.917L97.9373 176.371L98.0747 177.362L94.1446 177.907L94.0072 176.917ZM101.867 175.826L105.798 175.281L105.935 176.271L102.005 176.817L101.867 175.826ZM109.728 174.735L113.658 174.19L113.795 175.181L109.865 175.726L109.728 174.735ZM117.588 173.645L121.518 173.1L121.656 174.09L117.725 174.636L117.588 173.645ZM125.448 172.554L129.378 172.009L129.516 173L125.586 173.545L125.448 172.554ZM133.308 171.464L137.239 170.919L137.376 171.909L133.446 172.454L133.308 171.464ZM141.169 170.373L145.099 169.828L145.236 170.819L141.306 171.364L141.169 170.373ZM149.029 169.283L152.959 168.738L153.097 169.728L149.166 170.273L149.029 169.283ZM156.889 168.192L160.819 167.647L160.957 168.638L157.027 169.183L156.889 168.192ZM164.75 167.102L168.68 166.557L168.817 167.547L164.887 168.092L164.75 167.102ZM172.61 166.011L176.54 165.466L176.677 166.457L172.747 167.002L172.61 166.011ZM180.47 164.921L184.4 164.376L184.538 165.366L180.607 165.911L180.47 164.921ZM188.399 164.326L188.33 163.83L192.26 163.285L192.329 163.78L192.328 163.781L192.397 164.276L188.467 164.821L188.398 164.326L188.399 164.326ZM196.19 162.74L200.12 162.195L200.257 163.185L196.327 163.731L196.19 162.74ZM204.05 161.65L207.98 161.104L208.117 162.095L204.187 162.64L204.05 161.65ZM211.91 160.559L215.84 160.014L215.978 161.004L212.048 161.55L211.91 160.559ZM219.77 159.469L223.701 158.923L223.838 159.914L219.908 160.459L219.77 159.469ZM227.631 158.378L231.561 157.833L231.698 158.823L227.768 159.369L227.631 158.378ZM235.491 157.288L239.421 156.742L239.558 157.733L235.628 158.278L235.491 157.288ZM243.351 156.197L247.281 155.652L247.419 156.642L243.489 157.188L243.351 156.197ZM251.211 155.107L255.142 154.561L255.279 155.552L251.349 156.097L251.211 155.107ZM259.072 154.016L263.002 153.471L263.139 154.461L259.209 155.007L259.072 154.016ZM266.932 152.926L270.862 152.38L270.999 153.371L267.069 153.916L266.932 152.926ZM274.792 151.835L278.722 151.29L278.86 152.28L274.93 152.826L274.792 151.835ZM282.652 150.745L286.583 150.199L286.72 151.19L282.79 151.735L282.652 150.745ZM290.513 149.654L294.443 149.109L294.58 150.099L290.65 150.645L290.513 149.654ZM298.373 148.563L302.303 148.018L302.441 149.009L298.51 149.554L298.373 148.563ZM306.233 147.473L310.163 146.928L310.301 147.918L306.371 148.464L306.233 147.473Z" stroke="#D8E2FF" stroke-width="0.5" stroke-dasharray="4 4"/>
<path d="M316.457 177.856L316.888 177.603L316.887 177.604C316.82 177.489 316.71 177.406 316.582 177.373L316.457 177.856ZM316.457 177.856L316.94 177.982C316.906 178.11 316.823 178.22 316.709 178.287L316.457 177.856ZM74.6865 210.894L78.6167 210.349L78.7541 211.339L74.8239 211.885L74.6865 210.894ZM82.5468 209.804L86.4769 209.258L86.6143 210.249L82.6842 210.794L82.5468 209.804ZM90.407 208.713L94.3372 208.168L94.4746 209.158L90.5445 209.704L90.407 208.713ZM98.2673 207.623L102.197 207.077L102.335 208.068L98.4047 208.613L98.2673 207.623ZM106.128 206.532L110.058 205.987L110.195 206.977L106.265 207.523L106.128 206.532ZM113.988 205.442L117.918 204.896L118.055 205.887L114.125 206.432L113.988 205.442ZM121.848 204.351L125.778 203.806L125.916 204.796L121.986 205.342L121.848 204.351ZM129.708 203.261L133.638 202.715L133.776 203.706L129.846 204.251L129.708 203.261ZM137.569 202.17L141.499 201.625L141.636 202.615L137.706 203.161L137.569 202.17ZM145.429 201.08L149.359 200.534L149.496 201.525L145.566 202.07L145.429 201.08ZM153.289 199.989L157.219 199.444L157.357 200.434L153.427 200.98L153.289 199.989ZM161.149 198.899L165.08 198.353L165.217 199.344L161.287 199.889L161.149 198.899ZM169.01 197.808L172.94 197.263L173.077 198.253L169.147 198.799L169.01 197.808ZM176.87 196.718L180.8 196.172L180.937 197.163L177.007 197.708L176.87 196.718ZM184.73 195.627L188.66 195.082L188.798 196.072L184.868 196.618L184.73 195.627ZM192.659 195.032L192.59 194.536L196.521 193.991L196.589 194.486L196.588 194.487L196.657 194.982L192.727 195.527L192.658 195.032L192.659 195.032ZM200.45 193.446L204.38 192.901L204.517 193.891L200.587 194.437L200.45 193.446ZM208.31 192.356L212.24 191.81L212.378 192.801L208.447 193.346L208.31 192.356ZM216.17 191.265L220.1 190.72L220.238 191.71L216.308 192.256L216.17 191.265ZM224.031 190.175L227.961 189.629L228.098 190.62L224.168 191.165L224.031 190.175ZM231.891 189.084L235.821 188.539L235.958 189.529L232.028 190.075L231.891 189.084ZM239.751 187.994L243.681 187.448L243.819 188.439L239.888 188.984L239.751 187.994ZM247.611 186.903L251.541 186.358L251.679 187.348L247.749 187.894L247.611 186.903ZM255.472 185.813L259.402 185.267L259.539 186.258L255.609 186.803L255.472 185.813ZM263.332 184.722L267.262 184.177L267.399 185.167L263.469 185.713L263.332 184.722ZM271.192 183.632L275.122 183.086L275.26 184.077L271.329 184.622L271.192 183.632ZM279.052 182.541L282.982 181.996L283.12 182.986L279.19 183.532L279.052 182.541ZM286.913 181.451L290.843 180.905L290.98 181.896L287.05 182.441L286.913 181.451ZM294.773 180.36L298.703 179.815L298.84 180.805L294.91 181.351L294.773 180.36ZM302.633 179.27L306.563 178.724L306.701 179.715L302.771 180.26L302.633 179.27ZM310.493 178.179L314.424 177.634L314.561 178.624L310.631 179.17L310.493 178.179Z" stroke="#D8E2FF" stroke-width="0.5" stroke-dasharray="4 4"/>
<path d="M320.717 208.563L321.148 208.309L321.147 208.31C321.08 208.195 320.97 208.112 320.842 208.079L320.717 208.563ZM320.717 208.563L321.2 208.688C321.166 208.816 321.083 208.926 320.969 208.993L320.717 208.563ZM78.9465 241.6L82.8767 241.055L83.0141 242.045L79.084 242.591L78.9465 241.6ZM86.8068 240.51L90.7369 239.964L90.8743 240.955L86.9442 241.5L86.8068 240.51ZM94.6671 239.419L98.5972 238.874L98.7346 239.864L94.8045 240.41L94.6671 239.419ZM102.527 238.329L106.457 237.783L106.595 238.774L102.665 239.319L102.527 238.329ZM110.388 237.238L114.318 236.693L114.455 237.683L110.525 238.229L110.388 237.238ZM118.248 236.148L122.178 235.602L122.315 236.593L118.385 237.138L118.248 236.148ZM126.108 235.057L130.038 234.512L130.176 235.502L126.246 236.048L126.108 235.057ZM133.968 233.967L137.898 233.421L138.036 234.412L134.106 234.957L133.968 233.967ZM141.829 232.876L145.759 232.331L145.896 233.321L141.966 233.867L141.829 232.876ZM149.689 231.786L153.619 231.24L153.756 232.231L149.826 232.776L149.689 231.786ZM157.549 230.695L161.479 230.15L161.617 231.14L157.687 231.686L157.549 230.695ZM165.409 229.605L169.34 229.059L169.477 230.05L165.547 230.595L165.409 229.605ZM173.27 228.514L177.2 227.969L177.337 228.959L173.407 229.505L173.27 228.514ZM181.13 227.424L185.06 226.878L185.197 227.869L181.267 228.414L181.13 227.424ZM188.99 226.333L192.92 225.788L193.058 226.778L189.128 227.324L188.99 226.333ZM196.919 225.738L196.85 225.243L200.781 224.697L200.849 225.193L200.848 225.193L200.917 225.688L196.987 226.233L196.918 225.738L196.919 225.738ZM204.71 224.152L208.64 223.607L208.777 224.597L204.847 225.143L204.71 224.152ZM212.57 223.062L216.5 222.516L216.638 223.507L212.707 224.052L212.57 223.062ZM220.43 221.971L224.36 221.426L224.498 222.416L220.568 222.962L220.43 221.971ZM228.291 220.881L232.221 220.335L232.358 221.326L228.428 221.871L228.291 220.881ZM236.151 219.79L240.081 219.245L240.218 220.235L236.288 220.781L236.151 219.79ZM244.011 218.7L247.941 218.154L248.079 219.145L244.148 219.69L244.011 218.7ZM251.871 217.609L255.801 217.064L255.939 218.054L252.009 218.6L251.871 217.609ZM259.732 216.519L263.662 215.973L263.799 216.964L259.869 217.509L259.732 216.519ZM267.592 215.428L271.522 214.883L271.659 215.873L267.729 216.419L267.592 215.428ZM275.452 214.338L279.382 213.792L279.52 214.783L275.59 215.328L275.452 214.338ZM283.312 213.247L287.242 212.702L287.38 213.692L283.45 214.238L283.312 213.247ZM291.173 212.157L295.103 211.611L295.24 212.602L291.31 213.147L291.173 212.157ZM299.033 211.066L302.963 210.521L303.1 211.511L299.17 212.057L299.033 211.066ZM306.893 209.976L310.823 209.43L310.961 210.421L307.031 210.966L306.893 209.976ZM314.753 208.885L318.684 208.34L318.821 209.33L314.891 209.876L314.753 208.885Z" stroke="#D8E2FF" stroke-width="0.5" stroke-dasharray="4 4"/>
<path d="M84.0631 270.143L85.3125 269.97L89.2458 276.738L89.3471 276.724L91.2893 269.141L92.5387 268.967L93.738 277.612L92.7588 277.748L91.8476 271.18L91.7632 271.191L89.973 278.134L89.0275 278.265L85.4149 272.072L85.3305 272.084L86.2417 278.652L85.2624 278.788L84.0631 270.143ZM98.3544 277.109C97.7691 277.19 97.2363 277.122 96.7558 276.905C96.2782 276.687 95.8808 276.345 95.5637 275.878C95.2494 275.412 95.0458 274.843 94.9529 274.173C94.8592 273.498 94.8998 272.892 95.0747 272.354C95.2525 271.816 95.5415 271.377 95.9418 271.038C96.345 270.698 96.8392 270.487 97.4245 270.406C98.0098 270.325 98.5413 270.393 99.0189 270.611C99.4993 270.828 99.8969 271.172 100.212 271.641C100.529 272.111 100.735 272.683 100.828 273.358C100.921 274.028 100.879 274.631 100.701 275.166C100.525 275.701 100.236 276.138 99.8329 276.478C99.4326 276.817 98.9397 277.028 98.3544 277.109ZM98.2303 276.214C98.6749 276.152 99.0249 275.988 99.2803 275.72C99.5357 275.452 99.7066 275.123 99.7929 274.732C99.8793 274.342 99.8924 273.93 99.8323 273.497C99.7722 273.063 99.6472 272.669 99.4574 272.314C99.2676 271.959 99.0132 271.686 98.6941 271.495C98.3751 271.304 97.9933 271.239 97.5487 271.301C97.104 271.363 96.7542 271.529 96.4992 271.799C96.2442 272.07 96.0737 272.402 95.9878 272.795C95.9018 273.189 95.8889 273.602 95.949 274.035C96.0091 274.469 96.1339 274.861 96.3233 275.214C96.5127 275.566 96.7668 275.836 97.0854 276.024C97.4041 276.213 97.7857 276.276 98.2303 276.214ZM103.249 272.317L103.79 276.217L102.794 276.355L101.895 269.872L102.857 269.738L102.997 270.751L103.082 270.74C103.188 270.389 103.382 270.093 103.664 269.85C103.945 269.605 104.331 269.448 104.821 269.38C105.26 269.319 105.656 269.356 106.01 269.49C106.364 269.622 106.658 269.856 106.891 270.194C107.124 270.529 107.279 270.972 107.355 271.524L107.927 275.643L106.931 275.781L106.368 271.729C106.298 271.22 106.11 270.842 105.806 270.594C105.502 270.344 105.119 270.251 104.658 270.315C104.34 270.359 104.065 270.467 103.834 270.64C103.605 270.812 103.438 271.04 103.331 271.325C103.224 271.609 103.197 271.94 103.249 272.317Z" fill="#525E7A"/>
<path d="M139.48 263.401L139.351 262.473L145.835 261.573L145.963 262.502L143.245 262.879L144.316 270.595L143.269 270.74L142.198 263.024L139.48 263.401ZM151.35 266.917L150.819 263.084L151.815 262.946L152.714 269.43L151.718 269.568L151.566 268.47L151.498 268.48C151.392 268.83 151.194 269.143 150.906 269.418C150.617 269.69 150.227 269.861 149.738 269.929C149.332 269.985 148.96 269.946 148.62 269.813C148.28 269.676 147.995 269.44 147.765 269.105C147.534 268.767 147.381 268.322 147.304 267.771L146.733 263.651L147.729 263.513L148.291 267.565C148.357 268.038 148.541 268.397 148.845 268.641C149.151 268.886 149.511 268.979 149.925 268.922C150.172 268.887 150.415 268.789 150.654 268.627C150.895 268.464 151.085 268.24 151.223 267.954C151.364 267.668 151.407 267.322 151.35 266.917ZM157.276 268.934C156.651 269.021 156.093 268.958 155.602 268.745C155.113 268.529 154.711 268.189 154.398 267.725C154.086 267.257 153.884 266.692 153.792 266.028C153.7 265.363 153.74 264.761 153.911 264.221C154.086 263.678 154.371 263.234 154.768 262.889C155.167 262.541 155.659 262.327 156.245 262.246C156.582 262.199 156.923 262.209 157.268 262.276C157.613 262.342 157.938 262.484 158.243 262.7C158.548 262.913 158.81 263.215 159.027 263.606C159.245 263.998 159.396 264.496 159.48 265.101L159.539 265.523L154.541 266.216L154.422 265.355L158.406 264.802C158.355 264.436 158.237 264.12 158.051 263.853C157.867 263.586 157.631 263.388 157.34 263.259C157.053 263.13 156.729 263.09 156.369 263.14C155.972 263.195 155.642 263.342 155.38 263.579C155.12 263.813 154.934 264.097 154.822 264.43C154.711 264.764 154.68 265.11 154.73 265.467L154.809 266.041C154.877 266.531 155.019 266.934 155.235 267.251C155.454 267.565 155.727 267.79 156.056 267.925C156.384 268.057 156.749 268.095 157.152 268.039C157.413 268.003 157.645 267.934 157.845 267.831C158.049 267.726 158.217 267.588 158.352 267.417C158.485 267.244 158.579 267.038 158.632 266.802L159.632 266.938C159.576 267.279 159.445 267.589 159.24 267.87C159.035 268.148 158.766 268.38 158.434 268.567C158.101 268.751 157.715 268.873 157.276 268.934Z" fill="#525E7A"/>
<path d="M194.123 263.685L190.56 255.368L191.624 255.22L194.407 262.01L194.492 261.999L195.355 254.703L196.537 254.539L199.354 261.324L199.439 261.312L200.268 254.021L201.332 253.874L200.168 262.846L199.087 262.996L196.224 256.372L196.156 256.381L195.204 263.535L194.123 263.685ZM205.834 262.197C205.209 262.284 204.651 262.221 204.16 262.008C203.671 261.792 203.27 261.452 202.956 260.988C202.644 260.52 202.442 259.955 202.35 259.291C202.258 258.627 202.298 258.024 202.47 257.484C202.644 256.941 202.929 256.497 203.326 256.152C203.725 255.804 204.217 255.59 204.803 255.509C205.14 255.462 205.482 255.472 205.827 255.539C206.171 255.606 206.496 255.747 206.802 255.963C207.107 256.176 207.368 256.478 207.586 256.869C207.804 257.261 207.954 257.759 208.038 258.364L208.097 258.786L203.099 259.479L202.98 258.618L206.964 258.065C206.914 257.7 206.795 257.383 206.609 257.117C206.426 256.85 206.189 256.651 205.898 256.523C205.611 256.393 205.287 256.354 204.927 256.404C204.53 256.459 204.2 256.605 203.938 256.842C203.678 257.076 203.492 257.36 203.381 257.694C203.269 258.027 203.238 258.373 203.288 258.73L203.368 259.304C203.435 259.794 203.578 260.197 203.794 260.514C204.012 260.828 204.286 261.053 204.614 261.188C204.942 261.32 205.307 261.358 205.71 261.303C205.972 261.266 206.203 261.197 206.404 261.095C206.607 260.989 206.776 260.851 206.91 260.68C207.044 260.507 207.137 260.302 207.19 260.065L208.19 260.201C208.134 260.542 208.004 260.852 207.799 261.133C207.593 261.411 207.325 261.644 206.992 261.83C206.659 262.014 206.273 262.137 205.834 262.197ZM210.15 261.461L208.951 252.817L209.947 252.678L210.39 255.869L210.474 255.858C210.532 255.735 210.613 255.577 210.718 255.385C210.826 255.189 210.993 255.006 211.218 254.834C211.446 254.659 211.772 254.542 212.194 254.483C212.74 254.408 213.24 254.477 213.694 254.692C214.148 254.908 214.527 255.249 214.83 255.718C215.133 256.186 215.332 256.761 215.426 257.442C215.522 258.129 215.487 258.74 215.324 259.276C215.16 259.809 214.89 260.243 214.515 260.576C214.139 260.906 213.681 261.109 213.14 261.184C212.724 261.242 212.381 261.219 212.111 261.116C211.841 261.01 211.627 260.878 211.467 260.719C211.307 260.558 211.182 260.423 211.093 260.315L210.974 260.331L211.113 261.327L210.15 261.461ZM210.68 258.083C210.748 258.573 210.879 258.995 211.075 259.349C211.27 259.701 211.52 259.963 211.825 260.136C212.13 260.306 212.482 260.363 212.881 260.308C213.298 260.25 213.63 260.092 213.878 259.834C214.129 259.572 214.298 259.245 214.387 258.851C214.478 258.454 214.492 258.025 214.428 257.563C214.365 257.108 214.237 256.707 214.046 256.36C213.857 256.011 213.607 255.749 213.296 255.574C212.987 255.396 212.622 255.336 212.2 255.395C211.794 255.451 211.468 255.601 211.221 255.844C210.973 256.085 210.804 256.398 210.714 256.784C210.624 257.166 210.613 257.599 210.68 258.083Z" fill="#525E7A"/>
<path d="M246.457 248.559L246.328 247.631L252.812 246.731L252.941 247.66L250.222 248.037L251.293 255.753L250.246 255.898L249.176 248.182L246.457 248.559ZM255.947 251.132L256.488 255.032L255.492 255.17L254.292 246.526L255.288 246.388L255.729 249.562L255.813 249.55C255.919 249.194 256.11 248.897 256.386 248.658C256.665 248.415 257.06 248.259 257.569 248.188C258.011 248.127 258.41 248.162 258.767 248.293C259.123 248.421 259.418 248.654 259.651 248.992C259.886 249.326 260.043 249.772 260.12 250.329L260.692 254.449L259.696 254.587L259.134 250.535C259.062 250.02 258.873 249.641 258.567 249.396C258.263 249.149 257.876 249.058 257.406 249.123C257.08 249.168 256.796 249.278 256.557 249.451C256.32 249.625 256.145 249.854 256.033 250.139C255.923 250.424 255.894 250.755 255.947 251.132ZM266.232 250.979L265.701 247.146L266.697 247.008L267.596 253.491L266.6 253.629L266.448 252.532L266.38 252.541C266.274 252.892 266.076 253.204 265.788 253.48C265.499 253.752 265.109 253.922 264.62 253.99C264.214 254.046 263.842 254.008 263.502 253.874C263.162 253.738 262.877 253.502 262.647 253.167C262.416 252.829 262.263 252.384 262.186 251.832L261.615 247.713L262.611 247.575L263.173 251.627C263.239 252.099 263.423 252.458 263.727 252.703C264.033 252.947 264.393 253.041 264.807 252.983C265.054 252.949 265.297 252.851 265.536 252.688C265.777 252.526 265.967 252.302 266.105 252.016C266.246 251.73 266.289 251.384 266.232 250.979Z" fill="#525E7A"/>
<path d="M305.439 248.241L304.239 239.596L309.423 238.877L309.552 239.806L305.415 240.38L305.82 243.301L309.568 242.781L309.697 243.709L305.949 244.229L306.485 248.096L305.439 248.241ZM312.21 247.302L311.311 240.818L312.273 240.685L312.409 241.664L312.476 241.655C312.55 241.317 312.728 241.027 313.01 240.785C313.291 240.542 313.627 240.394 314.015 240.34C314.088 240.33 314.18 240.318 314.29 240.306C314.4 240.293 314.484 240.286 314.541 240.284L314.681 241.297C314.646 241.293 314.567 241.291 314.444 241.291C314.323 241.288 314.196 241.295 314.064 241.314C313.749 241.358 313.477 241.463 313.247 241.629C313.02 241.793 312.851 242 312.74 242.25C312.631 242.498 312.596 242.768 312.637 243.061L313.206 247.163L312.21 247.302ZM316.633 246.688L315.733 240.205L316.729 240.066L317.629 246.55L316.633 246.688ZM316.09 239.054C315.896 239.081 315.719 239.038 315.56 238.925C315.404 238.812 315.313 238.663 315.287 238.477C315.261 238.291 315.308 238.123 315.428 237.971C315.55 237.819 315.708 237.73 315.902 237.703C316.097 237.676 316.272 237.719 316.428 237.832C316.587 237.945 316.679 238.094 316.705 238.28C316.731 238.466 316.683 238.635 316.56 238.786C316.441 238.938 316.284 239.027 316.09 239.054Z" fill="#525E7A"/>
<path d="M70.7843 187.135L113.768 200.273C124.055 203.417 135.175 202.285 144.618 197.133L181.873 176.806C189.954 172.397 196.267 165.336 199.747 156.813L217.254 113.935C225.859 92.8588 250.295 83.2039 270.982 92.7065L300.559 106.292" stroke="#B4C5FF" stroke-width="2"/>
<path d="M73.1791 218.1L95.7387 186.909C108.787 168.868 134.056 164.954 151.951 178.203L152.745 178.791C173.891 194.446 204.132 185.774 213.767 161.291L227.597 126.15C232.493 113.711 243.277 104.54 256.341 101.707L300.034 92.2311" stroke="#005BC0" stroke-width="2"/>
</g>
<g filter="url(#filter1_d_15417_126718)">
<rect x="210.721" y="21" width="255" height="170" rx="12" transform="rotate(3.27807 210.721 21)" fill="white" shape-rendering="crispEdges"/>
<rect x="211.192" y="21.5278" width="254" height="169" rx="11.5" transform="rotate(3.27807 211.192 21.5278)" stroke="#E9E8EC" shape-rendering="crispEdges"/>
<g clip-path="url(#clip0_15417_126718)">
<path d="M228.786 43.9268C228.811 43.4838 229.012 43.069 229.343 42.7736C229.674 42.4783 230.109 42.3267 230.552 42.352L240.575 42.9261C241.018 42.9515 241.433 43.1518 241.728 43.483C242.024 43.8143 242.175 44.2492 242.15 44.6923L241.576 54.7153C241.551 55.1583 241.35 55.5731 241.019 55.8684C240.688 56.1638 240.253 56.3154 239.81 56.2901L229.787 55.716C229.344 55.6906 228.929 55.4903 228.634 55.1591C228.338 54.8278 228.187 54.3929 228.212 53.9498L228.786 43.9268Z" stroke="#1B1B1F" stroke-width="1.25493" stroke-linecap="round" stroke-linejoin="round"/>
<path d="M239 41.1597L238.809 44.5007" stroke="#1D1B20" stroke-width="1.25493" stroke-linecap="round" stroke-linejoin="round"/>
<path d="M232.318 40.7773L232.127 44.1183" stroke="#1D1B20" stroke-width="1.25493" stroke-linecap="round" stroke-linejoin="round"/>
<path d="M228.595 47.2676L241.959 48.033" stroke="#1D1B20" stroke-width="1.25493" stroke-linecap="round" stroke-linejoin="round"/>
<path d="M231.744 50.8003L233.415 50.896L233.319 52.5665L231.649 52.4708L231.744 50.8003Z" stroke="#1D1B20" stroke-width="1.25493" stroke-linecap="round" stroke-linejoin="round"/>
</g>
<path d="M437.77 60.9244C438.231 60.9509 438.626 60.5983 438.653 60.137C438.679 59.6757 438.327 59.2804 437.865 59.254C437.404 59.2275 437.009 59.5801 436.982 60.0414C436.956 60.5027 437.309 60.898 437.77 60.9244Z" stroke="#C4C6D0" stroke-width="1.67323" stroke-linecap="round" stroke-linejoin="round"/>
<path d="M438.105 55.0777C438.566 55.1041 438.961 54.7516 438.988 54.2903C439.014 53.829 438.662 53.4336 438.2 53.4072C437.739 53.3808 437.344 53.7333 437.317 54.1946C437.291 54.6559 437.643 55.0513 438.105 55.0777Z" stroke="#C4C6D0" stroke-width="1.67323" stroke-linecap="round" stroke-linejoin="round"/>
<path d="M437.435 66.7712C437.896 66.7976 438.292 66.4451 438.318 65.9838C438.344 65.5225 437.992 65.1271 437.531 65.1007C437.069 65.0743 436.674 65.4268 436.648 65.8881C436.621 66.3494 436.974 66.7448 437.435 66.7712Z" stroke="#C4C6D0" stroke-width="1.67323" stroke-linecap="round" stroke-linejoin="round"/>
<path d="M235.052 118.821L232.4 118.669C232.35 118.23 232.232 117.837 232.048 117.49C231.864 117.138 231.628 116.835 231.339 116.581C231.05 116.327 230.715 116.13 230.334 115.99C229.958 115.845 229.548 115.76 229.104 115.735C228.314 115.689 227.603 115.848 226.971 116.21C226.339 116.567 225.828 117.117 225.44 117.858C225.051 118.595 224.826 119.509 224.763 120.601C224.699 121.712 224.818 122.658 225.12 123.438C225.426 124.215 225.871 124.814 226.454 125.236C227.042 125.654 227.728 125.886 228.513 125.931C228.948 125.955 229.357 125.922 229.742 125.83C230.132 125.734 230.484 125.581 230.8 125.371C231.12 125.162 231.394 124.898 231.621 124.579C231.852 124.26 232.021 123.891 232.125 123.47L234.776 123.636C234.638 124.32 234.385 124.956 234.02 125.542C233.659 126.128 233.201 126.638 232.645 127.071C232.089 127.499 231.449 127.823 230.725 128.042C230.002 128.257 229.207 128.339 228.342 128.29C227.066 128.217 225.943 127.856 224.975 127.208C224.007 126.559 223.266 125.661 222.753 124.512C222.241 123.364 222.029 122.009 222.118 120.449C222.208 118.885 222.575 117.564 223.22 116.486C223.866 115.404 224.706 114.596 225.742 114.062C226.778 113.529 227.93 113.298 229.197 113.371C230.005 113.417 230.75 113.574 231.432 113.84C232.114 114.107 232.714 114.476 233.232 114.947C233.751 115.413 234.167 115.972 234.481 116.626C234.799 117.275 234.99 118.007 235.052 118.821ZM241.535 129.06C240.472 128.999 239.563 128.712 238.81 128.199C238.057 127.687 237.489 126.997 237.107 126.131C236.73 125.265 236.574 124.27 236.638 123.145C236.703 122.02 236.972 121.046 237.446 120.225C237.924 119.403 238.567 118.781 239.374 118.357C240.181 117.934 241.116 117.753 242.179 117.814C243.243 117.875 244.151 118.161 244.904 118.674C245.658 119.187 246.223 119.878 246.6 120.749C246.981 121.62 247.14 122.618 247.076 123.743C247.011 124.868 246.74 125.839 246.261 126.655C245.788 127.472 245.148 128.093 244.341 128.516C243.534 128.939 242.599 129.12 241.535 129.06ZM241.667 127.004C242.244 127.037 242.735 126.906 243.141 126.612C243.547 126.313 243.86 125.899 244.08 125.371C244.305 124.843 244.436 124.248 244.474 123.587C244.512 122.92 244.449 122.312 244.287 121.762C244.129 121.207 243.865 120.758 243.496 120.415C243.127 120.071 242.654 119.883 242.077 119.85C241.486 119.816 240.985 119.948 240.574 120.247C240.168 120.547 239.853 120.962 239.628 121.495C239.408 122.023 239.279 122.62 239.241 123.287C239.203 123.949 239.263 124.554 239.421 125.104C239.584 125.654 239.85 126.101 240.22 126.445C240.594 126.784 241.076 126.97 241.667 127.004ZM256.149 125.088L256.51 118.777L259.077 118.924L258.453 129.815L255.964 129.673L256.075 127.737L255.962 127.73C255.681 128.326 255.248 128.802 254.664 129.157C254.084 129.513 253.385 129.667 252.567 129.62C251.853 129.579 251.231 129.385 250.701 129.037C250.176 128.684 249.777 128.194 249.505 127.567C249.233 126.935 249.121 126.184 249.171 125.314L249.569 118.379L252.135 118.526L251.761 125.064C251.721 125.754 251.879 126.313 252.234 126.741C252.589 127.17 253.073 127.401 253.688 127.436C254.066 127.458 254.438 127.387 254.803 127.223C255.168 127.059 255.474 126.801 255.722 126.45C255.975 126.095 256.117 125.641 256.149 125.088ZM261.093 129.966L261.717 119.075L264.205 119.218L264.101 121.033L264.215 121.039C264.449 120.422 264.818 119.957 265.319 119.644C265.826 119.327 266.391 119.186 267.015 119.222C267.157 119.23 267.315 119.246 267.489 119.27C267.668 119.29 267.816 119.315 267.933 119.346L267.798 121.707C267.691 121.663 267.52 121.62 267.286 121.578C267.056 121.532 266.832 121.502 266.615 121.49C266.147 121.463 265.72 121.541 265.335 121.722C264.955 121.9 264.649 122.16 264.416 122.502C264.183 122.844 264.053 123.247 264.026 123.71L263.66 130.113L261.093 129.966ZM278.076 122.9L275.722 123.022C275.669 122.781 275.566 122.553 275.413 122.335C275.264 122.118 275.056 121.938 274.789 121.794C274.522 121.651 274.19 121.568 273.793 121.545C273.259 121.515 272.803 121.605 272.426 121.815C272.054 122.027 271.859 122.317 271.843 122.686C271.82 123.002 271.921 123.266 272.146 123.478C272.376 123.691 272.763 123.877 273.309 124.036L275.144 124.539C276.162 124.82 276.908 125.217 277.381 125.727C277.859 126.239 278.078 126.884 278.038 127.664C277.994 128.35 277.759 128.943 277.332 129.445C276.91 129.943 276.34 130.318 275.624 130.571C274.907 130.824 274.095 130.924 273.188 130.872C271.855 130.796 270.798 130.456 270.017 129.851C269.236 129.242 268.796 128.432 268.697 127.421L271.214 127.323C271.3 127.822 271.519 128.206 271.874 128.478C272.228 128.75 272.701 128.902 273.292 128.936C273.901 128.971 274.398 128.874 274.781 128.645C275.169 128.415 275.373 128.116 275.394 127.748C275.412 127.436 275.306 127.171 275.077 126.954C274.852 126.737 274.492 126.56 273.998 126.423L272.162 125.926C271.13 125.649 270.378 125.239 269.906 124.695C269.435 124.146 269.225 123.475 269.275 122.681C269.309 122.009 269.524 121.438 269.921 120.968C270.323 120.493 270.862 120.14 271.539 119.908C272.222 119.672 272.998 119.579 273.867 119.629C275.144 119.702 276.133 120.031 276.834 120.617C277.541 121.203 277.955 121.964 278.076 122.9ZM284.778 131.536C283.686 131.474 282.756 131.193 281.987 130.694C281.224 130.19 280.654 129.507 280.276 128.646C279.899 127.781 279.743 126.778 279.808 125.639C279.873 124.518 280.142 123.547 280.615 122.726C281.094 121.899 281.733 121.272 282.53 120.843C283.328 120.41 284.247 120.223 285.287 120.283C285.958 120.321 286.585 120.466 287.169 120.718C287.757 120.965 288.267 121.326 288.7 121.801C289.138 122.277 289.469 122.87 289.694 123.58C289.919 124.285 290.004 125.115 289.949 126.07L289.904 126.857L280.977 126.346L281.076 124.616L287.543 124.986C287.566 124.494 287.485 124.051 287.299 123.656C287.113 123.257 286.84 122.935 286.479 122.692C286.123 122.448 285.699 122.313 285.208 122.284C284.683 122.254 284.215 122.356 283.803 122.588C283.392 122.816 283.063 123.129 282.818 123.528C282.577 123.922 282.44 124.362 282.407 124.849L282.321 126.359C282.285 126.992 282.369 127.543 282.575 128.01C282.781 128.472 283.085 128.836 283.487 129.101C283.89 129.361 284.37 129.507 284.928 129.539C285.301 129.56 285.642 129.527 285.95 129.441C286.259 129.349 286.531 129.206 286.765 129.011C286.999 128.816 287.181 128.568 287.312 128.267L289.694 128.673C289.506 129.298 289.186 129.835 288.734 130.283C288.286 130.727 287.726 131.06 287.054 131.283C286.383 131.5 285.624 131.585 284.778 131.536ZM301.496 132.494C300.408 132.432 299.488 132.139 298.736 131.617C297.988 131.095 297.428 130.402 297.055 129.536C296.688 128.666 296.535 127.681 296.598 126.579C296.662 125.473 296.93 124.509 297.404 123.687C297.879 122.861 298.517 122.233 299.319 121.805C300.126 121.372 301.062 121.186 302.125 121.247C303.009 121.298 303.782 121.506 304.444 121.871C305.111 122.232 305.631 122.719 306.004 123.333C306.377 123.943 306.569 124.641 306.581 125.429L304.128 125.289C304.059 124.758 303.847 124.308 303.494 123.936C303.145 123.561 302.662 123.355 302.042 123.32C301.518 123.29 301.049 123.405 300.635 123.666C300.222 123.922 299.89 124.306 299.637 124.818C299.39 125.33 299.245 125.953 299.203 126.686C299.161 127.428 299.233 128.072 299.42 128.619C299.607 129.161 299.888 129.587 300.264 129.898C300.645 130.204 301.102 130.373 301.637 130.403C302.015 130.425 302.357 130.373 302.663 130.249C302.974 130.119 303.239 129.924 303.458 129.661C303.677 129.398 303.835 129.073 303.933 128.685L306.387 128.826C306.281 129.593 306.015 130.263 305.588 130.836C305.162 131.404 304.602 131.837 303.906 132.134C303.211 132.426 302.408 132.546 301.496 132.494ZM308.281 132.669L308.905 121.778L311.394 121.92L311.29 123.736L311.403 123.742C311.638 123.125 312.006 122.66 312.507 122.347C313.014 122.03 313.579 121.889 314.203 121.925C314.345 121.933 314.503 121.949 314.677 121.973C314.856 121.993 315.004 122.018 315.121 122.048L314.986 124.41C314.879 124.366 314.709 124.323 314.474 124.281C314.244 124.234 314.021 124.205 313.803 124.193C313.335 124.166 312.909 124.243 312.524 124.425C312.144 124.603 311.837 124.862 311.604 125.205C311.371 125.547 311.241 125.95 311.215 126.413L310.848 132.816L308.281 132.669ZM320.559 133.586C319.467 133.523 318.537 133.242 317.769 132.743C317.005 132.239 316.435 131.557 316.058 130.696C315.68 129.83 315.524 128.827 315.59 127.688C315.654 126.568 315.923 125.597 316.397 124.775C316.876 123.949 317.514 123.321 318.311 122.893C319.109 122.459 320.028 122.273 321.068 122.332C321.739 122.371 322.367 122.516 322.95 122.767C323.538 123.014 324.048 123.375 324.481 123.851C324.919 124.326 325.25 124.919 325.475 125.629C325.7 126.335 325.785 127.165 325.731 128.12L325.686 128.907L316.758 128.395L316.857 126.665L323.324 127.036C323.348 126.544 323.266 126.1 323.08 125.706C322.894 125.306 322.621 124.984 322.26 124.741C321.904 124.498 321.481 124.362 320.989 124.334C320.464 124.304 319.996 124.405 319.584 124.637C319.173 124.865 318.844 125.178 318.599 125.577C318.358 125.971 318.221 126.411 318.189 126.898L318.102 128.408C318.066 129.042 318.151 129.592 318.356 130.059C318.562 130.521 318.866 130.885 319.268 131.15C319.671 131.41 320.151 131.556 320.709 131.588C321.082 131.61 321.423 131.577 321.732 131.49C322.04 131.399 322.312 131.255 322.546 131.06C322.78 130.865 322.963 130.617 323.094 130.316L325.475 130.723C325.287 131.348 324.967 131.884 324.515 132.333C324.067 132.776 323.507 133.11 322.835 133.332C322.164 133.55 321.405 133.634 320.559 133.586ZM330.707 134.174C330.017 134.134 329.402 133.976 328.863 133.698C328.329 133.417 327.915 133.023 327.622 132.518C327.333 132.013 327.209 131.403 327.25 130.689C327.285 130.075 327.428 129.573 327.678 129.184C327.927 128.796 328.255 128.492 328.662 128.273C329.068 128.055 329.52 127.898 330.019 127.803C330.523 127.704 331.041 127.641 331.573 127.615C332.215 127.585 332.736 127.556 333.136 127.526C333.537 127.492 333.83 127.424 334.016 127.321C334.207 127.213 334.31 127.036 334.324 126.791L334.326 126.748C334.357 126.214 334.222 125.791 333.922 125.48C333.622 125.169 333.175 124.996 332.579 124.962C331.95 124.926 331.444 125.035 331.059 125.288C330.68 125.541 330.415 125.851 330.266 126.217L327.889 125.739C328.116 125.088 328.46 124.553 328.92 124.134C329.381 123.709 329.932 123.404 330.573 123.218C331.215 123.027 331.916 122.953 332.677 122.997C333.202 123.027 333.721 123.119 334.234 123.271C334.747 123.424 335.21 123.654 335.624 123.963C336.038 124.266 336.362 124.666 336.594 125.164C336.831 125.661 336.929 126.271 336.887 126.994L336.47 134.284L334.002 134.142L334.088 132.646L334.003 132.641C333.83 132.935 333.594 133.206 333.295 133.454C333.001 133.698 332.637 133.889 332.202 134.025C331.773 134.157 331.274 134.206 330.707 134.174ZM331.481 132.326C331.997 132.356 332.449 132.28 332.839 132.098C333.229 131.912 333.535 131.654 333.758 131.325C333.986 130.997 334.111 130.632 334.134 130.23L334.207 128.947C334.123 129.008 333.983 129.062 333.786 129.107C333.593 129.153 333.378 129.191 333.139 129.22C332.9 129.249 332.664 129.273 332.431 129.293C332.197 129.313 331.994 129.33 331.823 129.344C331.437 129.374 331.089 129.439 330.78 129.54C330.471 129.641 330.223 129.793 330.036 129.995C329.849 130.193 329.746 130.458 329.727 130.789C329.7 131.261 329.852 131.628 330.183 131.889C330.514 132.15 330.947 132.295 331.481 132.326ZM345.113 123.852L345 125.837L338.739 125.478L338.852 123.493L345.113 123.852ZM340.547 120.972L343.114 121.119L342.529 131.344C342.509 131.689 342.546 131.957 342.639 132.147C342.738 132.333 342.872 132.464 343.043 132.54C343.215 132.616 343.406 132.66 343.619 132.673C343.78 132.682 343.927 132.678 344.061 132.662C344.199 132.647 344.305 132.631 344.376 132.616L344.694 134.648C344.554 134.687 344.355 134.728 344.097 134.77C343.843 134.813 343.534 134.828 343.169 134.817C342.525 134.799 341.952 134.669 341.449 134.426C340.946 134.179 340.556 133.82 340.28 133.349C340.008 132.878 339.894 132.303 339.937 131.622L340.547 120.972ZM346.636 134.866L347.26 123.975L349.827 124.122L349.203 135.013L346.636 134.866ZM348.639 122.503C348.232 122.479 347.89 122.325 347.613 122.038C347.335 121.748 347.208 121.411 347.23 121.028C347.252 120.64 347.417 120.32 347.726 120.067C348.034 119.81 348.392 119.693 348.799 119.716C349.21 119.74 349.552 119.897 349.824 120.187C350.102 120.474 350.23 120.811 350.208 121.198C350.186 121.581 350.02 121.901 349.712 122.159C349.408 122.412 349.05 122.526 348.639 122.503ZM356.581 135.649C355.517 135.588 354.609 135.301 353.856 134.788C353.103 134.276 352.535 133.586 352.153 132.72C351.776 131.855 351.62 130.859 351.684 129.734C351.748 128.609 352.018 127.636 352.491 126.814C352.97 125.992 353.613 125.37 354.42 124.947C355.226 124.523 356.162 124.342 357.225 124.403C358.289 124.464 359.197 124.751 359.95 125.263C360.703 125.776 361.269 126.468 361.645 127.338C362.027 128.209 362.186 129.207 362.121 130.332C362.057 131.457 361.786 132.428 361.307 133.245C360.834 134.062 360.193 134.682 359.387 135.105C358.58 135.529 357.645 135.71 356.581 135.649ZM356.713 133.593C357.29 133.626 357.781 133.496 358.187 133.201C358.593 132.902 358.906 132.488 359.126 131.96C359.35 131.432 359.482 130.838 359.52 130.176C359.558 129.509 359.495 128.901 359.332 128.351C359.174 127.797 358.911 127.348 358.542 127.004C358.172 126.66 357.699 126.472 357.123 126.439C356.532 126.405 356.031 126.538 355.62 126.837C355.214 127.136 354.899 127.552 354.674 128.084C354.454 128.612 354.325 129.21 354.287 129.876C354.249 130.538 354.309 131.144 354.467 131.693C354.63 132.243 354.896 132.69 355.265 133.034C355.64 133.373 356.122 133.56 356.713 133.593ZM366.923 129.625L366.557 136.007L363.991 135.86L364.614 124.969L367.068 125.109L366.962 126.96L367.089 126.967C367.375 126.372 367.802 125.91 368.371 125.582C368.945 125.255 369.638 125.114 370.451 125.161C371.203 125.204 371.848 125.402 372.387 125.755C372.932 126.109 373.34 126.599 373.612 127.227C373.889 127.854 374 128.603 373.946 129.473L373.549 136.407L370.982 136.26L371.356 129.723C371.398 128.995 371.242 128.414 370.887 127.981C370.537 127.549 370.031 127.313 369.369 127.276C368.92 127.25 368.515 127.326 368.154 127.505C367.798 127.679 367.51 127.944 367.29 128.302C367.075 128.659 366.953 129.101 366.923 129.625ZM387.173 126.261L387.06 128.246L380.798 127.887L380.912 125.902L387.173 126.261ZM382.607 123.381L385.174 123.528L384.589 133.753C384.569 134.098 384.606 134.366 384.699 134.556C384.798 134.742 384.932 134.873 385.103 134.949C385.275 135.025 385.466 135.07 385.679 135.082C385.84 135.091 385.987 135.087 386.121 135.071C386.259 135.056 386.364 135.04 386.436 135.025L386.754 137.057C386.614 137.096 386.415 137.137 386.157 137.179C385.903 137.222 385.594 137.237 385.229 137.226C384.585 137.208 384.012 137.078 383.509 136.835C383.006 136.588 382.616 136.229 382.34 135.758C382.068 135.287 381.954 134.712 381.997 134.031L382.607 123.381ZM393.318 137.753C392.254 137.692 391.346 137.405 390.593 136.893C389.839 136.38 389.272 135.691 388.89 134.825C388.513 133.959 388.356 132.963 388.421 131.838C388.485 130.713 388.754 129.74 389.228 128.918C389.707 128.096 390.349 127.474 391.156 127.051C391.963 126.627 392.898 126.446 393.962 126.507C395.025 126.568 395.934 126.855 396.687 127.368C397.44 127.88 398.005 128.572 398.382 129.442C398.764 130.313 398.922 131.311 398.858 132.436C398.794 133.561 398.522 134.532 398.044 135.349C397.57 136.166 396.93 136.786 396.123 137.209C395.316 137.633 394.381 137.814 393.318 137.753ZM393.45 135.697C394.026 135.731 394.518 135.6 394.923 135.305C395.329 135.006 395.642 134.592 395.862 134.064C396.087 133.537 396.218 132.942 396.256 132.28C396.294 131.613 396.232 131.005 396.069 130.455C395.911 129.901 395.648 129.452 395.278 129.108C394.909 128.764 394.436 128.576 393.859 128.543C393.269 128.509 392.768 128.642 392.357 128.941C391.951 129.24 391.635 129.656 391.41 130.188C391.191 130.716 391.061 131.314 391.023 131.98C390.985 132.642 391.046 133.248 391.204 133.797C391.367 134.347 391.633 134.794 392.002 135.138C392.376 135.477 392.859 135.664 393.45 135.697ZM405.466 138.449C404.402 138.388 403.494 138.101 402.741 137.588C401.987 137.076 401.42 136.386 401.038 135.52C400.661 134.655 400.504 133.659 400.569 132.534C400.633 131.409 400.902 130.436 401.376 129.614C401.855 128.792 402.498 128.17 403.304 127.747C404.111 127.323 405.046 127.142 406.11 127.203C407.173 127.264 408.082 127.551 408.835 128.063C409.588 128.576 410.153 129.268 410.53 130.138C410.912 131.009 411.071 132.007 411.006 133.132C410.942 134.257 410.67 135.228 410.192 136.045C409.718 136.862 409.078 137.482 408.271 137.905C407.465 138.328 406.529 138.51 405.466 138.449ZM405.598 136.393C406.174 136.426 406.666 136.296 407.071 136.001C407.477 135.702 407.79 135.288 408.01 134.76C408.235 134.232 408.366 133.638 408.404 132.976C408.442 132.309 408.38 131.701 408.217 131.151C408.059 130.597 407.796 130.147 407.426 129.804C407.057 129.46 406.584 129.272 406.007 129.239C405.417 129.205 404.916 129.338 404.505 129.636C404.099 129.936 403.783 130.352 403.559 130.884C403.339 131.412 403.21 132.009 403.171 132.676C403.133 133.338 403.194 133.944 403.352 134.493C403.515 135.043 403.781 135.49 404.15 135.834C404.524 136.173 405.007 136.359 405.598 136.393ZM416.274 124.285L415.442 138.807L412.875 138.66L413.707 124.138L416.274 124.285ZM427.149 131.439L424.794 131.56C424.741 131.32 424.638 131.091 424.485 130.873C424.336 130.656 424.128 130.476 423.861 130.333C423.594 130.189 423.262 130.106 422.865 130.083C422.331 130.053 421.875 130.143 421.498 130.354C421.126 130.565 420.931 130.855 420.915 131.224C420.892 131.54 420.993 131.804 421.218 132.017C421.448 132.229 421.835 132.415 422.381 132.574L424.216 133.077C425.234 133.359 425.98 133.755 426.453 134.266C426.931 134.777 427.15 135.422 427.11 136.203C427.066 136.888 426.831 137.481 426.404 137.983C425.982 138.481 425.412 138.856 424.696 139.109C423.98 139.362 423.168 139.463 422.26 139.411C420.927 139.334 419.87 138.994 419.089 138.39C418.308 137.78 417.868 136.97 417.77 135.959L420.286 135.862C420.372 136.36 420.591 136.745 420.946 137.016C421.3 137.288 421.773 137.441 422.364 137.474C422.974 137.509 423.47 137.412 423.853 137.183C424.241 136.954 424.445 136.655 424.466 136.286C424.484 135.974 424.378 135.709 424.149 135.492C423.924 135.276 423.565 135.098 423.07 134.961L421.234 134.465C420.202 134.187 419.45 133.777 418.979 133.233C418.507 132.684 418.297 132.013 418.347 131.219C418.381 130.547 418.596 129.976 418.993 129.506C419.395 129.031 419.934 128.678 420.612 128.446C421.294 128.21 422.07 128.117 422.94 128.167C424.216 128.24 425.205 128.569 425.906 129.155C426.613 129.741 427.027 130.502 427.149 131.439Z" fill="#1B1B1F"/>
<path d="M226.769 142.303C226.738 141.785 226.514 141.371 226.097 141.062C225.68 140.753 225.156 140.58 224.526 140.544C224.066 140.518 223.659 140.569 223.305 140.698C222.955 140.828 222.675 141.017 222.467 141.267C222.263 141.517 222.151 141.808 222.132 142.139C222.116 142.417 222.169 142.659 222.289 142.867C222.413 143.071 222.577 143.245 222.779 143.389C222.982 143.53 223.196 143.649 223.421 143.747C223.646 143.841 223.854 143.919 224.044 143.981L225.084 144.326C225.351 144.413 225.647 144.528 225.971 144.672C226.299 144.817 226.61 145.006 226.902 145.24C227.198 145.471 227.436 145.76 227.616 146.107C227.797 146.453 227.873 146.87 227.845 147.358C227.813 147.92 227.637 148.419 227.316 148.856C226.999 149.293 226.552 149.629 225.975 149.864C225.401 150.1 224.714 150.195 223.915 150.149C223.17 150.106 222.532 149.949 222.001 149.677C221.473 149.406 221.066 149.046 220.779 148.599C220.495 148.151 220.35 147.642 220.342 147.071L221.642 147.145C221.653 147.54 221.766 147.872 221.982 148.143C222.201 148.41 222.485 148.617 222.833 148.762C223.185 148.905 223.567 148.988 223.98 149.011C224.461 149.039 224.897 148.986 225.289 148.852C225.68 148.715 225.996 148.512 226.236 148.244C226.475 147.972 226.606 147.647 226.628 147.268C226.648 146.922 226.567 146.636 226.387 146.408C226.206 146.18 225.962 145.99 225.655 145.836C225.348 145.683 225.015 145.545 224.655 145.422L223.396 144.983C222.597 144.703 221.973 144.333 221.523 143.872C221.074 143.412 220.87 142.831 220.91 142.13C220.943 141.548 221.13 141.049 221.469 140.634C221.813 140.216 222.259 139.901 222.807 139.692C223.36 139.479 223.968 139.391 224.631 139.429C225.301 139.468 225.89 139.622 226.398 139.892C226.906 140.159 227.3 140.508 227.581 140.938C227.866 141.369 228.001 141.847 227.988 142.373L226.769 142.303ZM229.592 150.291L230.039 142.49L231.237 142.559L230.79 150.359L229.592 150.291ZM230.722 141.225C230.489 141.212 230.292 141.121 230.132 140.952C229.975 140.783 229.903 140.587 229.916 140.364C229.929 140.14 230.023 139.954 230.198 139.804C230.376 139.655 230.582 139.587 230.816 139.6C231.049 139.613 231.244 139.704 231.401 139.873C231.561 140.042 231.635 140.238 231.622 140.461C231.609 140.685 231.514 140.871 231.335 141.021C231.16 141.17 230.956 141.239 230.722 141.225ZM232.985 150.485L233.432 142.685L234.59 142.751L234.52 143.97L234.622 143.976C234.808 143.568 235.089 143.26 235.464 143.051C235.84 142.838 236.282 142.746 236.79 142.775C237.304 142.805 237.726 142.946 238.054 143.199C238.387 143.449 238.637 143.788 238.806 144.215L238.888 144.22C239.11 143.828 239.428 143.526 239.841 143.312C240.255 143.094 240.741 143.001 241.299 143.033C241.997 143.073 242.555 143.324 242.973 143.786C243.392 144.245 243.575 144.933 243.522 145.851L243.223 151.071L242.025 151.003L242.324 145.782C242.357 145.207 242.223 144.786 241.922 144.521C241.622 144.256 241.258 144.111 240.831 144.087C240.283 144.055 239.848 144.197 239.528 144.511C239.208 144.822 239.034 145.23 239.005 145.735L238.714 150.813L237.495 150.743L237.801 145.401C237.826 144.957 237.703 144.592 237.431 144.305C237.159 144.014 236.796 143.856 236.342 143.83C236.031 143.812 235.735 143.878 235.454 144.028C235.177 144.179 234.948 144.397 234.765 144.682C234.586 144.964 234.485 145.296 234.463 145.678L234.184 150.554L232.985 150.485ZM245.247 154.122L245.861 143.397L247.019 143.463L246.948 144.702L247.09 144.71C247.186 144.58 247.318 144.414 247.486 144.213C247.657 144.009 247.895 143.832 248.199 143.683C248.506 143.531 248.914 143.47 249.422 143.499C250.079 143.536 250.648 143.734 251.131 144.091C251.613 144.448 251.977 144.936 252.224 145.554C252.47 146.173 252.57 146.892 252.523 147.711C252.476 148.537 252.294 149.245 251.978 149.835C251.663 150.422 251.247 150.867 250.73 151.17C250.214 151.47 249.63 151.601 248.98 151.564C248.479 151.535 248.083 151.429 247.791 151.246C247.499 151.06 247.279 150.855 247.128 150.633C246.978 150.407 246.863 150.22 246.783 150.073L246.682 150.067L246.446 154.191L245.247 154.122ZM246.816 147.364C246.782 147.953 246.839 148.478 246.986 148.938C247.133 149.395 247.365 149.76 247.682 150.033C248 150.302 248.399 150.451 248.88 150.478C249.381 150.507 249.806 150.399 250.157 150.154C250.51 149.906 250.785 149.562 250.98 149.121C251.179 148.677 251.294 148.178 251.326 147.622C251.357 147.074 251.301 146.575 251.157 146.125C251.016 145.672 250.784 145.307 250.46 145.031C250.14 144.751 249.726 144.596 249.218 144.567C248.731 144.539 248.314 144.639 247.968 144.867C247.622 145.092 247.352 145.42 247.158 145.85C246.963 146.277 246.849 146.782 246.816 147.364ZM255.923 141.364L255.327 151.765L254.129 151.696L254.725 141.296L255.923 141.364ZM257.523 151.89L257.969 144.09L259.168 144.159L258.721 151.959L257.523 151.89ZM258.653 142.825C258.42 142.812 258.223 142.72 258.063 142.552C257.906 142.383 257.834 142.187 257.847 141.964C257.859 141.74 257.953 141.554 258.128 141.404C258.307 141.254 258.513 141.186 258.746 141.2C258.98 141.213 259.175 141.304 259.332 141.473C259.492 141.642 259.566 141.838 259.553 142.061C259.54 142.285 259.444 142.471 259.266 142.621C259.091 142.77 258.887 142.838 258.653 142.825ZM264.836 144.483L264.778 145.499L260.573 145.258L260.632 144.243L264.836 144.483ZM261.444 152.115L261.953 143.238C261.978 142.791 262.105 142.425 262.332 142.139C262.559 141.853 262.844 141.645 263.188 141.515C263.531 141.386 263.889 141.331 264.262 141.353C264.556 141.37 264.795 141.407 264.979 141.465C265.162 141.523 265.299 141.575 265.388 141.621L264.983 142.637C264.923 142.613 264.84 142.583 264.733 142.546C264.63 142.51 264.492 142.487 264.32 142.477C263.923 142.454 263.632 142.538 263.444 142.727C263.26 142.917 263.157 143.205 263.135 143.591L262.643 152.184L261.444 152.115ZM266.674 155.349C266.471 155.338 266.29 155.31 266.133 155.267C265.976 155.228 265.868 155.191 265.808 155.157L266.174 154.118C266.46 154.209 266.716 154.251 266.941 154.244C267.165 154.236 267.369 154.148 267.552 153.978C267.738 153.812 267.915 153.535 268.084 153.147L268.342 152.551L265.907 144.545L267.207 144.619L269.004 150.958L269.085 150.963L271.594 144.87L272.894 144.945L269.071 153.693C268.899 154.087 268.696 154.41 268.461 154.662C268.225 154.917 267.958 155.1 267.66 155.212C267.365 155.324 267.036 155.37 266.674 155.349ZM281.211 153.41C280.48 153.368 279.86 153.16 279.352 152.784C278.843 152.408 278.464 151.909 278.215 151.287C277.965 150.665 277.862 149.964 277.907 149.186C277.952 148.393 278.138 147.703 278.464 147.113C278.793 146.521 279.23 146.069 279.775 145.757C280.322 145.442 280.949 145.304 281.653 145.345C282.201 145.376 282.69 145.506 283.118 145.734C283.547 145.963 283.891 146.268 284.151 146.649C284.411 147.031 284.561 147.468 284.601 147.959L283.402 147.89C283.331 147.53 283.146 147.203 282.847 146.911C282.551 146.615 282.14 146.453 281.611 146.422C281.144 146.396 280.728 146.494 280.361 146.718C279.999 146.938 279.707 147.263 279.485 147.692C279.267 148.117 279.142 148.625 279.108 149.214C279.073 149.816 279.138 150.347 279.302 150.804C279.469 151.262 279.72 151.625 280.055 151.892C280.393 152.159 280.799 152.306 281.273 152.334C281.584 152.351 281.87 152.313 282.13 152.22C282.39 152.126 282.614 151.982 282.802 151.789C282.99 151.596 283.129 151.36 283.22 151.08L284.418 151.148C284.324 151.605 284.133 152.01 283.844 152.364C283.559 152.714 283.192 152.985 282.743 153.177C282.297 153.365 281.787 153.443 281.211 153.41ZM289.199 153.868C288.495 153.827 287.887 153.624 287.375 153.259C286.866 152.893 286.479 152.401 286.216 151.781C285.956 151.162 285.849 150.449 285.895 149.643C285.942 148.831 286.13 148.13 286.459 147.541C286.792 146.952 287.232 146.505 287.779 146.2C288.33 145.895 288.957 145.763 289.661 145.803C290.365 145.844 290.972 146.047 291.481 146.412C291.993 146.778 292.379 147.272 292.639 147.895C292.902 148.518 293.011 149.236 292.964 150.048C292.918 150.854 292.729 151.55 292.396 152.135C292.067 152.721 291.627 153.166 291.077 153.471C290.529 153.776 289.904 153.908 289.199 153.868ZM289.261 152.791C289.796 152.822 290.244 152.71 290.605 152.455C290.966 152.201 291.242 151.855 291.434 151.418C291.625 150.98 291.736 150.501 291.766 149.979C291.796 149.458 291.74 148.968 291.6 148.508C291.46 148.048 291.226 147.669 290.896 147.372C290.567 147.075 290.134 146.911 289.6 146.88C289.065 146.849 288.617 146.963 288.255 147.221C287.894 147.479 287.618 147.828 287.426 148.269C287.234 148.709 287.124 149.19 287.094 149.712C287.064 150.233 287.119 150.722 287.259 151.179C287.4 151.635 287.635 152.01 287.964 152.304C288.294 152.598 288.726 152.76 289.261 152.791ZM299.671 151.105L299.935 146.494L301.134 146.562L300.687 154.363L299.488 154.294L299.564 152.974L299.483 152.969C299.277 153.355 298.974 153.675 298.572 153.931C298.17 154.183 297.675 154.292 297.086 154.258C296.598 154.23 296.171 154.099 295.804 153.864C295.437 153.625 295.158 153.283 294.966 152.838C294.774 152.388 294.697 151.832 294.736 151.169L295.019 146.212L296.218 146.281L295.939 151.156C295.906 151.725 296.039 152.187 296.338 152.544C296.64 152.901 297.04 153.094 297.538 153.122C297.836 153.14 298.143 153.081 298.46 152.946C298.78 152.812 299.054 152.593 299.282 152.29C299.514 151.987 299.643 151.592 299.671 151.105ZM302.882 154.488L303.329 146.688L304.487 146.754L304.419 147.933L304.5 147.937C304.665 147.559 304.94 147.261 305.326 147.042C305.712 146.823 306.139 146.727 306.606 146.753C306.694 146.759 306.804 146.767 306.936 146.777C307.068 146.788 307.167 146.799 307.235 146.81L307.165 148.029C307.125 148.016 307.033 147.996 306.888 147.967C306.747 147.935 306.597 147.915 306.438 147.906C306.059 147.884 305.716 147.944 305.409 148.086C305.105 148.225 304.859 148.428 304.671 148.696C304.486 148.96 304.383 149.269 304.363 149.621L304.08 154.557L302.882 154.488ZM314.075 149.056L312.981 149.299C312.923 149.116 312.833 148.936 312.711 148.759C312.592 148.579 312.424 148.427 312.207 148.302C311.99 148.178 311.707 148.105 311.359 148.085C310.881 148.058 310.477 148.145 310.146 148.347C309.819 148.546 309.646 148.813 309.627 149.148C309.61 149.446 309.704 149.687 309.911 149.872C310.118 150.057 310.448 150.221 310.902 150.362L312.044 150.713C312.731 150.922 313.236 151.211 313.558 151.579C313.88 151.944 314.026 152.399 313.995 152.944C313.969 153.391 313.818 153.783 313.54 154.121C313.266 154.458 312.895 154.715 312.426 154.892C311.957 155.069 311.42 155.14 310.814 155.106C310.018 155.06 309.37 154.85 308.868 154.475C308.367 154.099 308.065 153.576 307.965 152.904L309.118 152.685C309.203 153.111 309.389 153.438 309.679 153.665C309.971 153.892 310.363 154.02 310.854 154.048C311.413 154.08 311.863 153.987 312.205 153.769C312.551 153.548 312.733 153.269 312.752 152.934C312.768 152.663 312.686 152.431 312.507 152.237C312.328 152.04 312.045 151.885 311.657 151.771L310.374 151.392C309.67 151.182 309.16 150.889 308.845 150.514C308.534 150.137 308.394 149.678 308.425 149.14C308.45 148.7 308.596 148.318 308.862 147.993C309.132 147.669 309.488 147.423 309.929 147.255C310.373 147.086 310.87 147.018 311.418 147.049C312.19 147.094 312.786 147.298 313.207 147.661C313.631 148.025 313.92 148.49 314.075 149.056ZM318.935 155.571C318.184 155.528 317.545 155.325 317.019 154.962C316.496 154.596 316.105 154.104 315.845 153.488C315.588 152.869 315.483 152.16 315.529 151.361C315.574 150.562 315.76 149.866 316.086 149.273C316.416 148.677 316.853 148.223 317.397 147.912C317.945 147.597 318.571 147.459 319.275 147.499C319.682 147.523 320.079 147.613 320.467 147.772C320.856 147.93 321.204 148.17 321.511 148.494C321.819 148.814 322.055 149.228 322.22 149.737C322.384 150.245 322.445 150.864 322.404 151.592L322.375 152.099L316.362 151.755L316.421 150.719L321.215 150.994C321.24 150.554 321.175 150.156 321.019 149.8C320.866 149.445 320.634 149.158 320.324 148.94C320.017 148.722 319.647 148.601 319.214 148.576C318.736 148.549 318.317 148.644 317.954 148.861C317.596 149.074 317.312 149.364 317.105 149.729C316.897 150.094 316.781 150.492 316.756 150.922L316.717 151.612C316.683 152.201 316.756 152.707 316.935 153.128C317.119 153.546 317.387 153.872 317.74 154.106C318.094 154.337 318.513 154.466 318.997 154.494C319.312 154.512 319.599 154.485 319.858 154.411C320.12 154.334 320.35 154.212 320.546 154.043C320.743 153.871 320.9 153.652 321.017 153.387L322.156 153.778C322.012 154.164 321.787 154.498 321.482 154.779C321.178 155.057 320.809 155.267 320.376 155.409C319.944 155.547 319.464 155.601 318.935 155.571ZM328.182 155.937L328.778 145.537L329.976 145.606L329.756 149.445L329.858 149.451C329.954 149.32 330.086 149.155 330.253 148.954C330.425 148.749 330.662 148.573 330.966 148.424C331.274 148.272 331.682 148.21 332.19 148.239C332.846 148.277 333.416 148.474 333.898 148.831C334.38 149.188 334.745 149.676 334.991 150.295C335.238 150.914 335.337 151.633 335.291 152.452C335.243 153.278 335.062 153.986 334.746 154.576C334.43 155.162 334.014 155.607 333.498 155.911C332.981 156.211 332.398 156.342 331.748 156.305C331.247 156.276 330.85 156.17 330.559 155.987C330.267 155.8 330.046 155.596 329.896 155.373C329.746 155.147 329.631 154.961 329.551 154.813L329.409 154.805L329.34 156.004L328.182 155.937ZM329.584 152.105C329.55 152.694 329.607 153.218 329.753 153.679C329.9 154.135 330.133 154.5 330.45 154.773C330.767 155.043 331.166 155.191 331.647 155.219C332.148 155.247 332.574 155.139 332.924 154.894C333.278 154.646 333.552 154.302 333.748 153.862C333.946 153.418 334.061 152.918 334.093 152.363C334.125 151.815 334.068 151.315 333.924 150.866C333.784 150.413 333.552 150.048 333.228 149.771C332.908 149.491 332.494 149.337 331.986 149.308C331.498 149.28 331.081 149.38 330.735 149.608C330.39 149.833 330.12 150.16 329.925 150.591C329.731 151.018 329.617 151.522 329.584 152.105ZM342 153.529L342.264 148.918L343.463 148.987L343.016 156.787L341.817 156.718L341.893 155.398L341.812 155.393C341.606 155.779 341.303 156.1 340.901 156.355C340.499 156.607 340.004 156.716 339.415 156.683C338.927 156.655 338.5 156.523 338.133 156.288C337.766 156.05 337.487 155.708 337.295 155.262C337.103 154.813 337.026 154.257 337.064 153.593L337.348 148.637L338.547 148.705L338.268 153.58C338.235 154.149 338.368 154.612 338.667 154.969C338.969 155.326 339.369 155.518 339.867 155.547C340.165 155.564 340.472 155.505 340.789 155.37C341.109 155.236 341.383 155.017 341.611 154.714C341.843 154.412 341.972 154.017 342 153.529ZM345.211 156.913L345.658 149.112L346.856 149.181L346.409 156.981L345.211 156.913ZM346.342 147.847C346.108 147.834 345.911 147.743 345.751 147.574C345.594 147.405 345.522 147.209 345.535 146.986C345.548 146.762 345.642 146.576 345.817 146.426C345.995 146.277 346.201 146.209 346.435 146.222C346.668 146.236 346.863 146.327 347.02 146.495C347.18 146.664 347.254 146.86 347.241 147.084C347.228 147.307 347.133 147.494 346.955 147.643C346.78 147.793 346.575 147.861 346.342 147.847ZM350.399 146.775L349.803 157.176L348.605 157.107L349.2 146.707L350.399 146.775ZM354.934 157.633C354.284 157.595 353.72 157.398 353.241 157.041C352.762 156.681 352.4 156.192 352.153 155.573C351.907 154.951 351.807 154.227 351.855 153.401C351.902 152.581 352.083 151.878 352.398 151.292C352.714 150.705 353.132 150.262 353.651 149.963C354.171 149.663 354.76 149.532 355.416 149.569C355.924 149.599 356.321 149.706 356.605 149.892C356.894 150.075 357.11 150.278 357.253 150.5C357.4 150.719 357.514 150.899 357.594 151.039L357.696 151.045L357.916 147.206L359.114 147.275L358.519 157.675L357.361 157.609L357.429 156.41L357.287 156.402C357.191 156.539 357.056 156.711 356.881 156.919C356.706 157.123 356.463 157.301 356.152 157.453C355.841 157.601 355.435 157.661 354.934 157.633ZM355.158 156.565C355.639 156.593 356.053 156.491 356.399 156.259C356.745 156.024 357.017 155.689 357.216 155.252C357.414 154.811 357.53 154.296 357.564 153.707C357.597 153.125 357.542 152.611 357.398 152.164C357.253 151.714 357.023 151.358 356.705 151.095C356.387 150.829 355.984 150.682 355.497 150.654C354.989 150.625 354.558 150.731 354.205 150.973C353.855 151.211 353.583 151.547 353.388 151.98C353.197 152.411 353.086 152.901 353.054 153.449C353.023 154.004 353.078 154.514 353.222 154.977C353.368 155.437 353.602 155.81 353.922 156.097C354.245 156.381 354.657 156.537 355.158 156.565ZM360.88 157.81L361.327 150.01L362.525 150.079L362.079 157.879L360.88 157.81ZM362.011 148.745C361.777 148.731 361.58 148.64 361.42 148.471C361.263 148.303 361.191 148.107 361.204 147.883C361.217 147.66 361.311 147.473 361.486 147.324C361.664 147.174 361.87 147.106 362.104 147.12C362.337 147.133 362.533 147.224 362.689 147.393C362.85 147.562 362.923 147.758 362.91 147.981C362.898 148.205 362.802 148.391 362.624 148.54C362.449 148.69 362.244 148.758 362.011 148.745ZM365.741 153.381L365.472 158.073L364.274 158.005L364.72 150.204L365.878 150.271L365.808 151.489L365.91 151.495C366.116 151.11 366.411 150.807 366.798 150.588C367.184 150.366 367.672 150.271 368.261 150.305C368.789 150.335 369.245 150.47 369.629 150.71C370.012 150.946 370.302 151.288 370.497 151.738C370.692 152.183 370.771 152.738 370.733 153.402L370.449 158.358L369.25 158.29L369.53 153.414C369.565 152.802 369.433 152.315 369.134 151.955C368.836 151.591 368.409 151.394 367.854 151.362C367.471 151.34 367.125 151.403 366.814 151.552C366.506 151.701 366.257 151.929 366.066 152.238C365.875 152.546 365.767 152.927 365.741 153.381ZM375.611 161.752C375.032 161.718 374.538 161.615 374.13 161.443C373.722 161.273 373.386 161.06 373.123 160.804C372.862 160.551 372.658 160.285 372.511 160.005L373.504 159.389C373.604 159.538 373.732 159.708 373.888 159.9C374.043 160.096 374.26 160.27 374.54 160.422C374.824 160.577 375.201 160.668 375.671 160.695C376.301 160.731 376.829 160.609 377.256 160.328C377.683 160.046 377.916 159.581 377.953 158.931L378.044 157.346L377.942 157.34C377.846 157.478 377.711 157.646 377.536 157.847C377.365 158.044 377.124 158.216 376.814 158.361C376.507 158.503 376.099 158.56 375.591 158.531C374.962 158.494 374.405 158.313 373.921 157.986C373.44 157.66 373.071 157.204 372.812 156.619C372.557 156.033 372.452 155.335 372.499 154.522C372.545 153.723 372.725 153.035 373.04 152.459C373.355 151.879 373.773 151.441 374.292 151.145C374.812 150.845 375.4 150.714 376.057 150.752C376.565 150.781 376.963 150.889 377.251 151.075C377.543 151.258 377.763 151.461 377.909 151.683C378.06 151.902 378.175 152.082 378.256 152.223L378.377 152.23L378.448 150.991L379.606 151.057L379.147 159.081C379.108 159.751 378.925 160.287 378.596 160.69C378.27 161.096 377.846 161.382 377.324 161.549C376.805 161.72 376.234 161.787 375.611 161.752ZM375.815 157.463C376.296 157.491 376.709 157.404 377.053 157.203C377.398 157.002 377.668 156.7 377.864 156.297C378.061 155.893 378.175 155.404 378.208 154.829C378.24 154.267 378.184 153.766 378.039 153.326C377.895 152.886 377.664 152.535 377.346 152.272C377.028 152.01 376.625 151.864 376.138 151.836C375.63 151.807 375.199 151.912 374.846 152.15C374.496 152.388 374.224 152.719 374.03 153.142C373.839 153.566 373.729 154.042 373.699 154.57C373.668 155.112 373.725 155.596 373.87 156.022C374.019 156.445 374.255 156.784 374.576 157.041C374.901 157.294 375.314 157.435 375.815 157.463ZM387.143 159.314L385.213 151.378L386.472 151.45L387.816 157.519L387.897 157.523L389.905 151.647L391.185 151.72L392.489 157.766L392.571 157.771L394.597 151.916L395.857 151.988L393.033 159.652L391.855 159.584L390.492 153.494L390.37 153.487L388.321 159.382L387.143 159.314ZM396.995 159.879L397.441 152.078L398.64 152.147L398.193 159.947L396.995 159.879ZM398.125 150.813C397.892 150.8 397.695 150.709 397.534 150.54C397.378 150.371 397.306 150.175 397.319 149.952C397.331 149.728 397.425 149.542 397.6 149.392C397.779 149.243 397.985 149.175 398.218 149.188C398.452 149.202 398.647 149.293 398.804 149.461C398.964 149.63 399.038 149.826 399.025 150.05C399.012 150.273 398.916 150.459 398.738 150.609C398.563 150.759 398.359 150.827 398.125 150.813ZM404.227 152.467L404.169 153.483L400.127 153.251L400.185 152.236L404.227 152.467ZM401.47 150.434L402.669 150.503L402.243 157.937C402.223 158.276 402.258 158.533 402.346 158.708C402.438 158.879 402.561 158.998 402.713 159.065C402.869 159.128 403.035 159.165 403.211 159.175C403.343 159.183 403.452 159.182 403.537 159.173C403.623 159.161 403.691 159.152 403.743 159.144L403.925 160.235C403.842 160.261 403.727 160.285 403.579 160.307C403.432 160.332 403.246 160.339 403.023 160.326C402.684 160.306 402.357 160.215 402.04 160.05C401.727 159.886 401.472 159.649 401.276 159.339C401.083 159.029 401 158.648 401.026 158.194L401.47 150.434ZM407.218 155.756L406.949 160.449L405.751 160.38L406.346 149.98L407.545 150.048L407.326 153.867L407.428 153.873C407.634 153.481 407.926 153.177 408.305 152.96C408.688 152.741 409.186 152.649 409.799 152.684C410.33 152.715 410.79 152.848 411.177 153.084C411.564 153.317 411.856 153.658 412.051 154.107C412.249 154.554 412.33 155.112 412.291 155.782L412.007 160.739L410.809 160.67L411.088 155.795C411.123 155.175 410.99 154.687 410.688 154.33C410.389 153.97 409.957 153.773 409.392 153.741C408.999 153.719 408.642 153.781 408.321 153.929C408.004 154.078 407.746 154.306 407.548 154.614C407.354 154.922 407.244 155.303 407.218 155.756ZM219.272 170.734L219.718 162.934L220.917 163.002L220.47 170.803L219.272 170.734ZM220.402 161.668C220.169 161.655 219.972 161.564 219.812 161.395C219.655 161.227 219.583 161.031 219.596 160.807C219.608 160.584 219.702 160.397 219.877 160.247C220.056 160.098 220.262 160.03 220.495 160.043C220.729 160.057 220.924 160.148 221.081 160.316C221.241 160.485 221.315 160.681 221.302 160.905C221.289 161.128 221.194 161.315 221.015 161.464C220.84 161.614 220.636 161.682 220.402 161.668ZM224.132 166.305L223.864 170.997L222.665 170.928L223.112 163.128L224.27 163.194L224.2 164.413L224.302 164.419C224.507 164.033 224.803 163.731 225.189 163.512C225.575 163.289 226.063 163.195 226.652 163.229C227.18 163.259 227.636 163.394 228.02 163.633C228.404 163.869 228.693 164.212 228.888 164.661C229.084 165.107 229.162 165.662 229.124 166.326L228.84 171.282L227.642 171.213L227.921 166.338C227.956 165.725 227.825 165.239 227.526 164.879C227.227 164.515 226.801 164.317 226.245 164.286C225.863 164.264 225.516 164.327 225.205 164.476C224.898 164.625 224.649 164.853 224.458 165.162C224.267 165.47 224.158 165.851 224.132 166.305ZM234.87 163.801L234.811 164.817L230.769 164.586L230.827 163.57L234.87 163.801ZM232.112 161.769L233.311 161.837L232.885 169.272C232.866 169.61 232.9 169.867 232.989 170.042C233.081 170.214 233.203 170.333 233.355 170.399C233.511 170.463 233.678 170.499 233.854 170.509C233.986 170.517 234.094 170.516 234.18 170.508C234.265 170.496 234.334 170.486 234.385 170.479L234.567 171.569C234.484 171.595 234.369 171.619 234.222 171.641C234.074 171.667 233.889 171.673 233.665 171.66C233.327 171.641 232.999 171.549 232.683 171.385C232.369 171.221 232.114 170.984 231.918 170.674C231.725 170.364 231.642 169.982 231.668 169.528L232.112 161.769ZM241.324 168.797L241.588 164.186L242.787 164.255L242.34 172.055L241.141 171.987L241.217 170.666L241.136 170.661C240.93 171.047 240.627 171.368 240.225 171.623C239.823 171.875 239.328 171.985 238.739 171.951C238.251 171.923 237.824 171.791 237.457 171.556C237.09 171.318 236.811 170.976 236.619 170.53C236.427 170.081 236.35 169.525 236.388 168.861L236.672 163.905L237.871 163.973L237.592 168.848C237.559 169.417 237.692 169.88 237.991 170.237C238.293 170.594 238.693 170.787 239.191 170.815C239.489 170.832 239.796 170.773 240.113 170.639C240.433 170.504 240.707 170.285 240.935 169.983C241.167 169.68 241.296 169.285 241.324 168.797ZM244.535 172.181L244.982 164.381L246.18 164.449L245.733 172.25L244.535 172.181ZM245.666 163.115C245.432 163.102 245.235 163.011 245.075 162.842C244.918 162.674 244.846 162.477 244.859 162.254C244.872 162.031 244.966 161.844 245.141 161.694C245.319 161.545 245.525 161.477 245.759 161.49C245.992 161.504 246.187 161.595 246.344 161.763C246.504 161.932 246.578 162.128 246.565 162.352C246.552 162.575 246.457 162.762 246.278 162.911C246.103 163.061 245.899 163.129 245.666 163.115ZM251.768 164.769L251.709 165.785L247.667 165.553L247.725 164.538L251.768 164.769ZM249.01 162.736L250.209 162.805L249.783 170.24C249.764 170.578 249.798 170.835 249.887 171.01C249.979 171.182 250.101 171.301 250.254 171.367C250.41 171.43 250.576 171.467 250.752 171.477C250.884 171.485 250.992 171.484 251.078 171.475C251.163 171.463 251.232 171.454 251.283 171.446L251.465 172.537C251.382 172.563 251.267 172.587 251.12 172.609C250.972 172.634 250.787 172.641 250.563 172.628C250.225 172.609 249.897 172.517 249.581 172.353C249.267 172.189 249.013 171.952 248.816 171.641C248.623 171.332 248.54 170.95 248.566 170.496L249.01 162.736ZM253.124 172.673L253.57 164.873L254.769 164.941L254.322 172.741L253.124 172.673ZM254.254 163.607C254.021 163.594 253.824 163.503 253.664 163.334C253.507 163.165 253.435 162.969 253.448 162.746C253.46 162.523 253.554 162.336 253.729 162.186C253.908 162.037 254.114 161.969 254.347 161.982C254.581 161.996 254.776 162.087 254.933 162.255C255.093 162.424 255.167 162.62 255.154 162.844C255.141 163.067 255.046 163.254 254.867 163.403C254.692 163.553 254.488 163.621 254.254 163.607ZM263.342 165.432L260.011 173.067L258.792 172.997L256.355 165.032L257.655 165.106L259.452 171.446L259.533 171.45L262.042 165.358L263.342 165.432ZM267.459 173.657C266.708 173.614 266.069 173.411 265.543 173.048C265.02 172.682 264.629 172.19 264.369 171.574C264.112 170.955 264.007 170.246 264.052 169.447C264.098 168.648 264.284 167.952 264.61 167.359C264.94 166.763 265.377 166.31 265.921 165.998C266.469 165.683 267.095 165.545 267.799 165.586C268.206 165.609 268.603 165.7 268.991 165.858C269.38 166.016 269.728 166.256 270.035 166.58C270.343 166.9 270.579 167.314 270.743 167.823C270.908 168.331 270.969 168.95 270.928 169.678L270.899 170.186L264.886 169.841L264.945 168.805L269.739 169.08C269.764 168.64 269.699 168.242 269.542 167.886C269.39 167.531 269.158 167.245 268.848 167.026C268.541 166.808 268.171 166.687 267.738 166.662C267.26 166.635 266.84 166.73 266.478 166.947C266.119 167.161 265.836 167.45 265.629 167.815C265.421 168.18 265.305 168.578 265.28 169.008L265.24 169.698C265.207 170.287 265.28 170.793 265.459 171.214C265.643 171.632 265.911 171.958 266.264 172.192C266.618 172.423 267.037 172.553 267.521 172.58C267.836 172.598 268.123 172.571 268.382 172.497C268.644 172.42 268.874 172.298 269.07 172.129C269.267 171.957 269.424 171.738 269.541 171.473L270.68 171.865C270.536 172.25 270.311 172.584 270.006 172.865C269.702 173.143 269.333 173.353 268.9 173.495C268.468 173.633 267.987 173.687 267.459 173.657ZM274.391 172.464L274.278 173.008C274.198 173.391 274.087 173.799 273.943 174.232C273.803 174.666 273.659 175.073 273.511 175.456C273.363 175.838 273.242 176.142 273.148 176.367L272.234 176.315C272.29 176.101 272.364 175.818 272.456 175.466C272.547 175.115 272.641 174.721 272.737 174.285C272.837 173.853 272.923 173.409 272.997 172.955L273.09 172.39L274.391 172.464ZM280.384 177.169L280.998 166.443L282.156 166.51L282.085 167.749L282.227 167.757C282.323 167.627 282.455 167.461 282.623 167.26C282.794 167.056 283.032 166.879 283.336 166.73C283.643 166.578 284.051 166.516 284.559 166.546C285.216 166.583 285.785 166.78 286.268 167.138C286.75 167.495 287.114 167.983 287.361 168.601C287.607 169.22 287.707 169.939 287.66 170.758C287.613 171.584 287.431 172.292 287.115 172.882C286.8 173.469 286.384 173.914 285.867 174.217C285.351 174.517 284.767 174.648 284.117 174.611C283.616 174.582 283.22 174.476 282.928 174.293C282.637 174.107 282.416 173.902 282.265 173.68C282.115 173.454 282 173.267 281.92 173.12L281.819 173.114L281.583 177.237L280.384 177.169ZM281.953 170.411C281.919 171 281.976 171.525 282.123 171.985C282.27 172.442 282.502 172.807 282.819 173.08C283.137 173.349 283.536 173.498 284.017 173.525C284.518 173.554 284.943 173.446 285.294 173.201C285.647 172.953 285.922 172.608 286.117 172.168C286.316 171.724 286.431 171.225 286.463 170.669C286.494 170.121 286.438 169.622 286.294 169.172C286.153 168.719 285.921 168.354 285.597 168.077C285.277 167.798 284.863 167.643 284.355 167.614C283.868 167.586 283.451 167.686 283.105 167.914C282.759 168.139 282.489 168.467 282.295 168.897C282.1 169.324 281.987 169.829 281.953 170.411ZM292.426 175.087C291.721 175.047 291.113 174.844 290.601 174.478C290.092 174.113 289.706 173.62 289.442 173C289.182 172.381 289.075 171.668 289.121 170.862C289.168 170.05 289.356 169.349 289.685 168.76C290.018 168.171 290.458 167.724 291.005 167.419C291.556 167.114 292.183 166.982 292.887 167.023C293.592 167.063 294.198 167.266 294.707 167.631C295.219 167.997 295.606 168.491 295.865 169.114C296.129 169.737 296.237 170.455 296.19 171.267C296.144 172.073 295.955 172.769 295.623 173.354C295.293 173.94 294.854 174.385 294.303 174.69C293.756 174.995 293.13 175.127 292.426 175.087ZM292.487 174.01C293.022 174.041 293.47 173.929 293.831 173.675C294.192 173.42 294.468 173.074 294.66 172.637C294.851 172.199 294.962 171.72 294.992 171.199C295.022 170.677 294.967 170.187 294.827 169.727C294.686 169.267 294.452 168.889 294.122 168.591C293.793 168.294 293.361 168.13 292.826 168.099C292.291 168.068 291.843 168.182 291.482 168.44C291.12 168.698 290.844 169.047 290.652 169.488C290.461 169.929 290.35 170.41 290.32 170.931C290.29 171.452 290.345 171.941 290.486 172.398C290.626 172.854 290.861 173.229 291.19 173.523C291.52 173.817 291.952 173.98 292.487 174.01ZM299.301 175.318L297.371 167.381L298.63 167.453L299.974 173.522L300.055 173.527L302.063 167.65L303.343 167.723L304.647 173.769L304.729 173.774L306.756 167.919L308.015 167.991L305.192 175.655L304.013 175.588L302.65 169.497L302.528 169.49L300.479 175.385L299.301 175.318ZM312.148 176.217C311.397 176.173 310.758 175.97 310.232 175.607C309.709 175.241 309.318 174.75 309.058 174.134C308.801 173.515 308.696 172.806 308.742 172.007C308.787 171.208 308.973 170.512 309.299 169.919C309.629 169.323 310.066 168.869 310.61 168.557C311.158 168.242 311.784 168.105 312.488 168.145C312.895 168.168 313.292 168.259 313.68 168.417C314.069 168.575 314.417 168.816 314.724 169.139C315.032 169.459 315.268 169.874 315.433 170.382C315.597 170.891 315.658 171.509 315.617 172.237L315.588 172.745L309.575 172.401L309.634 171.365L314.428 171.639C314.453 171.199 314.388 170.801 314.232 170.446C314.079 170.091 313.847 169.804 313.537 169.586C313.23 169.368 312.86 169.247 312.427 169.222C311.949 169.194 311.53 169.289 311.167 169.506C310.809 169.72 310.525 170.01 310.318 170.375C310.11 170.74 309.994 171.137 309.969 171.567L309.93 172.258C309.896 172.847 309.969 173.352 310.148 173.774C310.332 174.192 310.6 174.518 310.953 174.752C311.307 174.983 311.726 175.112 312.21 175.14C312.525 175.158 312.812 175.13 313.071 175.057C313.333 174.98 313.563 174.857 313.759 174.689C313.956 174.516 314.113 174.298 314.23 174.033L315.369 174.424C315.225 174.81 315 175.143 314.695 175.425C314.391 175.703 314.022 175.913 313.589 176.054C313.157 176.193 312.677 176.247 312.148 176.217ZM317.211 176.343L317.657 168.543L318.815 168.609L318.748 169.788L318.829 169.792C318.993 169.414 319.269 169.116 319.655 168.897C320.041 168.678 320.468 168.582 320.935 168.609C321.023 168.614 321.133 168.622 321.265 168.633C321.396 168.644 321.496 168.654 321.563 168.665L321.494 169.884C321.454 169.871 321.361 169.851 321.217 169.822C321.076 169.79 320.926 169.77 320.767 169.761C320.388 169.739 320.045 169.799 319.738 169.941C319.434 170.08 319.188 170.283 319 170.551C318.815 170.816 318.712 171.124 318.692 171.476L318.409 176.412L317.211 176.343ZM326.941 169.075L326.882 170.09L322.678 169.85L322.736 168.834L326.941 169.075ZM323.548 176.706L324.057 167.83C324.082 167.383 324.209 167.016 324.436 166.73C324.663 166.444 324.948 166.237 325.292 166.107C325.635 165.977 325.993 165.923 326.366 165.944C326.66 165.961 326.899 165.999 327.083 166.057C327.266 166.115 327.403 166.167 327.492 166.212L327.087 167.229C327.027 167.205 326.944 167.175 326.838 167.138C326.734 167.101 326.596 167.078 326.424 167.068C326.028 167.046 325.736 167.129 325.548 167.319C325.364 167.509 325.261 167.797 325.239 168.183L324.747 176.775L323.548 176.706ZM333.272 174.064L333.536 169.453L334.735 169.521L334.288 177.322L333.089 177.253L333.165 175.933L333.084 175.928C332.878 176.313 332.574 176.634 332.173 176.89C331.771 177.142 331.276 177.251 330.686 177.217C330.199 177.189 329.772 177.058 329.405 176.823C329.038 176.584 328.759 176.242 328.567 175.797C328.375 175.347 328.298 174.791 328.336 174.127L328.62 169.171L329.819 169.24L329.539 174.115C329.507 174.684 329.64 175.146 329.939 175.503C330.241 175.86 330.641 176.053 331.139 176.081C331.437 176.098 331.744 176.04 332.061 175.905C332.381 175.77 332.655 175.552 332.883 175.249C333.114 174.946 333.244 174.551 333.272 174.064ZM338.277 167.116L337.681 177.516L336.483 177.447L337.079 167.047L338.277 167.116ZM347.738 170.266L347.679 171.282L343.637 171.05L343.695 170.034L347.738 170.266ZM344.98 168.233L346.179 168.302L345.753 175.736C345.734 176.075 345.768 176.332 345.857 176.507C345.949 176.678 346.071 176.797 346.223 176.864C346.379 176.927 346.545 176.964 346.722 176.974C346.854 176.981 346.962 176.981 347.048 176.972C347.133 176.96 347.202 176.95 347.253 176.943L347.435 178.034C347.352 178.06 347.237 178.084 347.09 178.106C346.942 178.131 346.757 178.138 346.533 178.125C346.195 178.105 345.867 178.014 345.55 177.849C345.237 177.685 344.982 177.448 344.786 177.138C344.593 176.828 344.51 176.446 344.536 175.993L344.98 168.233ZM352.169 178.509C351.465 178.468 350.857 178.265 350.345 177.9C349.836 177.534 349.449 177.042 349.186 176.422C348.926 175.803 348.819 175.09 348.865 174.284C348.912 173.472 349.1 172.771 349.429 172.182C349.762 171.593 350.201 171.146 350.749 170.841C351.3 170.536 351.927 170.404 352.631 170.444C353.335 170.485 353.942 170.688 354.451 171.053C354.963 171.419 355.349 171.913 355.609 172.536C355.872 173.159 355.981 173.877 355.934 174.689C355.888 175.495 355.699 176.191 355.366 176.776C355.037 177.362 354.597 177.807 354.047 178.112C353.499 178.417 352.874 178.549 352.169 178.509ZM352.231 177.432C352.766 177.463 353.214 177.351 353.575 177.096C353.936 176.842 354.212 176.496 354.404 176.059C354.595 175.621 354.706 175.142 354.736 174.621C354.766 174.099 354.71 173.609 354.57 173.149C354.43 172.689 354.195 172.31 353.866 172.013C353.537 171.716 353.104 171.552 352.57 171.521C352.035 171.49 351.587 171.604 351.225 171.862C350.864 172.12 350.588 172.469 350.396 172.91C350.204 173.35 350.094 173.832 350.064 174.353C350.034 174.874 350.089 175.363 350.229 175.82C350.37 176.276 350.605 176.651 350.934 176.945C351.264 177.239 351.696 177.401 352.231 177.432ZM360.702 178.997C359.998 178.957 359.39 178.754 358.877 178.389C358.368 178.023 357.982 177.531 357.719 176.911C357.459 176.291 357.352 175.579 357.398 174.773C357.445 173.96 357.632 173.26 357.962 172.67C358.294 172.082 358.734 171.635 359.282 171.33C359.832 171.025 360.46 170.893 361.164 170.933C361.868 170.973 362.475 171.176 362.984 171.542C363.496 171.907 363.882 172.402 364.142 173.024C364.405 173.648 364.514 174.365 364.467 175.178C364.421 175.984 364.232 176.679 363.899 177.265C363.57 177.851 363.13 178.296 362.579 178.601C362.032 178.905 361.406 179.038 360.702 178.997ZM360.764 177.921C361.299 177.951 361.747 177.84 362.108 177.585C362.469 177.331 362.745 176.985 362.937 176.547C363.128 176.11 363.239 175.631 363.269 175.109C363.298 174.588 363.243 174.097 363.103 173.638C362.963 173.178 362.728 172.799 362.399 172.502C362.069 172.204 361.637 172.04 361.102 172.01C360.567 171.979 360.119 172.093 359.758 172.351C359.397 172.608 359.12 172.958 358.929 173.398C358.737 173.839 358.626 174.32 358.596 174.842C358.567 175.363 358.622 175.852 358.762 176.308C358.902 176.765 359.137 177.14 359.467 177.434C359.797 177.728 360.229 177.89 360.764 177.921ZM367.87 168.81L367.274 179.211L366.075 179.142L366.671 168.742L367.87 168.81ZM375.341 173.6L374.247 173.843C374.189 173.659 374.1 173.479 373.977 173.302C373.858 173.122 373.691 172.97 373.473 172.846C373.256 172.721 372.974 172.649 372.625 172.629C372.147 172.602 371.743 172.689 371.413 172.891C371.085 173.089 370.912 173.356 370.893 173.691C370.876 173.989 370.971 174.231 371.177 174.416C371.384 174.601 371.715 174.764 372.168 174.906L373.31 175.256C373.998 175.466 374.503 175.754 374.824 176.123C375.147 176.488 375.292 176.943 375.261 177.488C375.235 177.935 375.084 178.327 374.806 178.664C374.532 179.002 374.161 179.259 373.692 179.436C373.223 179.613 372.686 179.684 372.08 179.649C371.284 179.604 370.636 179.393 370.134 179.018C369.633 178.643 369.332 178.119 369.231 177.448L370.385 177.229C370.469 177.655 370.656 177.981 370.945 178.208C371.238 178.436 371.629 178.564 372.12 178.592C372.679 178.624 373.129 178.531 373.471 178.312C373.817 178.091 373.999 177.813 374.018 177.478C374.034 177.207 373.952 176.974 373.773 176.781C373.594 176.584 373.311 176.428 372.923 176.314L371.641 175.935C370.936 175.725 370.426 175.433 370.111 175.058C369.8 174.68 369.66 174.222 369.691 173.684C369.716 173.244 369.862 172.861 370.128 172.537C370.398 172.213 370.754 171.966 371.195 171.798C371.639 171.63 372.136 171.562 372.684 171.593C373.456 171.637 374.052 171.841 374.473 172.205C374.897 172.569 375.187 173.034 375.341 173.6ZM377.809 179.896C377.559 179.881 377.349 179.779 377.18 179.59C377.011 179.4 376.933 179.18 376.948 178.929C376.962 178.679 377.064 178.469 377.254 178.3C377.443 178.131 377.663 178.053 377.914 178.068C378.165 178.082 378.374 178.184 378.544 178.374C378.713 178.563 378.79 178.783 378.776 179.034C378.766 179.2 378.715 179.35 378.623 179.484C378.533 179.618 378.417 179.723 378.273 179.8C378.133 179.874 377.979 179.905 377.809 179.896Z" fill="#44474F"/>
</g>
<defs>
<filter id="filter0_d_15417_126718" x="-0.561049" y="-0.561049" width="366.906" height="336.427" filterUnits="userSpaceOnUse" color-interpolation-filters="sRGB">
<feFlood flood-opacity="0" result="BackgroundImageFix"/>
<feColorMatrix in="SourceAlpha" type="matrix" values="0 0 0 0 0 0 0 0 0 0 0 0 0 0 0 0 0 0 127 0" result="hardAlpha"/>
<feOffset dx="-7" dy="7"/>
<feGaussianBlur stdDeviation="14.2805"/>
<feComposite in2="hardAlpha" operator="out"/>
<feColorMatrix type="matrix" values="0 0 0 0 0 0 0 0 0 0 0 0 0 0 0 0 0 0 0.06 0"/>
<feBlend mode="normal" in2="BackgroundImageFix" result="effect1_dropShadow_15417_126718"/>
<feBlend mode="normal" in="SourceGraphic" in2="effect1_dropShadow_15417_126718" result="shape"/>
</filter>
<filter id="filter1_d_15417_126718" x="162.542" y="0.640085" width="318.597" height="238.596" filterUnits="userSpaceOnUse" color-interpolation-filters="sRGB">
<feFlood flood-opacity="0" result="BackgroundImageFix"/>
<feColorMatrix in="SourceAlpha" type="matrix" values="0 0 0 0 0 0 0 0 0 0 0 0 0 0 0 0 0 0 127 0" result="hardAlpha"/>
<feOffset dx="-11.3111" dy="6.78664"/>
<feGaussianBlur stdDeviation="13.5733"/>
<feComposite in2="hardAlpha" operator="out"/>
<feColorMatrix type="matrix" values="0 0 0 0 0 0 0 0 0 0 0 0 0 0 0 0 0 0 0.12 0"/>
<feBlend mode="normal" in2="BackgroundImageFix" result="effect1_dropShadow_15417_126718"/>
<feBlend mode="normal" in="SourceGraphic" in2="effect1_dropShadow_15417_126718" result="shape"/>
</filter>
<clipPath id="clip0_15417_126718">
<rect width="20.0788" height="20.0788" fill="white" transform="translate(225.78 37.8887) rotate(3.27807)"/>
</clipPath>
</defs>
</svg>
